<?xml version="1.0" encoding="utf-8"?>
<!-- Generator: Adobe Illustrator 16.0.0, SVG Export Plug-In . SVG Version: 6.00 Build 0)  -->
<!DOCTYPE svg PUBLIC "-//W3C//DTD SVG 1.1//EN" "http://www.w3.org/Graphics/SVG/1.1/DTD/svg11.dtd">
<svg version="1.1" id="Layer_1" xmlns="http://www.w3.org/2000/svg" xmlns:xlink="http://www.w3.org/1999/xlink" x="0px" y="0px"
	 width="197px" height="280px" viewBox="0 0 197 280" enable-background="new 0 0 197 280" xml:space="preserve">
<path fill="#CCEBF9" d="M52.814,100.365c0,0-1.143,2.342-1.441,5.424c0,0,0.146,1.127,2.938,2.071
	c3.188,0.428,9.152,0.067,9.152,0.067v-1.374c0,0-5.379-0.032-6.678-0.978c-0.213-0.637,0-1.71,0.523-2.677L52.814,100.365z"/>
<path fill="#0E0E0E" d="M54.82,99.53c0,0,2.57-7.913,2.729-8.764c0,0,2.584-0.326,4.402,1.369c0,0-3.77,7.563-4.582,8.626
	C57.369,100.762,56.184,99.908,54.82,99.53"/>
<path fill="#2D2E2D" d="M52.229,100.884c0,0,0.486-1.8,1.641-2.345c0.336-0.158,4.182,2.021,4.705,2.812
	c0,0-0.924,2.358-1.303,2.452C57.271,103.803,52.473,101.511,52.229,100.884"/>
<path fill="#FEE981" d="M79.652,109.831c0,0-2.824,5.497-3.041,5.843c-0.215,0.346,3.365,0,3.365,0s-1.352,5.52-1.52,6.555
	c0,0,2.301-1.553,3.648-2.07c0,0,3.066,11.236,4.447,13.479c0,0,7.855-13.9,7.502-14.935c0,0,1.66,0.594,2.352,0.767
	c0.689,0.172-2.244-5.692-2.244-5.692s2.934,0.173,3.967,0l-2.889-4.98C95.24,108.796,82.563,109.335,79.652,109.831"/>
<path fill="#B24B26" d="M93.809,74.444c-1.637-2.739-3.986-3.677-7.512-3.185c-2.453,0.343-4.129,2.23-5.252,4.959
	C84.326,76.835,89.031,76.946,93.809,74.444"/>
<path fill="#C0BAB3" d="M93.809,74.444c-4.777,2.502-9.482,2.391-12.764,1.774c-3.951,9.588-1.072,29.584-1.072,29.584
	c12.668,1.842,18.117-1.843,18.117-1.843C97.244,88.218,96.482,78.923,93.809,74.444"/>
<path fill="#53868C" d="M79.973,104.574l-0.689,0.934c0,0,0.268,4.133,0.307,4.516c0,0,13.512,2.918,19.884-1.842
	c0,0-0.254-4.09-0.847-4.529l-0.59-0.438C98.037,103.214,90.797,106.186,79.973,104.574"/>
<path fill="#C96028" d="M79.191,100.36c0,0,7.908,1.55,18.904-1.315l-0.006-3.29c0,0-6.426,2.062-18.898,1.243V100.36z"/>
<path fill="#ECECEC" d="M103.217,170.854c-6.078-1.246-10.131-8.353-5.127-11.754c0,0-10.193-1.65-5.521-11.615
	c0,0-6.695-3.5-1.367-8.715c0,0-7.326-9.332,0.262-14.437c0,0,2.879-4.405,8.394,6.289c0,0,18.621-8.269,8.672,14.097
	c5.348-2.188,6.076,4.375,2.916,6.32c8.508,1.215,9.592,12.151,1.881,16.162c2.494,1.58,3.031,9.356-2.244,9.112
	c0,0,12.031,2.189,7.438,12.033c9.332-4.74,12.613,4.01,10.426,8.75c0,0,16.406,7.656-1.457,19.322
	c12.761,6.561,10.207,27.707-7.655,26.614c10.571,5.468,2.916,18.229-6.199,12.03c2.554,4.738-4.059,13.123-12.055,12.761
	c-7.996-0.364-11.066-9.479-11.719-13.126c-4.299,5.104-9.02-2.188-6.477-5.469c-6.936,2.553-11.564-9.479-3.963-13.488
	c-12.088,1.094-18.531-18.959,0.732-22.604c-6.623-6.198-2.719-19.081,10.094-16.284c-2.863-4.133,4.264-5.896,6.895-5.166
	c0,0-5.65-7.799,3.867-11.08C101.006,180.607,96.73,172.382,103.217,170.854"/>
<path fill="#F0D61F" d="M91.006,116.1c0,0-3.979,7.747-4.283,8.233c-0.303,0.485,4.74,0,4.74,0s-1.904,7.778-2.141,9.235
	c0,0,3.242-2.188,5.141-2.916c0,0,7.268,16.527,9.213,19.688c0,0,8.125-20.281,7.625-21.739c0,0,2.34,0.837,3.313,1.079
	c0.974,0.244-3.159-8.02-3.159-8.02s4.133,0.242,5.592,0l-4.071-7.02C112.973,114.641,95.107,115.4,91.006,116.1"/>
<path fill="#FEEB81" d="M94.602,115.85c0,0-2.664,5.187-2.869,5.512c-0.203,0.324,3.174,0,3.174,0s-1.275,5.206-1.434,6.182
	c0,0,2.17-1.464,3.441-1.951c0,0,4.865,11.063,6.166,13.178c0,0,5.439-13.576,5.105-14.553c0,0,1.565,0.561,2.217,0.723
	c0.65,0.164-2.115-5.368-2.115-5.368s2.766,0.163,3.742,0l-2.725-4.698C109.305,114.873,97.346,115.382,94.602,115.85"/>
<path fill="#CCEBF9" d="M107.137,73.855c-5.67,2.971-11.258,2.839-15.154,2.106c-4.691,11.386-1.271,35.124-1.271,35.124
	c15.039,2.188,21.511-2.188,21.511-2.188C111.217,90.209,110.313,79.174,107.137,73.855"/>
<path fill="#72A3AB" d="M90.711,109.629l-0.82,1.109c0,0,0.32,4.906,0.365,5.361c0,0,16.041,3.463,23.605-2.188
	c0,0-0.299-4.857-1.002-5.377l-0.701-0.521C112.158,108.014,103.563,111.543,90.711,109.629"/>
<path fill="#C96028" d="M89.783,104.625c0,0,9.389,1.842,22.445-1.562l-0.008-3.906c0,0-7.63,2.448-22.438,1.476L89.783,104.625
	L89.783,104.625z"/>
<path fill="#FFFFFF" d="M101.006,71.922c0,0,4.777-0.21,6.703,6.479c1.924,6.669,2.834,22.937,3.137,28.66l-1.99,0.563
	C108.855,107.625,108.52,72.428,101.006,71.922"/>
<path fill="#C96028" d="M107.137,73.855c-1.941-3.251-6.654-4.361-8.916-3.781c-2.85,0.73-4.904,2.648-6.238,5.888
	C95.879,76.694,101.467,76.826,107.137,73.855"/>
<path fill="#474C4D" d="M74.26,78.357c1.922-0.446,6.936,3.516,3.563,18.172c-2.744,11.924-20.404,2.994-20.404,2.994
	s3.127-3.338,2.082-5.285c0,0,8.689,8.976,14.311,2.4c0.969-1.133,1.912-7.102,0.686-11.112C73.143,81.093,72,78.884,74.26,78.357"
	/>
<path fill="#E9BE96" d="M57.418,99.243c0,0,0.035,0.022,0.102,0.056c0.453,0.227,2.336,0.908,3.488-2.77
	C61.008,96.529,56.398,96.299,57.418,99.243"/>
<path fill="#E9BE96" d="M62.262,93.561c-0.727-0.244-1.492-0.26-2.404,1.902c-0.91,2.161-0.256,2.311,0.83,1.715
	C61.775,96.582,63.223,93.885,62.262,93.561"/>
<path fill="#FEDCB8" d="M58.383,92.508c-2.102-0.631-4.604,0.446-0.617,2.503C61.752,97.066,63.195,93.951,58.383,92.508"/>
<path fill="#FEDCB8" d="M57.338,94.504c-1.236-0.371-2.441-0.566-2.824,0.445c-0.285,0.757,0.355,1.229,2.178,2.17
	c1.943,1.002,3.18,1.028,3.701,0.207C60.846,96.613,60.023,95.309,57.338,94.504"/>
<path fill="#FEDCB8" d="M56.578,96.785c-1.719-0.516-3.762,0.364-0.504,2.045c1.605,0.828,2.801,0.588,3.066,0.048
	C59.629,97.888,58.574,97.383,56.578,96.785"/>
<path fill="#735D2B" d="M98.834,63.976c0,0,0.705,2.278,0,2.825c-0.707,0.547-2.529-0.977-2.895-1.582c0,0,0.457,1.725-0.365,1.699
	c-0.82-0.025-2.186-2.942-2.186-2.942S95.166,60.877,98.834,63.976"/>
<path fill="#FEDCB8" d="M76.252,40.551c0,0-4.738,12.578-6.197,16.225c-1.459,3.646-2.369,10.391,3.1,12.031
	c5.469,1.64,15.254,2.188,18.594-1.459c3.338-3.646,4.01-6.744,4.01-6.744s5.47-12.943,1.822-18.047
	C93.934,37.453,78.986,35.083,76.252,40.551"/>
<path fill="#CB8F5E" d="M77.893,47.235c0,0-0.85,1.702-1.457,1.702c-0.609,0-3.039,0.606-1.217,1.943
	c1.824,1.337,3.525,0.607,3.525,0.607s-3.203-0.594-3.281-1.458c-0.078-0.864,1.215-0.044,1.822-0.569
	C77.893,48.938,77.893,47.235,77.893,47.235"/>
<path fill="#1B130E" d="M85.395,47.519c-0.223,0.739-0.732,1.238-1.141,1.116c-0.408-0.123-0.559-0.821-0.336-1.561
	c0.223-0.74,0.734-1.239,1.141-1.116C85.467,46.08,85.617,46.779,85.395,47.519"/>
<path fill="#1B130E" d="M76.92,46.91c-0.223,0.739-0.732,1.238-1.141,1.117c-0.408-0.123-0.559-0.822-0.336-1.561
	c0.223-0.739,0.734-1.238,1.141-1.117C76.992,45.473,77.143,46.172,76.92,46.91"/>
<path fill="#735D2B" d="M78.744,40.278c0,0,2.34,3.19,3.342,3.099s0-1.914,0-1.914s2.826,2.461,4.83,2.826
	c2.006,0.364,0-2.006,0-2.006s1.732,0.676,2.461,0.02C90.105,41.645,82.602,38.182,78.744,40.278"/>
<path fill="#763528" d="M72.242,55.316c0,0-0.625,9.297,4.375,10.756c0.063,0.018,0.121,0.027,0.184,0.043
	c1.469-6.273,8.619-7.446,11.744-7.657c0.537-0.897,0.832-1.501,0.832-1.501C82.268,52.218,72.242,55.316,72.242,55.316"/>
<path fill="#DA9089" d="M76.801,66.115c5.525,1.447,9.971-4.705,11.744-7.657C85.42,58.669,78.27,59.842,76.801,66.115"/>
<path fill="#CCEBF9" d="M72.469,50.533c0,0,1.311-3.217,2.176-5.55c-0.389-0.216-0.754-0.429-1.098-0.635
	C73.002,46.197,72.629,48.254,72.469,50.533"/>
<path fill="#FFFFFF" d="M107.807,41.056c-0.479-1.186-1.143-2.335-2.022-3.421c-7.725-9.531-27.26-10.206-32.236,6.714
	c0.344,0.206,0.709,0.419,1.096,0.636c0.332-0.895,0.598-1.659,0.699-2.063c0,0,7.473-4.922,18.592,1.275
	c0,0,1.15,1.396,1.434,4.474C99.508,47.656,103.764,45.353,107.807,41.056"/>
<path fill="#CCEBF9" d="M95.369,48.671c0.27,2.921-0.238,7.358-3.258,13.573c0,0,6.381,3.463,8.387,2.916
	c1.797-0.49,11.52-13.748,7.309-24.104C103.764,45.353,99.508,47.656,95.369,48.671"/>
<path fill="#76A4AC" d="M101.25,52.145c-0.092-0.024-0.184-0.041-0.277-0.051c1.084,0.517,1.488,2.568,0.896,4.773
	c-0.594,2.205-1.973,3.777-3.17,3.682c0.084,0.037,0.174,0.068,0.264,0.094c1.52,0.408,3.262-1.164,3.893-3.51
	C103.486,54.786,102.768,52.553,101.25,52.145"/>
<path fill="#A0CCD0" d="M101.869,56.867c0.592-2.205,0.188-4.257-0.896-4.773c-1.447-0.164-3.021,1.355-3.613,3.562
	c-0.594,2.205,0.006,4.309,1.34,4.895C99.896,60.645,101.275,59.072,101.869,56.867"/>
<path fill="#493A1B" d="M83.291,43.658c0,0,2.988,0.324,4.689,2.836C87.98,46.494,85.773,41.835,83.291,43.658"/>
<path fill="#493A1B" d="M78.967,43.6c0,0-1.156-0.612-3.625,1.629C75.342,45.229,77.135,41.719,78.967,43.6"/>
<path fill="#382C1A" d="M79.17,170.705c0,0-1.824,5.469-3.281,7.84c-1.459,2.369-0.547,6.196,1.641,6.379
	c2.188,0.184,9.48-10.331,10.207-11.666c0.727-1.334-3.455-3.65-3.455-3.65S80.445,169.977,79.17,170.705"/>
<path fill="#382C1A" d="M86.553,169.607c0,0,0.697,4.197,0.879,7.66c0.184,3.463-0.443,8.567,2.201,9.479
	c2.643,0.912,3.699-0.546,3.699-0.546s3.264-12.259,2.936-13.968s-3.699-4.08-3.699-4.08L86.553,169.607z"/>
<path fill="#474C4D" d="M62.764,114.926c0,0,2.916,36.639,15.129,56.51c0,0,5.287,3.099,8.66-2.918c0,0-4.041-8.385-7.809-22.422
	c-3.768-14.035-5.59-26.979-5.863-29.165L62.764,114.926z"/>
<path fill="#474C4D" d="M64.193,116.738c0,0,3.691,6.754,5.871,10.218c2.178,3.464,11.189,39.558,15.434,44.661
	c0,0,4.9,1.641,10.77-2.553c0,0-10.678-23.248-12.977-49.631C83.291,119.434,69.633,114.176,64.193,116.738"/>
<path fill="#242728" d="M64.895,126.895c0,0,3.072,3.828,4.486,7.811c1.416,3.98,9.828,32.877,12.838,39.08
	c0,0-6.701-16.627-9.668-26.183C69.584,138.048,69.857,136.251,64.895,126.895"/>
<path fill="#ECECEC" d="M137.145,196.854c0,0-3.508-2.78,0-4.399c0,0-4.315-4.789,0-6.845c4.314-2.057,5.935,3.607,5.935,3.607
	s1.078-2.428,3.774-0.809c2.697,1.617,1.617,5.24,0,6.396c0,0,3.285,2.06,1.644,4.845s-4.879,0-4.879,0
	C142.537,202.973,135.256,201.252,137.145,196.854"/>
<path fill="#474C4D" d="M90.01,76.645c0,0,3.652,0.779,5.201,1.758c0,0-8.66,25.1-9.297,41.536c0,0-8.246-1.792-15.324-2.75
	c-0.051-0.358-0.131-0.562-0.525-0.61c-3.176-0.393-6.668-0.123-8.213,0.153c0,0,6.32-30.364,12.701-38.329
	c0,0,1.699-0.24,3.477-0.771C79.807,77.101,90.01,76.645,90.01,76.645"/>
<path fill="#676C6B" d="M79.098,77.25c0,0-3.898,3.348-6.881,3.193c0,0,1.119,3.22,3.488,5.225c0,0-4.994,2.279-5.641,2.734v20.488
	c0,0,2.996-9.977,3.242-12.186C73.551,94.494,78.408,79.473,79.098,77.25"/>
<path fill="#FEDCB8" d="M88.648,68.533c0,0-1.732,8.658-2.006,9.388c-5.412,5.468-6.137,2.556-5.846,0
	c-0.443-0.548,1.471-6.836,1.471-8.933C85.094,68.533,88.648,68.533,88.648,68.533"/>
<path fill="#242728" d="M70.057,109.514c0.09-0.155-0.787,4.127-0.855,5.732C69.201,115.246,69.328,110.795,70.057,109.514"/>
<path fill="#242728" d="M69.063,110.068c-0.045,0.273-0.244,0.469-0.447,0.436c-0.201-0.033-0.33-0.28-0.285-0.553
	c0.043-0.272,0.242-0.467,0.445-0.436C68.979,109.549,69.105,109.797,69.063,110.068"/>
<path fill="#242728" d="M68.688,113.104c-0.045,0.272-0.244,0.467-0.445,0.436c-0.203-0.033-0.332-0.281-0.287-0.553
	c0.043-0.273,0.242-0.468,0.445-0.436C68.604,112.584,68.73,112.831,68.688,113.104"/>
<path fill="#676C6B" d="M90.814,77.25c0,0-0.344,5.229,1.754,7.871c0,0-7.227,2.504-10.287,3.008c0,0,3.268,2.734,6.367,4.648
	c0,0-16.762,8.914-18.584,16.113c0,0,1.887-8.84,3.039-11.758C74.256,94.217,88.742,78.916,90.814,77.25"/>
<path fill="#E5E5E5" d="M84.123,77.979c-0.279,0.203-0.633,0.506-1.002,0.84l-0.289-0.897l-0.896,1.854
	c-0.197,0.204-0.291,0.507-0.443,0.683l-0.262-2.309l-0.4,0.432c-0.031-0.166-0.066-0.309-0.1-0.408
	c-1.385,0.117-1.986,0.23-1.986,0.23c-1.701,3.762-5.641,18.73-5.641,18.73c2.859-5.467,16.906-19.212,16.906-19.212
	C87.633,77.895,85.688,77.924,84.123,77.979"/>
<path fill="#FFFFFF" d="M88.193,74.64c0,0-4.631,2.909-5.361,3.281c0,0,0.709,3.007,0.984,3.737c0,0,6.746-3.737,7.385-4.74
	L88.193,74.64z"/>
<path fill="#FFFFFF" d="M81.045,75.522c0,0-0.248,1.34,0.186,2.626c0,0-1.15,2.598-1.789,3.053c0,0-0.82-2.719-0.91-3.721
	L81.045,75.522z"/>
<path fill="#161616" d="M83.527,81.023c0,0-3.545-0.482-3.646-0.325c-0.101,0.157,0.49,3.481,0.49,3.481s1.238,0.792,1.396,0.504
	C81.926,84.396,83.527,81.023,83.527,81.023"/>
<path fill="#161616" d="M80.369,84.127c0,0-2.17,5.578-10.285,8.924c-4.697,1.937-12.607,10.117-10.967,17.408
	c0,0,3.736,4.375,4.832,4.467c0,0,3.279-3.373,4.01-4.467c0,0-3.242-9.728,4.51-14.492c9.088-5.586,9.25-11.22,9.25-11.22
	L80.369,84.127z"/>
<path fill="#A0A2A3" d="M82.832,77.921c0,0-1.143,2.125-1.342,2.507c0,0-0.17-1.816-0.26-2.279c0,0,0.09,2.215,0.193,2.654
	C81.424,80.803,82.139,79.563,82.832,77.921"/>
<path fill="#242728" d="M65.021,116.17c-0.172,0.021,3.848-0.188,4.506-0.085l0.342,0.404c0,0,6.563,1.116,9.414,2.087
	c0,0-5.426-1.527-9.506-1.645l-0.404-0.521C69.373,116.41,66.098,116.029,65.021,116.17"/>
<path fill="#474C4D" d="M91.191,76.929c0,0,19.295,2.272,20.219,15.966c1.24,18.385-28.578,14.642-28.578,14.642
	s3.174-5.563,1.48-7.507c0,0,20.59,5.979,21.775-5.73c0.729-7.203-9.412-10.396-12.16-10.91
	C91.18,82.877,90.795,78.361,91.191,76.929"/>
<path fill="#CCEBF9" d="M80.797,110.01c-0.566,2.537,0,3.531,0,3.531c0.771,0.521,12.287-1.771,19.582-4.516
	c1.223-0.46,2.633-2.238,3.488-2.707c0,0,1.717,0.23,1.922,1.531c0.072,0.463,0.004,0.946-1.061,1.923
	c0,0-18.388,5.673-26.529,6.356c-1.291,0.107-2.469-0.605-3.191-0.883c-0.473-0.877,0.043-6.152,0.043-6.152
	S79.32,109.305,80.797,110.01"/>
<path fill="#0E0E0E" d="M79.17,94.804c0,0-2.186,12.132-2.521,13.21c-0.335,1.078,2.637,1.564,3.582,1.262
	c0.943-0.305,4.264-11.976,4.426-12.972C84.656,96.304,82.025,94.612,79.17,94.804"/>
<path fill="#2D2E2D" d="M75.473,106.783c0,0,5.701,1.215,6.432,1.944c0,0-0.391,2.298-1.107,2.972
	c-0.716,0.674-5.729-1.514-6.139-1.878C74.249,109.457,74.66,108.021,75.473,106.783"/>
<path fill="#FEDCB8" d="M85.865,100.573c0,0-0.506-1.335-1.465-3.216c-0.492,1.536-0.932,2.379-0.932,2.379s-4.986-2.686-5.621-1.73
	c-0.635,0.956-0.25,2.676-0.25,2.676s-1.506,0.139-1.498,1.335c0.008,1.196,0.141,1.784,0.141,1.784s-1.195,0.938,0.045,1.744
	c1.24,0.806,5.395,2.482,6.547,1.991C83.982,107.044,86,103.283,85.865,100.573"/>
<path fill="#7BC8E9" stroke="#000000" stroke-miterlimit="10" d="M251,314"/>
<g>
	<path fill="#ECECEC" d="M145.049,240.492c-2.652-1.009-3.594-1.521-3.594-1.96c0-0.484,0.801-0.877,1.949-0.954
		c1.772-0.121,3.319,0.166,4.913,0.854l2.087,0.902l2.534-9.472l-1.7-0.611c-2.428-0.871-5.146-1.162-8.054-0.859
		c-5.363,0.562-9.31,3.487-10.676,7.618v-6.072l-9.286,0.942c-0.01-0.015-0.018-0.031-0.025-0.047
		c0.627-0.782,1.049-1.793,1.049-2.984c0-1.578-0.597-2.893-1.727-3.818l5.485-0.63v-13.839l2.249,0.16v-7.091l-10.266-1.175
		c-0.587-0.269-1.209-0.452-1.87-0.529c-2.468-0.293-4.448,1.066-5.498,3.414c-1.343-2.742-3.429-4.47-6.028-4.776
		c-3.584-0.435-6.438,1.89-7.967,5.964c-1.551-4.521-4.667-7.456-8.785-7.942c-6.994-0.836-11.968,5.809-11.968,15.509
		c0,0.102,0.014,0.195,0.015,0.296c-0.439-0.69-0.961-1.315-1.578-1.848c1.484-1.54,2.296-3.615,2.296-6.012
		c0-3.034-1.312-5.77-3.532-7.45c-2.313-1.917-4.979-2.558-8.528-2.971c-3.151-0.364-6.844-0.487-8.775-0.28l-1.754,0.188v36.146
		l1.875,0.086c0.412,0.02,0.886,0.03,1.421,0.03c1.79,0,3.847-0.129,5.946-0.374c5.442-0.636,9.002-2.043,11.216-4.44
		c0.807-0.888,1.442-1.877,1.919-2.939l4.414,8.25v6.008h1.339c-0.446,1.054-0.708,2.274-0.708,3.635
		c0,1.535,0.328,2.877,0.972,4.017l-0.125-0.124l-1.074,7.844l0.618,0.679c0.922,1.013,2.46,1.767,3.918,1.92
		c0.222,0.022,0.437,0.033,0.645,0.033l0,0c0.843,0,1.624-0.189,2.328-0.534l-0.103,0.541l6.581,0.666l0.849-4.839l0.231,0.011
		l0.975,5.039l7.372,0.749l0,0l9.655,0.982v0.001l16.69,1.697v-1.213c1.611,1.003,4.353,2.058,7.376,2.376
		c0.698,0.073,1.386,0.11,2.046,0.11h0.003c3.449,0,6.345-1.016,8.37-2.938c1.916-1.815,2.97-4.4,2.97-7.276
		C153.734,246.147,150.888,242.655,145.049,240.492z M122.1,209.144v3.669c-0.201-0.482-0.433-0.942-0.724-1.362l0.341-2.334
		L122.1,209.144z M89.276,219.649c-1.217,0-2.477-2.5-2.477-6.681c0-4.227,1.275-6.842,2.457-6.842l0.092,0.002
		c1.2,0.094,2.495,2.676,2.495,6.686C91.842,217.127,90.571,219.553,89.276,219.649z M89.233,232.895
		c0.12,0.41,0.26,0.806,0.438,1.175c-0.143-0.004-0.291,0.004-0.438,0.01V232.895z M95.447,230.316c0-0.885,0.269-1.801,0.716-1.801
		c0.427,0,0.714,0.896,0.714,1.734c0,0.885-0.261,1.799-0.698,1.799C95.643,232.049,95.447,231.013,95.447,230.316z
		 M106.145,207.435c0.414,0.246,1.314,2.031,1.314,5.391c0,3.774-0.982,5.396-1.284,5.534c-0.345-0.152-1.292-1.716-1.292-5.404
		C104.883,209.346,105.771,207.699,106.145,207.435z M107.594,225.972c0.039-0.011,0.077-0.023,0.115-0.037v5.186
		c0,0.321-0.025,0.55-0.055,0.709c-0.033-0.165-0.061-0.397-0.061-0.709V225.972z M115.737,216.116
		c0.846,0.541,0.846,0.684,0.846,1.024c0,0.1-0.007,0.181-0.017,0.244c-0.341-0.046-0.787-0.269-1.154-0.583l-1.287-1.1
		c0.03-0.269,0.054-0.545,0.076-0.822C114.654,215.339,115.161,215.757,115.737,216.116z M120.646,223.07
		c0.607-0.65,1.095-1.451,1.454-2.377v3.059C121.668,223.469,121.191,223.235,120.646,223.07z M101.088,224.417
		c-0.976-0.892-2.207-1.488-3.637-1.704c0.418-0.746,0.781-1.558,1.087-2.433C99.163,222,100.027,223.401,101.088,224.417z
		 M92.341,243.348l0.19,0.145l0.913-5.643l0.551-0.057l-1.176,6.265C92.667,243.816,92.524,243.569,92.341,243.348z
		 M102.015,235.029c0.013-0.018,0.022-0.039,0.034-0.059c0.557,1.021,1.303,1.689,2.037,2.12v7.999L102.015,235.029z
		 M69.828,218.841c0,0.682,0,2.49-3.148,2.737c-0.087,0.007-0.172,0.013-0.256,0.021v-4.942l0.278-0.004
		C69.828,216.652,69.828,218.131,69.828,218.841z M66.424,207.687v-3.503c0.155,0.009,0.32,0.02,0.495,0.033
		c2.32,0.183,2.32,1.224,2.32,1.846c0,0.445,0,1.628-2.532,1.628L66.424,207.687z M78.7,222.779c0.216-0.595,0.386-1.207,0.5-1.841
		c0.244,0.645,0.508,1.268,0.816,1.841H78.7z M111.383,249.809v-12.883c0.335-0.219,0.676-0.49,0.995-0.827v1.687h3.901v12.333
		L111.383,249.809z M132.883,251.284l-8.44-0.541v-1.89l7.576,0.119v-8.722l-7.576,0.162v-1.163l7.565-0.482
		c-0.008,0.179-0.025,0.355-0.025,0.537c0,4.397,2.681,7.678,7.949,9.743c3.225,1.302,3.225,1.928,3.225,2.303
		c0,0.242,0,0.885-1.701,0.885c-0.138,0-0.281-0.005-0.43-0.015c-2.552-0.171-4.675-1.4-5.263-1.774l-2.366-1.496L132.883,251.284z"
		/>
	<g>
		<g>
			<path fill="#C96028" d="M57.98,196.787c1.775-0.191,5.239-0.081,8.339,0.278c3.611,0.419,5.731,1.065,7.501,2.532
				c1.652,1.252,2.822,3.327,2.822,5.938c0,2.564-1.205,4.937-3.9,6.121v0.087c2.73,0.933,4.678,3.399,4.678,7.098
				c0,2.593-0.949,4.713-2.4,6.308c-1.737,1.881-4.75,3.198-9.99,3.81c-3.118,0.364-5.539,0.403-7.05,0.334V196.787z M64.46,209.607
				l2.018,0.048c3.111,0.074,4.725-1.359,4.725-3.59c0-2.275-1.461-3.595-4.13-3.805c-1.313-0.102-2.083-0.07-2.612-0.017V209.607z
				 M64.46,223.632c0.611,0.045,1.337-0.012,2.375-0.093c2.679-0.21,4.959-1.544,4.959-4.696c0-3.021-2.28-4.19-5.235-4.15
				l-2.098,0.027V223.632z"/>
			<path fill="#C96028" d="M97.751,212.641c0,7.87-3.262,13.024-8.446,13.637c-5.795,0.686-9.469-5.175-9.469-13.179
				c0-8.419,4.038-14.236,9.772-13.559C95.014,200.178,97.751,206.021,97.751,212.641z M84.834,212.971
				c0,5.279,1.82,8.856,4.69,8.636c2.761-0.214,4.282-3.95,4.282-8.789c0-4.471-1.495-8.427-4.31-8.644
				C86.595,203.95,84.834,207.733,84.834,212.971z"/>
			<path fill="#C96028" d="M112.332,212.676c0,6.775-2.408,11.167-6.191,11.613c-4.17,0.492-6.78-4.492-6.78-11.224
				c0-7.08,2.87-12.034,7.001-11.547C110.311,201.984,112.332,206.975,112.332,212.676z M102.919,212.958
				c0,4.468,1.308,7.516,3.381,7.355c2.011-0.154,3.123-3.342,3.123-7.486c0-3.828-1.094-7.203-3.142-7.36
				C104.184,205.306,102.919,208.524,102.919,212.958z"/>
			<path fill="#C96028" d="M114.137,218.298c0.686,0.585,1.716,1.134,2.754,1.056c1.09-0.083,1.657-0.954,1.657-2.21
				c0-1.198-0.488-1.871-1.752-2.679c-1.808-1.127-3.03-2.991-3.03-5.948c0-3.468,1.601-5.935,4.123-5.637
				c1.155,0.137,1.987,0.685,2.572,1.252l-0.496,3.399c-0.396-0.392-1.115-0.982-2.123-1.058c-1.03-0.079-1.539,0.762-1.539,1.786
				c0,1.261,0.604,1.838,1.954,2.826c1.78,1.272,2.593,2.999,2.593,5.637c0,3.137-1.269,5.95-4.102,6.284
				c-1.235,0.146-2.493-0.306-3.135-0.87L114.137,218.298z"/>
			<path fill="#C96028" d="M124.064,207.317l-2.473-0.177v-3.521l6.697,0.767v3.229l-2.248-0.159v14.195l-1.977,0.227V207.317z"/>
		</g>
		<g>
			<path fill="#F0D61F" d="M85.702,249.441c0.566,0.553,1.449,1.136,2.381,1.198c1.026,0.069,1.58-0.647,1.58-1.786
				c0-1.089-0.479-1.723-1.667-2.488c-1.589-0.998-2.593-2.53-2.593-4.943c0-2.829,1.325-5.137,3.618-5.376
				c1.141-0.12,2,0.211,2.625,0.627l-0.532,3.289c-0.417-0.315-1.151-0.766-2.138-0.699c-0.965,0.065-1.426,0.854-1.426,1.739
				c0,1.085,0.547,1.551,1.828,2.365c1.814,1.125,2.695,2.772,2.695,5.303c0,3.008-1.36,5.423-4.121,5.134
				c-1.098-0.115-2.152-0.721-2.67-1.288L85.702,249.441z"/>
			<path fill="#F0D61F" d="M96.41,249.577l-0.833,4.748l-2.636-0.268l3.468-18.479l3.635-0.368l4.117,19.988l-3.26-0.331
				l-0.988-5.117L96.41,249.577z M99.501,246.438l-0.779-4.106c-0.22-1.137-0.439-2.552-0.62-3.681l-0.036,0.002
				c-0.182,1.148-0.362,2.604-0.559,3.713l-0.711,4.031L99.501,246.438z"/>
			<path fill="#F0D61F" d="M106.049,234.6l3.369-0.341v17.396l6.471,0.409v4.327l-9.84-1.001V234.6z"/>
			<path fill="#F0D61F" d="M130.054,246.979l-7.575-0.118v5.728l8.526,0.546v4.795l-12.761-1.298v-23.269l12.301-1.248v4.78
				l-8.066,0.514v5.013l7.575-0.162V246.979z"/>
			<path fill="#F0D61F" d="M134.711,252.109c1.448,0.915,3.737,1.91,6.182,2.074c2.736,0.184,4.228-0.957,4.228-2.83
				c0-1.792-1.291-2.848-4.455-4.124c-4.148-1.627-6.719-4.076-6.719-7.922c0-4.512,3.401-8.325,9.442-8.958
				c3.087-0.322,5.448,0.13,7.185,0.754l-1.479,5.528c-1.15-0.497-3.156-1.19-5.823-1.012c-2.57,0.173-3.78,1.482-3.78,2.915
				c0,1.758,1.44,2.496,4.859,3.796c4.962,1.838,7.42,4.591,7.42,8.833c0,5.039-3.785,8.929-11.221,8.149
				c-2.874-0.302-5.593-1.376-6.913-2.33L134.711,252.109z"/>
		</g>
		<g>
			<path fill="#474C4D" d="M84.772,235.824v-4.536l-3.501-6.542h2.861l1.133,2.662c0.345,0.807,0.576,1.397,0.854,2.12h0.034
				c0.246-0.689,0.509-1.331,0.838-2.12l1.118-2.662h2.811l-3.649,6.46v4.618H84.772z"/>
			<path fill="#474C4D" d="M101.488,230.17c0,3.632-2.202,5.836-5.44,5.836c-3.288,0-5.211-2.482-5.211-5.639
				c0-3.321,2.121-5.802,5.392-5.802C99.631,224.565,101.488,227.113,101.488,230.17z M93.483,230.318
				c0,2.169,1.019,3.697,2.697,3.697c1.693,0,2.663-1.61,2.663-3.764c0-1.989-0.954-3.698-2.679-3.698
				C94.47,226.554,93.483,228.165,93.483,230.318z"/>
			<path fill="#474C4D" d="M105.63,224.746v6.377c0,1.908,0.724,2.877,2.005,2.877c1.314,0,2.039-0.922,2.039-2.877v-6.377h2.498
				v6.213c0,3.419-1.726,5.047-4.618,5.047c-2.794,0-4.438-1.547-4.438-5.08v-6.18H105.63z"/>
			<path fill="#474C4D" d="M114.342,224.895c0.808-0.132,2.007-0.231,3.34-0.231c1.642,0,2.792,0.248,3.583,0.872
				c0.657,0.526,1.017,1.299,1.017,2.316c0,1.415-1.002,2.384-1.956,2.729v0.05c0.772,0.312,1.202,1.051,1.481,2.071
				c0.345,1.248,0.689,2.694,0.902,3.122h-2.563c-0.182-0.313-0.445-1.217-0.772-2.581c-0.297-1.381-0.772-1.758-1.793-1.774h-0.757
				v4.355h-2.482V224.895z M116.824,229.661h0.987c1.251,0,1.99-0.626,1.99-1.595c0-1.021-0.691-1.529-1.842-1.546
				c-0.608,0-0.954,0.05-1.136,0.082V229.661z"/>
		</g>
	</g>
</g>
</svg>
