<?xml version="1.0" encoding="utf-8"?>
<!-- Generator: Adobe Illustrator 16.0.0, SVG Export Plug-In . SVG Version: 6.00 Build 0)  -->
<!DOCTYPE svg PUBLIC "-//W3C//DTD SVG 1.1//EN" "http://www.w3.org/Graphics/SVG/1.1/DTD/svg11.dtd">
<svg version="1.1" id="Layer_2" xmlns="http://www.w3.org/2000/svg" xmlns:xlink="http://www.w3.org/1999/xlink" x="0px" y="0px"
	 width="607px" height="48px" viewBox="0 0 607 48" enable-background="new 0 0 607 48" xml:space="preserve">
<rect fill="#C9CAC9" width="607" height="48"/>
<g>
	<circle fill="#EF453D" cx="583.5" cy="24" r="10"/>
	<circle fill="#8CC341" cx="515.5" cy="24" r="10"/>
	<circle fill="#FEC54D" cx="549.5" cy="24" r="10"/>
</g>
<g opacity="0.5">
	<g>
		<path fill="#F2F3F4" d="M236.002,47.975l-5.001-0.035C231.001,47.939,233.432,48.741,236.002,47.975z"/>
		<path fill="#F2F3F4" d="M434.834,44.072l-6.444-23.629c0,0-0.858-6.443-12.458-6.443c-6.044,0-14.184,0-20.598,0
			c-5.895,0-10.333,0-10.333,0h-94.716c0,0-13.164,0-24.285,0c-2.354,0-4.619,0-6.646,0c-11.599,0-12.458,6.443-12.458,6.443
			l-6.444,23.629c-1.161,2.322-2.833,3.421-4.451,3.902l29.999,0.213v0.124h129.333v-0.024l43.95-0.313
			C437.667,47.493,435.995,46.395,434.834,44.072z"/>
		<path fill="#F2F3F4" d="M444.286,47.939l-5.001,0.035C441.855,48.741,444.286,47.939,444.286,47.939z"/>
	</g>
	<circle fill="#BCBEC0" cx="413" cy="31.156" r="10"/>
</g>
<g>
	<g>
		<path fill="#F2F3F4" d="M50.001,47.975L45,47.939C45,47.939,47.431,48.741,50.001,47.975z"/>
		<path fill="#F2F3F4" d="M248.833,44.072l-6.444-23.629c0,0-0.858-6.443-12.458-6.443c-6.044,0-14.184,0-20.598,0
			C203.438,14,199,14,199,14h-94.716c0,0-13.164,0-24.285,0c-2.354,0-4.619,0-6.646,0c-11.599,0-12.458,6.443-12.458,6.443
			l-6.444,23.629c-1.161,2.322-2.833,3.421-4.451,3.902L80,48.188v0.124h129.333v-0.024l43.95-0.313
			C251.666,47.493,249.994,46.395,248.833,44.072z"/>
		<path fill="#F2F3F4" d="M258.285,47.939l-5.001,0.035C255.854,48.741,258.285,47.939,258.285,47.939z"/>
	</g>
	<circle fill="#BCBEC0" cx="225.001" cy="31.156" r="10"/>
</g>
<path fill="#27AAE1" d="M29.582,8.753c-8.421,0-15.248,6.827-15.248,15.248c0,8.42,6.827,15.247,15.248,15.247
	c8.421,0,15.248-6.827,15.248-15.247C44.83,15.58,38.003,8.753,29.582,8.753z M31.917,32.106l-10.44-8.93l10.44-8.929V32.106z"/>
</svg>
