<?xml version="1.0" encoding="utf-8"?>
<!-- Generator: Adobe Illustrator 16.0.0, SVG Export Plug-In . SVG Version: 6.00 Build 0)  -->
<!DOCTYPE svg PUBLIC "-//W3C//DTD SVG 1.1//EN" "http://www.w3.org/Graphics/SVG/1.1/DTD/svg11.dtd">
<svg version="1.1" id="Layer_1" xmlns="http://www.w3.org/2000/svg" xmlns:xlink="http://www.w3.org/1999/xlink" x="0px" y="0px"
	 width="239px" height="199px" viewBox="90.5 -233.35 239 199" enable-background="new 90.5 -233.35 239 199" xml:space="preserve">
<path fill="#355077" d="M301.479-62.909l1.602-20.4l21,2.1c-20.301-25.1-49-42.3-80.701-48.5c-9.699-1.9-19.5-2.699-29.199-2.4v29.9
	c7.9-0.199,15.799,0.5,23.6,2C262.581-95.309,285.081-82.11,301.479-62.909L301.479-62.909z M126.58-62.909l-1.5-20.4l-21,2.1
	c20.3-25.1,49-42.3,80.7-48.5c9.7-1.9,19.5-2.699,29.199-2.4v29.9c-7.898-0.199-15.799,0.5-23.6,2
	C165.58-95.309,142.98-82.11,126.58-62.909L126.58-62.909z"/>
<path fill="#233A54" d="M117.08-115.809l19,24.9l16.5,4.1l-0.5-14.5l-15.899-14.2"/>
<path fill="#233A54" d="M311.181-115.809l-19.201,24.9l-16.5,4.1l-1.799-17.2l18.199-11.5"/>
<path fill="#7DAD10" d="M296.88-127.709l-6.699,9.2l4.199,10.601l-8.6,7.399l1.6,11.3l-10.199,5.1l-1.201,11.301l-11,2.5
	l-3.799,10.699l-11.5-0.199l-6.201,9.4l-11-2.9l-8.398,7.699l-10-5.5l-9.9,5.5l-8.5-7.699l-11,2.9l-6.301-9.4l-11.3,0.199
	l-3.899-10.699l-11.101-2.5l-1.1-11.301l-10.2-5.1l1.6-11.3l-8.699-7.399l4.3-10.601l-6.601-9.2l6.601-9.3l-4.3-10.601l8.699-7.299
	l-1.6-11.301l10.2-5.1l1.1-11.301l11.101-2.5l3.899-10.699l11.3,0.199l6.301-9.5l11,2.9l8.5-7.699l9.9,5.5l10-5.5l8.398,7.699
	l11-2.9l6.201,9.5l11.5-0.199l3.799,10.699l11,2.5l1.201,11.301l10.199,5.1l-1.6,11.301l8.6,7.299l-4.199,10.601"/>
<path fill="#9CC41D" d="M296.88-129.809l-6.699,9.199l4.199,10.701l-8.6,7.299l1.6,11.4l-10.199,5l-1.201,11.4l-11,2.5
	l-3.799,10.699l-11.5-0.199l-6.201,9.4l-11-2.9l-8.398,7.699l-10-5.5l-9.9,5.5l-8.5-7.699l-11,2.9l-6.301-9.4l-11.3,0.199
	l-3.899-10.699l-11.101-2.5l-1.1-11.4l-10.2-5l1.6-11.4l-8.699-7.299l4.3-10.701l-6.601-9.199l6.601-9.301l-4.3-10.5l8.699-7.399
	l-1.6-11.2l10.2-5.199l1.1-11.201l11.101-2.5l3.899-10.699l11.3,0.199l6.301-9.5l11,2.9l8.5-7.699l9.9,5.5l10-5.5l8.398,7.699
	l11-2.9l6.201,9.5l11.5-0.199l3.799,10.699l11,2.5l1.201,11.201l10.199,5.199l-1.6,11.2l8.6,7.399l-4.199,10.5"/>
<path fill="#333333" d="M214.181-173.709c24.799,0,44.9,20.1,44.9,44.9c0,24.699-20.102,44.9-44.9,44.9
	c-24.801,0-44.9-20.101-44.9-44.9C169.181-153.509,189.28-173.709,214.181-173.709 M214.181-193.11
	c-35.5,0-64.301,28.801-64.301,64.301s28.801,64.3,64.301,64.3s64.299-28.8,64.299-64.3S249.681-193.11,214.181-193.11"/>
<path opacity="0.5" fill="#333333" enable-background="new    " d="M214.181-172.709c24.799,0,44.9,20.1,44.9,44.9
	c0,24.699-20.102,44.9-44.9,44.9c-24.801,0-44.9-20.101-44.9-44.9C169.181-152.509,189.28-172.709,214.181-172.709 M214.181-192.11
	c-35.5,0-64.301,28.801-64.301,64.301s28.801,64.3,64.301,64.3s64.299-28.8,64.299-64.3S249.681-192.11,214.181-192.11"/>
<path opacity="0.3" enable-background="new    " d="M140.78-91.209l1.8-13.1l-14.7-7.1c-0.8-0.5-1-1.4-0.6-2.201l1.3-2.399
	c24.7-16.7,54.7-27.7,85.501-27.7c30.699,0,60.6,10.9,85.199,27.5l1.5,2.7c0.4,0.8,0.1,1.7-0.6,2.2l-14.701,7.199l1.801,12.801
	l-1.699,0.8c-20.4-14.399-45.5-22.399-71.4-22.399c-25.801,0-51.101,8-71.601,22.399L140.78-91.209L140.78-91.209z"/>
<path fill="#5275A3" d="M136.08-90.909l-19.1-24.9c27.6-23.301,60.899-37.9,96.999-37.9c36.102,0,69.301,14.6,97,37.801
	l-19.1,24.899c-22.1-17.601-49.6-27.399-77.9-27.399C185.681-118.509,158.28-108.61,136.08-90.909L136.08-90.909z"/>
<path fill="#F9C043" d="M214.581-159.11l5.6,17.301h18.199l-14.799,10.6l5.699,17.4l-14.699-10.801l-14.801,10.801l5.699-17.4
	l-14.699-10.6h18.199"/>
<path fill="#FFEF74" d="M214.581-159.11v34.5l-14.801,10.801l5.699-17.4l-14.699-10.6h18.199"/>
<path fill="#F9C043" d="M166.58-144.909l7.3,10.399l12.101-3.8l-7.601,10.199l7.301,10.5l-12-4.299l-7.601,10.299l0.2-12.799
	l-12.1-4l12.199-3.801"/>
<path fill="#FFEF74" d="M166.58-144.909l7.101,23l-7.601,10.299l0.2-12.799l-12.1-4l12.199-3.801"/>
<path fill="#F9C043" d="M261.681-144.909l-7.4,10.399l-12.1-3.8l7.6,10.199l-7.4,10.5l12.1-4.299l7.602,10.299l-0.102-12.799l11.9-4
	l-12-3.801"/>
<path fill="#FFEF74" d="M261.681-144.909l-7.4,10.399l-12.1-3.8l7.6,10.199l-7.4,10.5l12.1-4.299"/>
<path fill="#F9C043" d="M295.581-123.11l-7.102,5.801l-7.5-5.2l3.102,8.601l-7.102,5.6l9-0.301l3.201,8.4l2.4-8.699l9-0.301
	l-7.5-5.1"/>
<path fill="#F9C043" d="M132.58-123.11l7.101,5.801l7.5-5.2l-3.101,8.601l7.101,5.6l-9-0.301l-3.101,8.4l-2.6-8.699l-9-0.301
	l7.5-5.1"/>
<path fill="#FFEF74" d="M295.581-123.11l-7.102,5.801l-7.5-5.2l3.102,8.601l-7.102,5.6l9-0.301"/>
<path fill="#FFEF74" d="M132.58-123.11l9.601,14.5l-3.101,8.4l-2.6-8.699l-9-0.301l7.5-5.1"/>
<path fill="#FFFFFF" d="M167.78-97.309l0.5,1.5c-0.8,0.3-1.6,0.4-2.2,0.199c-0.6-0.199-1.2-0.6-1.7-1.299
	c-0.6-0.9-0.8-1.801-0.699-2.701c0.199-1,0.799-1.799,1.799-2.5c1.101-0.799,2.101-1.1,3.101-1c1,0.101,1.8,0.601,2.5,1.5
	c0.601,0.801,0.8,1.601,0.7,2.4c-0.1,0.5-0.3,1-0.7,1.5l-1.2-1.1c0.301-0.301,0.4-0.7,0.4-1c0-0.4-0.1-0.7-0.4-1.1
	c-0.3-0.5-0.8-0.701-1.4-0.801c-0.6-0.1-1.199,0.2-2,0.801c-0.799,0.6-1.299,1.1-1.399,1.699c-0.101,0.5,0,1,0.3,1.5
	c0.301,0.301,0.6,0.6,1,0.7C166.681-97.009,167.181-97.009,167.78-97.309L167.78-97.309z M173.28-98.209l1.1,1.2l-3.1,2.899
	l-0.9,0.9c-0.199,0.301-0.3,0.6-0.199,0.9c0,0.3,0.199,0.6,0.5,1c0.3,0.3,0.6,0.5,0.899,0.6c0.3,0,0.601,0,0.8-0.199
	c0.2-0.101,0.601-0.4,1-0.9l3.2-3l1.101,1.199l-3,2.801c-0.7,0.6-1.2,1.1-1.601,1.3c-0.3,0.2-0.7,0.3-1,0.3
	c-0.399,0-0.7-0.1-1.1-0.199c-0.4-0.201-0.8-0.5-1.2-1c-0.5-0.601-0.8-1-1-1.4c-0.1-0.4-0.2-0.801-0.1-1.1
	c0-0.4,0.199-0.701,0.299-0.9c0.301-0.4,0.701-0.9,1.4-1.5L173.28-98.209L173.28-98.209z M174.88-88.909l1.301,0.899
	c-0.301,0.5-0.4,0.899-0.301,1.2c0.101,0.4,0.301,0.699,0.7,1c0.4,0.3,0.8,0.5,1.101,0.5c0.3,0,0.6-0.1,0.8-0.301
	c0.1-0.1,0.2-0.299,0.2-0.5c0-0.199-0.101-0.399-0.2-0.6c-0.101-0.199-0.4-0.5-0.8-1.1c-0.5-0.7-0.801-1.301-0.9-1.801
	c-0.1-0.6,0.1-1.199,0.5-1.699c0.3-0.301,0.6-0.5,1-0.6c0.4-0.101,0.8-0.101,1.3,0c0.5,0.1,0.9,0.399,1.4,0.799
	c0.8,0.601,1.2,1.301,1.3,1.9c0.1,0.7-0.1,1.301-0.5,1.801l-1.3-1c0.2-0.4,0.3-0.701,0.2-0.9c-0.101-0.301-0.301-0.6-0.601-0.9
	c-0.399-0.3-0.7-0.5-1-0.5c-0.2,0-0.399,0.1-0.5,0.2c-0.1,0.101-0.2,0.3-0.1,0.5c0,0.3,0.3,0.7,0.8,1.399
	c0.5,0.601,0.8,1.201,1,1.601s0.2,0.8,0.2,1.2c-0.101,0.4-0.2,0.8-0.601,1.199c-0.3,0.301-0.699,0.601-1.1,0.701
	c-0.4,0.1-0.9,0.1-1.4,0c-0.5-0.201-1-0.5-1.5-0.9c-0.8-0.6-1.199-1.301-1.3-2C174.181-87.409,174.38-88.11,174.88-88.909
	L174.88-88.909z M181.08-80.61l3.601-5.399l-2-1.3l0.699-1.1l5.301,3.5l-0.7,1.1l-2-1.301l-3.601,5.4L181.08-80.61z M187.08-81.309
	c0.4-0.7,0.8-1.301,1.2-1.6c0.3-0.301,0.7-0.5,1.1-0.601c0.4-0.101,0.801-0.2,1.201-0.2c0.5,0,1.1,0.2,1.699,0.5
	c1,0.5,1.7,1.301,2,2.2c0.301,1,0.2,2-0.4,3.101c-0.6,1.1-1.299,1.899-2.299,2.199c-0.9,0.301-1.9,0.2-3-0.3
	c-1.101-0.5-1.701-1.3-2-2.2C186.38-79.209,186.48-80.209,187.08-81.309L187.08-81.309z M188.58-80.61
	c-0.399,0.801-0.5,1.5-0.3,2.101s0.5,1,1.1,1.3c0.601,0.301,1.101,0.301,1.701,0.1c0.6-0.199,1.1-0.699,1.5-1.6
	c0.399-0.8,0.5-1.5,0.399-2.1c-0.2-0.6-0.5-1-1.101-1.301c-0.6-0.299-1.199-0.299-1.699-0.1
	C189.681-82.009,188.98-81.409,188.58-80.61z M194.08-73.709l2.3-7.5l2.301,0.7l-0.2,5.5l2.899-4.7l2.301,0.7l-2.301,7.5
	l-1.399-0.399l1.8-5.9l-3.3,5.4l-1.5-0.5l0.3-6.4l-1.8,5.9L194.08-73.709L194.08-73.709z M203.681-71.009l1.1-7.8l5.801,0.8
	l-0.201,1.3l-4.199-0.6l-0.201,1.699l3.9,0.601l-0.199,1.3l-4-0.6l-0.301,2.1l4.4,0.6l-0.199,1.301L203.681-71.009L203.681-71.009z
	 M211.78-69.909l-0.1-7.801l3.4-0.1c0.799,0,1.5,0,1.898,0.199c0.4,0.101,0.701,0.4,0.9,0.701c0.201,0.299,0.4,0.799,0.4,1.199
	c0,0.6-0.199,1.1-0.5,1.5s-0.9,0.6-1.6,0.801c0.4,0.199,0.6,0.399,0.9,0.6c0.199,0.199,0.5,0.699,0.898,1.3l1,1.5h-1.898l-1.201-1.7
	c-0.4-0.6-0.699-1-0.9-1.1c-0.199-0.2-0.299-0.301-0.5-0.301c-0.199,0-0.398-0.1-0.799-0.1h-0.301l0.1,3.301H211.78L211.78-69.909z
	 M213.28-74.509h1.199c0.801,0,1.201-0.101,1.4-0.101c0.201-0.1,0.301-0.199,0.4-0.299c0.1-0.201,0.199-0.4,0.199-0.601
	c0-0.3-0.1-0.5-0.199-0.601c-0.1-0.1-0.301-0.299-0.6-0.299h-2.5L213.28-74.509z M222.78-73.11l1.5-0.5c0.199,0.5,0.5,0.801,0.801,1
	c0.299,0.201,0.699,0.201,1.199,0.101s0.9-0.3,1.1-0.601c0.201-0.299,0.301-0.5,0.201-0.799c0-0.201-0.102-0.301-0.301-0.4
	c-0.1-0.1-0.301-0.2-0.6-0.2c-0.201,0-0.6,0-1.301-0.101c-0.9,0-1.5-0.1-1.9-0.399c-0.6-0.3-0.898-0.8-1.1-1.399
	c-0.1-0.4-0.1-0.801,0.1-1.201c0.102-0.399,0.4-0.699,0.801-1c0.4-0.299,0.9-0.5,1.5-0.6c1-0.199,1.801-0.199,2.301,0.2
	c0.6,0.3,1,0.8,1.1,1.5l-1.6,0.399c-0.201-0.399-0.4-0.6-0.602-0.799c-0.299-0.101-0.6-0.101-1,0c-0.5,0.1-0.799,0.299-1,0.5
	c-0.1,0.199-0.199,0.299-0.1,0.5c0,0.199,0.201,0.299,0.301,0.399c0.199,0.101,0.799,0.2,1.6,0.2s1.4,0.1,1.801,0.199
	c0.398,0.101,0.799,0.301,1,0.601c0.199,0.3,0.5,0.7,0.6,1.2c0.1,0.4,0.1,0.9-0.1,1.3c-0.201,0.399-0.5,0.8-0.9,1.101
	c-0.4,0.299-1,0.5-1.6,0.6c-1,0.199-1.801,0.199-2.4-0.2S223.081-72.309,222.78-73.11z M231.78-72.61l-2.699-7.399l5.5-2.101
	l0.5,1.201l-4,1.5l0.6,1.6l3.699-1.4l0.5,1.2l-3.699,1.399l0.699,2l4.201-1.6l0.5,1.2L231.78-72.61L231.78-72.61z M239.479-75.709
	l-3.699-6.9l3-1.6c0.699-0.4,1.301-0.6,1.699-0.699c0.4-0.101,0.801,0,1.201,0.199c0.4,0.2,0.699,0.5,0.9,0.9
	c0.299,0.5,0.398,1,0.199,1.5s-0.5,1-1,1.4c0.4,0,0.801,0.1,1.1,0.199c0.301,0.1,0.801,0.301,1.4,0.7l1.6,0.899l-1.699,0.9
	l-1.801-0.9c-0.699-0.299-1.1-0.5-1.299-0.6c-0.201-0.1-0.4-0.1-0.602-0.1c-0.199,0-0.398,0.1-0.799,0.3l-0.301,0.2l1.6,2.9
	L239.479-75.709L239.479-75.709z M238.681-80.409l1-0.601c0.699-0.399,1.1-0.601,1.199-0.8c0.1-0.1,0.201-0.301,0.201-0.5
	c0-0.2,0-0.4-0.102-0.6c-0.1-0.201-0.299-0.4-0.5-0.5c-0.199-0.101-0.398-0.101-0.699,0c-0.1,0-0.5,0.199-1,0.5l-1.1,0.6
	L238.681-80.409z M248.581-81.11l-6.9-4.699l1.4-1l5,3.5l-1.801-5.801l1.4-1l2.299,8L248.581-81.11z M253.28-84.809l-5.1-5.9
	l1.199-1.1l5.1,5.9L253.28-84.809z M257.581-92.909l1.398-0.801c0.5,0.801,0.602,1.5,0.5,2.2c-0.1,0.7-0.398,1.3-1,2
	c-0.699,0.8-1.6,1.101-2.6,1.101s-1.9-0.4-2.799-1.301c-0.9-0.9-1.4-1.9-1.5-2.9c0-1,0.299-1.899,1.1-2.699
	c0.699-0.7,1.4-1.1,2.299-1.1c0.5,0,1,0.1,1.602,0.399l-0.801,1.399c-0.4-0.199-0.699-0.299-1.1-0.199s-0.701,0.199-1,0.5
	c-0.4,0.4-0.6,0.9-0.5,1.5c0,0.6,0.4,1.199,1.1,1.8c0.699,0.7,1.301,1.101,1.9,1.101s1-0.201,1.4-0.601c0.299-0.3,0.5-0.7,0.5-1.101
	C258.081-91.909,257.979-92.409,257.581-92.909z M262.181-93.709l-6.301-4.699l3.6-4.701l1.102,0.801l-2.602,3.399l1.4,1.101
	l2.4-3.201l1.1,0.801l-2.4,3.199l1.701,1.301l2.699-3.5l1.1,0.8L262.181-93.709L262.181-93.709z"/>
<g>
	<path fill="#FFFFFF" d="M171.38-153.909l-7.5-5.5l1.801-2.4c0.699-0.9,1.199-1.5,1.5-1.7c0.399-0.3,0.899-0.5,1.5-0.5
		c0.6,0,1.199,0.2,1.8,0.601c0.5,0.299,0.8,0.699,1,1.1s0.3,0.8,0.3,1.199c0,0.4-0.1,0.701-0.2,1.101c-0.2,0.399-0.601,1-1.101,1.7
		l-0.699,1l2.8,2.1L171.38-153.909L171.38-153.909z M166.28-160.009l2.1,1.601l0.601-0.801c0.399-0.6,0.7-1,0.8-1.3s0.1-0.5,0-0.7
		c-0.1-0.199-0.2-0.4-0.5-0.6c-0.3-0.2-0.6-0.301-0.9-0.301c-0.3,0-0.6,0.201-0.8,0.4c-0.2,0.2-0.5,0.5-0.899,1.1L166.28-160.009
		L166.28-160.009z M176.78-160.909l-6.4-6.801l2.9-2.699c0.7-0.701,1.3-1.101,1.8-1.301c0.4-0.199,0.9-0.199,1.4-0.1
		s0.899,0.4,1.3,0.8c0.5,0.5,0.7,1.101,0.7,1.7s-0.2,1.199-0.8,1.9c0.5-0.101,0.899-0.201,1.3-0.101c0.399,0.101,1,0.101,1.8,0.399
		l2.1,0.5l-1.6,1.601l-2.4-0.5c-0.899-0.2-1.399-0.3-1.699-0.3c-0.301,0-0.5,0-0.701,0.1c-0.199,0.1-0.399,0.301-0.799,0.6
		l-0.301,0.301l2.7,2.8L176.78-160.909z M174.48-166.11l1-1c0.7-0.6,1-1,1.2-1.299c0.199-0.301,0.1-0.4,0.1-0.701
		c0-0.199-0.1-0.399-0.3-0.6c-0.2-0.199-0.5-0.4-0.7-0.4s-0.5,0.101-0.8,0.201c-0.101,0.1-0.5,0.399-1,0.899l-1.101,1L174.48-166.11
		L174.48-166.11z M180.98-171.009c-0.5-0.8-0.8-1.5-0.9-2.2c-0.1-0.5-0.1-1,0-1.5c0.101-0.5,0.3-1,0.601-1.4
		c0.399-0.5,0.899-1,1.5-1.399c1.199-0.7,2.3-1,3.5-0.7c1.199,0.301,2.1,1,3,2.301c0.8,1.299,1.1,2.5,0.899,3.6
		c-0.2,1.199-0.899,2.1-2.1,2.8c-1.2,0.8-2.3,1-3.5,0.7C182.78-169.009,181.78-169.809,180.98-171.009L180.98-171.009z
		 M182.58-172.11c0.601,0.9,1.2,1.4,1.9,1.601s1.399,0.101,2-0.3c0.6-0.4,1-1,1.1-1.7c0.101-0.7-0.1-1.5-0.7-2.399
		c-0.6-0.9-1.199-1.4-1.899-1.601s-1.3-0.101-2,0.3s-1,1-1.2,1.7C181.78-173.809,182.08-173.009,182.58-172.11L182.58-172.11z
		 M192.681-172.709l-3.5-8.6l5.899-2.4l0.601,1.5l-4.2,1.7l0.8,2l3.6-1.5l0.601,1.5l-3.601,1.5l1.5,3.7L192.681-172.709
		L192.681-172.709z M200.181-175.61l-2-9.1l6.799-1.5l0.301,1.5l-4.9,1.1l0.5,2l4.6-1l0.301,1.5l-4.6,1l0.6,2.5l5.1-1.1l0.301,1.5
		L200.181-175.61L200.181-175.61z M208.28-180.409l1.801-0.301c0.1,0.6,0.398,1,0.699,1.301c0.301,0.299,0.801,0.399,1.4,0.399
		s1.1-0.2,1.4-0.399c0.299-0.301,0.398-0.601,0.398-0.9c0-0.2-0.1-0.4-0.199-0.6c-0.1-0.101-0.4-0.301-0.699-0.4
		c-0.201-0.1-0.701-0.2-1.5-0.301c-1-0.199-1.701-0.5-2.201-0.799c-0.6-0.5-0.9-1.101-0.9-1.801c0-0.5,0.102-0.9,0.301-1.3
		c0.301-0.399,0.6-0.8,1.1-1s1.1-0.399,1.801-0.399c1.199-0.101,2.1,0.199,2.699,0.699s1,1.2,1,2l-1.9,0.2c-0.1-0.5-0.299-0.8-0.6-1
		c-0.299-0.2-0.699-0.3-1.199-0.3s-1,0.199-1.301,0.4c-0.199,0.199-0.299,0.299-0.299,0.6c0,0.199,0.1,0.4,0.299,0.6
		c0.201,0.2,0.801,0.4,1.801,0.5s1.6,0.4,2.1,0.6c0.5,0.201,0.801,0.5,1.1,0.9c0.301,0.4,0.4,0.9,0.4,1.5c0,0.5-0.1,1-0.4,1.5
		c-0.299,0.5-0.699,0.801-1.199,1.1c-0.5,0.201-1.201,0.4-2,0.4c-1.201,0.1-2.1-0.199-2.801-0.699
		C208.681-178.409,208.479-179.409,208.28-180.409L208.28-180.409z M217.681-180.709l1.799,0.1c0,0.601,0.201,1.101,0.5,1.4
		c0.301,0.301,0.701,0.5,1.301,0.6c0.6,0.101,1.1,0,1.4-0.199c0.299-0.2,0.5-0.5,0.6-0.801c0-0.199,0-0.399-0.1-0.6
		c-0.1-0.199-0.301-0.3-0.6-0.5c-0.201-0.1-0.701-0.3-1.4-0.6c-1-0.4-1.6-0.801-2-1.2c-0.5-0.601-0.701-1.2-0.6-2
		c0.1-0.5,0.299-0.899,0.6-1.3c0.299-0.4,0.699-0.6,1.299-0.801c0.5-0.1,1.201-0.199,1.9-0.1c1.201,0.2,2,0.5,2.5,1.1
		c0.5,0.601,0.701,1.301,0.701,2.201l-1.9-0.201c0-0.5-0.1-0.799-0.4-1.1c-0.199-0.199-0.6-0.4-1.1-0.5s-1,0-1.301,0.2
		c-0.199,0.101-0.299,0.3-0.4,0.5c0,0.2,0,0.399,0.201,0.601c0.199,0.199,0.799,0.5,1.6,0.799c0.9,0.301,1.5,0.601,1.9,0.9
		c0.4,0.301,0.699,0.6,0.9,1.1c0.199,0.4,0.299,0.9,0.199,1.5c-0.1,0.5-0.301,1-0.6,1.4c-0.301,0.4-0.801,0.7-1.4,0.9
		c-0.6,0.199-1.301,0.199-2.1,0.1c-1.201-0.199-2-0.5-2.6-1.199C217.979-178.809,217.681-179.61,217.681-180.709L217.681-180.709z
		 M226.581-176.11l2.398-9l1.801,0.5l-2.4,9L226.581-176.11z M231.78-179.61c0.4-0.899,0.801-1.5,1.301-2
		c0.398-0.399,0.799-0.6,1.299-0.799c0.5-0.201,1-0.301,1.4-0.301c0.6,0,1.301,0.2,2,0.5c1.301,0.5,2.1,1.4,2.5,2.5
		s0.301,2.4-0.199,3.801c-0.602,1.399-1.4,2.299-2.5,2.799c-1.102,0.5-2.301,0.4-3.5-0.1c-1.301-0.5-2.102-1.4-2.602-2.5
		S231.28-178.209,231.78-179.61L231.78-179.61z M233.681-178.909c-0.4,1-0.5,1.799-0.301,2.5c0.201,0.699,0.701,1.199,1.4,1.5
		c0.699,0.299,1.4,0.299,2,0c0.699-0.301,1.199-1,1.6-2s0.5-1.801,0.301-2.5c-0.201-0.701-0.701-1.201-1.4-1.5
		c-0.699-0.301-1.4-0.301-2,0C234.581-180.509,234.081-179.909,233.681-178.909z M239.78-171.009l5.199-7.7l1.5,1l-0.299,7.301
		l3.5-5.101l1.5,1l-5.201,7.7l-1.6-1.1l0.301-7.101l-3.4,5L239.78-171.009z M253.581-159.509l-1.5-1.399l0.898-2.101l-2.699-2.601
		l-2,1l-1.4-1.399l9.1-4.101l1.4,1.4L253.581-159.509z M253.681-164.61l1.5-3.399l-3.301,1.601L253.681-164.61z M254.28-158.509
		l7.5-5.399l1.1,1.5l-6.199,4.5l2.799,3.799l-1.299,0.9L254.28-158.509z"/>
</g>
</svg>
