<?xml version="1.0" encoding="utf-8"?>
<!-- Generator: Adobe Illustrator 16.0.0, SVG Export Plug-In . SVG Version: 6.00 Build 0)  -->
<!DOCTYPE svg PUBLIC "-//W3C//DTD SVG 1.1//EN" "http://www.w3.org/Graphics/SVG/1.1/DTD/svg11.dtd">
<svg version="1.1" id="Layer_1" xmlns="http://www.w3.org/2000/svg" xmlns:xlink="http://www.w3.org/1999/xlink" x="0px" y="0px"
	 width="902.004px" height="184.746px" viewBox="0 0 902.004 184.746" enable-background="new 0 0 902.004 184.746"
	 xml:space="preserve">
<g id="Guides_For_Artboard_2_">
</g>
<g id="Guides_For_Artboard_1_">
</g>
<g id="Guides_For_Artboard">
</g>
<g id="Layer_1_1_">
</g>
<g id="Layer_3">
</g>
<g id="Layer_4">
</g>
<polygon fill="#E5B76E" points="36.479,80.16 36.53,129.954 77.069,154.568 117.352,129.954 116.692,80.675 77.101,67.789 "/>
<polygon fill="#C49653" points="17.692,58.792 58.834,50.055 76.602,67.789 94.956,50.261 136.016,59.403 116.692,80.675 
	147.124,83.974 110.847,106.466 76.602,98.991 42.385,106.268 6.501,83.179 36.03,80.16 76.016,98.188 115.704,81.104 76.256,68.25 
	36.479,80.16 "/>
<g>
	<path fill="#81AA30" d="M164.7,108.18h-12.197V63.637H164.7V108.18z"/>
	<path fill="#81AA30" d="M221.394,108.18h-12.199l-22.437-27.282v27.282h-12.197V63.637h12.197l22.437,27.243V63.637h12.199V108.18z
		"/>
	<path fill="#81AA30" d="M258.088,73.295h-14.673v7.603h13.365v9.662h-13.365v17.62h-12.196V63.637h26.869V73.295L258.088,73.295z"
		/>
	<path fill="#81AA30" d="M277.569,108.18h-12.194V63.637h12.194V108.18L277.569,108.18z"/>
	<path fill="#81AA30" d="M334.264,108.18h-12.198l-22.438-27.282v27.282h-12.197V63.637h12.197l22.438,27.243V63.637h12.198V108.18z
		"/>
	<path fill="#81AA30" d="M356.285,108.18h-12.196V63.637h12.196V108.18z"/>
	<path fill="#81AA30" d="M393.946,73.295h-10.101v34.885h-12.197V73.295h-9.93v-9.658h32.229L393.946,73.295L393.946,73.295z"/>
	<path fill="#81AA30" d="M440.259,63.637l-17.556,23.134v21.407h-12.197V86.771l-16.977-23.134h14.568l8.867,12.141l8.519-12.141
		H440.259L440.259,63.637z"/>
</g>
<g>
	<path fill="#333333" d="M217.945,120.529c0,2.035,0.053,5.099,0.154,9.188c0.103,4.085,0.158,7.146,0.158,9.18
		c0,0.35-0.082,0.562-0.233,0.65c-0.036,0.016-0.261,0.053-0.675,0.105c-1.119,0.132-2.618,0.203-4.499,0.203
		c-2.518,0-4.121-0.071-4.809-0.203c-0.501-0.105-0.752-0.375-0.752-0.807c0,0.278,0.078-1.248,0.231-4.553
		c0.312-6.986,0.467-11.57,0.467-13.766c0-1.842-0.059-4.61-0.182-8.305c-0.122-3.691-0.181-6.459-0.181-8.304
		c0-0.378,0.195-0.569,0.595-0.569c0.536,0,1.342,0.026,2.417,0.078c1.08,0.053,1.884,0.079,2.422,0.079
		c0.533,0,1.323-0.026,2.364-0.079c1.045-0.051,1.834-0.078,2.366-0.078c0.5,0,0.75,0.191,0.75,0.569
		c0,1.843-0.099,4.61-0.298,8.304C218.045,115.92,217.945,118.688,217.945,120.529z"/>
	<path fill="#333333" d="M248.752,138.896c0,0.465-0.242,0.733-0.723,0.806c-0.485,0.071-1.743,0.103-3.778,0.103
		c-2.17,0-3.515-0.053-4.036-0.152c-0.517-0.104-0.774-0.457-0.774-1.061c0-0.816,0.025-2.035,0.078-3.68
		c0.051-1.637,0.078-2.871,0.078-3.698c0-0.638-0.018-1.586-0.053-2.858c-0.035-1.264-0.05-2.221-0.05-2.855
		c0-2.361-1.028-3.543-3.08-3.543c-0.673,0-1.457,0.292-2.354,0.877c-0.966,0.655-1.451,1.303-1.451,1.939v13.972
		c0,0.565-0.266,0.884-0.8,0.956c-0.606,0.072-1.84,0.104-3.701,0.104c-2.016,0-3.328-0.054-3.933-0.156
		c-0.534-0.088-0.799-0.371-0.799-0.853c0-1.351,0.006-3.37,0.023-6.079c0.018-2.711,0.025-4.744,0.025-6.107
		c0-4.295-0.336-7.664-1.007-10.112c-0.035-0.154-0.053-0.281-0.053-0.392c0-0.275,0.13-0.463,0.388-0.566
		c1.087-0.12,2.536-0.313,4.347-0.571c2.742-0.534,4.284-0.802,4.628-0.802c0.189,0,0.337,0.582,0.44,1.745
		c0.106,1.171,0.25,1.746,0.439,1.746c-0.189,0,0.738-0.599,2.783-1.8c2.042-1.199,3.83-1.799,5.367-1.799
		c2.188,0,4.015,0.521,5.483,1.555c1.638,1.188,2.456,2.845,2.456,4.966v8.256c0,1.118,0.011,2.794,0.027,5.024
		C248.745,136.1,248.752,137.775,248.752,138.896z"/>
	<path fill="#333333" d="M268.983,122.964c0,0.416-0.226,0.623-0.673,0.623c-1.863,0-3.33-0.052-4.398-0.155
		c0.052,1.289,0.103,3.094,0.156,5.406c0.018,0.98,0.093,2.689,0.231,5.115c0.12,2.195,0.179,3.898,0.179,5.121
		c0,0.365-0.241,0.57-0.72,0.624c-0.588,0.075-2.055,0.104-4.399,0.104c-1.946,0-3.216-0.053-3.801-0.155s-0.878-0.455-0.878-1.058
		v-14.257c0-0.499-0.346-0.748-1.037-0.748c-0.119,0-0.314,0.007-0.582,0.023c-0.266,0.019-0.462,0.024-0.581,0.024
		c-0.485,0-0.735-0.142-0.75-0.418c-0.155-1.499-0.234-3.677-0.234-6.542c0-0.637,0.328-1.027,0.984-1.16
		c0.585-0.053,1.179-0.097,1.787-0.13c-0.086-1.38-0.133-2.46-0.133-3.235c0-2.965,0.579-5.125,1.735-6.465
		c2.294-2.679,6.003-4.013,11.123-4.013c0.344,0,0.554,0.104,0.619,0.315c0.14,0.771,0.339,1.918,0.6,3.433
		c0.017,0.144,0.128,0.625,0.337,1.451c0.155,0.636,0.229,1.132,0.229,1.478c0,0.411-0.613,0.682-1.837,0.807
		c-1.416,0.152-2.288,0.41-2.612,0.77c-0.569,0.623-0.853,1.844-0.853,3.653c0,0.565,0.045,1.104,0.126,1.602
		c0.485,0,1.232-0.015,2.254-0.053c1.016-0.032,1.784-0.052,2.302-0.052c0.516,0,0.775,0.191,0.775,0.57
		c0,0.808,0.011,2.028,0.024,3.659C268.973,120.936,268.983,122.154,268.983,122.964z"/>
	<path fill="#333333" d="M296.661,126.926c0,3.93-1.205,7.12-3.608,9.564c-2.409,2.455-5.566,3.673-9.481,3.673
		c-3.794,0-6.916-1.208-9.364-3.621c-2.446-2.414-3.672-5.517-3.672-9.308c0-4.002,1.172-7.252,3.518-9.741
		c2.348-2.492,5.521-3.737,9.519-3.737c3.898,0,7.052,1.223,9.467,3.66S296.661,123.027,296.661,126.926z M288.177,126.926
		c0-1.367-0.426-2.568-1.269-3.615c-0.845-1.041-1.943-1.562-3.287-1.562c-1.36,0-2.481,0.533-3.359,1.604
		c-0.829,0.994-1.244,2.188-1.244,3.566c0,1.395,0.415,2.596,1.244,3.598c0.878,1.065,1.999,1.6,3.359,1.6
		c1.345,0,2.46-0.533,3.338-1.6C287.769,129.52,288.177,128.316,288.177,126.926z"/>
	<path fill="#333333" d="M317.614,127.746c0,3.508-1.476,6.504-4.421,9.008c-2.589,2.201-5.733,3.607-9.442,4.213
		c-0.139,0.018-0.252,0.025-0.337,0.025c-0.398,0-1.277-1.208-2.638-3.635c-1.36-2.42-2.043-3.896-2.043-4.436
		c0-0.188,0.129-0.309,0.387-0.361c2.499-0.569,4.156-1.054,4.969-1.449c1.792-0.896,2.69-2.223,2.69-3.981
		c0-1.121-0.587-2.376-1.758-3.75c-2.036-2.349-3.14-3.653-3.313-3.91c-1.188-1.791-1.786-3.774-1.786-5.944
		c0-3.157,1.459-5.779,4.373-7.862c2.378-1.728,5.304-2.843,8.771-3.365c0.189-0.019,0.335-0.022,0.44-0.022
		c0.256,0,0.464,0.205,0.619,0.625c0.45,1.254,1.493,3.526,3.131,6.824c0.051,0.103,0.077,0.192,0.077,0.262
		c0,0.289-0.155,0.438-0.465,0.438c-0.139,0-0.367-0.027-0.696-0.079c-0.331-0.052-0.578-0.075-0.752-0.075
		c-1.242,0-2.326,0.279-3.257,0.85c-1.124,0.654-1.683,1.566-1.683,2.742c0,1.054,0.62,2.344,1.863,3.877
		c2.188,2.763,3.335,4.212,3.44,4.348C317.002,123.984,317.614,125.872,317.614,127.746z"/>
	<path fill="#333333" d="M346.613,126.926c0,3.93-1.204,7.12-3.608,9.564c-2.407,2.455-5.566,3.673-9.481,3.673
		c-3.796,0-6.916-1.208-9.363-3.621c-2.448-2.414-3.673-5.517-3.673-9.308c0-4.002,1.171-7.252,3.519-9.741
		c2.347-2.492,5.52-3.737,9.518-3.737c3.896,0,7.053,1.223,9.467,3.66C345.407,119.854,346.613,123.027,346.613,126.926z
		 M338.128,126.926c0-1.367-0.424-2.568-1.266-3.615c-0.844-1.041-1.945-1.562-3.288-1.562c-1.358,0-2.48,0.533-3.358,1.604
		c-0.83,0.994-1.244,2.188-1.244,3.566c0,1.395,0.414,2.596,1.244,3.598c0.878,1.065,2,1.6,3.358,1.6c1.346,0,2.461-0.533,3.339-1.6
		C337.721,129.52,338.128,128.316,338.128,126.926z"/>
	<path fill="#333333" d="M359.158,124.074c0,4.714,0.018,8.318,0.051,10.838c0,0.396,0.026,1.079,0.078,2.049
		c0.053,0.877,0.079,1.559,0.079,2.043c0,0.357-0.217,0.575-0.646,0.648c-0.776,0.132-2.173,0.203-4.189,0.203
		c-2.071,0-3.389-0.071-3.957-0.203c-0.378-0.092-0.599-0.322-0.649-0.702c0-0.054,0-0.427,0-1.112c0-1.533,0.02-3.836,0.053-6.896
		c0.035-3.064,0.052-5.35,0.052-6.868c0-7.243,0.01-10.546,0.026-9.908c-0.053-3.804-0.269-7.095-0.647-9.856
		c-0.036-0.187-0.052-0.332-0.052-0.437c0-0.376,0.223-0.567,0.672-0.567h9.235c0.43,0,0.629,0.18,0.598,0.547l-0.029,0.461
		C359.385,111.766,359.158,118.354,359.158,124.074z"/>
	<path fill="#333333" d="M390.508,116.132c0,1.277-0.059,3.19-0.181,5.746c-0.121,2.55-0.181,4.47-0.181,5.74
		c0,1.247,0.04,3.108,0.129,5.592c0.086,2.479,0.127,4.336,0.127,5.562c0,0.463-0.218,0.756-0.646,0.879
		c-0.655,0.173-2.045,0.256-4.168,0.256c-1.875,0-3.187-0.053-3.929-0.155c-0.327-0.052-0.533-0.257-0.621-0.624
		c-0.055-0.513-0.104-1.031-0.155-1.552c-0.086-0.789-0.21-1.188-0.363-1.188c0.239,0-0.629,0.586-2.612,1.76
		c-1.984,1.177-3.785,1.76-5.406,1.76c-4.566,0-7.277-2.061-8.123-6.182c-0.38-1.912-0.567-4.688-0.567-8.33
		c0-3.936,0.317-7.035,0.957-9.313c0.188-0.705,0.54-1.061,1.057-1.061c0.793,0,2,0.015,3.622,0.027
		c1.621,0.018,2.828,0.024,3.62,0.024c0.537,0,0.804,0.222,0.804,0.672c0,0.121-0.017,0.302-0.052,0.546
		c-0.361,2.343-0.542,4.727-0.542,7.141c0,3,0.092,5.053,0.286,6.147c0.308,1.903,1.438,2.854,3.388,2.854
		c0.758,0,1.584-0.341,2.473-1.012c0.885-0.673,1.349-1.373,1.385-2.099c0.03-0.636,0.052-4.962,0.052-12.982
		c0-0.571,0.043-0.905,0.127-1.01c0.104-0.174,0.414-0.261,0.932-0.261c0.844,0,2.118,0.013,3.816,0.023
		c1.698,0.016,2.971,0.024,3.813,0.024c0.517,0,0.82,0.128,0.906,0.396C390.491,115.65,390.508,115.863,390.508,116.132z"/>
	<path fill="#333333" d="M412.086,132.066c0,0.521-0.067,1.304-0.194,2.357c-0.129,1.053-0.191,1.823-0.191,2.313
		c0,0.494-0.052,0.81-0.155,0.949c-0.104,0.135-0.386,0.334-0.853,0.59c-2.223,1.228-4.692,1.838-7.397,1.838
		c-4.986,0-7.479-1.9-7.479-5.715c0-1.138,0.046-2.849,0.132-5.137c0.085-2.285,0.127-3.994,0.127-5.137
		c0-0.757-0.438-1.137-1.319-1.137c-0.07,0-0.186,0-0.337,0c-0.155,0.018-0.266,0.025-0.335,0.025c-0.657,0-0.984-0.23-0.984-0.701
		c0-0.276,0.024-0.692,0.065-1.268c0.046-0.566,0.063-0.984,0.063-1.262c0-0.367-0.018-0.918-0.063-1.655
		c-0.041-0.745-0.065-1.298-0.065-1.661c0-0.346,0.553-0.531,1.658-0.566c0.618-0.018,0.956-0.188,1.009-0.516
		c0.104-0.654,0.138-1.693,0.104-3.105c-0.066-2.221-0.104-3.287-0.104-3.182c0-2.005,0.189-3.009,0.567-3.009
		c0.465,0,1.129,0.104,1.993,0.318c0.98,0.224,1.665,0.354,2.044,0.386c0.878,0.119,2.211,0.282,3.981,0.496
		c0.435,0.033,0.649,0.181,0.649,0.436c0,0.688-0.06,1.734-0.171,3.133c-0.112,1.396-0.165,2.447-0.165,3.15
		c0,0.85,0.249,1.266,0.749,1.266c0.603,0,1.516-0.026,2.741-0.078c1.222-0.053,2.147-0.077,2.768-0.077
		c0.38,0,0.568,0.129,0.568,0.393c0,0.397-0.042,0.989-0.127,1.785c-0.086,0.788-0.13,1.39-0.13,1.784
		c0,0.412,0.009,1.014,0.026,1.811c0.018,0.789,0.024,1.394,0.024,1.811c0,0.361-0.252,0.537-0.75,0.537
		c-0.347,0-0.921-0.014-1.736-0.038c-0.808-0.025-1.386-0.04-1.733-0.04h-1.941c-0.257,0-0.388,0.379-0.388,1.144
		c0,0.412,0,1.021,0,1.837c0.019,0.832,0.024,1.439,0.024,1.842c0,1.442,0.164,2.443,0.492,2.996
		c0.464,0.746,1.38,1.108,2.742,1.108c0.433,0,1.048-0.093,1.851-0.292c0.8-0.197,1.362-0.294,1.692-0.294
		C411.903,131.503,412.086,131.688,412.086,132.066z"/>
	<path fill="#333333" d="M424.369,127.771c0,1.265,0.024,3.14,0.082,5.629c0.052,2.492,0.077,4.358,0.077,5.602
		c0,0.359-0.221,0.575-0.647,0.643c-0.584,0.104-1.905,0.158-3.959,0.158c-2.069,0-3.396-0.055-3.984-0.158
		c-0.379-0.066-0.608-0.178-0.695-0.338c-0.036-0.063-0.053-0.326-0.053-0.771c0-1.194,0.024-2.978,0.076-5.366
		c0.054-2.39,0.08-4.186,0.08-5.398c0-4.896-0.189-8.793-0.567-11.691c-0.035-0.277-0.053-0.456-0.053-0.54
		c0-0.347,0.231-0.521,0.697-0.521c0.485,0,1.221,0.053,2.212,0.154c0.992,0.104,1.738,0.159,2.237,0.159
		c0.501,0,1.253-0.044,2.255-0.135c0.998-0.085,1.746-0.128,2.249-0.128c0.414,0,0.624,0.174,0.624,0.521
		c0,0.072-0.019,0.229-0.052,0.491C424.559,119.441,424.369,123.342,424.369,127.771z M425.043,108.557
		c0,2.998-1.69,4.502-5.071,4.502c-1.448,0-2.646-0.382-3.597-1.138c-1.032-0.83-1.552-1.953-1.552-3.364
		c0-1.35,0.534-2.447,1.604-3.313c0.979-0.79,2.164-1.187,3.542-1.187c1.349,0,2.509,0.4,3.492,1.211
		C424.515,106.135,425.043,107.229,425.043,108.557z"/>
	<path fill="#333333" d="M454.25,126.926c0,3.93-1.204,7.12-3.607,9.564c-2.407,2.455-5.565,3.673-9.481,3.673
		c-3.797,0-6.915-1.208-9.364-3.621c-2.448-2.414-3.672-5.517-3.672-9.308c0-4.002,1.172-7.252,3.52-9.741
		c2.347-2.492,5.521-3.737,9.518-3.737c3.898,0,7.053,1.223,9.467,3.66S454.25,123.027,454.25,126.926z M445.765,126.926
		c0-1.367-0.423-2.568-1.268-3.615c-0.843-1.041-1.944-1.562-3.286-1.562c-1.36,0-2.482,0.533-3.362,1.604
		c-0.827,0.994-1.241,2.188-1.241,3.566c0,1.395,0.414,2.596,1.241,3.598c0.88,1.065,2.002,1.6,3.362,1.6
		c1.345,0,2.46-0.533,3.338-1.6C445.357,129.52,445.765,128.316,445.765,126.926z"/>
	<path fill="#333333" d="M483.092,138.896c0,0.465-0.241,0.733-0.724,0.806c-0.483,0.071-1.742,0.103-3.778,0.103
		c-2.168,0-3.514-0.053-4.035-0.152c-0.516-0.104-0.771-0.457-0.771-1.061c0-0.816,0.023-2.035,0.077-3.68
		c0.051-1.637,0.077-2.871,0.077-3.698c0-0.638-0.017-1.586-0.053-2.858c-0.037-1.264-0.053-2.221-0.053-2.855
		c0-2.361-1.027-3.543-3.08-3.543c-0.672,0-1.457,0.292-2.354,0.877c-0.967,0.655-1.451,1.303-1.451,1.939v13.972
		c0,0.565-0.267,0.884-0.798,0.956c-0.607,0.072-1.844,0.104-3.703,0.104c-2.015,0-3.327-0.054-3.932-0.156
		c-0.534-0.088-0.802-0.371-0.802-0.853c0-1.351,0.008-3.37,0.025-6.079c0.017-2.711,0.022-4.744,0.022-6.107
		c0-4.295-0.334-7.664-1.006-10.112c-0.037-0.154-0.055-0.281-0.055-0.392c0-0.275,0.132-0.463,0.39-0.566
		c1.086-0.12,2.534-0.313,4.346-0.571c2.742-0.534,4.287-0.802,4.63-0.802c0.188,0,0.336,0.582,0.438,1.745
		c0.107,1.171,0.254,1.746,0.44,1.746c-0.188,0,0.738-0.599,2.781-1.8c2.045-1.199,3.831-1.799,5.367-1.799
		c2.19,0,4.018,0.521,5.484,1.555c1.636,1.188,2.457,2.845,2.457,4.966v8.256c0,1.118,0.011,2.794,0.025,5.024
		C483.084,136.1,483.092,137.775,483.092,138.896z"/>
	<path fill="#333333" d="M502.547,118.721c0,0.174-0.133,0.403-0.392,0.699c-0.484-0.121-0.968-0.179-1.448-0.179
		c-1.016,0-1.872,0.226-2.563,0.672c-0.827,0.517-1.244,1.246-1.244,2.196c0,0.602,0.439,1.373,1.322,2.306
		c1.325,1.392,2.146,2.336,2.459,2.819c0.879,1.309,1.32,2.714,1.32,4.217c0,0.878-0.173,1.81-0.519,2.792
		c-0.396,1.084-0.896,1.877-1.5,2.376c-1.279,1.104-2.769,2.035-4.477,2.794c-1.845,0.797-3.544,1.194-5.094,1.194
		c-0.348,0-1.117-0.938-2.319-2.807c-1.197-1.876-1.798-3.019-1.798-3.428c0-0.155,0.096-0.252,0.285-0.284
		c1.208-0.225,2.426-0.448,3.647-0.675c1.52-0.479,2.275-1.277,2.275-2.38c0-0.759-0.438-1.636-1.32-2.642
		c-1.568-1.736-2.388-2.664-2.457-2.767c-0.878-1.237-1.318-2.55-1.318-3.929c0-2.586,1.309-4.79,3.935-6.602
		c2.343-1.605,4.853-2.4,7.525-2.4c0.272,0,0.958,0.925,2.044,2.779C502.003,117.326,502.547,118.41,502.547,118.721z"/>
</g>
<path fill="#333333" d="M76.453,120.59c-0.142,0.227-0.269,0.465-0.405,0.706c0,0-5.996,10.8-15.022,8.239
	c0,0-7.365-1.625-7.822-9.418c0,0-0.242-6.506,7.417-6.262c0,0,4.937,0.525,8.121,6.065l6.401,1.374c0,0-2.974-11.131-14.42-13.243
	c0,0-12.502-2.872-13.766,10.914c0,0,0.25,13.237,14.471,16.579c0,0,7.563,2.266,15.024-4.186L76.453,120.59L76.453,120.59z"/>
<path fill="#81AA30" d="M88.905,107.41c0,0-7.485,2.896-12.071,12.468v11.013c0.726-1.062,1.458-2.195,2.176-3.437
	c0,0,3.313-8.308,8.091-12.86c0,0,2.248-1.363,3.011-1.566c0,0,6.773-2.567,7.781,4.998c0,0,0.45,5.963-6.734,9.91
	c0,0-6.575,3.418-9.131-3.105l-0.155-0.764c0,0-3.871,6.463-4.373,7.063c0,0,3.564,6.582,12.913,3.075
	c0,0,12.804-3.729,13.759-18.289C104.172,115.91,104.468,102.287,88.905,107.41z"/>
<rect x="515.082" y="63.637" fill="#333333" width="2.396" height="76.267"/>
<g>
	<path fill="#333333" d="M559.305,100.227v12.76h-11.123c-1.511,0-2.581,0.225-3.211,0.672s-0.943,1.203-0.943,2.267
		c0,1.203,0.32,1.994,0.966,2.372c0.643,0.377,1.958,0.566,3.945,0.566h11.458v16.369h-13.39c-6.296,0-11.108-1.504-14.438-4.512
		c-3.33-3.009-4.994-7.354-4.994-13.033V95.23c0-5.483,1.574-9.736,4.722-12.759c3.148-3.021,7.576-4.533,13.284-4.533h14.816
		v16.453h-10.871c-2.938,0-4.407,0.952-4.407,2.854c0,1.119,0.35,1.896,1.05,2.329c0.699,0.435,1.944,0.65,3.735,0.65h9.401V100.227
		z"/>
	<path fill="#333333" d="M583.606,104.256v11.122h-19.183v-11.122H583.606z"/>
	<path fill="#333333" d="M588.182,77.938h17.041v34.041c0,2.658,0.427,4.428,1.28,5.31s2.539,1.321,5.058,1.321h0.882v16.621h-4.533
		c-6.212,0-11.053-1.812-14.522-5.436c-3.47-3.623-5.204-8.652-5.204-15.089L588.182,77.938L588.182,77.938z"/>
	<path fill="#333333" d="M648.748,100.227v12.76h-11.123c-1.511,0-2.581,0.225-3.211,0.672s-0.944,1.203-0.944,2.267
		c0,1.203,0.321,1.994,0.966,2.372c0.644,0.377,1.959,0.566,3.945,0.566h11.458v16.369H636.45c-6.296,0-11.109-1.504-14.439-4.512
		c-3.33-3.009-4.994-7.354-4.994-13.033V95.23c0-5.483,1.574-9.736,4.723-12.759c3.147-3.021,7.575-4.533,13.284-4.533h14.815
		v16.453h-10.871c-2.938,0-4.407,0.952-4.407,2.854c0,1.119,0.351,1.896,1.051,2.329c0.698,0.435,1.943,0.65,3.734,0.65h9.402
		V100.227z"/>
	<path fill="#333333" d="M680.396,106.48v15.108h-4.91v13.642h-17.041V98.799c0-7.051,1.924-12.528,5.771-16.432
		c3.847-3.904,9.255-5.855,16.222-5.855c6.717,0,11.684,1.77,14.9,5.31c3.217,3.54,4.827,9.003,4.827,16.391v37.02h-17.041V99.346
		c0-2.238-0.267-3.791-0.798-4.66c-0.531-0.867-1.483-1.301-2.854-1.301c-2.658,0-3.986,1.987-3.986,5.961v7.135H680.396
		L680.396,106.48z"/>
	<path fill="#333333" d="M727.531,93.343v41.89H710.49V77.938h21.868c6.658,0,11.82,1.651,15.487,4.953
		c4.085,3.693,6.128,8.381,6.128,14.061c0,5.792-2.532,10.676-7.598,14.647l9.822,23.631h-17.881l-8.27-18.467v-14.732h1.343
		c3.582,0,5.373-1.539,5.373-4.617c0-2.714-2.07-4.071-6.212-4.071H727.531z"/>
	<path fill="#333333" d="M760.731,135.23V98.044c0-6.52,1.95-11.738,5.854-15.656c3.903-3.917,9.102-5.876,15.593-5.876
		c6.464,0,11.409,1.903,14.837,5.708c3.429,3.806,5.143,9.276,5.143,16.411v36.602h-17.041V98.631c0-3.497-1.245-5.246-3.735-5.246
		c-2.407,0-3.608,1.749-3.608,5.246v36.602h-17.042V135.23z"/>
</g>
<g>
	<g>
		<polygon fill="#81AA30" points="857.598,51.502 806.607,27.015 751.46,42.953 803.578,64.62 		"/>
		<path fill="#81AA30" d="M834.337,73.368l1.201-14.909l-32.561,8.015l-30.521-13.096l-1.192,14.797
			c16.662,1.678,30.726,12.664,30.726,12.664C820.168,71.33,834.337,73.368,834.337,73.368z"/>
		<path fill="#81AA30" d="M836.264,86.289l-1.725,21.415l6.119,0.493l1.725-21.416c0.079-0.974-0.379-1.86-1.122-2.39
			c0.831-0.49,1.425-1.358,1.508-2.394c0.099-1.213-0.53-2.309-1.513-2.884l0.01-0.036l1.82-22.602l-2.736,0.633l-1.744,21.643
			l0.066,0.115c-1.1,0.396-1.924,1.396-2.023,2.638c-0.084,1.034,0.36,1.987,1.103,2.604
			C836.938,84.514,836.343,85.316,836.264,86.289z"/>
	</g>
</g>
</svg>
