<?xml version="1.0" encoding="utf-8"?>
<!-- Generator: Adobe Illustrator 16.0.0, SVG Export Plug-In . SVG Version: 6.00 Build 0)  -->
<!DOCTYPE svg PUBLIC "-//W3C//DTD SVG 1.1//EN" "http://www.w3.org/Graphics/SVG/1.1/DTD/svg11.dtd">
<svg version="1.1" id="Layer_1" xmlns="http://www.w3.org/2000/svg" xmlns:xlink="http://www.w3.org/1999/xlink" x="0px" y="0px"
	 width="626.09px" height="154.492px" viewBox="0 0 626.09 154.492" enable-background="new 0 0 626.09 154.492"
	 xml:space="preserve">
<g id="Guides_For_Artboard_2_">
</g>
<g id="Guides_For_Artboard_1_">
</g>
<g id="Guides_For_Artboard">
</g>
<g id="Layer_1_1_">
</g>
<g id="Layer_3">
</g>
<g id="Layer_4">
</g>
<g>
	<path fill="#81AA30" d="M203.068,89.922H188.3V35.991h14.768V89.922L203.068,89.922z"/>
	<path fill="#81AA30" d="M271.715,89.922h-14.771l-27.168-33.033v33.033h-14.768V35.991h14.768l27.168,32.986V35.991h14.771V89.922z
		"/>
	<path fill="#81AA30" d="M316.146,47.685H298.38v9.204h16.183v11.7H298.38v21.333h-14.768V35.991h32.531v11.694H316.146z"/>
	<path fill="#81AA30" d="M339.736,89.922H324.97V35.991h14.768L339.736,89.922L339.736,89.922z"/>
	<path fill="#81AA30" d="M408.384,89.922h-14.771l-27.167-33.033v33.033h-14.77V35.991h14.77l27.167,32.986V35.991h14.771V89.922z"
		/>
	<path fill="#81AA30" d="M435.05,89.922h-14.769V35.991h14.769V89.922z"/>
	<path fill="#81AA30" d="M480.65,47.685h-12.229v42.237H453.65V47.685h-12.021V35.991h39.022L480.65,47.685L480.65,47.685z"/>
	<path fill="#81AA30" d="M536.729,35.991l-21.258,28.011v25.92h-14.769v-25.92l-20.557-28.011h17.642l10.735,14.701l10.314-14.701
		H536.729L536.729,35.991z"/>
</g>
<g>
	<path fill="#E5E5E5" d="M267.54,104.88c0,2.465,0.063,6.173,0.187,11.124c0.124,4.945,0.19,8.653,0.19,11.117
		c0,0.42-0.098,0.677-0.282,0.786c-0.044,0.016-0.316,0.062-0.818,0.124c-1.354,0.162-3.17,0.248-5.448,0.248
		c-3.048,0-4.99-0.086-5.822-0.248c-0.606-0.124-0.91-0.451-0.91-0.973c0,0.336,0.094-1.51,0.28-5.514
		c0.377-8.459,0.565-14.01,0.565-16.668c0-2.229-0.072-5.582-0.221-10.053c-0.146-4.473-0.219-7.821-0.219-10.055
		c0-0.459,0.237-0.689,0.721-0.689c0.648,0,1.625,0.029,2.927,0.094c1.307,0.063,2.282,0.096,2.932,0.096
		c0.646,0,1.602-0.031,2.864-0.096c1.264-0.063,2.22-0.094,2.864-0.094c0.606,0,0.909,0.23,0.909,0.689
		c0,2.23-0.12,5.582-0.361,10.055C267.661,99.298,267.54,102.648,267.54,104.88z"/>
	<path fill="#E5E5E5" d="M304.842,127.121c0,0.561-0.292,0.887-0.874,0.973c-0.588,0.086-2.112,0.124-4.576,0.124
		c-2.628,0-4.256-0.063-4.887-0.187c-0.625-0.124-0.937-0.553-0.937-1.282c0-0.988,0.03-2.465,0.094-4.455
		c0.062-1.981,0.094-3.476,0.094-4.478c0-0.771-0.021-1.922-0.063-3.461c-0.043-1.531-0.062-2.688-0.062-3.459
		c0-2.86-1.245-4.291-3.729-4.291c-0.815,0-1.765,0.355-2.85,1.063c-1.17,0.793-1.757,1.578-1.757,2.35v16.916
		c0,0.686-0.322,1.071-0.968,1.157c-0.734,0.089-2.229,0.124-4.482,0.124c-2.441,0-4.03-0.063-4.762-0.188
		c-0.646-0.107-0.968-0.45-0.968-1.033c0-1.633,0.008-4.081,0.029-7.361c0.021-3.279,0.031-5.744,0.031-7.395
		c0-5.2-0.408-9.281-1.22-12.243c-0.043-0.188-0.065-0.345-0.065-0.478c0-0.334,0.158-0.56,0.47-0.685
		c1.317-0.147,3.07-0.381,5.264-0.692c3.319-0.646,5.188-0.972,5.604-0.972c0.229,0,0.408,0.707,0.533,2.115
		c0.128,1.415,0.303,2.114,0.532,2.114c-0.229,0,0.894-0.727,3.37-2.178c2.473-1.453,4.638-2.179,6.499-2.179
		c2.65,0,4.862,0.629,6.639,1.882c1.983,1.438,2.974,3.443,2.974,6.012v9.998c0,1.353,0.014,3.383,0.032,6.086
		C304.834,123.73,304.842,125.761,304.842,127.121z"/>
	<path fill="#E5E5E5" d="M329.339,107.826c0,0.505-0.271,0.754-0.814,0.754c-2.257,0-4.032-0.063-5.326-0.188
		c0.063,1.563,0.125,3.746,0.188,6.547c0.021,1.188,0.113,3.258,0.279,6.193c0.147,2.658,0.218,4.721,0.218,6.203
		c0,0.441-0.291,0.689-0.873,0.755c-0.712,0.086-2.486,0.124-5.325,0.124c-2.358,0-3.896-0.063-4.604-0.188
		c-0.708-0.123-1.063-0.551-1.063-1.28v-17.261c0-0.604-0.42-0.908-1.256-0.908c-0.145,0-0.381,0.008-0.704,0.029
		c-0.321,0.021-0.561,0.031-0.703,0.031c-0.588,0-0.891-0.173-0.908-0.507c-0.188-1.813-0.284-4.453-0.284-7.922
		c0-0.771,0.396-1.244,1.192-1.406c0.709-0.063,1.428-0.116,2.162-0.155c-0.104-1.67-0.159-2.979-0.159-3.918
		c0-3.592,0.699-6.205,2.101-7.828c2.778-3.241,7.27-4.858,13.469-4.858c0.416,0,0.669,0.125,0.749,0.382
		c0.168,0.934,0.409,2.324,0.727,4.158c0.02,0.172,0.153,0.755,0.405,1.757c0.188,0.771,0.28,1.369,0.28,1.788
		c0,0.498-0.743,0.824-2.225,0.975c-1.715,0.188-2.771,0.496-3.164,0.934c-0.688,0.754-1.034,2.23-1.034,4.424
		c0,0.686,0.056,1.337,0.155,1.938c0.587,0,1.491-0.018,2.729-0.063c1.229-0.038,2.16-0.063,2.787-0.063
		c0.625,0,0.938,0.232,0.938,0.691c0,0.979,0.012,2.456,0.028,4.432C329.325,105.369,329.339,106.848,329.339,107.826z"/>
	<path fill="#E5E5E5" d="M362.854,112.622c0,4.759-1.459,8.622-4.368,11.584c-2.916,2.97-6.741,4.446-11.481,4.446
		c-4.596,0-8.374-1.461-11.34-4.385c-2.962-2.925-4.446-6.68-4.446-11.271c0-4.844,1.419-8.777,4.262-11.794
		c2.842-3.017,6.684-4.524,11.524-4.524c4.719,0,8.54,1.479,11.463,4.432C361.393,104.063,362.854,107.902,362.854,112.622z
		 M352.579,112.622c0-1.655-0.514-3.108-1.535-4.376c-1.022-1.26-2.354-1.891-3.979-1.891c-1.648,0-3.005,0.646-4.069,1.942
		c-1.003,1.204-1.505,2.651-1.505,4.321c0,1.688,0.502,3.141,1.505,4.354c1.064,1.291,2.421,1.938,4.069,1.938
		c1.629,0,2.979-0.646,4.043-1.938C352.086,115.764,352.579,114.311,352.579,112.622z"/>
	<path fill="#E5E5E5" d="M388.225,113.617c0,4.246-1.786,7.875-5.354,10.908c-3.134,2.666-6.941,4.369-11.434,5.1
		c-0.168,0.023-0.304,0.032-0.407,0.032c-0.481,0-1.547-1.464-3.194-4.401c-1.648-2.931-2.474-4.719-2.474-5.371
		c0-0.226,0.155-0.374,0.467-0.437c3.027-0.691,5.033-1.275,6.018-1.757c2.171-1.082,3.26-2.689,3.26-4.819
		c0-1.361-0.712-2.877-2.132-4.541c-2.465-2.845-3.802-4.424-4.011-4.733c-1.438-2.17-2.162-4.572-2.162-7.199
		c0-3.823,1.766-6.998,5.294-9.521c2.881-2.092,6.425-3.441,10.62-4.074c0.229-0.021,0.404-0.027,0.533-0.027
		c0.312,0,0.563,0.248,0.748,0.754c0.546,1.521,1.81,4.272,3.791,8.265c0.063,0.123,0.094,0.233,0.094,0.317
		c0,0.351-0.188,0.527-0.563,0.527c-0.166,0-0.445-0.029-0.845-0.094c-0.398-0.063-0.698-0.093-0.909-0.093
		c-1.505,0-2.816,0.341-3.943,1.03c-1.36,0.793-2.037,1.897-2.037,3.319c0,1.275,0.751,2.839,2.256,4.696
		c2.648,3.343,4.038,5.1,4.166,5.264C387.482,109.063,388.225,111.348,388.225,113.617z"/>
	<path fill="#E5E5E5" d="M423.338,112.622c0,4.759-1.458,8.622-4.369,11.584c-2.915,2.97-6.739,4.446-11.48,4.446
		c-4.597,0-8.374-1.461-11.339-4.385c-2.964-2.925-4.447-6.68-4.447-11.271c0-4.844,1.418-8.777,4.261-11.794
		c2.842-3.017,6.685-4.524,11.525-4.524c4.719,0,8.54,1.479,11.463,4.432C421.877,104.063,423.338,107.902,423.338,112.622z
		 M413.063,112.622c0-1.655-0.512-3.108-1.532-4.376c-1.021-1.26-2.354-1.891-3.98-1.891c-1.646,0-3.005,0.646-4.068,1.942
		c-1.004,1.204-1.505,2.651-1.505,4.321c0,1.688,0.501,3.141,1.505,4.354c1.063,1.291,2.423,1.938,4.068,1.938
		c1.629,0,2.979-0.646,4.043-1.938C412.57,115.764,413.063,114.311,413.063,112.622z"/>
	<path fill="#E5E5E5" d="M438.528,109.172c0,5.706,0.021,10.074,0.063,13.122c0,0.481,0.03,1.306,0.093,2.479
		c0.063,1.063,0.097,1.89,0.097,2.474c0,0.435-0.263,0.698-0.781,0.784c-0.94,0.162-2.633,0.248-5.073,0.248
		c-2.507,0-4.104-0.086-4.792-0.248c-0.458-0.108-0.725-0.389-0.786-0.848c0-0.063,0-0.516,0-1.348c0-1.855,0.023-4.643,0.063-8.352
		c0.043-3.709,0.063-6.477,0.063-8.315c0-8.771,0.012-12.769,0.031-11.997c-0.064-4.607-0.325-8.591-0.784-11.934
		c-0.043-0.227-0.063-0.403-0.063-0.528c0-0.459,0.271-0.688,0.813-0.688h11.183c0.521,0,0.762,0.217,0.724,0.66l-0.035,0.56
		C438.802,94.268,438.528,102.244,438.528,109.172z"/>
	<path fill="#E5E5E5" d="M476.487,99.555c0,1.547-0.07,3.863-0.219,6.957c-0.147,3.088-0.219,5.411-0.219,6.951
		c0,1.508,0.05,3.764,0.155,6.771c0.104,3,0.154,5.248,0.154,6.73c0,0.561-0.263,0.917-0.781,1.064
		c-0.793,0.21-2.476,0.312-5.046,0.312c-2.272,0-3.858-0.063-4.758-0.188c-0.396-0.063-0.646-0.312-0.753-0.754
		c-0.063-0.621-0.125-1.252-0.188-1.881c-0.104-0.955-0.254-1.438-0.438-1.438c0.291,0-0.764,0.708-3.164,2.13
		c-2.402,1.424-4.583,2.131-6.547,2.131c-5.53,0-8.813-2.496-9.834-7.485c-0.46-2.315-0.688-5.677-0.688-10.084
		c0-4.767,0.385-8.521,1.158-11.278c0.229-0.854,0.656-1.283,1.281-1.283c0.961,0,2.422,0.017,4.386,0.031
		c1.963,0.022,3.424,0.03,4.384,0.03c0.65,0,0.973,0.271,0.973,0.814c0,0.146-0.02,0.365-0.063,0.66
		c-0.438,2.838-0.657,5.722-0.657,8.646c0,3.631,0.113,6.118,0.348,7.446c0.372,2.304,1.741,3.452,4.103,3.452
		c0.917,0,1.916-0.412,2.993-1.223c1.071-0.814,1.633-1.662,1.676-2.541c0.038-0.771,0.063-6.01,0.063-15.721
		c0-0.69,0.053-1.098,0.155-1.222c0.125-0.21,0.502-0.317,1.128-0.317c1.021,0,2.564,0.018,4.622,0.03
		c2.056,0.022,3.595,0.03,4.616,0.03c0.627,0,0.992,0.154,1.098,0.477C476.467,98.971,476.487,99.229,476.487,99.555z"/>
	<path fill="#E5E5E5" d="M502.615,118.85c0,0.631-0.08,1.578-0.235,2.854c-0.156,1.276-0.232,2.208-0.232,2.799
		c0,0.599-0.063,0.979-0.188,1.151c-0.125,0.162-0.468,0.402-1.031,0.714c-2.691,1.485-5.684,2.225-8.959,2.225
		c-6.037,0-9.055-2.302-9.055-6.92c0-1.376,0.056-3.45,0.16-6.22c0.102-2.768,0.155-4.836,0.155-6.219
		c0-0.918-0.532-1.377-1.6-1.377c-0.085,0-0.223,0-0.408,0c-0.188,0.021-0.321,0.031-0.406,0.031c-0.793,0-1.189-0.279-1.189-0.85
		c0-0.334,0.026-0.84,0.077-1.532c0.056-0.688,0.078-1.194,0.078-1.528c0-0.443-0.022-1.112-0.078-2.006
		c-0.051-0.902-0.077-1.57-0.077-2.009c0-0.42,0.669-0.646,2.007-0.688c0.75-0.02,1.157-0.229,1.22-0.623
		c0.127-0.793,0.17-2.053,0.127-3.762c-0.082-2.689-0.127-3.98-0.127-3.852c0-2.425,0.229-3.641,0.688-3.641
		c0.563,0,1.368,0.125,2.414,0.384c1.188,0.271,2.014,0.428,2.474,0.467c1.063,0.146,2.675,0.341,4.822,0.601
		c0.525,0.039,0.785,0.217,0.785,0.526c0,0.831-0.069,2.101-0.206,3.794c-0.136,1.688-0.2,2.962-0.2,3.814
		c0,1.027,0.303,1.531,0.908,1.531c0.729,0,1.835-0.029,3.319-0.094c1.479-0.063,2.601-0.094,3.351-0.094
		c0.46,0,0.688,0.156,0.688,0.475c0,0.482-0.052,1.197-0.154,2.162c-0.104,0.955-0.155,1.68-0.155,2.16
		c0,0.498,0.008,1.229,0.031,2.193c0.02,0.955,0.028,1.687,0.028,2.189c0,0.438-0.303,0.652-0.907,0.652
		c-0.417,0-1.115-0.018-2.102-0.047c-0.979-0.031-1.679-0.047-2.1-0.047h-2.35c-0.313,0-0.471,0.457-0.471,1.385
		c0,0.497,0,1.232,0,2.223c0.021,1.006,0.03,1.742,0.03,2.227c0,1.75,0.198,2.961,0.596,3.631c0.563,0.902,1.671,1.345,3.319,1.345
		c0.522,0,1.271-0.116,2.242-0.356c0.967-0.238,1.649-0.355,2.049-0.355C502.395,118.166,502.615,118.391,502.615,118.85z"/>
	<path fill="#E5E5E5" d="M517.489,113.648c0,1.531,0.03,3.803,0.098,6.815c0.063,3.019,0.094,5.278,0.094,6.78
		c0,0.438-0.266,0.697-0.785,0.783c-0.706,0.123-2.306,0.188-4.793,0.188c-2.504,0-4.112-0.063-4.823-0.188
		c-0.459-0.086-0.738-0.219-0.845-0.411c-0.043-0.078-0.063-0.396-0.063-0.935c0-1.445,0.03-3.605,0.093-6.5
		c0.063-2.893,0.095-5.066,0.095-6.537c0-5.926-0.229-10.646-0.688-14.155c-0.043-0.334-0.063-0.554-0.063-0.653
		c0-0.42,0.28-0.63,0.846-0.63c0.587,0,1.478,0.063,2.679,0.188c1.2,0.123,2.104,0.191,2.709,0.191c0.606,0,1.516-0.054,2.727-0.163
		c1.212-0.103,2.118-0.153,2.727-0.153c0.501,0,0.754,0.209,0.754,0.629c0,0.086-0.022,0.278-0.063,0.593
		C517.718,103.564,517.489,108.285,517.489,113.648z M518.305,90.381c0,3.63-2.049,5.449-6.142,5.449
		c-1.754,0-3.203-0.459-4.354-1.376c-1.251-1.004-1.878-2.364-1.878-4.073c0-1.634,0.646-2.963,1.944-4.012
		c1.188-0.957,2.619-1.438,4.287-1.438c1.633,0,3.039,0.486,4.229,1.469C517.666,87.449,518.305,88.771,518.305,90.381z"/>
	<path fill="#E5E5E5" d="M553.671,112.622c0,4.759-1.459,8.622-4.369,11.584c-2.916,2.97-6.741,4.446-11.481,4.446
		c-4.597,0-8.373-1.461-11.339-4.385c-2.964-2.925-4.446-6.68-4.446-11.271c0-4.844,1.419-8.777,4.261-11.794
		c2.841-3.017,6.684-4.524,11.524-4.524c4.721,0,8.54,1.479,11.464,4.432C552.207,104.063,553.671,107.902,553.671,112.622z
		 M543.396,112.622c0-1.655-0.515-3.108-1.536-4.376c-1.021-1.26-2.353-1.891-3.979-1.891c-1.646,0-3.006,0.646-4.07,1.942
		c-1.002,1.204-1.505,2.651-1.505,4.321c0,1.688,0.503,3.141,1.505,4.354c1.064,1.291,2.424,1.938,4.07,1.938
		c1.629,0,2.979-0.646,4.042-1.938C542.902,115.764,543.396,114.311,543.396,112.622z"/>
	<path fill="#E5E5E5" d="M588.593,127.121c0,0.561-0.292,0.887-0.875,0.973c-0.588,0.086-2.109,0.124-4.575,0.124
		c-2.627,0-4.256-0.063-4.886-0.187c-0.626-0.124-0.938-0.553-0.938-1.282c0-0.988,0.029-2.465,0.094-4.455
		c0.063-1.981,0.094-3.476,0.094-4.478c0-0.771-0.02-1.922-0.063-3.461c-0.043-1.531-0.063-2.688-0.063-3.459
		c0-2.86-1.245-4.291-3.729-4.291c-0.814,0-1.766,0.355-2.851,1.063c-1.17,0.793-1.757,1.578-1.757,2.35v16.916
		c0,0.686-0.322,1.071-0.968,1.157c-0.734,0.089-2.229,0.124-4.482,0.124c-2.438,0-4.028-0.063-4.762-0.188
		c-0.646-0.107-0.969-0.45-0.969-1.033c0-1.633,0.008-4.081,0.031-7.361c0.02-3.279,0.028-5.744,0.028-7.395
		c0-5.2-0.405-9.281-1.221-12.243c-0.043-0.188-0.064-0.345-0.064-0.478c0-0.334,0.159-0.56,0.472-0.685
		c1.315-0.147,3.068-0.381,5.264-0.692c3.319-0.646,5.189-0.972,5.605-0.972c0.229,0,0.405,0.707,0.53,2.115
		c0.128,1.415,0.305,2.114,0.532,2.114c-0.229,0,0.895-0.727,3.369-2.178c2.474-1.453,4.639-2.179,6.499-2.179
		c2.651,0,4.863,0.629,6.641,1.882c1.981,1.438,2.976,3.443,2.976,6.012v9.998c0,1.353,0.012,3.383,0.029,6.086
		C588.584,123.73,588.593,125.761,588.593,127.121z"/>
	<path fill="#E5E5E5" d="M612.149,102.688c0,0.211-0.159,0.49-0.474,0.85c-0.586-0.146-1.17-0.219-1.753-0.219
		c-1.229,0-2.267,0.271-3.103,0.814c-1.003,0.623-1.505,1.51-1.505,2.659c0,0.729,0.531,1.664,1.599,2.791
		c1.608,1.687,2.601,2.83,2.979,3.413c1.063,1.586,1.599,3.288,1.599,5.107c0,1.063-0.21,2.189-0.63,3.381
		c-0.479,1.313-1.084,2.271-1.813,2.877c-1.55,1.338-3.353,2.465-5.42,3.382c-2.235,0.965-4.292,1.446-6.169,1.446
		c-0.421,0-1.354-1.135-2.809-3.396c-1.449-2.271-2.177-3.654-2.177-4.15c0-0.188,0.116-0.305,0.347-0.344
		c1.463-0.271,2.937-0.544,4.416-0.816c1.839-0.582,2.757-1.547,2.757-2.883c0-0.918-0.532-1.98-1.599-3.197
		c-1.9-2.104-2.895-3.226-2.977-3.35c-1.063-1.5-1.597-3.087-1.597-4.758c0-3.133,1.585-5.8,4.763-7.992
		c2.838-1.943,5.875-2.908,9.114-2.908c0.33,0,1.158,1.121,2.474,3.367C611.491,101,612.149,102.313,612.149,102.688z"/>
</g>
<g>
	<polygon fill="#E4B66E" points="51.066,55.076 51.147,115.389 100.236,145.199 149.033,115.389 148.235,55.704 100.287,40.091 	"/>
	<g>
		<path fill="#414141" d="M124.309,107.273c0,5.57-4.675,10.085-10.407,10.085c-5.741,0-10.419-4.515-10.419-10.085
			c0-4.615-1.838-8.956-5.171-12.233c-3.321-3.226-7.716-5.016-12.38-5.016c-4.678,0-9.09,1.79-12.405,5.016
			c-3.34,3.277-5.174,7.618-5.174,12.233h7.15c0-5.566,4.677-10.096,10.429-10.096c5.727,0,10.396,4.529,10.396,10.096
			c0,4.616,1.84,8.957,5.18,12.22c3.314,3.239,7.717,5.022,12.395,5.022c4.67,0,9.084-1.783,12.386-5.022
			c3.352-3.263,5.179-7.604,5.179-12.22H124.309z"/>
		<path fill="#80A940" d="M126.287,95.04c-3.302-3.226-7.716-5.016-12.386-5.016c-4.678,0-9.081,1.79-12.395,5.016
			c-3.314,3.24-5.141,7.544-5.18,12.123l0,0c0,5.565-4.67,10.195-10.396,10.195c-5.751,0-10.429-4.515-10.429-10.085h-7.15
			c0,4.616,1.834,8.957,5.174,12.22c3.314,3.239,7.727,5.022,12.405,5.022c4.664,0,9.06-1.783,12.38-5.022
			c3.319-3.237,5.162-7.624,5.171-12.22l0,0c0-5.566,4.679-10.096,10.419-10.096c5.732,0,10.407,4.529,10.407,10.096h7.157
			C131.466,102.658,129.639,98.317,126.287,95.04z"/>
	</g>
	<g opacity="0.5">
		<polygon opacity="0.1" points="149.019,55.076 100.394,77.695 100.287,40.091 		"/>
		<polygon opacity="0.1" points="51.066,115.389 51.864,55.704 100.394,77.695 100.236,145.199 		"/>
	</g>
	<polygon opacity="0.3" points="100.394,77.695 100.802,77.592 99.849,77.648 98.899,77.592 99.345,77.695 51.239,80.891 
		51.239,83.812 58.384,90.024 100.323,77.816 141.342,90.024 148.408,83.812 148.408,80.891 	"/>
	<polygon fill="#C29452" points="28.305,29.191 78.146,18.606 100.287,40.091 121.885,18.864 171.62,29.94 148.212,55.704 
		185.074,59.691 141.133,86.938 100.287,77.661 58.225,86.692 14.74,58.732 51.066,55.076 100.323,77.124 148.212,55.704 
		100.287,40.091 51.066,55.076 	"/>
</g>
</svg>
