<?xml version="1.0" encoding="utf-8"?>
<!-- Generator: Adobe Illustrator 16.0.0, SVG Export Plug-In . SVG Version: 6.00 Build 0)  -->
<!DOCTYPE svg PUBLIC "-//W3C//DTD SVG 1.1//EN" "http://www.w3.org/Graphics/SVG/1.1/DTD/svg11.dtd">
<svg version="1.1" id="Layer_1" xmlns="http://www.w3.org/2000/svg" xmlns:xlink="http://www.w3.org/1999/xlink" x="0px" y="0px"
	 width="785.545px" height="184.746px" viewBox="0 0 785.545 184.746" enable-background="new 0 0 785.545 184.746"
	 xml:space="preserve">
<g id="Guides_For_Artboard_2_">
</g>
<g id="Guides_For_Artboard_1_">
</g>
<g id="Guides_For_Artboard">
</g>
<g id="Layer_1_1_">
</g>
<g id="Layer_3">
</g>
<g id="Layer_4">
</g>
<polygon fill="#E5B76E" points="36.479,80.16 36.53,129.954 77.069,154.568 117.352,129.954 116.692,80.675 77.101,67.789 "/>
<polygon fill="#C49653" points="17.692,58.792 58.834,50.055 76.602,67.789 94.956,50.261 136.016,59.403 116.692,80.675 
	147.124,83.974 110.847,106.466 76.602,98.991 42.385,106.267 6.501,83.179 36.03,80.16 76.016,98.188 115.704,81.104 76.256,68.25 
	36.479,80.16 "/>
<g>
	<path fill="#81AA30" d="M164.7,108.179h-12.197V63.637H164.7V108.179z"/>
	<path fill="#81AA30" d="M221.394,108.179h-12.199l-22.437-27.281v27.281h-12.197V63.637h12.197l22.437,27.243V63.637h12.199
		V108.179z"/>
	<path fill="#81AA30" d="M258.088,73.295h-14.673v7.603h13.365v9.662h-13.365v17.619h-12.196V63.637h26.869L258.088,73.295
		L258.088,73.295z"/>
	<path fill="#81AA30" d="M277.569,108.179h-12.194V63.637h12.194V108.179L277.569,108.179z"/>
	<path fill="#81AA30" d="M334.264,108.179h-12.198l-22.438-27.281v27.281h-12.197V63.637h12.197l22.438,27.243V63.637h12.198
		V108.179z"/>
	<path fill="#81AA30" d="M356.285,108.179h-12.196V63.637h12.196V108.179z"/>
	<path fill="#81AA30" d="M393.946,73.295h-10.101v34.884h-12.197V73.295h-9.93v-9.658h32.229L393.946,73.295L393.946,73.295z"/>
	<path fill="#81AA30" d="M440.259,63.637l-17.556,23.134v21.407h-12.197V86.771l-16.977-23.134h14.568l8.867,12.141l8.518-12.141
		H440.259L440.259,63.637z"/>
</g>
<g>
	<path fill="#333333" d="M217.945,120.53c0,2.035,0.053,5.098,0.154,9.187c0.103,4.085,0.158,7.146,0.158,9.18
		c0,0.349-0.082,0.561-0.233,0.65c-0.036,0.015-0.261,0.052-0.675,0.105c-1.119,0.132-2.618,0.203-4.499,0.203
		c-2.518,0-4.121-0.071-4.809-0.203c-0.501-0.105-0.752-0.375-0.752-0.806c0,0.278,0.078-1.248,0.231-4.553
		c0.312-6.986,0.467-11.57,0.467-13.766c0-1.841-0.059-4.61-0.182-8.304c-0.122-3.692-0.181-6.459-0.181-8.304
		c0-0.378,0.195-0.569,0.595-0.569c0.536,0,1.342,0.026,2.417,0.078c1.08,0.052,1.884,0.079,2.422,0.079
		c0.533,0,1.323-0.026,2.364-0.079c1.045-0.051,1.834-0.078,2.366-0.078c0.5,0,0.75,0.191,0.75,0.569
		c0,1.843-0.099,4.611-0.298,8.304C218.045,115.92,217.945,118.688,217.945,120.53z"/>
	<path fill="#333333" d="M248.752,138.896c0,0.465-0.242,0.734-0.723,0.806c-0.485,0.071-1.743,0.102-3.778,0.102
		c-2.17,0-3.515-0.052-4.036-0.151c-0.517-0.105-0.774-0.458-0.774-1.061c0-0.816,0.025-2.035,0.078-3.68
		c0.051-1.637,0.078-2.871,0.078-3.698c0-0.638-0.018-1.586-0.053-2.858c-0.035-1.264-0.05-2.221-0.05-2.856
		c0-2.362-1.028-3.543-3.08-3.543c-0.673,0-1.457,0.292-2.354,0.877c-0.966,0.655-1.451,1.303-1.451,1.94v13.971
		c0,0.565-0.266,0.884-0.8,0.956c-0.606,0.073-1.84,0.103-3.701,0.103c-2.016,0-3.328-0.053-3.933-0.156
		c-0.534-0.087-0.799-0.371-0.799-0.852c0-1.351,0.006-3.37,0.023-6.079c0.018-2.711,0.025-4.744,0.025-6.107
		c0-4.295-0.336-7.665-1.007-10.113c-0.035-0.154-0.053-0.281-0.053-0.392c0-0.275,0.13-0.463,0.388-0.566
		c1.087-0.12,2.536-0.313,4.347-0.571c2.742-0.534,4.284-0.802,4.628-0.802c0.189,0,0.337,0.582,0.44,1.745
		c0.106,1.171,0.25,1.746,0.439,1.746c-0.189,0,0.738-0.599,2.783-1.799c2.042-1.2,3.83-1.799,5.367-1.799
		c2.188,0,4.015,0.521,5.483,1.554c1.638,1.188,2.456,2.845,2.456,4.966v8.256c0,1.118,0.011,2.794,0.027,5.025
		C248.745,136.099,248.752,137.775,248.752,138.896z"/>
	<path fill="#333333" d="M268.983,122.964c0,0.416-0.226,0.623-0.673,0.623c-1.863,0-3.33-0.052-4.398-0.155
		c0.052,1.288,0.103,3.094,0.156,5.406c0.018,0.98,0.093,2.689,0.231,5.115c0.12,2.196,0.179,3.899,0.179,5.121
		c0,0.366-0.241,0.57-0.72,0.624c-0.588,0.075-2.055,0.104-4.399,0.104c-1.946,0-3.216-0.053-3.801-0.156
		c-0.585-0.102-0.878-0.454-0.878-1.057v-14.257c0-0.499-0.346-0.748-1.037-0.748c-0.119,0-0.314,0.007-0.582,0.024
		c-0.266,0.018-0.462,0.024-0.581,0.024c-0.485,0-0.735-0.142-0.75-0.418c-0.155-1.499-0.234-3.677-0.234-6.542
		c0-0.637,0.328-1.028,0.984-1.16c0.585-0.053,1.179-0.097,1.787-0.13c-0.086-1.38-0.133-2.46-0.133-3.235
		c0-2.966,0.579-5.125,1.735-6.466c2.294-2.678,6.003-4.012,11.123-4.012c0.344,0,0.554,0.104,0.619,0.316
		c0.14,0.771,0.339,1.918,0.6,3.432c0.017,0.144,0.128,0.625,0.337,1.451c0.155,0.636,0.229,1.132,0.229,1.478
		c0,0.411-0.613,0.681-1.837,0.806c-1.416,0.152-2.288,0.41-2.612,0.77c-0.569,0.623-0.853,1.843-0.853,3.653
		c0,0.566,0.045,1.104,0.126,1.602c0.485,0,1.232-0.015,2.254-0.053c1.016-0.032,1.784-0.052,2.302-0.052
		c0.516,0,0.775,0.191,0.775,0.57c0,0.808,0.011,2.029,0.024,3.66C268.973,120.935,268.983,122.155,268.983,122.964z"/>
	<path fill="#333333" d="M296.661,126.926c0,3.93-1.205,7.12-3.608,9.564c-2.409,2.455-5.566,3.673-9.481,3.673
		c-3.794,0-6.916-1.208-9.364-3.621c-2.446-2.414-3.672-5.516-3.672-9.308c0-4.001,1.172-7.251,3.518-9.741
		c2.348-2.492,5.521-3.737,9.519-3.737c3.898,0,7.052,1.223,9.467,3.66C295.455,119.854,296.661,123.027,296.661,126.926z
		 M288.177,126.926c0-1.368-0.426-2.569-1.269-3.616c-0.845-1.04-1.943-1.561-3.287-1.561c-1.36,0-2.481,0.533-3.359,1.604
		c-0.829,0.994-1.244,2.188-1.244,3.567c0,1.395,0.415,2.595,1.244,3.597c0.878,1.066,1.999,1.6,3.359,1.6
		c1.345,0,2.46-0.533,3.338-1.6C287.769,129.52,288.177,128.317,288.177,126.926z"/>
	<path fill="#333333" d="M317.614,127.746c0,3.508-1.476,6.504-4.421,9.008c-2.589,2.201-5.733,3.608-9.442,4.213
		c-0.139,0.018-0.252,0.025-0.337,0.025c-0.398,0-1.277-1.208-2.638-3.634c-1.36-2.42-2.043-3.897-2.043-4.436
		c0-0.188,0.129-0.309,0.387-0.362c2.499-0.569,4.156-1.053,4.969-1.449c1.792-0.896,2.69-2.222,2.69-3.981
		c0-1.121-0.587-2.376-1.758-3.75c-2.036-2.349-3.14-3.653-3.313-3.91c-1.188-1.791-1.786-3.774-1.786-5.944
		c0-3.158,1.459-5.78,4.373-7.863c2.378-1.727,5.304-2.843,8.771-3.365c0.189-0.018,0.335-0.022,0.44-0.022
		c0.256,0,0.464,0.205,0.619,0.624c0.45,1.254,1.493,3.527,3.131,6.824c0.051,0.103,0.077,0.193,0.077,0.262
		c0,0.29-0.155,0.438-0.465,0.438c-0.139,0-0.367-0.028-0.696-0.079c-0.331-0.052-0.578-0.076-0.752-0.076
		c-1.242,0-2.326,0.28-3.257,0.85c-1.124,0.655-1.683,1.567-1.683,2.743c0,1.053,0.62,2.343,1.863,3.877
		c2.188,2.762,3.335,4.211,3.44,4.347C317.002,123.985,317.614,125.872,317.614,127.746z"/>
	<path fill="#333333" d="M346.613,126.926c0,3.93-1.204,7.12-3.608,9.564c-2.407,2.455-5.566,3.673-9.481,3.673
		c-3.796,0-6.916-1.208-9.363-3.621c-2.448-2.414-3.673-5.516-3.673-9.308c0-4.001,1.171-7.251,3.519-9.741
		c2.347-2.492,5.52-3.737,9.518-3.737c3.896,0,7.053,1.223,9.467,3.66C345.407,119.854,346.613,123.027,346.613,126.926z
		 M338.128,126.926c0-1.368-0.424-2.569-1.266-3.616c-0.844-1.04-1.945-1.561-3.288-1.561c-1.358,0-2.48,0.533-3.358,1.604
		c-0.83,0.994-1.244,2.188-1.244,3.567c0,1.395,0.414,2.595,1.244,3.597c0.878,1.066,2,1.6,3.358,1.6c1.346,0,2.461-0.533,3.339-1.6
		C337.721,129.52,338.128,128.317,338.128,126.926z"/>
	<path fill="#333333" d="M359.158,124.074c0,4.714,0.018,8.319,0.051,10.838c0,0.397,0.026,1.079,0.078,2.049
		c0.053,0.877,0.079,1.558,0.079,2.043c0,0.357-0.217,0.575-0.646,0.648c-0.776,0.132-2.173,0.203-4.189,0.203
		c-2.071,0-3.389-0.071-3.957-0.203c-0.378-0.091-0.599-0.322-0.649-0.702c0-0.054,0-0.426,0-1.112c0-1.534,0.02-3.836,0.053-6.897
		c0.035-3.064,0.052-5.349,0.052-6.868c0-7.243,0.01-10.546,0.026-9.908c-0.053-3.804-0.269-7.095-0.647-9.856
		c-0.036-0.187-0.052-0.332-0.052-0.437c0-0.376,0.223-0.567,0.672-0.567h9.235c0.43,0,0.629,0.179,0.598,0.546l-0.029,0.461
		C359.385,111.766,359.158,118.354,359.158,124.074z"/>
	<path fill="#333333" d="M390.508,116.132c0,1.277-0.059,3.19-0.181,5.746c-0.121,2.55-0.181,4.469-0.181,5.74
		c0,1.247,0.04,3.108,0.129,5.592c0.086,2.48,0.127,4.336,0.127,5.561c0,0.463-0.218,0.757-0.646,0.879
		c-0.655,0.173-2.045,0.256-4.168,0.256c-1.875,0-3.187-0.052-3.929-0.155c-0.327-0.052-0.533-0.257-0.621-0.624
		c-0.055-0.513-0.104-1.031-0.155-1.552c-0.086-0.789-0.21-1.188-0.363-1.188c0.239,0-0.629,0.586-2.612,1.76
		c-1.984,1.176-3.785,1.759-5.406,1.759c-4.566,0-7.277-2.061-8.123-6.182c-0.38-1.912-0.567-4.688-0.567-8.329
		c0-3.936,0.317-7.035,0.957-9.313c0.188-0.705,0.54-1.06,1.057-1.06c0.793,0,2,0.014,3.622,0.027
		c1.621,0.018,2.828,0.024,3.62,0.024c0.537,0,0.804,0.222,0.804,0.672c0,0.121-0.017,0.302-0.052,0.546
		c-0.361,2.343-0.542,4.726-0.542,7.141c0,2.999,0.092,5.053,0.286,6.147c0.308,1.904,1.438,2.854,3.388,2.854
		c0.758,0,1.584-0.34,2.473-1.011c0.885-0.673,1.349-1.373,1.385-2.099c0.03-0.636,0.052-4.962,0.052-12.982
		c0-0.571,0.043-0.906,0.127-1.01c0.104-0.174,0.414-0.261,0.932-0.261c0.844,0,2.118,0.013,3.816,0.024
		c1.698,0.016,2.971,0.024,3.813,0.024c0.517,0,0.82,0.128,0.906,0.395C390.491,115.65,390.508,115.863,390.508,116.132z"/>
	<path fill="#333333" d="M412.086,132.067c0,0.52-0.067,1.303-0.194,2.357c-0.129,1.053-0.192,1.823-0.192,2.312
		c0,0.494-0.052,0.81-0.155,0.95c-0.104,0.134-0.386,0.333-0.853,0.59c-2.222,1.227-4.692,1.838-7.397,1.838
		c-4.986,0-7.479-1.901-7.479-5.716c0-1.137,0.046-2.848,0.132-5.136c0.085-2.285,0.127-3.995,0.127-5.137
		c0-0.757-0.438-1.137-1.319-1.137c-0.07,0-0.186,0-0.337,0c-0.155,0.018-0.266,0.026-0.335,0.026c-0.657,0-0.984-0.231-0.984-0.702
		c0-0.276,0.024-0.692,0.065-1.267c0.046-0.566,0.063-0.985,0.063-1.262c0-0.367-0.018-0.918-0.063-1.655
		c-0.041-0.745-0.065-1.298-0.065-1.661c0-0.346,0.553-0.532,1.658-0.566c0.618-0.018,0.956-0.189,1.009-0.516
		c0.104-0.654,0.138-1.694,0.104-3.106c-0.066-2.221-0.104-3.287-0.104-3.181c0-2.005,0.189-3.009,0.567-3.009
		c0.465,0,1.129,0.104,1.993,0.318c0.981,0.224,1.665,0.354,2.044,0.386c0.878,0.119,2.211,0.282,3.982,0.496
		c0.434,0.033,0.649,0.181,0.649,0.435c0,0.688-0.06,1.735-0.171,3.134c-0.112,1.395-0.165,2.447-0.165,3.15
		c0,0.85,0.249,1.265,0.749,1.265c0.603,0,1.516-0.026,2.741-0.078c1.222-0.052,2.148-0.077,2.768-0.077
		c0.38,0,0.568,0.129,0.568,0.393c0,0.397-0.042,0.989-0.127,1.785c-0.086,0.788-0.13,1.389-0.13,1.784
		c0,0.412,0.009,1.014,0.027,1.811c0.017,0.789,0.024,1.393,0.024,1.81c0,0.362-0.252,0.538-0.75,0.538
		c-0.346,0-0.921-0.015-1.736-0.039c-0.808-0.025-1.386-0.04-1.734-0.04h-1.941c-0.257,0-0.388,0.379-0.388,1.144
		c0,0.412,0,1.021,0,1.836c0.019,0.833,0.025,1.44,0.025,1.842c0,1.443,0.164,2.444,0.492,2.997c0.464,0.745,1.38,1.108,2.742,1.108
		c0.433,0,1.048-0.093,1.851-0.292c0.8-0.197,1.362-0.294,1.692-0.294C411.903,131.503,412.086,131.688,412.086,132.067z"/>
	<path fill="#333333" d="M424.369,127.771c0,1.265,0.025,3.14,0.082,5.629c0.052,2.493,0.077,4.359,0.077,5.602
		c0,0.359-0.22,0.575-0.647,0.643c-0.584,0.104-1.905,0.158-3.959,0.158c-2.069,0-3.397-0.055-3.984-0.158
		c-0.379-0.067-0.609-0.178-0.696-0.338c-0.036-0.063-0.052-0.326-0.052-0.771c0-1.194,0.024-2.978,0.076-5.366
		c0.053-2.39,0.08-4.185,0.08-5.399c0-4.896-0.19-8.792-0.568-11.691c-0.035-0.277-0.052-0.456-0.052-0.54
		c0-0.347,0.231-0.52,0.697-0.52c0.485,0,1.221,0.052,2.212,0.154c0.992,0.104,1.738,0.159,2.237,0.159
		c0.501,0,1.253-0.044,2.255-0.135c0.998-0.085,1.746-0.127,2.249-0.127c0.414,0,0.624,0.173,0.624,0.52
		c0,0.072-0.018,0.23-0.052,0.491C424.559,119.442,424.369,123.342,424.369,127.771z M425.043,108.556
		c0,2.998-1.69,4.502-5.071,4.502c-1.449,0-2.646-0.381-3.597-1.137c-1.032-0.83-1.552-1.953-1.552-3.365
		c0-1.349,0.534-2.447,1.605-3.313c0.979-0.79,2.164-1.186,3.542-1.186c1.348,0,2.509,0.4,3.492,1.211
		C424.515,106.135,425.043,107.228,425.043,108.556z"/>
	<path fill="#333333" d="M454.25,126.926c0,3.93-1.204,7.12-3.607,9.564c-2.408,2.455-5.566,3.673-9.482,3.673
		c-3.797,0-6.915-1.208-9.364-3.621c-2.448-2.414-3.672-5.516-3.672-9.308c0-4.001,1.172-7.251,3.519-9.741
		c2.347-2.492,5.521-3.737,9.518-3.737c3.898,0,7.053,1.223,9.467,3.66C453.043,119.854,454.25,123.027,454.25,126.926z
		 M445.765,126.926c0-1.368-0.423-2.569-1.268-3.616c-0.843-1.04-1.944-1.561-3.286-1.561c-1.36,0-2.483,0.533-3.362,1.604
		c-0.828,0.994-1.242,2.188-1.242,3.567c0,1.395,0.414,2.595,1.242,3.597c0.879,1.066,2.002,1.6,3.362,1.6
		c1.345,0,2.46-0.533,3.338-1.6C445.357,129.52,445.765,128.317,445.765,126.926z"/>
	<path fill="#333333" d="M483.092,138.896c0,0.465-0.241,0.734-0.724,0.806c-0.483,0.071-1.742,0.102-3.778,0.102
		c-2.168,0-3.514-0.052-4.035-0.151c-0.516-0.105-0.772-0.458-0.772-1.061c0-0.816,0.024-2.035,0.077-3.68
		c0.051-1.637,0.077-2.871,0.077-3.698c0-0.638-0.016-1.586-0.052-2.858c-0.037-1.264-0.053-2.221-0.053-2.856
		c0-2.362-1.027-3.543-3.08-3.543c-0.672,0-1.457,0.292-2.354,0.877c-0.966,0.655-1.451,1.303-1.451,1.94v13.971
		c0,0.565-0.266,0.884-0.798,0.956c-0.607,0.073-1.843,0.103-3.703,0.103c-2.014,0-3.327-0.053-3.931-0.156
		c-0.534-0.087-0.802-0.371-0.802-0.852c0-1.351,0.008-3.37,0.025-6.079c0.017-2.711,0.023-4.744,0.023-6.107
		c0-4.295-0.334-7.665-1.006-10.113c-0.037-0.154-0.055-0.281-0.055-0.392c0-0.275,0.132-0.463,0.39-0.566
		c1.086-0.12,2.534-0.313,4.346-0.571c2.742-0.534,4.287-0.802,4.629-0.802c0.189,0,0.336,0.582,0.438,1.745
		c0.107,1.171,0.254,1.746,0.44,1.746c-0.188,0,0.739-0.599,2.782-1.799c2.044-1.2,3.831-1.799,5.367-1.799
		c2.19,0,4.017,0.521,5.484,1.554c1.636,1.188,2.457,2.845,2.457,4.966v8.256c0,1.118,0.011,2.794,0.026,5.025
		C483.084,136.099,483.092,137.775,483.092,138.896z"/>
	<path fill="#333333" d="M502.547,118.72c0,0.175-0.133,0.404-0.392,0.7c-0.484-0.121-0.967-0.179-1.448-0.179
		c-1.016,0-1.872,0.226-2.563,0.672c-0.827,0.516-1.244,1.246-1.244,2.196c0,0.602,0.44,1.374,1.323,2.306
		c1.325,1.392,2.146,2.336,2.459,2.819c0.879,1.309,1.32,2.714,1.32,4.217c0,0.878-0.173,1.81-0.519,2.792
		c-0.396,1.084-0.896,1.877-1.5,2.376c-1.279,1.104-2.768,2.036-4.476,2.794c-1.845,0.797-3.544,1.194-5.094,1.194
		c-0.348,0-1.117-0.938-2.319-2.806c-1.198-1.876-1.798-3.019-1.798-3.428c0-0.155,0.096-0.252,0.285-0.284
		c1.208-0.225,2.426-0.449,3.647-0.675c1.52-0.478,2.276-1.277,2.276-2.38c0-0.758-0.439-1.635-1.32-2.641
		c-1.569-1.737-2.388-2.664-2.457-2.767c-0.878-1.237-1.319-2.55-1.319-3.929c0-2.586,1.309-4.79,3.935-6.602
		c2.343-1.605,4.852-2.4,7.525-2.4c0.273,0,0.958,0.925,2.044,2.78C502.003,117.326,502.547,118.41,502.547,118.72z"/>
</g>
<path fill="#333333" d="M76.453,120.59c-0.142,0.226-0.269,0.465-0.405,0.706c0,0-5.996,10.799-15.022,8.239
	c0,0-7.365-1.625-7.822-9.418c0,0-0.242-6.505,7.417-6.262c0,0,4.937,0.526,8.121,6.066l6.401,1.374c0,0-2.974-11.131-14.42-13.243
	c0,0-12.502-2.872-13.766,10.914c0,0,0.25,13.237,14.471,16.579c0,0,7.563,2.265,15.024-4.185L76.453,120.59L76.453,120.59z"/>
<path fill="#81AA30" d="M88.905,107.41c0,0-7.485,2.896-12.071,12.468v11.012c0.726-1.061,1.458-2.195,2.176-3.436
	c0,0,3.313-8.308,8.091-12.86c0,0,2.248-1.364,3.011-1.566c0,0,6.773-2.568,7.781,4.997c0,0,0.45,5.963-6.734,9.91
	c0,0-6.575,3.418-9.131-3.105l-0.155-0.763c0,0-3.871,6.463-4.373,7.062c0,0,3.564,6.582,12.913,3.075
	c0,0,12.804-3.73,13.759-18.289C104.172,115.91,104.468,102.287,88.905,107.41z"/>
<g>
	<path fill="#333333" d="M527.975,73.451h20.663c12.249,0,18.375,4.818,18.375,14.456c0,4.777-2.099,8.748-6.292,11.914
		c6.082,2.64,9.124,7.347,9.124,14.124c0,5.193-1.792,9.332-5.375,12.415c-1.75,1.471-3.624,2.499-5.624,3.082
		c-2,0.582-4.693,0.875-8.082,0.875h-3.208v-14.623h2.874c1.695,0,2.889-0.215,3.583-0.645c0.695-0.431,1.042-1.188,1.042-2.271
		c0-1.834-1.416-2.751-4.249-2.751h-3.25V94.864c3.11,0,4.666-1.068,4.666-3.208c0-1.972-1.403-2.959-4.208-2.959h-3.125v41.62
		h-16.914V73.451z"/>
	<path fill="#333333" d="M575.509,73.451h16.915v33.786c0,2.639,0.423,4.395,1.271,5.27s2.521,1.312,5.021,1.312h0.875v16.499
		h-4.501c-6.164,0-10.97-1.799-14.413-5.396c-3.444-3.596-5.167-8.588-5.167-14.976V73.451z"/>
	<path fill="#333333" d="M632.252,72.034c8.055,0,14.962,2.931,20.726,8.791c5.763,5.86,8.645,12.873,8.645,21.037
		c0,8.307-2.902,15.359-8.707,21.165c-5.806,5.805-12.858,8.707-21.164,8.707c-8.247,0-15.29-2.917-21.122-8.75
		c-5.832-5.832-8.748-12.872-8.748-21.122c0-8.331,2.938-15.386,8.812-21.164C616.566,74.924,623.753,72.034,632.252,72.034z
		 M631.751,88.782c-3.472,0-6.429,1.276-8.873,3.833c-2.444,2.555-3.666,5.638-3.666,9.247c0,3.611,1.228,6.694,3.687,9.25
		c2.458,2.555,5.41,3.832,8.853,3.832c3.5,0,6.465-1.271,8.895-3.813c2.431-2.54,3.646-5.629,3.646-9.27
		c0-3.638-1.215-6.728-3.646-9.269C638.216,90.052,635.251,88.782,631.751,88.782z"/>
	<path fill="#333333" d="M693.66,98.447h16.121c3.473,4.305,5.208,8.846,5.208,13.622c0,5.555-2.034,10.221-6.104,13.999
		c-4.067,3.776-9.074,5.666-15.018,5.666c-7.722,0-14.275-2.93-19.664-8.792c-5.389-5.858-8.081-12.996-8.081-21.413
		c0-8.441,2.742-15.471,8.227-21.08c5.486-5.609,12.339-8.415,20.561-8.415c2.803,0,5.915,0.569,9.332,1.708v16.915
		c-2.667-1.251-5.098-1.875-7.29-1.875c-3.974,0-7.217,1.235-9.729,3.706c-2.514,2.474-3.77,5.682-3.77,9.625
		c0,4.027,1.166,7.221,3.499,9.582c2.333,2.36,5.484,3.541,9.455,3.541c2.528,0,3.791-0.736,3.791-2.208
		c0-1.11-0.832-1.667-2.498-1.667h-4.04V98.447z"/>
</g>
<rect x="515.082" y="63.637" fill="#333333" width="2.396" height="76.268"/>
<g>
	<g>
		<g>
			<polygon fill="#81AA30" points="739.902,45.223 743.656,47.369 751.167,43.077 739.902,36.373 			"/>
			<path fill="#81AA30" d="M762.7,31.542l2.684-4.827c2.145-3.756-4.023-8.048-6.975-9.655c-2.951-1.612-9.656-5.098-11.802-1.074
				l-3.756,6.438c-3.756-0.805-8.049-1.341-12.339-1.341c-22.265-0.001-40.236,12.071-40.236,26.824
				c0,14.751,17.972,26.822,40.236,26.822c0,0,0,0,0.269,0c0.269,3.219-3.486,8.583-8.853,11.264
				c21.192,0,30.849-15.826,30.849-15.826c10.728-4.828,17.702-12.875,17.702-22.263C771.016,41.736,767.797,36.103,762.7,31.542z
				 M708.783,55.418c-2.146,0-3.754-1.613-3.754-3.758c0-2.146,1.608-3.755,3.754-3.755c2.146,0,3.755,1.609,3.755,3.755
				C712.538,53.805,710.664,55.418,708.783,55.418z M718.709,55.418c-2.146,0-3.755-1.613-3.755-3.758
				c0-2.146,1.608-3.755,3.755-3.755c2.146,0,3.754,1.609,3.754,3.755C722.463,53.805,720.854,55.418,718.709,55.418z
				 M728.635,55.418c-2.146,0-3.757-1.613-3.757-3.758c0-2.146,1.611-3.755,3.757-3.755s3.755,1.609,3.755,3.755
				C732.39,53.805,730.78,55.418,728.635,55.418z M752.509,43.882l-7.778,4.292l-6.439,3.486v-7.241v-8.852l10.73-18.508
				c0.535-1.073,4.293,0,8.314,2.146c4.022,2.146,6.706,4.828,5.901,5.901L752.509,43.882z"/>
		</g>
	</g>
</g>
</svg>
