<?xml version="1.0" encoding="utf-8"?>
<!-- Generator: Adobe Illustrator 16.0.0, SVG Export Plug-In . SVG Version: 6.00 Build 0)  -->
<!DOCTYPE svg PUBLIC "-//W3C//DTD SVG 1.1//EN" "http://www.w3.org/Graphics/SVG/1.1/DTD/svg11.dtd">
<svg version="1.1" id="Layer_1" xmlns="http://www.w3.org/2000/svg" xmlns:xlink="http://www.w3.org/1999/xlink" x="0px" y="0px"
	 width="626.09px" height="154.492px" viewBox="0 0 626.09 154.492" enable-background="new 0 0 626.09 154.492"
	 xml:space="preserve">
<g id="Guides_For_Artboard_2_">
</g>
<g id="Guides_For_Artboard_1_">
</g>
<g id="Guides_For_Artboard">
</g>
<g id="Layer_1_1_">
</g>
<g id="Layer_3">
</g>
<g id="Layer_4">
</g>
<g>
	<path fill="#81AA30" d="M203.068,89.922H188.3V35.991h14.768V89.922L203.068,89.922z"/>
	<path fill="#81AA30" d="M271.715,89.922h-14.771l-27.168-33.033v33.033h-14.768V35.991h14.768l27.168,32.986V35.991h14.771V89.922z
		"/>
	<path fill="#81AA30" d="M316.146,47.685H298.38v9.204h16.183v11.7H298.38v21.333h-14.769V35.991h32.532L316.146,47.685
		L316.146,47.685z"/>
	<path fill="#81AA30" d="M339.736,89.922H324.97V35.991h14.768L339.736,89.922L339.736,89.922z"/>
	<path fill="#81AA30" d="M408.384,89.922h-14.771l-27.167-33.033v33.033h-14.77V35.991h14.77l27.167,32.986V35.991h14.771V89.922z"
		/>
	<path fill="#81AA30" d="M435.05,89.922h-14.77V35.991h14.77V89.922z"/>
	<path fill="#81AA30" d="M480.65,47.685h-12.229v42.237H453.65V47.685h-12.021V35.991h39.021L480.65,47.685L480.65,47.685z"/>
	<path fill="#81AA30" d="M536.729,35.991l-21.258,28.011v25.92h-14.77v-25.92l-20.556-28.011h17.641l10.734,14.701l10.315-14.701
		H536.729L536.729,35.991z"/>
</g>
<g>
	<path fill="#333333" d="M267.54,104.88c0,2.466,0.063,6.173,0.187,11.124c0.124,4.945,0.19,8.652,0.19,11.117
		c0,0.42-0.099,0.677-0.282,0.785c-0.044,0.017-0.316,0.063-0.818,0.125c-1.354,0.162-3.17,0.248-5.447,0.248
		c-3.049,0-4.99-0.086-5.822-0.248c-0.606-0.125-0.91-0.451-0.91-0.973c0,0.336,0.094-1.511,0.28-5.515
		c0.377-8.459,0.564-14.01,0.564-16.668c0-2.229-0.071-5.582-0.221-10.053c-0.147-4.474-0.219-7.821-0.219-10.056
		c0-0.459,0.236-0.688,0.721-0.688c0.648,0,1.625,0.028,2.927,0.094c1.308,0.063,2.282,0.097,2.933,0.097
		c0.646,0,1.602-0.031,2.863-0.097c1.265-0.063,2.221-0.094,2.864-0.094c0.606,0,0.909,0.229,0.909,0.688
		c0,2.23-0.12,5.582-0.361,10.056C267.661,99.298,267.54,102.648,267.54,104.88z"/>
	<path fill="#333333" d="M304.842,127.121c0,0.561-0.292,0.887-0.874,0.973c-0.588,0.086-2.112,0.125-4.576,0.125
		c-2.628,0-4.256-0.063-4.887-0.188c-0.625-0.124-0.938-0.553-0.938-1.282c0-0.987,0.03-2.465,0.095-4.455
		c0.062-1.981,0.094-3.476,0.094-4.478c0-0.771-0.021-1.922-0.063-3.461c-0.043-1.531-0.062-2.688-0.062-3.459
		c0-2.86-1.245-4.291-3.729-4.291c-0.814,0-1.765,0.354-2.85,1.063c-1.17,0.793-1.757,1.578-1.757,2.35v16.916
		c0,0.687-0.322,1.071-0.968,1.158c-0.734,0.088-2.229,0.123-4.482,0.123c-2.441,0-4.03-0.063-4.762-0.188
		c-0.646-0.106-0.968-0.449-0.968-1.032c0-1.634,0.008-4.081,0.028-7.361c0.021-3.28,0.031-5.745,0.031-7.395
		c0-5.2-0.408-9.281-1.22-12.243c-0.043-0.188-0.065-0.344-0.065-0.477c0-0.334,0.158-0.562,0.47-0.687
		c1.317-0.146,3.07-0.381,5.265-0.69c3.318-0.646,5.188-0.974,5.604-0.974c0.229,0,0.408,0.707,0.533,2.115
		c0.128,1.415,0.303,2.112,0.532,2.112c-0.229,0,0.894-0.726,3.37-2.178c2.473-1.453,4.638-2.178,6.499-2.178
		c2.649,0,4.861,0.63,6.639,1.882c1.983,1.438,2.974,3.443,2.974,6.011v9.998c0,1.354,0.015,3.383,0.032,6.086
		C304.834,123.73,304.842,125.762,304.842,127.121z"/>
	<path fill="#333333" d="M329.339,107.826c0,0.505-0.271,0.754-0.814,0.754c-2.257,0-4.032-0.063-5.326-0.188
		c0.063,1.563,0.125,3.746,0.188,6.547c0.021,1.188,0.113,3.258,0.279,6.192c0.146,2.658,0.218,4.722,0.218,6.203
		c0,0.44-0.291,0.688-0.873,0.755c-0.712,0.088-2.486,0.124-5.325,0.124c-2.357,0-3.896-0.063-4.604-0.188
		c-0.708-0.123-1.063-0.551-1.063-1.279v-17.262c0-0.604-0.42-0.907-1.256-0.907c-0.145,0-0.381,0.008-0.704,0.028
		c-0.321,0.021-0.561,0.031-0.702,0.031c-0.589,0-0.892-0.173-0.909-0.507c-0.188-1.813-0.283-4.453-0.283-7.922
		c0-0.771,0.396-1.244,1.192-1.406c0.708-0.063,1.427-0.116,2.161-0.155c-0.104-1.67-0.159-2.979-0.159-3.918
		c0-3.592,0.699-6.205,2.102-7.828c2.777-3.24,7.269-4.857,13.469-4.857c0.416,0,0.669,0.125,0.749,0.383
		c0.168,0.934,0.409,2.323,0.726,4.157c0.021,0.172,0.155,0.755,0.407,1.757c0.188,0.771,0.279,1.369,0.279,1.788
		c0,0.498-0.743,0.824-2.226,0.976c-1.715,0.188-2.771,0.496-3.164,0.934c-0.688,0.754-1.032,2.23-1.032,4.424
		c0,0.686,0.055,1.337,0.153,1.938c0.587,0,1.491-0.018,2.729-0.063c1.229-0.038,2.16-0.063,2.787-0.063
		c0.625,0,0.938,0.231,0.938,0.69c0,0.979,0.013,2.456,0.028,4.433C329.325,105.369,329.339,106.848,329.339,107.826z"/>
	<path fill="#333333" d="M362.854,112.622c0,4.759-1.459,8.622-4.368,11.584c-2.916,2.97-6.74,4.446-11.48,4.446
		c-4.596,0-8.374-1.461-11.339-4.385c-2.963-2.922-4.447-6.681-4.447-11.271c0-4.844,1.42-8.777,4.261-11.794
		c2.843-3.017,6.687-4.524,11.525-4.524c4.72,0,8.54,1.479,11.463,4.432C361.393,104.063,362.854,107.902,362.854,112.622z
		 M352.579,112.622c0-1.655-0.516-3.108-1.535-4.376c-1.022-1.26-2.354-1.891-3.979-1.891c-1.646,0-3.005,0.646-4.068,1.941
		c-1.003,1.204-1.506,2.651-1.506,4.321c0,1.688,0.503,3.141,1.506,4.354c1.063,1.291,2.422,1.938,4.068,1.938
		c1.629,0,2.979-0.646,4.043-1.938C352.086,115.764,352.579,114.311,352.579,112.622z"/>
	<path fill="#333333" d="M388.225,113.617c0,4.246-1.786,7.875-5.354,10.908c-3.135,2.666-6.94,4.369-11.434,5.1
		c-0.169,0.023-0.305,0.031-0.408,0.031c-0.48,0-1.547-1.463-3.193-4.4c-1.646-2.931-2.475-4.719-2.475-5.371
		c0-0.226,0.155-0.373,0.468-0.438c3.026-0.69,5.032-1.274,6.018-1.756c2.17-1.082,3.258-2.689,3.258-4.819
		c0-1.36-0.711-2.877-2.129-4.541c-2.466-2.845-3.803-4.425-4.012-4.733c-1.438-2.17-2.162-4.572-2.162-7.199
		c0-3.823,1.767-6.998,5.295-9.521c2.879-2.092,6.422-3.44,10.619-4.073c0.229-0.021,0.404-0.027,0.532-0.027
		c0.312,0,0.563,0.248,0.749,0.754c0.546,1.521,1.809,4.271,3.791,8.265c0.063,0.123,0.094,0.233,0.094,0.317
		c0,0.351-0.188,0.529-0.563,0.529c-0.168,0-0.445-0.031-0.845-0.097c-0.399-0.063-0.698-0.093-0.909-0.093
		c-1.505,0-2.816,0.341-3.943,1.029c-1.36,0.793-2.038,1.897-2.038,3.32c0,1.274,0.752,2.838,2.257,4.695
		c2.648,3.343,4.038,5.1,4.166,5.264C387.482,109.063,388.225,111.348,388.225,113.617z"/>
	<path fill="#333333" d="M423.338,112.622c0,4.759-1.458,8.622-4.369,11.584c-2.915,2.97-6.739,4.446-11.48,4.446
		c-4.597,0-8.374-1.461-11.339-4.385c-2.964-2.922-4.446-6.681-4.446-11.271c0-4.844,1.418-8.777,4.261-11.794
		c2.842-3.017,6.684-4.524,11.524-4.524c4.718,0,8.54,1.479,11.463,4.432C421.877,104.063,423.338,107.902,423.338,112.622z
		 M413.063,112.622c0-1.655-0.512-3.108-1.532-4.376c-1.021-1.26-2.354-1.891-3.979-1.891c-1.646,0-3.005,0.646-4.067,1.941
		c-1.005,1.204-1.506,2.651-1.506,4.321c0,1.688,0.501,3.141,1.506,4.354c1.063,1.291,2.422,1.938,4.067,1.938
		c1.629,0,2.979-0.646,4.043-1.938C412.57,115.764,413.063,114.311,413.063,112.622z"/>
	<path fill="#333333" d="M438.528,109.172c0,5.706,0.021,10.074,0.063,13.122c0,0.481,0.029,1.306,0.093,2.479
		c0.063,1.063,0.097,1.89,0.097,2.474c0,0.435-0.263,0.698-0.781,0.784c-0.939,0.162-2.633,0.248-5.072,0.248
		c-2.508,0-4.104-0.086-4.792-0.248c-0.458-0.108-0.726-0.389-0.786-0.848c0-0.063,0-0.517,0-1.349c0-1.854,0.022-4.644,0.063-8.353
		c0.043-3.709,0.063-6.477,0.063-8.314c0-8.771,0.012-12.77,0.031-11.997c-0.063-4.606-0.325-8.591-0.784-11.935
		c-0.043-0.227-0.063-0.402-0.063-0.527c0-0.459,0.271-0.688,0.813-0.688h11.183c0.521,0,0.762,0.217,0.725,0.66l-0.035,0.559
		C438.802,94.268,438.528,102.244,438.528,109.172z"/>
	<path fill="#333333" d="M476.487,99.555c0,1.547-0.07,3.863-0.219,6.957c-0.147,3.088-0.219,5.411-0.219,6.951
		c0,1.508,0.05,3.764,0.155,6.771c0.104,3,0.153,5.248,0.153,6.729c0,0.562-0.263,0.917-0.781,1.063
		c-0.793,0.211-2.477,0.313-5.046,0.313c-2.271,0-3.857-0.063-4.758-0.188c-0.396-0.063-0.646-0.313-0.753-0.754
		c-0.063-0.621-0.125-1.252-0.188-1.881c-0.104-0.955-0.254-1.438-0.438-1.438c0.29,0-0.764,0.708-3.164,2.13
		c-2.402,1.424-4.583,2.131-6.546,2.131c-5.531,0-8.813-2.496-9.837-7.484c-0.459-2.315-0.688-5.678-0.688-10.084
		c0-4.768,0.385-8.521,1.157-11.278c0.229-0.854,0.655-1.283,1.28-1.283c0.962,0,2.423,0.017,4.387,0.031
		c1.963,0.022,3.424,0.03,4.385,0.03c0.649,0,0.973,0.271,0.973,0.813c0,0.146-0.021,0.365-0.063,0.66
		c-0.438,2.838-0.656,5.722-0.656,8.646c0,3.631,0.112,6.118,0.348,7.446c0.372,2.304,1.741,3.452,4.103,3.452
		c0.917,0,1.916-0.412,2.993-1.223c1.071-0.814,1.633-1.664,1.676-2.541c0.038-0.771,0.063-6.01,0.063-15.721
		c0-0.69,0.053-1.099,0.155-1.223c0.125-0.21,0.502-0.316,1.128-0.316c1.021,0,2.563,0.018,4.622,0.029
		c2.056,0.021,3.595,0.03,4.615,0.03c0.627,0,0.992,0.153,1.099,0.477C476.467,98.971,476.487,99.229,476.487,99.555z"/>
	<path fill="#333333" d="M502.615,118.85c0,0.631-0.08,1.578-0.234,2.854c-0.156,1.276-0.232,2.208-0.232,2.799
		c0,0.599-0.063,0.979-0.188,1.151c-0.125,0.162-0.469,0.402-1.031,0.714c-2.691,1.485-5.685,2.226-8.959,2.226
		c-6.037,0-9.056-2.303-9.056-6.921c0-1.376,0.057-3.45,0.16-6.22c0.103-2.768,0.154-4.836,0.154-6.219
		c0-0.918-0.531-1.377-1.599-1.377c-0.085,0-0.224,0-0.408,0c-0.188,0.021-0.321,0.031-0.406,0.031
		c-0.793,0-1.189-0.279-1.189-0.851c0-0.334,0.026-0.84,0.077-1.532c0.057-0.688,0.078-1.193,0.078-1.527
		c0-0.443-0.021-1.112-0.078-2.006c-0.051-0.902-0.077-1.57-0.077-2.01c0-0.42,0.67-0.646,2.008-0.688
		c0.75-0.021,1.157-0.229,1.22-0.623c0.128-0.793,0.169-2.053,0.128-3.762c-0.082-2.689-0.128-3.98-0.128-3.853
		c0-2.425,0.229-3.642,0.688-3.642c0.563,0,1.367,0.125,2.413,0.385c1.188,0.271,2.015,0.428,2.475,0.467
		c1.063,0.146,2.677,0.341,4.822,0.602c0.524,0.039,0.784,0.217,0.784,0.525c0,0.831-0.068,2.102-0.206,3.794
		c-0.136,1.688-0.199,2.962-0.199,3.813c0,1.027,0.303,1.531,0.907,1.531c0.729,0,1.835-0.031,3.319-0.094
		c1.479-0.063,2.602-0.094,3.352-0.094c0.459,0,0.688,0.156,0.688,0.475c0,0.482-0.051,1.197-0.153,2.162
		c-0.104,0.955-0.155,1.68-0.155,2.16c0,0.498,0.009,1.229,0.031,2.193c0.021,0.955,0.03,1.687,0.03,2.188
		c0,0.438-0.305,0.652-0.909,0.652c-0.417,0-1.114-0.019-2.102-0.048c-0.979-0.03-1.679-0.049-2.101-0.049h-2.351
		c-0.313,0-0.47,0.459-0.47,1.388c0,0.497,0,1.231,0,2.223c0.021,1.006,0.029,1.742,0.029,2.228c0,1.75,0.198,2.961,0.597,3.631
		c0.563,0.902,1.671,1.345,3.319,1.345c0.522,0,1.271-0.116,2.241-0.356c0.968-0.237,1.649-0.354,2.05-0.354
		C502.395,118.166,502.615,118.391,502.615,118.85z"/>
	<path fill="#333333" d="M517.489,113.648c0,1.531,0.03,3.803,0.099,6.814c0.063,3.02,0.094,5.278,0.094,6.78
		c0,0.438-0.267,0.696-0.783,0.78c-0.708,0.125-2.308,0.188-4.794,0.188c-2.505,0-4.113-0.063-4.824-0.188
		c-0.459-0.084-0.738-0.217-0.844-0.408c-0.044-0.078-0.063-0.396-0.063-0.936c0-1.447,0.03-3.604,0.094-6.5
		c0.063-2.893,0.097-5.065,0.097-6.537c0-5.926-0.23-10.646-0.688-14.154c-0.044-0.336-0.063-0.555-0.063-0.653
		c0-0.42,0.28-0.63,0.846-0.63c0.587,0,1.479,0.063,2.679,0.188c1.2,0.123,2.104,0.191,2.709,0.191c0.606,0,1.518-0.054,2.729-0.163
		c1.212-0.103,2.117-0.153,2.727-0.153c0.501,0,0.754,0.209,0.754,0.629c0,0.086-0.021,0.278-0.063,0.594
		C517.718,103.564,517.489,108.285,517.489,113.648z M518.305,90.381c0,3.631-2.049,5.449-6.143,5.449
		c-1.754,0-3.204-0.459-4.354-1.376c-1.251-1.004-1.878-2.364-1.878-4.073c0-1.634,0.646-2.963,1.942-4.012
		c1.188-0.957,2.62-1.438,4.288-1.438c1.634,0,3.039,0.485,4.229,1.469C517.666,87.449,518.305,88.771,518.305,90.381z"/>
	<path fill="#333333" d="M553.671,112.622c0,4.759-1.459,8.622-4.369,11.584c-2.916,2.97-6.741,4.446-11.481,4.446
		c-4.597,0-8.373-1.461-11.339-4.385c-2.964-2.922-4.446-6.681-4.446-11.271c0-4.844,1.419-8.777,4.262-11.794
		c2.841-3.017,6.685-4.524,11.523-4.524c4.721,0,8.54,1.479,11.464,4.432C552.206,104.063,553.671,107.902,553.671,112.622z
		 M543.396,112.622c0-1.655-0.515-3.108-1.536-4.376c-1.021-1.26-2.353-1.891-3.979-1.891c-1.646,0-3.006,0.646-4.07,1.941
		c-1.002,1.204-1.505,2.651-1.505,4.321c0,1.688,0.503,3.141,1.505,4.354c1.064,1.291,2.424,1.938,4.07,1.938
		c1.629,0,2.979-0.646,4.042-1.938C542.902,115.764,543.396,114.311,543.396,112.622z"/>
	<path fill="#333333" d="M588.593,127.121c0,0.561-0.292,0.887-0.875,0.973c-0.588,0.086-2.109,0.125-4.575,0.125
		c-2.627,0-4.256-0.063-4.886-0.188c-0.626-0.124-0.938-0.553-0.938-1.282c0-0.987,0.029-2.465,0.094-4.455
		c0.063-1.981,0.095-3.476,0.095-4.478c0-0.771-0.021-1.922-0.063-3.461c-0.043-1.531-0.063-2.688-0.063-3.459
		c0-2.86-1.245-4.291-3.729-4.291c-0.813,0-1.766,0.354-2.851,1.063c-1.17,0.793-1.757,1.578-1.757,2.35v16.916
		c0,0.687-0.322,1.071-0.969,1.158c-0.733,0.088-2.229,0.123-4.481,0.123c-2.438,0-4.028-0.063-4.763-0.188
		c-0.646-0.106-0.969-0.449-0.969-1.032c0-1.634,0.009-4.081,0.03-7.361c0.021-3.28,0.029-5.745,0.029-7.395
		c0-5.2-0.406-9.281-1.221-12.243c-0.044-0.188-0.064-0.344-0.064-0.477c0-0.334,0.159-0.562,0.472-0.687
		c1.315-0.146,3.068-0.381,5.265-0.69c3.318-0.646,5.188-0.974,5.604-0.974c0.229,0,0.405,0.707,0.53,2.115
		c0.128,1.415,0.305,2.112,0.531,2.112c-0.229,0,0.896-0.726,3.369-2.178c2.475-1.453,4.64-2.178,6.499-2.178
		c2.651,0,4.863,0.63,6.642,1.882c1.98,1.438,2.976,3.443,2.976,6.011v9.998c0,1.354,0.013,3.383,0.03,6.086
		C588.584,123.73,588.593,125.762,588.593,127.121z"/>
	<path fill="#333333" d="M612.149,102.688c0,0.211-0.159,0.49-0.474,0.851c-0.586-0.146-1.17-0.22-1.753-0.22
		c-1.229,0-2.268,0.271-3.104,0.814c-1.003,0.623-1.506,1.51-1.506,2.659c0,0.729,0.532,1.664,1.601,2.791
		c1.606,1.687,2.601,2.83,2.979,3.413c1.063,1.586,1.6,3.288,1.6,5.107c0,1.063-0.21,2.188-0.63,3.381
		c-0.479,1.313-1.084,2.271-1.813,2.877c-1.551,1.338-3.354,2.465-5.42,3.382c-2.234,0.965-4.292,1.446-6.168,1.446
		c-0.423,0-1.354-1.135-2.811-3.396c-1.449-2.271-2.177-3.654-2.177-4.15c0-0.188,0.116-0.305,0.347-0.344
		c1.463-0.271,2.938-0.544,4.416-0.816c1.839-0.582,2.757-1.547,2.757-2.883c0-0.918-0.531-1.979-1.599-3.197
		c-1.9-2.104-2.894-3.225-2.976-3.35c-1.063-1.5-1.599-3.087-1.599-4.758c0-3.133,1.585-5.8,4.764-7.992
		c2.838-1.943,5.875-2.908,9.113-2.908c0.33,0,1.158,1.121,2.475,3.367C611.49,101,612.149,102.313,612.149,102.688z"/>
</g>
<g>
	<polygon fill="#E4B66E" points="49.17,58.172 49.246,115.338 95.774,143.593 142.024,115.338 141.268,58.767 95.822,43.97 	"/>
	<g>
		<path fill="#414141" d="M118.59,107.646c0,5.281-4.431,9.558-9.864,9.558c-5.441,0-9.875-4.276-9.875-9.558
			c0-4.375-1.743-8.488-4.901-11.596c-3.148-3.058-7.314-4.754-11.735-4.754c-4.434,0-8.615,1.696-11.757,4.754
			c-3.166,3.107-4.904,7.221-4.904,11.596h6.776c0-5.276,4.433-9.569,9.884-9.569c5.428,0,9.854,4.293,9.854,9.569
			c0,4.375,1.744,8.49,4.909,11.581c3.142,3.07,7.315,4.761,11.748,4.761c4.426,0,8.611-1.69,11.739-4.761
			c3.177-3.091,4.909-7.206,4.909-11.581H118.59z"/>
		<path fill="#80A940" d="M120.465,96.05c-3.128-3.058-7.313-4.754-11.739-4.754c-4.433,0-8.606,1.696-11.748,4.754
			c-3.141,3.073-4.872,7.151-4.909,11.491l0,0c0,5.275-4.426,9.662-9.854,9.662c-5.451,0-9.884-4.276-9.884-9.558h-6.776
			c0,4.375,1.738,8.49,4.904,11.581c3.142,3.07,7.323,4.761,11.757,4.761c4.421,0,8.586-1.69,11.735-4.761
			c3.145-3.067,4.892-7.225,4.901-11.581l0,0c0-5.276,4.434-9.569,9.875-9.569c5.433,0,9.864,4.293,9.864,9.569h6.784
			C125.374,103.271,123.642,99.157,120.465,96.05z"/>
	</g>
	<g opacity="0.5">
		<polygon opacity="0.1" points="142.011,58.172 95.924,79.611 95.822,43.97 		"/>
		<polygon opacity="0.1" points="49.17,115.338 49.926,58.767 95.924,79.611 95.774,143.593 		"/>
	</g>
	<polygon opacity="0.3" points="95.924,79.611 96.31,79.514 95.407,79.566 94.506,79.514 94.929,79.611 49.334,82.639 
		49.334,85.407 56.106,91.296 95.857,79.726 134.735,91.296 141.431,85.407 141.431,82.639 	"/>
	<polygon fill="#C29452" points="27.598,33.639 74.837,23.606 95.822,43.97 116.292,23.851 163.432,34.349 141.245,58.767 
		176.184,62.547 134.536,88.37 95.822,79.579 55.955,88.14 14.74,61.638 49.17,58.172 95.857,79.069 141.245,58.767 95.822,43.97 
		49.17,58.172 	"/>
</g>
</svg>
