<?xml version="1.0" encoding="utf-8"?>
<!-- Generator: Adobe Illustrator 16.0.0, SVG Export Plug-In . SVG Version: 6.00 Build 0)  -->
<!DOCTYPE svg PUBLIC "-//W3C//DTD SVG 1.1//EN" "http://www.w3.org/Graphics/SVG/1.1/DTD/svg11.dtd">
<svg version="1.1" id="Layer_1" xmlns="http://www.w3.org/2000/svg" xmlns:xlink="http://www.w3.org/1999/xlink" x="0px" y="0px"
	 width="593.971px" height="851.957px" viewBox="0 0 593.971 851.957" enable-background="new 0 0 593.971 851.957"
	 xml:space="preserve">
<g>
	<g>
		<path fill="#E9ECF1" d="M8.473,360.311v32.878c0,10.629,8.617,19.246,19.246,19.246h540.484c10.629,0,19.246-8.617,19.246-19.246
			v-32.878H8.473z"/>
		<ellipse opacity="0.5" fill="#4F4F4F" enable-background="new    " cx="297.961" cy="485.405" rx="140.735" ry="5.631"/>
		<polygon fill="#E9ECF1" points="374.143,472.577 356.501,412.435 297.962,412.435 239.423,412.435 221.78,472.577 
			202.534,476.588 202.534,477.388 202.534,482.2 202.534,485.407 393.389,485.407 393.389,482.2 393.389,477.388 393.389,476.588 
					"/>
		<path fill="#49505E" d="M568.204,15.523H27.719c-10.629,0-19.246,8.616-19.246,19.246v325.542H587.45V34.769
			C587.45,24.139,578.833,15.523,568.204,15.523z"/>
		<rect x="30.927" y="38.36" fill="#6AC4EC" width="534.069" height="299.112"/>
		<polygon fill="#D6DBE3" points="359.972,424.271 356.501,412.435 297.962,412.435 239.423,412.435 235.948,424.271 		"/>
		<circle fill="#A4ACBC" cx="297.96" cy="28.129" r="3.743"/>
	</g>
	<g>
		<polygon fill="#6AC4EC" points="291.343,385.111 291.343,377.675 283.905,378.896 283.905,385.217 		"/>
		<polygon fill="#6AC4EC" points="293.071,385.086 304.531,384.922 304.531,375.509 293.071,377.39 		"/>
		<polygon fill="#6AC4EC" points="293.071,386.555 293.071,394.25 304.531,396.133 304.531,386.719 		"/>
		<polygon fill="#6AC4EC" points="291.343,386.531 283.905,386.424 283.905,392.745 291.343,393.967 		"/>
	</g>
	<g>
		<rect x="30.927" y="38.034" fill="#FFFFFF" width="533.58" height="298.836"/>
		<rect x="30.927" y="38.034" fill="#DCDBDB" width="130.432" height="298.836"/>
		<rect x="95.207" y="127.425" fill="#A4A4A4" width="57.295" height="12.5"/>
		<rect x="74.372" y="150.344" fill="#A4A4A4" width="78.13" height="14.584"/>
		<rect x="95.207" y="178.47" fill="#A4A4A4" width="57.295" height="13.543"/>
		<rect x="74.372" y="203.472" fill="#A4A4A4" width="78.13" height="11.458"/>
		<rect x="95.207" y="224.306" fill="#A4A4A4" width="57.295" height="12.5"/>
		<rect x="175.941" y="80.107" fill="#A4A4A4" width="231.264" height="6.451"/>
		<g>
			<rect x="30.927" y="316.488" fill="#414042" width="533.58" height="20.984"/>
			<g>
				<polygon fill="#6AC4EC" points="43.485,326.487 43.485,321.323 38.32,322.171 38.32,326.56 				"/>
				<polygon fill="#6AC4EC" points="44.687,326.469 52.646,326.356 52.646,319.818 44.687,321.125 				"/>
				<polygon fill="#6AC4EC" points="44.687,327.49 44.687,332.835 52.646,334.141 52.646,327.604 				"/>
				<polygon fill="#6AC4EC" points="43.485,327.473 38.32,327.399 38.32,331.788 43.485,332.637 				"/>
			</g>
			<rect x="528.637" y="324.473" fill="#6D6E71" width="26.499" height="5.014"/>
			<rect x="63.09" y="318.153" fill="#A4A4A4" width="112.853" height="17.654"/>
			<rect x="187.746" y="318.153" fill="#A4A4A4" width="19.967" height="17.654"/>
			<rect x="210.694" y="318.153" fill="#A4A4A4" width="19.967" height="17.654"/>
			<rect x="233.644" y="318.153" fill="#A4A4A4" width="19.967" height="17.654"/>
			<rect x="514.751" y="322.349" fill="#A4A4A4" width="9.262" height="9.261"/>
			<rect x="498.547" y="322.349" fill="#A4A4A4" width="9.261" height="9.261"/>
		</g>
		<g opacity="0.6">
			<polygon fill="#E5B76E" points="80.914,82.217 80.938,105.465 99.864,116.957 118.672,105.465 118.365,82.458 99.881,76.441 			
				"/>
			<polygon fill="#C39652" points="72.143,72.241 91.351,68.161 99.648,76.441 108.217,68.258 127.387,72.526 118.365,82.458 
				132.572,83.999 115.635,94.499 99.648,91.01 83.671,94.405 66.919,83.626 80.704,82.217 99.374,90.635 117.903,82.658 
				99.486,76.657 80.914,82.217 			"/>
			<path fill="#333333" d="M99.577,101.094c-0.063,0.104-0.124,0.216-0.188,0.328c0,0-2.802,5.042-7.018,3.847
				c0,0-3.438-0.759-3.651-4.398c0,0-0.111-3.037,3.465-2.923c0,0,2.305,0.246,3.791,2.833l2.987,0.642c0,0-1.387-5.197-6.731-6.184
				c0,0-5.838-1.341-6.426,5.095c0,0,0.114,6.183,6.756,7.741c0,0,3.529,1.058,7.015-1.954V101.094L99.577,101.094z"/>
			<path fill="#607B36" d="M105.391,94.939c0,0-3.496,1.352-5.637,5.821v5.141c0.341-0.495,0.682-1.025,1.017-1.604
				c0,0,1.548-3.878,3.776-6.005c0,0,1.051-0.637,1.406-0.729c0,0,3.163-1.2,3.634,2.331c0,0,0.209,2.786-3.146,4.629
				c0,0-3.069,1.596-4.262-1.451l-0.073-0.357c0,0-1.809,3.02-2.041,3.298c0,0,1.663,3.073,6.026,1.437c0,0,5.979-1.742,6.426-8.541
				C112.519,98.908,112.656,92.547,105.391,94.939z"/>
		</g>
		<g enable-background="new    ">
			<path fill="#808285" d="M180.609,72.274V66.9l-4.147-7.749h3.388l1.343,3.154c0.409,0.954,0.682,1.655,1.013,2.512h0.039
				c0.292-0.817,0.604-1.577,0.993-2.512l1.324-3.154h3.33l-4.323,7.652v5.471H180.609z"/>
			<path fill="#808285" d="M196.494,67.407c0,3.484-2.473,5.081-5.023,5.081c-2.784,0-4.926-1.83-4.926-4.906
				s2.025-5.043,5.082-5.043C194.547,62.539,196.494,64.545,196.494,67.407z M189.602,67.504c0,1.636,0.682,2.862,1.947,2.862
				c1.148,0,1.889-1.148,1.889-2.862c0-1.421-0.545-2.862-1.889-2.862C190.128,64.641,189.602,66.102,189.602,67.504z"/>
			<path fill="#808285" d="M207.298,69.218c0,1.246,0.039,2.259,0.078,3.057h-2.57l-0.136-1.344h-0.059
				c-0.37,0.584-1.266,1.558-2.979,1.558c-1.927,0-3.349-1.207-3.349-4.146v-5.588h2.979v5.12c0,1.383,0.448,2.22,1.479,2.22
				c0.818,0,1.285-0.564,1.479-1.032c0.078-0.175,0.098-0.408,0.098-0.643v-5.665h2.979V69.218z"/>
			<path fill="#808285" d="M209.67,65.887c0-1.401-0.039-2.316-0.078-3.134h2.551l0.097,1.752h0.078
				c0.487-1.383,1.655-1.967,2.57-1.967c0.272,0,0.409,0,0.623,0.039v2.784c-0.214-0.039-0.467-0.078-0.798-0.078
				c-1.09,0-1.83,0.585-2.025,1.5c-0.039,0.194-0.059,0.428-0.059,0.662v4.828h-2.959V65.887z"/>
			<path fill="#808285" d="M230.734,71.904c-0.545,0.272-1.772,0.564-3.368,0.564c-4.537,0-6.873-2.823-6.873-6.562
				c0-4.478,3.193-6.97,7.165-6.97c1.538,0,2.706,0.312,3.232,0.584l-0.604,2.355c-0.604-0.253-1.441-0.486-2.492-0.486
				c-2.356,0-4.186,1.421-4.186,4.342c0,2.629,1.558,4.283,4.206,4.283c0.896,0,1.888-0.194,2.473-0.428L230.734,71.904z"/>
			<path fill="#808285" d="M241.167,69.218c0,1.246,0.039,2.259,0.078,3.057h-2.57l-0.136-1.344h-0.059
				c-0.37,0.584-1.266,1.558-2.979,1.558c-1.928,0-3.349-1.207-3.349-4.146v-5.588h2.979v5.12c0,1.383,0.448,2.22,1.48,2.22
				c0.818,0,1.285-0.564,1.48-1.032c0.078-0.175,0.097-0.408,0.097-0.643v-5.665h2.979V69.218z"/>
			<path fill="#808285" d="M243.52,69.684c0.545,0.331,1.675,0.721,2.551,0.721c0.896,0,1.266-0.312,1.266-0.798
				c0-0.487-0.292-0.721-1.402-1.091c-1.966-0.662-2.726-1.732-2.707-2.862c0-1.771,1.519-3.115,3.875-3.115
				c1.109,0,2.103,0.253,2.687,0.546l-0.525,2.044c-0.429-0.233-1.246-0.545-2.064-0.545c-0.72,0-1.129,0.292-1.129,0.778
				c0,0.448,0.37,0.682,1.538,1.091c1.811,0.623,2.57,1.538,2.59,2.939c0,1.772-1.402,3.076-4.128,3.076
				c-1.246,0-2.356-0.272-3.076-0.661L243.52,69.684z"/>
			<path fill="#808285" d="M255.298,60.027v2.727h2.123v2.181h-2.123v3.445c0,1.149,0.272,1.675,1.168,1.675
				c0.37,0,0.662-0.039,0.876-0.078l0.02,2.239c-0.39,0.156-1.09,0.253-1.928,0.253c-0.954,0-1.752-0.331-2.22-0.817
				c-0.545-0.564-0.817-1.479-0.817-2.823v-3.894h-1.266v-2.181h1.266v-2.064L255.298,60.027z"/>
			<path fill="#808285" d="M268.438,67.407c0,3.484-2.473,5.081-5.023,5.081c-2.784,0-4.926-1.83-4.926-4.906
				s2.025-5.043,5.082-5.043C266.491,62.539,268.438,64.545,268.438,67.407z M261.546,67.504c0,1.636,0.682,2.862,1.947,2.862
				c1.148,0,1.889-1.148,1.889-2.862c0-1.421-0.545-2.862-1.889-2.862C262.072,64.641,261.546,66.102,261.546,67.504z"/>
			<path fill="#808285" d="M270.265,65.791c0-1.188-0.039-2.2-0.078-3.037h2.492l0.136,1.284h0.059
				c0.409-0.604,1.246-1.499,2.881-1.499c1.227,0,2.2,0.623,2.609,1.616h0.039c0.351-0.486,0.779-0.876,1.227-1.148
				c0.526-0.312,1.11-0.468,1.811-0.468c1.83,0,3.212,1.285,3.212,4.128v5.607h-2.881v-5.179c0-1.383-0.448-2.181-1.402-2.181
				c-0.681,0-1.168,0.467-1.363,1.031c-0.078,0.215-0.117,0.526-0.117,0.76v5.568h-2.882v-5.335c0-1.207-0.428-2.024-1.363-2.024
				c-0.759,0-1.207,0.584-1.382,1.07c-0.097,0.233-0.117,0.507-0.117,0.74v5.549h-2.882V65.791z"/>
			<path fill="#808285" d="M291.133,69.218c0.798,0.408,2.025,0.817,3.291,0.817c1.363,0,2.083-0.564,2.083-1.421
				c0-0.818-0.623-1.285-2.2-1.85c-2.181-0.76-3.602-1.967-3.602-3.875c0-2.239,1.869-3.952,4.965-3.952
				c1.479,0,2.57,0.312,3.349,0.662l-0.662,2.395c-0.525-0.253-1.46-0.623-2.746-0.623c-1.285,0-1.908,0.584-1.908,1.266
				c0,0.837,0.74,1.207,2.434,1.85c2.317,0.856,3.407,2.063,3.407,3.913c0,2.2-1.693,4.069-5.296,4.069
				c-1.499,0-2.979-0.389-3.719-0.798L291.133,69.218z"/>
			<path fill="#808285" d="M310.989,67.407c0,3.484-2.473,5.081-5.023,5.081c-2.784,0-4.926-1.83-4.926-4.906
				s2.025-5.043,5.082-5.043C309.042,62.539,310.989,64.545,310.989,67.407z M304.096,67.504c0,1.636,0.682,2.862,1.947,2.862
				c1.148,0,1.889-1.148,1.889-2.862c0-1.421-0.545-2.862-1.889-2.862C304.622,64.641,304.096,66.102,304.096,67.504z"/>
			<path fill="#808285" d="M313.147,72.274v-7.34h-1.246v-2.181h1.246v-0.37c0-1.149,0.352-2.414,1.207-3.193
				c0.74-0.701,1.772-0.954,2.629-0.954c0.662,0,1.168,0.078,1.578,0.194l-0.117,2.278c-0.254-0.078-0.564-0.136-0.955-0.136
				c-0.973,0-1.382,0.759-1.382,1.693v0.487h1.908v2.181h-1.889v7.34H313.147z"/>
			<path fill="#808285" d="M323.055,60.027v2.727h2.123v2.181h-2.123v3.445c0,1.149,0.273,1.675,1.169,1.675
				c0.37,0,0.661-0.039,0.876-0.078l0.02,2.239c-0.39,0.156-1.09,0.253-1.928,0.253c-0.954,0-1.752-0.331-2.219-0.817
				c-0.546-0.564-0.818-1.479-0.818-2.823v-3.894h-1.266v-2.181h1.266v-2.064L323.055,60.027z"/>
			<path fill="#808285" d="M329.031,62.754l0.759,3.894c0.195,0.993,0.391,2.045,0.546,3.135h0.039
				c0.194-1.09,0.468-2.181,0.7-3.115l1.014-3.913h2.336l0.953,3.796c0.254,1.071,0.507,2.143,0.701,3.232h0.039
				c0.137-1.09,0.332-2.161,0.545-3.252l0.818-3.776h2.9l-2.92,9.521h-2.784l-0.896-3.349c-0.234-0.935-0.409-1.792-0.604-2.96
				h-0.039c-0.176,1.188-0.37,2.064-0.623,2.96l-0.954,3.349h-2.784l-2.765-9.521H329.031z"/>
			<path fill="#808285" d="M347.038,72.274l-0.176-0.954h-0.059c-0.623,0.76-1.596,1.168-2.725,1.168
				c-1.928,0-3.077-1.401-3.077-2.92c0-2.473,2.22-3.661,5.589-3.642v-0.136c0-0.507-0.273-1.227-1.733-1.227
				c-0.974,0-2.005,0.331-2.628,0.72l-0.546-1.907c0.662-0.37,1.966-0.838,3.699-0.838c3.174,0,4.187,1.869,4.187,4.108v3.31
				c0,0.915,0.039,1.792,0.137,2.317H347.038z M346.687,67.776c-1.558-0.02-2.765,0.351-2.765,1.5c0,0.759,0.506,1.129,1.168,1.129
				c0.74,0,1.344-0.486,1.538-1.09c0.039-0.156,0.059-0.331,0.059-0.507V67.776z"/>
			<path fill="#808285" d="M351.903,65.887c0-1.401-0.039-2.316-0.078-3.134h2.551l0.098,1.752h0.077
				c0.487-1.383,1.655-1.967,2.57-1.967c0.272,0,0.409,0,0.623,0.039v2.784c-0.214-0.039-0.468-0.078-0.798-0.078
				c-1.091,0-1.83,0.585-2.025,1.5c-0.039,0.194-0.059,0.428-0.059,0.662v4.828h-2.959V65.887z"/>
			<path fill="#808285" d="M361.423,68.458c0.097,1.227,1.304,1.811,2.686,1.811c1.014,0,1.831-0.136,2.629-0.389l0.39,2.005
				c-0.974,0.39-2.161,0.584-3.446,0.584c-3.232,0-5.082-1.869-5.082-4.848c0-2.414,1.5-5.082,4.81-5.082
				c3.076,0,4.245,2.396,4.245,4.751c0,0.506-0.059,0.954-0.098,1.168H361.423z M364.907,66.433c0-0.721-0.312-1.928-1.674-1.928
				c-1.246,0-1.753,1.129-1.83,1.928H364.907z"/>
		</g>
		<rect x="175.941" y="95.349" fill="#D1D3D4" width="338.81" height="3.18"/>
		<rect x="175.941" y="103.526" fill="#D1D3D4" width="271.888" height="3.179"/>
		<rect x="176.287" y="122.476" fill="#DFEECC" width="365.601" height="108.081"/>
		<g>
			<path fill="#AFD57D" d="M257.234,148.743c-20.189,0-36.557,16.365-36.557,36.555s16.366,36.556,36.557,36.556
				c20.188,0,36.554-16.366,36.554-36.556S277.423,148.743,257.234,148.743z M257.234,211.258c-14.336,0-25.961-11.621-25.961-25.96
				c0-14.337,11.625-25.961,25.961-25.961c14.338,0,25.96,11.624,25.96,25.961C283.194,199.636,271.572,211.258,257.234,211.258z"/>
			<g>
				<path fill="#48B0BE" d="M246.48,220.142l3.229-10.097c-8.054-2.419-14.453-8.64-17.125-16.58l-10.041,3.381
					C226.288,207.969,235.224,216.698,246.48,220.142z"/>
				<path fill="#619F43" d="M257.19,159.224c14.337,0,25.96,11.624,25.96,25.961c0,3.77-0.81,7.349-2.256,10.581l11.98-2.672
					c0.563-2.549,0.869-5.192,0.869-7.909c0-20.189-16.367-36.556-36.557-36.556v10.595H257.19z"/>
			</g>
		</g>
		<g>
			<path fill="#8CD3D9" d="M430.888,140.401v40.963h-40.965c0,22.623,18.341,40.962,40.965,40.962s40.964-18.339,40.964-40.962
				S453.512,140.401,430.888,140.401z"/>
			<path fill="#40B2BB" d="M425.976,134.613c-22.624,0-40.964,18.34-40.964,40.963h40.964V134.613z"/>
		</g>
		<g>
			<g>
				<rect x="206.317" y="261.116" fill="#AFD57D" width="11.292" height="31.021"/>
				<rect x="268.181" y="263.268" fill="#AFD57D" width="11.291" height="28.869"/>
				<rect x="247.56" y="251.126" fill="#AFD57D" width="11.292" height="41.012"/>
				<rect x="226.939" y="269.399" fill="#AFD57D" width="11.291" height="22.738"/>
				<rect x="288.801" y="259.167" fill="#AFD57D" width="11.292" height="32.972"/>
				<rect x="309.422" y="251.126" fill="#AFD57D" width="11.29" height="41.012"/>
			</g>
		</g>
		<g>
			<rect x="382.238" y="248.499" fill="#8CD3D9" width="11.291" height="43.64"/>
			<rect x="444.103" y="267.531" fill="#8CD3D9" width="11.29" height="24.606"/>
			<rect x="423.48" y="259.167" fill="#8CD3D9" width="11.292" height="32.972"/>
			<rect x="402.859" y="269.399" fill="#8CD3D9" width="11.293" height="22.738"/>
			<rect x="464.724" y="254.528" fill="#8CD3D9" width="11.291" height="37.609"/>
			<rect x="485.344" y="259.492" fill="#8CD3D9" width="11.291" height="32.646"/>
		</g>
	</g>
</g>
</svg>
