<?xml version="1.0" encoding="utf-8"?>
<!-- Generator: Adobe Illustrator 16.0.0, SVG Export Plug-In . SVG Version: 6.00 Build 0)  -->
<!DOCTYPE svg PUBLIC "-//W3C//DTD SVG 1.1//EN" "http://www.w3.org/Graphics/SVG/1.1/DTD/svg11.dtd">
<svg version="1.1" id="Layer_1" xmlns="http://www.w3.org/2000/svg" xmlns:xlink="http://www.w3.org/1999/xlink" x="0px" y="0px"
	 width="593.971px" height="911.086px" viewBox="0 0 593.971 911.086" enable-background="new 0 0 593.971 911.086"
	 xml:space="preserve">
<g>
	<polygon fill="#E9B68B" points="183.181,592.333 351.889,662.813 248.171,911.085 50.019,911.085 	"/>
	<path fill="#E9B68B" d="M221.344,417.046L465.321,518.97L429.516,624.74c-33.064,79.146-99.281,123.039-149.105,102.224
		l-69.934-29.216c-49.826-20.813-73.562-78.608-52.746-128.434L221.344,417.046z"/>
	<polygon fill="#FDD6B6" points="177.269,586.421 345.977,656.901 239.788,911.085 41.636,911.085 	"/>
	<path fill="#FDD6B6" d="M215.433,411.134l251.114,104.903l-42.942,102.791c-33.064,79.146-99.281,123.039-149.105,102.224
		l-69.935-29.215c-49.825-20.814-73.561-78.609-52.745-128.435L215.433,411.134z"/>
	<path fill="#FBBA95" d="M413.373,200.388L413.373,200.388c-16.275-6.8-35.156,0.954-41.956,17.23l-93.348,223.445
		c-6.8,16.277,0.953,35.156,17.229,41.957h0.001c16.275,6.799,35.155-0.955,41.954-17.23l93.349-223.445
		C437.401,226.067,429.648,207.188,413.373,200.388z"/>
	<path fill="#E9B68B" d="M341.744,191.976L341.744,191.976c16.277,6.8,24.03,25.679,17.23,41.955L242.512,512.708
		c-6.801,16.274-25.68,24.028-41.954,17.229h-0.001c-16.276-6.801-24.029-25.68-17.229-41.955L299.79,209.206
		C306.589,192.93,325.469,185.177,341.744,191.976z"/>
	<path fill="#FDD6B6" d="M184.497,677.199c-72.285-17.909-71.619-112.387-48.47-168.53c14.341-34.779,123.339,56.252,181.723,87.334
		C303.375,655.224,243.364,691.783,184.497,677.199z"/>
	<path fill="#E9B68B" d="M156.196,664.035c8.904,28.16,40.635,33.336,69.082,45.125c31.124,12.898,52.749,31.611,82.484,18.931
		c-26.073,5.629-46.938-14.912-78.062-27.81C201.255,688.492,173.269,688.05,156.196,664.035z"/>
	<path fill="#E9B68B" d="M485.604,213.585L485.604,213.585c14.665,9.803,18.643,29.82,8.84,44.484L326.541,509.244
		c-9.803,14.664-29.82,18.644-44.484,8.841l0,0c-14.664-9.804-18.644-29.82-8.841-44.486l167.903-251.174
		C450.923,207.76,470.939,203.781,485.604,213.585z"/>
	<path fill="#FDD6B6" d="M482.766,206.015L482.766,206.015c14.665,9.804,18.643,29.821,8.84,44.487L323.702,501.677
		c-9.803,14.664-29.82,18.641-44.484,8.838h-0.001c-14.665-9.803-18.643-29.82-8.839-44.486l167.903-251.173
		C448.085,200.19,468.102,196.212,482.766,206.015z"/>
	<g>
		<path fill="#3B6388" d="M225.19,29.735h214.45c17.467,0,31.758,14.29,31.758,31.758v499.824c0,17.467-14.291,31.756-31.758,31.756
			H225.19c-17.468,0-31.757-14.289-31.757-31.756V61.493C193.434,44.025,207.723,29.735,225.19,29.735z"/>
		<rect x="214.437" y="99.058" fill="#FFFFFF" width="235.956" height="401.726"/>
		<g>
			<rect x="214.437" y="100.459" fill="#F1F2F2" width="235.956" height="401.726"/>
			<rect x="214.437" y="100.459" opacity="0.8" fill="#58595B" enable-background="new    " width="132.901" height="401.726"/>
			<g opacity="0.8" enable-background="new    ">
				<path fill="#E6E7E8" d="M237.771,222.241v-6.658l-5.138-9.602h4.197l1.665,3.908c0.507,1.182,0.845,2.051,1.255,3.112h0.048
					c0.362-1.014,0.748-1.954,1.23-3.112l1.641-3.908h4.125l-5.355,9.48v6.779H237.771z"/>
				<path fill="#E6E7E8" d="M257.46,216.21c0,4.318-3.064,6.297-6.224,6.297c-3.45,0-6.104-2.268-6.104-6.079
					c0-3.813,2.509-6.249,6.296-6.249C255.047,210.179,257.46,212.664,257.46,216.21z M248.92,216.331
					c0,2.026,0.844,3.546,2.413,3.546c1.423,0,2.34-1.423,2.34-3.546c0-1.762-0.675-3.547-2.34-3.547
					C249.571,212.784,248.92,214.594,248.92,216.331z"/>
				<path fill="#E6E7E8" d="M270.852,218.454c0,1.544,0.048,2.798,0.097,3.787h-3.185l-0.169-1.665h-0.072
					c-0.458,0.725-1.568,1.931-3.691,1.931c-2.388,0-4.149-1.496-4.149-5.139v-6.924h3.691v6.345c0,1.713,0.555,2.75,1.833,2.75
					c1.013,0,1.592-0.699,1.833-1.278c0.096-0.217,0.121-0.507,0.121-0.796v-7.021h3.691V218.454z"/>
				<path fill="#E6E7E8" d="M273.799,214.328c0-1.736-0.048-2.87-0.097-3.884h3.16l0.121,2.171h0.097
					c0.603-1.712,2.051-2.437,3.185-2.437c0.337,0,0.506,0,0.772,0.049v3.449c-0.266-0.048-0.579-0.096-0.989-0.096
					c-1.351,0-2.268,0.724-2.509,1.857c-0.048,0.241-0.072,0.53-0.072,0.82v5.982h-3.667V214.328z"/>
				<path fill="#E6E7E8" d="M291.751,218.068l-1.158,4.174h-3.812l4.97-16.26h4.825l5.042,16.26h-3.957l-1.254-4.174H291.751z
					 M295.876,215.318l-1.013-3.449c-0.29-0.965-0.579-2.172-0.82-3.137h-0.048c-0.241,0.965-0.482,2.195-0.748,3.137l-0.965,3.449
					H295.876z"/>
				<path fill="#E6E7E8" d="M303.528,214.401c0-1.544-0.049-2.87-0.097-3.956h3.185l0.169,1.641h0.048
					c0.869-1.255,2.22-1.906,3.933-1.906c2.581,0,4.897,2.244,4.897,6.008c0,4.294-2.727,6.32-5.355,6.32
					c-1.424,0-2.533-0.579-3.064-1.352h-0.048v5.862h-3.667V214.401z M307.195,217.175c0,0.29,0.024,0.556,0.072,0.772
					c0.241,0.989,1.085,1.736,2.147,1.736c1.592,0,2.533-1.326,2.533-3.329c0-1.881-0.846-3.305-2.485-3.305
					c-1.038,0-1.954,0.772-2.195,1.857c-0.048,0.193-0.072,0.435-0.072,0.651V217.175z"/>
				<path fill="#E6E7E8" d="M317.958,214.401c0-1.544-0.048-2.87-0.096-3.956h3.184l0.17,1.641h0.047
					c0.869-1.255,2.221-1.906,3.934-1.906c2.58,0,4.896,2.244,4.896,6.008c0,4.294-2.727,6.32-5.355,6.32
					c-1.424,0-2.533-0.579-3.064-1.352h-0.047v5.862h-3.668V214.401z M321.626,217.175c0,0.29,0.023,0.556,0.072,0.772
					c0.24,0.989,1.085,1.736,2.146,1.736c1.592,0,2.533-1.326,2.533-3.329c0-1.881-0.845-3.305-2.484-3.305
					c-1.038,0-1.955,0.772-2.195,1.857c-0.049,0.193-0.072,0.435-0.072,0.651V217.175z"/>
			</g>
			<g opacity="0.8">
				<polygon fill="#E5B76E" points="259.487,147.732 259.515,174.152 281.023,187.213 302.396,174.152 302.047,148.006 
					281.041,141.169 				"/>
				<polygon fill="#C39652" points="249.52,136.396 271.349,131.76 280.776,141.169 290.514,131.869 312.3,136.719 302.047,148.006 
					318.193,149.757 298.945,161.689 280.776,157.726 262.621,161.583 243.582,149.334 259.25,147.732 280.465,157.298 
					301.523,148.234 280.593,141.414 259.487,147.732 				"/>
				<path fill="#333333" d="M280.697,169.186c-0.075,0.118-0.143,0.245-0.216,0.374c0,0-3.182,5.729-7.97,4.371
					c0,0-3.908-0.862-4.15-4.998c0,0-0.129-3.451,3.936-3.322c0,0,2.618,0.279,4.31,3.221l3.396,0.729c0,0-1.577-5.907-7.65-7.028
					c0,0-6.634-1.522-7.305,5.793c0,0,0.134,7.023,7.679,8.795c0,0,4.013,1.202,7.972-2.221V169.186L280.697,169.186z"/>
				<path fill="#607B36" d="M287.305,162.19c0,0-3.975,1.537-6.406,6.616v5.843c0.385-0.563,0.772-1.165,1.156-1.822
					c0,0,1.757-4.408,4.291-6.824c0,0,1.192-0.725,1.599-0.831c0,0,3.594-1.363,4.129,2.648c0,0,0.238,3.166-3.573,5.262
					c0,0-3.488,1.813-4.846-1.649l-0.082-0.405c0,0-2.054,3.431-2.32,3.747c0,0,1.893,3.492,6.853,1.632
					c0,0,6.793-1.979,7.302-9.704C295.405,166.701,295.561,159.472,287.305,162.19z"/>
			</g>
			<rect x="239.315" y="251.92" opacity="0.8" fill="#E6E7E8" enable-background="new    " width="74.355" height="15.222"/>
			<rect x="239.315" y="275.445" opacity="0.8" fill="#E6E7E8" enable-background="new    " width="56.09" height="15.223"/>
			<rect x="239.315" y="298.97" opacity="0.8" fill="#E6E7E8" enable-background="new    " width="81.688" height="15.222"/>
			<rect x="239.315" y="322.494" opacity="0.8" fill="#E6E7E8" enable-background="new    " width="68.355" height="15.223"/>
			<rect x="239.315" y="346.02" opacity="0.8" fill="#E6E7E8" enable-background="new    " width="71.688" height="15.222"/>
			<rect x="239.315" y="480.304" opacity="0.8" fill="#E6E7E8" enable-background="new    " width="87.022" height="6.164"/>
			<rect x="351.672" y="118.556" fill="#D7DF23" width="98.722" height="84.667"/>
			<rect x="375.005" y="212.706" fill="#58595B" width="75.389" height="57.191"/>
			<rect x="358.339" y="286.556" fill="#00A14B" width="92.055" height="49.255"/>
			<rect x="358.339" y="346.061" fill="#58595B" width="62.001" height="61.829"/>
			<rect x="427.006" y="346.061" fill="#58595B" width="23.388" height="61.829"/>
			<rect x="358.339" y="418.556" fill="#2BB673" width="92.055" height="16"/>
			<rect x="358.339" y="445.222" fill="#58595B" width="62.001" height="40.647"/>
			<rect x="427.006" y="445.222" fill="#58595B" width="23.388" height="41.246"/>
		</g>
	</g>
	<path fill="#E9B68B" d="M185.257,579.28l35.461-106.307c15.269-45.769-40.729-82.278-52.926-41.988l-32.957,104.051
		C121.054,563.869,144.011,585.61,185.257,579.28z"/>
	<path fill="#E9B68B" d="M192.556,486.94l66.987-58.5c36.34-31.736,22.458-103.095-9.252-75.401l-78.535,68.581
		C154.547,436.649,173.843,467.681,192.556,486.94z"/>
	<path fill="#FDD6B6" d="M176.765,589.315l37.74-120.553c14.413-46.043-40.729-82.28-52.927-41.986l-32.956,104.049
		C114.841,559.658,135.519,595.644,176.765,589.315z"/>
	<path fill="#E9B68B" d="M516.862,389.682L516.862,389.682c14.308,10.317,17.569,30.464,7.251,44.771l-23.408,32.455
		c-10.318,14.308-30.466,17.57-44.771,7.252l0,0c-14.308-10.317-17.568-30.467-7.251-44.771l23.409-32.457
		C482.409,382.624,502.557,379.363,516.862,389.682z"/>
	<path fill="#E9B68B" d="M497.858,303.15L497.858,303.15c14.307,10.32,17.569,30.467,7.251,44.771l-36.196,50.187
		c-10.317,14.304-30.466,17.568-44.771,7.25l-0.001-0.002c-14.306-10.318-17.569-30.464-7.251-44.771l36.196-50.187
		C463.405,296.096,483.552,292.832,497.858,303.15z"/>
	<path fill="#FDD6B6" d="M495.021,295.582c14.306,10.317,17.568,30.465,7.25,44.771l-36.196,50.186
		c-10.317,14.307-30.466,17.567-44.771,7.25h-0.001c-14.307-10.317-17.568-30.466-7.251-44.771l36.195-50.186
		C460.566,288.525,480.714,285.264,495.021,295.582z"/>
	<path fill="#FEE8D6" d="M425.391,397.029c-9.961-6.265-14.091-15.257-10.124-21.026c12.785-18.595,23.374-20.519,34.763-13.134
		c10.603,8.476,12.119,19.129-1.492,37.13C444.314,405.583,434.479,404.501,425.391,397.029z"/>
	<polygon fill="#FACD7F" points="50.306,826.015 253.938,911.085 266.561,911.085 325.285,770.517 110.905,680.955 	"/>
	<polygon fill="#FBAD18" points="157.495,870.796 253.938,911.085 266.56,911.085 325.285,770.517 218.096,725.737 	"/>
	<circle fill="#FACD7F" cx="115.642" cy="725.469" r="10.29"/>
	<g>
		<path fill="#FDD6B6" d="M190.123,479.087l66.989-58.498c36.34-31.735,22.458-103.096-9.252-75.403l-78.535,68.581
			C152.114,428.796,171.409,459.828,190.123,479.087z"/>
		<path fill="#FEE8D6" d="M239.062,384.823c25.987-19.721,23.972-39.748,16.526-44.645c-2.432,1.004-5.014,2.635-7.729,5.006
			l-32.089,28.021C223.249,382.743,232.597,389.73,239.062,384.823z"/>
	</g>
	<path fill="#FDD6B6" d="M514.023,382.111L514.023,382.111c14.307,10.318,17.569,30.466,7.252,44.771l-23.409,32.457
		c-10.318,14.307-30.466,17.567-44.771,7.25h-0.001c-14.307-10.318-17.568-30.466-7.25-44.771l23.409-32.454
		C479.57,375.057,499.719,371.793,514.023,382.111z"/>
	<path fill="#FEE8D6" d="M456.348,462.076c-9.961-6.266-14.091-15.26-10.124-21.026c12.785-18.597,23.375-20.519,34.762-13.133
		c10.604,8.475,12.12,19.129-1.491,37.129C475.272,470.632,465.438,469.552,456.348,462.076z"/>
	<g>
		<polygon fill="#EF6358" points="69.942,743.714 309.431,843.763 281.307,911.085 0.021,911.085 		"/>
		<polygon fill="#DD5045" points="189.687,793.739 309.431,843.763 281.307,911.085 140.664,911.085 		"/>
	</g>
	<path fill="#5582AC" d="M265.214,529.169l118.173,0.002c18.439,0,18.434,23.151,0,23.151l-118.173-0.002
		C246.776,552.321,246.771,529.169,265.214,529.169z"/>
	<path fill="#5582AC" d="M314.079,50.775l36.672,0.001c4.41,0,8.02,3.607,8.02,8.019c0,4.41-3.608,8.018-8.02,8.018l-36.672-0.001
		c-4.409,0-8.018-3.606-8.018-8.018S309.669,50.775,314.079,50.775z"/>
	<g>
		<path fill="#FDD6B6" d="M251.702,656.601c-99.084,27.008-124.173-40.492-52.795-143.191
			C272.635,522.085,285.119,614.769,251.702,656.601z"/>
		<path fill="#E9B68B" d="M251.702,656.601c14.924-45.916,2.996-121.836-52.795-143.191
			C272.635,522.085,285.119,614.769,251.702,656.601z"/>
	</g>
</g>
</svg>
