<?xml version="1.0" encoding="utf-8"?>
<!-- Generator: Adobe Illustrator 16.0.0, SVG Export Plug-In . SVG Version: 6.00 Build 0)  -->
<!DOCTYPE svg PUBLIC "-//W3C//DTD SVG 1.1//EN" "http://www.w3.org/Graphics/SVG/1.1/DTD/svg11.dtd">
<svg version="1.1" id="Layer_1" xmlns="http://www.w3.org/2000/svg" xmlns:xlink="http://www.w3.org/1999/xlink" x="0px" y="0px"
	 width="593.971px" height="851.957px" viewBox="0 0 593.971 851.957" enable-background="new 0 0 593.971 851.957"
	 xml:space="preserve">
<g>
	<g>
		<path fill="#485659" d="M585.564,43.022v-28.02c0-2.771-2.247-5.018-5.02-5.018H13.398c-2.772,0-5.021,2.247-5.021,5.018v28.02
			H585.564z"/>
		<path fill="#FFFFFF" d="M8.523,829.698c0,6.273,2.246,11.359,5.018,11.359h567.031c2.771,0,5.02-5.086,5.02-11.359V44.112H8.523
			V829.698z"/>
		<rect x="8.405" y="43.477" fill="#F0EFEF" width="577.187" height="34.288"/>
		<path fill="#FFFFFF" d="M538.865,68.872c0,1.52-1.614,2.75-3.605,2.75H97.572c-1.992,0-3.606-1.23-3.606-2.75V52.368
			c0-1.52,1.614-2.75,3.606-2.75H535.26c1.992,0,3.605,1.231,3.605,2.75V68.872L538.865,68.872z"/>
		<g>
			<path fill="#F0EFEF" d="M221.086,39.378c0.185,0.556-0.539,0.971-1.206,0.971h-17.802c-0.667,0-1.067-0.362-1.206-0.971
				l-2.729-10.51c-0.112-0.517,0.539-0.97,1.206-0.97h17.649c0.667,0,1.076,0.416,1.207,0.97L221.086,39.378z"/>
			<path fill="#F0EFEF" d="M198.449,44.112l-5.033-19.33c-0.627-1.971-1.569-3.461-3.508-3.461h-119.3
				c-1.938,0-3.021,1.705-3.509,3.461l-5.04,19.33H198.449z"/>
			<g>
				<polygon fill="#818285" points="76.543,27.885 76.543,31.236 79.896,31.236 				"/>
				<g>
					<polygon fill="#BDBEC0" points="76.543,27.885 72.505,27.885 72.505,37.549 79.896,37.549 79.896,31.236 76.543,31.236 					
						"/>
				</g>
			</g>
			<g enable-background="new    ">
				<path fill="#BDBEC0" d="M85.429,35.23c0.392,0.241,0.964,0.442,1.566,0.442c0.894,0,1.416-0.473,1.416-1.155
					c0-0.633-0.361-0.994-1.275-1.345c-1.104-0.392-1.787-0.964-1.787-1.918c0-1.055,0.873-1.838,2.188-1.838
					c0.693,0,1.195,0.161,1.496,0.332l-0.241,0.713c-0.221-0.121-0.672-0.321-1.285-0.321c-0.923,0-1.275,0.552-1.275,1.014
					c0,0.633,0.412,0.943,1.345,1.306c1.145,0.441,1.727,0.993,1.727,1.987c0,1.045-0.773,1.948-2.37,1.948
					c-0.652,0-1.365-0.191-1.727-0.432L85.429,35.23z"/>
				<path fill="#BDBEC0" d="M94.925,33.825c0,1.797-1.245,2.58-2.419,2.58c-1.315,0-2.33-0.964-2.33-2.5
					c0-1.626,1.064-2.58,2.41-2.58C93.981,31.325,94.925,32.339,94.925,33.825z M91.069,33.875c0,1.064,0.613,1.868,1.476,1.868
					c0.843,0,1.476-0.794,1.476-1.888c0-0.823-0.412-1.868-1.456-1.868C91.521,31.987,91.069,32.951,91.069,33.875z"/>
				<path fill="#BDBEC0" d="M99.501,36.114c-0.231,0.12-0.743,0.281-1.396,0.281c-1.466,0-2.42-0.994-2.42-2.48
					c0-1.496,1.024-2.58,2.611-2.58c0.522,0,0.984,0.131,1.225,0.251l-0.201,0.683c-0.211-0.12-0.542-0.23-1.024-0.23
					c-1.115,0-1.717,0.823-1.717,1.837c0,1.125,0.723,1.817,1.687,1.817c0.502,0,0.833-0.131,1.084-0.241L99.501,36.114z"/>
				<path fill="#BDBEC0" d="M101.517,30.07c0.01,0.301-0.211,0.542-0.562,0.542c-0.312,0-0.532-0.241-0.532-0.542
					c0-0.312,0.231-0.553,0.552-0.553C101.306,29.517,101.517,29.759,101.517,30.07z M100.533,36.295v-4.859h0.884v4.859H100.533z"
					/>
				<path fill="#BDBEC0" d="M105.572,36.295l-0.07-0.612h-0.03c-0.271,0.382-0.793,0.723-1.486,0.723
					c-0.984,0-1.486-0.692-1.486-1.396c0-1.175,1.044-1.817,2.921-1.808v-0.1c0-0.402-0.11-1.125-1.104-1.125
					c-0.452,0-0.923,0.141-1.265,0.361l-0.201-0.582c0.402-0.261,0.984-0.432,1.597-0.432c1.486,0,1.847,1.014,1.847,1.987v1.817
					c0,0.422,0.02,0.834,0.081,1.165H105.572z M105.442,33.815c-0.964-0.021-2.059,0.15-2.059,1.094
					c0,0.572,0.382,0.844,0.833,0.844c0.632,0,1.034-0.401,1.175-0.813c0.03-0.09,0.05-0.19,0.05-0.281V33.815z"/>
				<path fill="#BDBEC0" d="M107.719,29.166h0.884v7.129h-0.884V29.166z"/>
				<path fill="#BDBEC0" d="M112.988,36.295l-1.717-6.768h0.924l0.803,3.424c0.201,0.844,0.382,1.688,0.502,2.34h0.02
					c0.111-0.673,0.321-1.476,0.552-2.35l0.904-3.414h0.914l0.823,3.435c0.191,0.803,0.372,1.606,0.472,2.319h0.02
					c0.141-0.743,0.331-1.496,0.542-2.34l0.894-3.414h0.894l-1.917,6.768h-0.914l-0.854-3.524c-0.211-0.863-0.352-1.525-0.442-2.209
					h-0.02c-0.121,0.673-0.271,1.336-0.522,2.209l-0.964,3.524H112.988z"/>
				<path fill="#BDBEC0" d="M120.505,34.025c0.02,1.195,0.783,1.688,1.667,1.688c0.632,0,1.014-0.11,1.345-0.251l0.151,0.632
					c-0.312,0.141-0.843,0.302-1.617,0.302c-1.496,0-2.39-0.984-2.39-2.45s0.864-2.62,2.279-2.62c1.586,0,2.008,1.396,2.008,2.289
					c0,0.181-0.021,0.321-0.03,0.411H120.505z M123.095,33.393c0.01-0.563-0.231-1.437-1.225-1.437
					c-0.894,0-1.285,0.824-1.355,1.437H123.095z"/>
				<path fill="#BDBEC0" d="M125.001,36.295c0.02-0.331,0.04-0.823,0.04-1.255v-5.874h0.874v3.053h0.02
					c0.312-0.542,0.874-0.894,1.657-0.894c1.205,0,2.058,1.004,2.048,2.479c0,1.737-1.095,2.601-2.179,2.601
					c-0.703,0-1.265-0.271-1.626-0.913h-0.03l-0.04,0.803H125.001z M125.914,34.346c0,0.111,0.02,0.222,0.04,0.321
					c0.171,0.613,0.683,1.034,1.325,1.034c0.924,0,1.476-0.753,1.476-1.867c0-0.974-0.502-1.808-1.446-1.808
					c-0.603,0-1.165,0.412-1.345,1.085c-0.02,0.101-0.05,0.221-0.05,0.361V34.346z"/>
				<path fill="#BDBEC0" d="M130.63,35.391c0.261,0.17,0.723,0.352,1.165,0.352c0.643,0,0.943-0.321,0.943-0.724
					c0-0.422-0.251-0.652-0.903-0.894c-0.874-0.311-1.285-0.793-1.285-1.375c0-0.783,0.632-1.426,1.677-1.426
					c0.492,0,0.924,0.141,1.195,0.301l-0.221,0.643c-0.19-0.12-0.542-0.281-0.994-0.281c-0.522,0-0.813,0.302-0.813,0.663
					c0,0.401,0.291,0.582,0.924,0.823c0.843,0.321,1.275,0.743,1.275,1.466c0,0.854-0.663,1.456-1.817,1.456
					c-0.532,0-1.024-0.131-1.365-0.331L130.63,35.391z"/>
				<path fill="#BDBEC0" d="M135.709,30.07c0.01,0.301-0.211,0.542-0.562,0.542c-0.312,0-0.532-0.241-0.532-0.542
					c0-0.312,0.231-0.553,0.552-0.553C135.498,29.517,135.709,29.759,135.709,30.07z M134.725,36.295v-4.859h0.884v4.859H134.725z"
					/>
				<path fill="#BDBEC0" d="M138.138,30.04v1.396h1.265v0.673h-1.265v2.62c0,0.603,0.17,0.944,0.663,0.944
					c0.231,0,0.401-0.03,0.512-0.061l0.04,0.662c-0.171,0.07-0.442,0.121-0.783,0.121c-0.412,0-0.743-0.131-0.954-0.372
					c-0.251-0.261-0.341-0.692-0.341-1.265v-2.65h-0.753v-0.673h0.753V30.27L138.138,30.04z"/>
				<path fill="#BDBEC0" d="M140.827,34.025c0.02,1.195,0.783,1.688,1.667,1.688c0.632,0,1.014-0.11,1.345-0.251l0.151,0.632
					c-0.312,0.141-0.843,0.302-1.617,0.302c-1.496,0-2.39-0.984-2.39-2.45s0.864-2.62,2.279-2.62c1.586,0,2.008,1.396,2.008,2.289
					c0,0.181-0.021,0.321-0.03,0.411H140.827z M143.418,33.393c0.01-0.563-0.231-1.437-1.225-1.437
					c-0.894,0-1.285,0.824-1.355,1.437H143.418z"/>
			</g>
			<path fill="#818285" d="M189.386,34.287l-1.57-1.57l1.57-1.567c0.23-0.232,0.23-0.608,0-0.841c-0.232-0.232-0.61-0.232-0.843,0
				l-1.568,1.568l-1.568-1.568c-0.232-0.232-0.608-0.232-0.84,0c-0.232,0.231-0.232,0.608,0,0.841l1.568,1.567l-1.568,1.569
				c-0.232,0.232-0.232,0.609,0,0.841c0.23,0.232,0.606,0.232,0.84,0l1.568-1.568l1.569,1.568c0.232,0.232,0.608,0.232,0.842,0
				C189.617,34.895,189.617,34.519,189.386,34.287z"/>
		</g>
		<g>
			<g>
				<path fill="#818285" d="M565.734,56.588c0,0.71-0.576,1.286-1.286,1.286h-7.714c-0.71,0-1.286-0.576-1.286-1.286l0,0
					c0-0.71,0.576-1.285,1.286-1.285h7.714C565.158,55.302,565.734,55.877,565.734,56.588L565.734,56.588z"/>
				<path fill="#818285" d="M565.734,60.445c0,0.71-0.576,1.285-1.286,1.285h-7.714c-0.71,0-1.286-0.575-1.286-1.285l0,0
					c0-0.71,0.576-1.287,1.286-1.287h7.714C565.158,59.159,565.734,59.735,565.734,60.445L565.734,60.445z"/>
				<path fill="#818285" d="M565.734,64.302c0,0.71-0.576,1.285-1.286,1.285h-7.714c-0.71,0-1.286-0.575-1.286-1.285l0,0
					c0-0.711,0.576-1.286,1.286-1.286h7.714C565.158,63.016,565.734,63.591,565.734,64.302L565.734,64.302z"/>
			</g>
			<path fill="#BDBEC0" d="M48.668,61.052c0.119-0.179,0.205-0.38,0.205-0.608c0-0.234-0.089-0.44-0.211-0.619
				c-0.013-0.013-0.015-0.031-0.027-0.043l-0.012-0.012c-0.055-0.071-0.115-0.131-0.187-0.188l-4.103-4.102
				c-0.255-0.255-0.731-0.19-1.067,0.145s-0.399,0.813-0.146,1.068l2.639,2.639h-8.371c-0.612,0-1.11,0.498-1.11,1.112
				c0,0.613,0.498,1.111,1.11,1.111h8.375l-2.643,2.642c-0.255,0.253-0.19,0.731,0.146,1.067c0.336,0.334,0.813,0.398,1.067,0.145
				l4.106-4.107c0.066-0.054,0.126-0.11,0.179-0.178l0.015-0.017C48.652,61.091,48.654,61.069,48.668,61.052z"/>
			<path fill="#BDBEC0" d="M18.451,61.052c-0.12-0.179-0.206-0.38-0.206-0.608c0-0.234,0.09-0.44,0.213-0.619
				c0.012-0.013,0.014-0.031,0.024-0.043l0.013-0.012c0.058-0.071,0.116-0.131,0.188-0.188l4.104-4.102
				c0.254-0.255,0.731-0.19,1.066,0.145c0.336,0.335,0.399,0.813,0.146,1.068l-2.641,2.639h8.372c0.612,0,1.111,0.498,1.111,1.112
				c0,0.613-0.499,1.111-1.111,1.111h-8.374l2.643,2.642c0.253,0.253,0.189,0.731-0.146,1.067c-0.335,0.334-0.813,0.398-1.067,0.145
				l-4.106-4.107c-0.067-0.054-0.125-0.11-0.178-0.178l-0.018-0.017C18.467,61.091,18.463,61.069,18.451,61.052z"/>
			<path fill="#818285" d="M63.184,62.788L63.184,62.788c-1.293,1.294-3.393,1.294-4.688,0c-1.294-1.294-1.294-3.393,0-4.687
				c1.277-1.28,3.337-1.293,4.636-0.048l-0.894,0.894l1.581,0.181l1.581,0.18l-0.179-1.581l-0.183-1.582l-0.699,0.7
				c-1.967-1.912-5.106-1.898-7.053,0.046c-1.963,1.962-1.963,5.144,0,7.104c1.961,1.962,5.144,1.962,7.105,0L63.184,62.788z"/>
			<g>
				<polygon fill="#818285" points="81.219,57.897 78.643,55.5 76.067,57.897 73.491,60.294 75.159,60.294 75.159,65.388 
					77.599,65.388 77.599,61.792 79.687,61.792 79.687,65.388 82.127,65.388 82.127,60.294 83.794,60.294 				"/>
				<polygon fill="#818285" points="81.369,57.559 82.127,58.265 82.127,55.725 80.889,55.725 80.889,57.114 				"/>
			</g>
			<path fill="#BDBEC0" d="M108.027,64.143l-2.999-2.998c0.298-0.52,0.471-1.121,0.471-1.763c0-1.967-1.596-3.561-3.561-3.561
				c-1.968,0-3.563,1.594-3.563,3.561s1.596,3.561,3.563,3.561c0.691,0,1.336-0.2,1.883-0.542l2.974,2.973
				c0.196,0.194,0.629,0.077,0.969-0.264C108.104,64.771,108.221,64.338,108.027,64.143z M99.582,59.382
				c0-1.302,1.057-2.355,2.356-2.355s2.355,1.055,2.355,2.355c0,1.302-1.057,2.356-2.355,2.356
				C100.638,61.739,99.582,60.684,99.582,59.382z"/>
			<g>
				<rect x="514.782" y="60.025" fill="#BDBEC0" width="3.608" height="0.722"/>
				<path fill="#BDBEC0" d="M522.004,64.619l-2.033-2.033c0.414-0.633,0.659-1.387,0.659-2.198c0-2.233-1.812-4.042-4.043-4.042
					c-2.232,0-4.04,1.809-4.04,4.042c0,2.229,1.808,4.042,4.04,4.042c0.804,0,1.549-0.242,2.178-0.646l2.037,2.037
					c0.218,0.218,0.663,0.125,0.994-0.207C522.129,65.282,522.222,64.836,522.004,64.619z M513.689,60.387
					c0-1.602,1.297-2.897,2.896-2.897c1.599,0,2.896,1.297,2.896,2.897c0,1.599-1.297,2.896-2.896,2.896
					C514.986,63.283,513.689,61.986,513.689,60.387z"/>
			</g>
			<g>
				<g>
					<path fill="#BDBEC0" d="M534.554,59.863c0.118-0.115,0.081-0.229-0.082-0.252l-2.98-0.429c-0.163-0.024-0.355-0.164-0.43-0.313
						l-1.337-2.698c-0.073-0.147-0.192-0.147-0.266,0l-1.328,2.702c-0.073,0.148-0.268,0.289-0.431,0.313l-2.979,0.436
						c-0.163,0.024-0.2,0.139-0.082,0.253l2.157,2.1c0.118,0.114,0.191,0.343,0.164,0.505l-0.504,2.968
						c-0.028,0.163,0.067,0.233,0.215,0.156l2.663-1.404c0.146-0.077,0.386-0.078,0.53-0.001l2.667,1.397
						c0.146,0.076,0.242,0.006,0.216-0.156l-0.514-2.966c-0.027-0.163,0.046-0.391,0.164-0.505L534.554,59.863z M529.865,63.283
						c-0.146-0.077-0.385-0.076-0.53,0.001l-1.76,0.928c-0.146,0.077-0.242,0.008-0.216-0.155l0.334-1.962
						c0.027-0.163-0.047-0.391-0.165-0.506l-1.427-1.388c-0.118-0.115-0.081-0.229,0.082-0.253l1.969-0.288
						c0.163-0.023,0.356-0.165,0.43-0.313l0.878-1.786c0.073-0.148,0.192-0.148,0.267,0l0.884,1.784
						c0.073,0.147,0.268,0.287,0.43,0.312l1.973,0.284c0.163,0.023,0.199,0.137,0.082,0.252l-1.425,1.392
						c-0.117,0.115-0.19,0.343-0.163,0.505l0.339,1.962c0.027,0.162-0.069,0.232-0.216,0.155L529.865,63.283z"/>
				</g>
			</g>
		</g>
		<g>
			<g>
				
					<rect x="565.612" y="27.481" transform="matrix(0.7071 -0.7071 0.7071 0.7071 146.4907 410.4622)" fill="#F0EFEF" width="6.209" height="1.84"/>
				<polygon fill="#F0EFEF" points="568.316,28.845 570.826,31.354 568.121,31.55 565.414,31.748 565.611,29.041 565.808,26.335 
									"/>
			</g>
			<g>
				
					<rect x="570.554" y="22.563" transform="matrix(-0.7072 0.707 -0.707 -0.7072 995.9459 -365.5041)" fill="#F0EFEF" width="6.21" height="1.84"/>
				<polygon fill="#F0EFEF" points="574.091,23.073 571.58,20.563 574.287,20.367 576.993,20.169 576.797,22.876 576.599,25.581 
									"/>
			</g>
		</g>
		<g enable-background="new    ">
			<path fill="#6D6E71" d="M119.079,55.501h1.056v3.622h0.024c0.168-0.3,0.432-0.563,0.755-0.743c0.312-0.18,0.684-0.3,1.08-0.3
				c0.779,0,2.027,0.479,2.027,2.482v3.454h-1.056v-3.334c0-0.936-0.348-1.728-1.343-1.728c-0.684,0-1.223,0.48-1.415,1.056
				c-0.06,0.144-0.072,0.3-0.072,0.504v3.502h-1.056V55.501z"/>
			<path fill="#6D6E71" d="M126.962,56.545v1.667h1.511v0.804h-1.511v3.13c0,0.72,0.204,1.128,0.792,1.128
				c0.276,0,0.479-0.036,0.612-0.072l0.048,0.791c-0.204,0.084-0.528,0.145-0.936,0.145c-0.492,0-0.888-0.156-1.14-0.444
				c-0.3-0.312-0.408-0.827-0.408-1.511v-3.166h-0.899v-0.804h0.899V56.82L126.962,56.545z"/>
			<path fill="#6D6E71" d="M130.934,56.545v1.667h1.511v0.804h-1.511v3.13c0,0.72,0.204,1.128,0.792,1.128
				c0.276,0,0.479-0.036,0.611-0.072l0.048,0.791c-0.204,0.084-0.528,0.145-0.936,0.145c-0.492,0-0.888-0.156-1.14-0.444
				c-0.3-0.312-0.408-0.827-0.408-1.511v-3.166h-0.899v-0.804h0.899V56.82L130.934,56.545z"/>
			<path fill="#6D6E71" d="M133.635,60.106c0-0.743-0.024-1.343-0.048-1.895h0.947l0.048,0.995h0.024
				c0.432-0.707,1.115-1.127,2.063-1.127c1.403,0,2.459,1.188,2.459,2.95c0,2.087-1.271,3.118-2.639,3.118
				c-0.768,0-1.439-0.336-1.787-0.911h-0.024v3.154h-1.043V60.106z M134.678,61.654c0,0.155,0.024,0.3,0.048,0.432
				c0.192,0.731,0.828,1.235,1.583,1.235c1.116,0,1.763-0.912,1.763-2.243c0-1.163-0.612-2.159-1.727-2.159
				c-0.72,0-1.391,0.517-1.595,1.308c-0.036,0.132-0.072,0.288-0.072,0.432V61.654z"/>
			<path fill="#6D6E71" d="M140.211,59.171c0-0.443,0.3-0.755,0.72-0.755s0.696,0.312,0.708,0.755c0,0.42-0.276,0.744-0.72,0.744
				C140.499,59.915,140.211,59.591,140.211,59.171z M140.211,63.405c0-0.444,0.3-0.756,0.72-0.756s0.696,0.312,0.708,0.756
				c0,0.42-0.276,0.743-0.72,0.743C140.499,64.148,140.211,63.825,140.211,63.405z"/>
			<path fill="#6D6E71" d="M142.058,64.496l3.346-8.695h0.816l-3.358,8.695H142.058z"/>
			<path fill="#6D6E71" d="M146.175,64.496l3.346-8.695h0.816l-3.358,8.695H146.175z"/>
			<path fill="#6D6E71" d="M151.598,58.212l0.768,2.95c0.168,0.647,0.324,1.247,0.432,1.847h0.036
				c0.132-0.587,0.324-1.211,0.516-1.835l0.947-2.962h0.888l0.899,2.902c0.216,0.695,0.384,1.308,0.516,1.895h0.036
				c0.096-0.587,0.252-1.199,0.444-1.883l0.828-2.914h1.043l-1.871,5.805h-0.959l-0.888-2.771c-0.204-0.647-0.372-1.224-0.516-1.907
				h-0.024c-0.144,0.696-0.324,1.296-0.528,1.919l-0.936,2.759h-0.959l-1.751-5.805H151.598z"/>
			<path fill="#6D6E71" d="M160.574,58.212l0.768,2.95c0.168,0.647,0.324,1.247,0.432,1.847h0.036
				c0.132-0.587,0.324-1.211,0.516-1.835l0.947-2.962h0.888l0.899,2.902c0.216,0.695,0.384,1.308,0.516,1.895h0.036
				c0.096-0.587,0.252-1.199,0.444-1.883l0.828-2.914h1.043l-1.871,5.805h-0.959l-0.888-2.771c-0.204-0.647-0.372-1.224-0.516-1.907
				h-0.024c-0.144,0.696-0.324,1.296-0.528,1.919l-0.936,2.759h-0.959l-1.751-5.805H160.574z"/>
			<path fill="#6D6E71" d="M169.55,58.212l0.768,2.95c0.168,0.647,0.324,1.247,0.432,1.847h0.036
				c0.132-0.587,0.324-1.211,0.516-1.835l0.947-2.962h0.888l0.899,2.902c0.216,0.695,0.384,1.308,0.516,1.895h0.036
				c0.096-0.587,0.252-1.199,0.444-1.883l0.828-2.914h1.043l-1.871,5.805h-0.959l-0.888-2.771c-0.204-0.647-0.372-1.224-0.516-1.907
				h-0.024c-0.144,0.696-0.324,1.296-0.528,1.919l-0.936,2.759h-0.959l-1.751-5.805H169.55z"/>
			<path fill="#6D6E71" d="M177.242,63.392c0-0.443,0.3-0.755,0.72-0.755s0.708,0.312,0.708,0.755c0,0.433-0.276,0.756-0.72,0.756
				C177.53,64.148,177.242,63.825,177.242,63.392z"/>
			<path fill="#6D6E71" d="M180.085,64.016v-5.001h-0.815v-0.804h0.815v-0.276c0-0.815,0.18-1.559,0.672-2.026
				c0.396-0.384,0.923-0.54,1.415-0.54c0.372,0,0.696,0.084,0.899,0.168l-0.144,0.815c-0.156-0.071-0.372-0.132-0.671-0.132
				c-0.899,0-1.127,0.792-1.127,1.68v0.312h1.403v0.804h-1.403v5.001H180.085z"/>
			<path fill="#6D6E71" d="M183.481,60.022c0-0.684-0.012-1.271-0.048-1.811h0.923l0.036,1.14h0.048
				c0.264-0.78,0.899-1.271,1.607-1.271c0.12,0,0.204,0.012,0.3,0.036v0.995c-0.108-0.024-0.216-0.036-0.36-0.036
				c-0.744,0-1.271,0.563-1.416,1.355c-0.024,0.144-0.048,0.312-0.048,0.491v3.095h-1.043V60.022z"/>
			<path fill="#6D6E71" d="M192.538,61.066c0,2.146-1.487,3.082-2.89,3.082c-1.571,0-2.783-1.151-2.783-2.986
				c0-1.942,1.271-3.082,2.878-3.082C191.411,58.08,192.538,59.291,192.538,61.066z M187.933,61.126
				c0,1.271,0.732,2.231,1.763,2.231c1.007,0,1.763-0.948,1.763-2.255c0-0.983-0.492-2.231-1.739-2.231
				C188.473,58.871,187.933,60.022,187.933,61.126z"/>
			<path fill="#6D6E71" d="M193.873,59.783c0-0.6-0.012-1.092-0.048-1.571h0.936l0.06,0.959h0.024
				c0.288-0.552,0.959-1.091,1.919-1.091c0.803,0,2.051,0.479,2.051,2.471v3.466h-1.056v-3.346c0-0.936-0.348-1.716-1.343-1.716
				c-0.695,0-1.235,0.492-1.415,1.08c-0.048,0.132-0.072,0.312-0.072,0.491v3.49h-1.056V59.783z"/>
			<path fill="#6D6E71" d="M201.757,56.545v1.667h1.511v0.804h-1.511v3.13c0,0.72,0.204,1.128,0.792,1.128
				c0.276,0,0.479-0.036,0.611-0.072l0.048,0.791c-0.204,0.084-0.528,0.145-0.936,0.145c-0.492,0-0.888-0.156-1.14-0.444
				c-0.3-0.312-0.408-0.827-0.408-1.511v-3.166h-0.899v-0.804h0.899V56.82L201.757,56.545z"/>
			<path fill="#6D6E71" d="M206.844,60.383v0.779h-2.962v-0.779H206.844z"/>
			<path fill="#6D6E71" d="M208.033,64.016c0.024-0.396,0.048-0.983,0.048-1.499v-7.017h1.043v3.646h0.024
				c0.372-0.647,1.043-1.067,1.979-1.067c1.439,0,2.458,1.199,2.447,2.962c0,2.075-1.308,3.106-2.603,3.106
				c-0.84,0-1.511-0.323-1.943-1.091h-0.036l-0.048,0.959H208.033z M209.125,61.689c0,0.133,0.024,0.265,0.048,0.384
				c0.204,0.732,0.816,1.235,1.583,1.235c1.103,0,1.763-0.899,1.763-2.23c0-1.163-0.6-2.159-1.727-2.159
				c-0.72,0-1.391,0.492-1.607,1.296c-0.024,0.12-0.06,0.264-0.06,0.432V61.689z"/>
			<path fill="#6D6E71" d="M220.162,61.066c0,2.146-1.487,3.082-2.89,3.082c-1.571,0-2.783-1.151-2.783-2.986
				c0-1.942,1.271-3.082,2.878-3.082C219.035,58.08,220.162,59.291,220.162,61.066z M215.556,61.126
				c0,1.271,0.732,2.231,1.763,2.231c1.007,0,1.763-0.948,1.763-2.255c0-0.983-0.492-2.231-1.739-2.231
				C216.096,58.871,215.556,60.022,215.556,61.126z"/>
			<path fill="#6D6E71" d="M226.75,61.066c0,2.146-1.487,3.082-2.89,3.082c-1.571,0-2.783-1.151-2.783-2.986
				c0-1.942,1.271-3.082,2.878-3.082C225.623,58.08,226.75,59.291,226.75,61.066z M222.144,61.126c0,1.271,0.732,2.231,1.763,2.231
				c1.007,0,1.763-0.948,1.763-2.255c0-0.983-0.492-2.231-1.739-2.231C222.684,58.871,222.144,60.022,222.144,61.126z"/>
			<path fill="#6D6E71" d="M229.129,60.874h0.024c0.144-0.203,0.348-0.455,0.516-0.659l1.703-2.003h1.271l-2.243,2.387l2.554,3.418
				h-1.283l-2.003-2.782l-0.54,0.6v2.183h-1.043v-8.516h1.043V60.874z"/>
			<path fill="#6D6E71" d="M233.629,63.392c0-0.443,0.3-0.755,0.72-0.755s0.708,0.312,0.708,0.755c0,0.433-0.276,0.756-0.72,0.756
				C233.917,64.148,233.629,63.825,233.629,63.392z"/>
			<path fill="#6D6E71" d="M240.502,63.801c-0.276,0.144-0.888,0.336-1.667,0.336c-1.751,0-2.891-1.188-2.891-2.963
				c0-1.787,1.224-3.082,3.119-3.082c0.624,0,1.175,0.156,1.463,0.3l-0.24,0.815c-0.252-0.144-0.647-0.275-1.223-0.275
				c-1.332,0-2.051,0.983-2.051,2.194c0,1.344,0.864,2.171,2.015,2.171c0.6,0,0.996-0.156,1.295-0.288L240.502,63.801z"/>
			<path fill="#6D6E71" d="M246.922,61.066c0,2.146-1.487,3.082-2.89,3.082c-1.571,0-2.783-1.151-2.783-2.986
				c0-1.942,1.271-3.082,2.878-3.082C245.795,58.08,246.922,59.291,246.922,61.066z M242.316,61.126
				c0,1.271,0.732,2.231,1.763,2.231c1.007,0,1.763-0.948,1.763-2.255c0-0.983-0.492-2.231-1.739-2.231
				C242.856,58.871,242.316,60.022,242.316,61.126z"/>
			<path fill="#6D6E71" d="M248.257,59.783c0-0.6-0.012-1.092-0.048-1.571h0.923l0.048,0.936h0.036
				c0.324-0.552,0.864-1.067,1.823-1.067c0.792,0,1.391,0.479,1.643,1.163h0.024c0.18-0.324,0.408-0.575,0.647-0.756
				c0.348-0.264,0.731-0.407,1.283-0.407c0.768,0,1.907,0.504,1.907,2.519v3.418h-1.032V60.73c0-1.115-0.408-1.787-1.259-1.787
				c-0.6,0-1.067,0.443-1.247,0.96c-0.048,0.144-0.084,0.335-0.084,0.527v3.586h-1.031v-3.479c0-0.923-0.408-1.595-1.211-1.595
				c-0.66,0-1.14,0.527-1.308,1.056c-0.06,0.155-0.084,0.336-0.084,0.516v3.502h-1.031V59.783z"/>
		</g>
	</g>
	<rect x="11.379" y="80.424" fill="#E7ECF1" width="570.052" height="748.876"/>
	<rect x="11.379" y="80.424" fill="#3C5A9A" width="570.052" height="20.227"/>
	<rect x="102.271" y="83.327" fill="#2C4B80" width="13.817" height="13.818"/>
	<rect x="121.865" y="83.63" fill="#2C4B80" width="13.816" height="13.816"/>
	<rect x="141.868" y="83.63" fill="#C12635" width="13.817" height="13.816"/>
	<rect x="491.016" y="108.695" fill="#E6B54A" width="23.202" height="23.2"/>
	<rect x="521.023" y="120.293" fill="#CFD3D8" width="50.423" height="11.603"/>
	<rect x="491.016" y="141.485" fill="#E6B54A" width="23.202" height="23.201"/>
	<rect x="521.023" y="153.084" fill="#CFD3D8" width="50.423" height="11.603"/>
	<rect x="491.016" y="173.965" fill="#E6B54A" width="23.202" height="23.203"/>
	<rect x="521.023" y="185.566" fill="#CFD3D8" width="50.423" height="11.601"/>
	<rect x="491.016" y="205.519" fill="#E6B54A" width="23.202" height="23.202"/>
	<rect x="521.023" y="217.12" fill="#CFD3D8" width="50.423" height="11.602"/>
	<rect x="491.016" y="238.681" fill="#E6B54A" width="23.202" height="23.199"/>
	<rect x="521.023" y="250.281" fill="#CFD3D8" width="50.423" height="11.6"/>
	<rect x="491.016" y="271.719" fill="#E6B54A" width="23.202" height="23.202"/>
	<rect x="521.023" y="283.318" fill="#CFD3D8" width="50.423" height="11.603"/>
	<rect x="491.016" y="308.221" fill="#CFD3D8" width="90.329" height="4.021"/>
	<rect x="491.016" y="323.223" fill="#E6B54A" width="23.202" height="23.204"/>
	<rect x="521.023" y="334.825" fill="#CFD3D8" width="50.423" height="11.603"/>
	<rect x="492.254" y="355.86" fill="#E6B54A" width="23.2" height="23.202"/>
	<rect x="522.261" y="367.46" fill="#CFD3D8" width="50.423" height="11.603"/>
	<rect x="177.752" y="83.63" fill="#E7ECF1" width="216.131" height="13.816"/>
	<rect x="30.842" y="110.367" opacity="0.2" fill="#808285" enable-background="new    " width="452.753" height="131.303"/>
	<g>
		<rect x="31.463" y="380.985" fill="#F7FCFE" width="167.607" height="257.899"/>
		<rect x="43.408" y="388.76" fill="#CFD3D8" width="44.408" height="7.731"/>
		<rect x="94.647" y="388.76" fill="#CFD3D8" width="44.408" height="7.731"/>
		<rect x="145.32" y="388.76" fill="#CFD3D8" width="44.408" height="7.731"/>
		<g>
			<g>
				<rect x="43.408" y="409.331" fill="#CFD3D8" width="146.32" height="3.867"/>
				<rect x="43.69" y="418.92" fill="#CFD3D8" width="146.321" height="3.868"/>
			</g>
			<g>
				<rect x="43.548" y="427.351" fill="#CFD3D8" width="146.32" height="3.865"/>
				<rect x="43.833" y="436.94" fill="#CFD3D8" width="146.321" height="3.865"/>
			</g>
		</g>
		<g>
			<g>
				<rect x="43.618" y="446.606" fill="#CFD3D8" width="146.32" height="3.867"/>
				<rect x="43.903" y="456.196" fill="#CFD3D8" width="146.32" height="3.867"/>
			</g>
			<g>
				<rect x="43.762" y="464.627" fill="#CFD3D8" width="146.321" height="3.866"/>
				<rect x="44.046" y="474.217" fill="#CFD3D8" width="146.32" height="3.867"/>
			</g>
		</g>
		<g>
			<g>
				<rect x="43.408" y="490.495" fill="#CFD3D8" width="146.32" height="3.865"/>
				<rect x="43.69" y="500.084" fill="#CFD3D8" width="146.321" height="3.868"/>
			</g>
			<g>
				<rect x="43.548" y="508.513" fill="#CFD3D8" width="146.32" height="3.869"/>
				<rect x="43.833" y="518.104" fill="#CFD3D8" width="146.321" height="3.867"/>
			</g>
		</g>
	</g>
	<rect x="30.842" y="241.67" fill="#F1F2F2" width="452.753" height="32.944"/>
	<g>
		<g>
			<rect x="39.586" y="157.372" fill="#6D6E71" width="108.242" height="108.242"/>
			<g>
				<g>
					<rect id="SVGID_3_" x="39.586" y="157.372" fill="#6D6E71" width="108.242" height="108.242"/>
				</g>
			</g>
		</g>
		<g>
			<polygon fill="#E5B76E" points="66.054,195.712 66.091,231.911 95.562,249.807 124.846,231.911 124.367,196.086 95.585,186.719 
							"/>
			<polygon fill="#C39652" points="52.396,180.179 82.306,173.827 95.223,186.719 108.565,173.976 138.415,180.622 124.367,196.086 
				146.491,198.486 120.118,214.835 95.223,209.404 70.348,214.69 44.261,197.906 65.728,195.712 94.796,208.818 123.649,196.4 
				94.972,187.054 66.054,195.712 			"/>
			<path fill="#333333" d="M95.114,225.105c-0.103,0.163-0.195,0.336-0.295,0.513c0,0-4.358,7.851-10.921,5.989
				c0,0-5.354-1.182-5.688-6.849c0,0-0.176-4.728,5.394-4.552c0,0,3.588,0.383,5.902,4.412l4.653,0.999c0,0-2.16-8.093-10.481-9.629
				c0,0-9.09-2.087-10.009,7.935c0,0,0.183,9.625,10.521,12.053c0,0,5.497,1.647,10.922-3.042L95.114,225.105L95.114,225.105z"/>
			<path fill="#607B36" d="M104.167,215.522c0,0-5.442,2.104-8.775,9.063v8.006c0.526-0.771,1.06-1.596,1.583-2.497
				c0,0,2.407-6.039,5.881-9.351c0,0,1.634-0.992,2.188-1.137c0,0,4.924-1.868,5.657,3.63c0,0,0.327,4.337-4.896,7.208
				c0,0-4.781,2.484-6.64-2.26l-0.112-0.556c0,0-2.813,4.701-3.18,5.135c0,0,2.592,4.785,9.389,2.235c0,0,9.308-2.712,10.004-13.298
				C115.267,221.702,115.48,211.798,104.167,215.522z"/>
		</g>
	</g>
	<rect x="166.584" y="252.622" fill="#F7FCFE" width="46.847" height="11.726"/>
	<rect x="239.655" y="252.622" fill="#F7FCFE" width="48.626" height="11.727"/>
	<rect x="309.43" y="252.622" fill="#F7FCFE" width="57" height="11.727"/>
	<g enable-background="new    ">
		<path fill="#808285" d="M161.214,210.86v-6.873l-5.304-9.911h4.333l1.718,4.034c0.523,1.221,0.872,2.117,1.295,3.213h0.05
			c0.374-1.047,0.772-2.018,1.27-3.213l1.693-4.034h4.258l-5.528,9.786v6.998H161.214z"/>
		<path fill="#808285" d="M181.537,204.635c0,4.458-3.163,6.499-6.425,6.499c-3.561,0-6.3-2.34-6.3-6.275
			c0-3.934,2.59-6.449,6.5-6.449C179.047,198.409,181.537,200.973,181.537,204.635z M172.721,204.759
			c0,2.092,0.872,3.661,2.49,3.661c1.469,0,2.416-1.47,2.416-3.661c0-1.817-0.697-3.66-2.416-3.66
			C173.394,201.098,172.721,202.966,172.721,204.759z"/>
		<path fill="#808285" d="M195.36,206.95c0,1.594,0.05,2.889,0.1,3.91h-3.287l-0.174-1.719h-0.075
			c-0.473,0.748-1.619,1.992-3.81,1.992c-2.465,0-4.283-1.543-4.283-5.304v-7.147h3.81v6.55c0,1.769,0.573,2.839,1.893,2.839
			c1.046,0,1.644-0.723,1.893-1.32c0.1-0.224,0.125-0.522,0.125-0.821v-7.247h3.81V206.95z"/>
		<path fill="#808285" d="M203.556,194.3c0.996-0.199,3.013-0.348,4.906-0.348c2.316,0,3.735,0.224,4.956,0.945
			c1.17,0.623,2.017,1.769,2.017,3.287c0,1.494-0.872,2.889-2.764,3.586v0.051c1.917,0.522,3.337,1.967,3.337,4.133
			c0,1.52-0.697,2.715-1.743,3.562c-1.22,0.972-3.262,1.519-6.599,1.519c-1.868,0-3.262-0.124-4.109-0.248V194.3z M207.317,200.725
			h1.245c1.992,0,3.063-0.822,3.063-2.067c0-1.271-0.971-1.942-2.689-1.942c-0.822,0-1.295,0.05-1.619,0.1V200.725z
			 M207.317,208.171c0.374,0.05,0.822,0.05,1.469,0.05c1.718,0,3.237-0.647,3.237-2.415c0-1.693-1.519-2.366-3.412-2.366h-1.295
			V208.171z"/>
		<path fill="#808285" d="M218.475,202.692c0-1.793-0.05-2.963-0.1-4.01h3.262l0.125,2.242h0.1c0.623-1.769,2.117-2.516,3.287-2.516
			c0.349,0,0.523,0,0.797,0.05v3.562c-0.274-0.051-0.598-0.1-1.021-0.1c-1.395,0-2.341,0.746-2.59,1.917
			c-0.05,0.249-0.075,0.548-0.075,0.847v6.176h-3.785V202.692z"/>
		<path fill="#808285" d="M234.589,210.86l-0.224-1.221h-0.075c-0.797,0.972-2.042,1.494-3.486,1.494
			c-2.465,0-3.935-1.793-3.935-3.734c0-3.163,2.839-4.682,7.147-4.657v-0.175c0-0.646-0.349-1.568-2.216-1.568
			c-1.245,0-2.565,0.424-3.362,0.922l-0.697-2.441c0.847-0.473,2.515-1.07,4.731-1.07c4.059,0,5.354,2.391,5.354,5.254v4.234
			c0,1.17,0.05,2.291,0.174,2.963H234.589z M234.141,205.108c-1.992-0.025-3.536,0.447-3.536,1.917c0,0.972,0.647,1.444,1.494,1.444
			c0.946,0,1.718-0.623,1.967-1.395c0.05-0.199,0.075-0.424,0.075-0.647V205.108z"/>
		<path fill="#808285" d="M240.817,202.567c0-1.519-0.05-2.813-0.1-3.885h3.287l0.174,1.669h0.075
			c0.498-0.772,1.743-1.942,3.76-1.942c2.49,0,4.358,1.644,4.358,5.229v7.222h-3.785v-6.748c0-1.569-0.548-2.641-1.917-2.641
			c-1.046,0-1.668,0.723-1.917,1.42c-0.1,0.225-0.149,0.598-0.149,0.946v7.022h-3.785V202.567z"/>
		<path fill="#808285" d="M267.216,193.179v14.045c0,1.37,0.05,2.813,0.1,3.636h-3.362l-0.174-1.793h-0.05
			c-0.772,1.369-2.241,2.066-3.81,2.066c-2.889,0-5.205-2.465-5.205-6.25c-0.025-4.109,2.54-6.475,5.454-6.475
			c1.494,0,2.665,0.523,3.212,1.369h0.05v-6.599H267.216z M263.431,203.838c0-0.199-0.025-0.474-0.05-0.673
			c-0.224-1.021-1.046-1.867-2.216-1.867c-1.718,0-2.615,1.544-2.615,3.461c0,2.067,1.021,3.362,2.59,3.362
			c1.096,0,1.967-0.747,2.191-1.817c0.075-0.274,0.1-0.549,0.1-0.872V203.838z"/>
		<path fill="#808285" d="M275.412,210.86v-16.784h4.433l3.486,6.151c0.996,1.768,1.992,3.859,2.739,5.752h0.075
			c-0.249-2.217-0.324-4.482-0.324-6.998v-4.905h3.486v16.784h-3.984l-3.586-6.475c-0.996-1.793-2.092-3.959-2.914-5.927
			l-0.075,0.024c0.1,2.217,0.149,4.582,0.149,7.322v5.055H275.412z"/>
		<path fill="#808285" d="M299.396,210.86l-0.224-1.221h-0.075c-0.797,0.972-2.042,1.494-3.486,1.494
			c-2.465,0-3.935-1.793-3.935-3.734c0-3.163,2.839-4.682,7.146-4.657v-0.175c0-0.646-0.348-1.568-2.216-1.568
			c-1.245,0-2.565,0.424-3.362,0.922l-0.697-2.441c0.847-0.473,2.515-1.07,4.731-1.07c4.059,0,5.354,2.391,5.354,5.254v4.234
			c0,1.17,0.05,2.291,0.174,2.963H299.396z M298.948,205.108c-1.992-0.025-3.536,0.447-3.536,1.917c0,0.972,0.647,1.444,1.494,1.444
			c0.946,0,1.718-0.623,1.968-1.395c0.049-0.199,0.074-0.424,0.074-0.647V205.108z"/>
		<path fill="#808285" d="M305.624,202.567c0-1.519-0.049-2.813-0.1-3.885h3.188l0.175,1.645h0.075
			c0.522-0.772,1.594-1.918,3.686-1.918c1.568,0,2.813,0.797,3.336,2.066h0.051c0.447-0.622,0.996-1.12,1.568-1.469
			c0.672-0.398,1.42-0.598,2.316-0.598c2.34,0,4.108,1.644,4.108,5.279v7.172h-3.686v-6.624c0-1.769-0.573-2.789-1.793-2.789
			c-0.872,0-1.494,0.598-1.743,1.319c-0.1,0.274-0.149,0.673-0.149,0.972v7.122h-3.686v-6.823c0-1.544-0.548-2.59-1.743-2.59
			c-0.971,0-1.544,0.747-1.768,1.37c-0.125,0.299-0.15,0.646-0.15,0.945v7.098h-3.686V202.567z"/>
		<path fill="#808285" d="M329.958,205.979c0.125,1.568,1.668,2.316,3.437,2.316c1.295,0,2.341-0.175,3.362-0.498l0.498,2.564
			c-1.246,0.498-2.765,0.747-4.408,0.747c-4.134,0-6.5-2.391-6.5-6.2c0-3.088,1.918-6.5,6.151-6.5c3.935,0,5.429,3.063,5.429,6.076
			c0,0.647-0.074,1.221-0.125,1.494H329.958z M334.415,203.389c0-0.922-0.398-2.465-2.141-2.465c-1.594,0-2.242,1.443-2.342,2.465
			H334.415z"/>
	</g>
	<g enable-background="new    ">
		<path fill="#808285" d="M163.17,227.303l-2.283-8.999h1.229l1.068,4.553c0.267,1.122,0.507,2.243,0.667,3.111h0.027
			c0.147-0.895,0.427-1.963,0.734-3.124l1.202-4.54h1.215l1.095,4.566c0.254,1.068,0.494,2.136,0.628,3.084h0.026
			c0.187-0.988,0.441-1.989,0.721-3.11l1.188-4.54h1.188l-2.55,8.999h-1.215l-1.135-4.687c-0.28-1.148-0.467-2.029-0.587-2.938
			h-0.027c-0.16,0.895-0.36,1.776-0.694,2.938l-1.282,4.687H163.17z"/>
		<path fill="#808285" d="M172.896,217.824h1.175v4.032h0.027c0.187-0.334,0.48-0.628,0.841-0.828
			c0.347-0.2,0.761-0.334,1.202-0.334c0.868,0,2.256,0.534,2.256,2.764v3.846h-1.175v-3.712c0-1.041-0.387-1.923-1.495-1.923
			c-0.761,0-1.362,0.534-1.576,1.176c-0.066,0.16-0.08,0.333-0.08,0.561v3.898h-1.175V217.824z"/>
		<path fill="#808285" d="M183.888,227.303l-0.093-0.814h-0.04c-0.361,0.508-1.055,0.961-1.976,0.961
			c-1.309,0-1.976-0.921-1.976-1.855c0-1.563,1.389-2.417,3.885-2.403v-0.134c0-0.534-0.147-1.495-1.469-1.495
			c-0.601,0-1.228,0.187-1.682,0.48l-0.267-0.774c0.534-0.347,1.309-0.574,2.123-0.574c1.976,0,2.457,1.349,2.457,2.644v2.417
			c0,0.561,0.027,1.108,0.107,1.549H183.888z M183.715,224.006c-1.282-0.026-2.737,0.2-2.737,1.455c0,0.762,0.507,1.122,1.108,1.122
			c0.841,0,1.375-0.534,1.562-1.082c0.04-0.12,0.067-0.253,0.067-0.374V224.006z"/>
		<path fill="#808285" d="M188.111,218.985v1.856h1.682v0.895h-1.682v3.484c0,0.802,0.227,1.255,0.881,1.255
			c0.307,0,0.534-0.04,0.681-0.08l0.053,0.882c-0.227,0.093-0.587,0.16-1.042,0.16c-0.547,0-0.988-0.174-1.268-0.494
			c-0.334-0.348-0.454-0.921-0.454-1.683v-3.524h-1.001v-0.895h1.001v-1.549L188.111,218.985z"/>
		<path fill="#808285" d="M194.376,220.842l1.416,3.818c0.146,0.427,0.307,0.935,0.414,1.321h0.027
			c0.12-0.387,0.253-0.881,0.414-1.348l1.282-3.792h1.242l-1.763,4.606c-0.841,2.216-1.415,3.351-2.216,4.045
			c-0.574,0.508-1.148,0.708-1.442,0.761l-0.294-0.987c0.294-0.094,0.681-0.28,1.028-0.574c0.32-0.254,0.721-0.708,0.988-1.309
			c0.054-0.12,0.094-0.214,0.094-0.28s-0.027-0.16-0.08-0.308l-2.39-5.954H194.376z"/>
		<path fill="#808285" d="M205.955,224.019c0,2.39-1.656,3.431-3.218,3.431c-1.749,0-3.098-1.281-3.098-3.324
			c0-2.163,1.416-3.432,3.205-3.432C204.699,220.694,205.955,222.043,205.955,224.019z M200.828,224.086
			c0,1.415,0.814,2.483,1.962,2.483c1.122,0,1.963-1.055,1.963-2.51c0-1.095-0.547-2.483-1.936-2.483
			S200.828,222.857,200.828,224.086z"/>
		<path fill="#808285" d="M212.847,225.541c0,0.668,0.014,1.255,0.054,1.763h-1.042l-0.067-1.055h-0.027
			c-0.307,0.521-0.988,1.201-2.136,1.201c-1.015,0-2.229-0.561-2.229-2.83v-3.778h1.175v3.578c0,1.229,0.374,2.056,1.442,2.056
			c0.788,0,1.335-0.547,1.549-1.067c0.067-0.174,0.107-0.388,0.107-0.602v-3.965h1.175V225.541z"/>
		<path fill="#808285" d="M223.214,217.824v7.811c0,0.574,0.013,1.229,0.053,1.669h-1.055l-0.053-1.121h-0.027
			c-0.36,0.721-1.148,1.268-2.203,1.268c-1.562,0-2.764-1.321-2.764-3.284c-0.013-2.149,1.322-3.472,2.897-3.472
			c0.988,0,1.655,0.468,1.949,0.988h0.027v-3.858H223.214z M222.039,223.471c0-0.146-0.014-0.347-0.054-0.494
			c-0.173-0.747-0.814-1.361-1.696-1.361c-1.215,0-1.936,1.068-1.936,2.496c0,1.309,0.641,2.391,1.909,2.391
			c0.788,0,1.509-0.521,1.722-1.402c0.04-0.16,0.054-0.32,0.054-0.507V223.471z"/>
		<path fill="#808285" d="M231.015,224.019c0,2.39-1.656,3.431-3.218,3.431c-1.749,0-3.098-1.281-3.098-3.324
			c0-2.163,1.415-3.432,3.205-3.432C229.76,220.694,231.015,222.043,231.015,224.019z M225.888,224.086
			c0,1.415,0.814,2.483,1.962,2.483c1.122,0,1.963-1.055,1.963-2.51c0-1.095-0.547-2.483-1.936-2.483
			S225.888,222.857,225.888,224.086z"/>
	</g>
	<g>
		<rect x="209.623" y="285.053" fill="#F7FCFE" width="273.972" height="229.881"/>
		<g>
			<g>
				<rect x="221.115" y="294.296" fill="#6D6E71" width="26.468" height="26.469"/>
				<g>
					<g>
						<rect id="SVGID_1_" x="221.115" y="294.296" fill="#6D6E71" width="26.468" height="26.469"/>
					</g>
				</g>
			</g>
			<g>
				<polygon fill="#E5B76E" points="227.587,303.671 227.597,312.522 234.803,316.898 241.963,312.522 241.847,303.762 
					234.808,301.472 				"/>
				<polygon fill="#C39652" points="224.247,299.873 231.562,298.319 234.72,301.472 237.982,298.356 245.281,299.981 
					241.847,303.762 247.256,304.349 240.808,308.347 234.72,307.019 228.638,308.312 222.259,304.208 227.507,303.671 
					234.615,306.875 241.671,303.839 234.658,301.554 227.587,303.671 				"/>
				<path fill="#333333" d="M234.693,310.858c-0.025,0.04-0.048,0.082-0.072,0.125c0,0-1.064,1.919-2.671,1.464
					c0,0-1.309-0.289-1.391-1.675c0,0-0.043-1.156,1.318-1.113c0,0,0.877,0.095,1.443,1.079l1.138,0.245
					c0,0-0.527-1.979-2.563-2.354c0,0-2.224-0.512-2.447,1.939c0,0,0.044,2.354,2.572,2.947c0,0,1.344,0.403,2.67-0.744
					L234.693,310.858L234.693,310.858z"/>
				<path fill="#607B36" d="M236.907,308.515c0,0-1.332,0.515-2.146,2.216v1.958c0.129-0.188,0.259-0.39,0.387-0.611
					c0,0,0.59-1.477,1.438-2.286c0,0,0.399-0.242,0.535-0.278c0,0,1.204-0.457,1.384,0.888c0,0,0.08,1.061-1.196,1.762
					c0,0-1.17,0.607-1.623-0.553l-0.028-0.136c0,0-0.688,1.148-0.777,1.255c0,0,0.635,1.17,2.297,0.547c0,0,2.274-0.663,2.445-3.251
					C239.621,310.026,239.673,307.604,236.907,308.515z"/>
			</g>
		</g>
		<rect x="257.218" y="299.848" fill="#BCBEC0" width="90.676" height="7.569"/>
		<rect x="257.218" y="312.151" fill="#BCBEC0" width="125" height="3.869"/>
		<rect x="222.298" y="335.284" opacity="0.6" fill="#A7A9AC" enable-background="new    " width="251.19" height="90.756"/>
		<rect x="224.781" y="434.569" fill="#BCBEC0" width="225" height="6.963"/>
		<rect x="224.781" y="447.694" fill="#BCBEC0" width="194.648" height="6.963"/>
		<g>
			<rect x="225.514" y="464.844" fill="#BCBEC0" width="9.927" height="9.668"/>
			<rect x="239.325" y="466.094" fill="#BCBEC0" width="23.306" height="7.168"/>
			<rect x="269.753" y="464.844" fill="#BCBEC0" width="9.928" height="9.668"/>
			<rect x="283.564" y="466.094" fill="#BCBEC0" width="30.858" height="7.168"/>
			<rect x="323.271" y="464.844" fill="#BCBEC0" width="9.927" height="9.668"/>
			<rect x="337.083" y="466.094" fill="#BCBEC0" width="42.514" height="7.168"/>
		</g>
		<rect x="224.393" y="491.177" fill="#F1F2F2" width="247" height="15.981"/>
	</g>
	<g>
		<rect x="208.943" y="524.263" fill="#F7FCFE" width="273.971" height="189.188"/>
		<g>
			<g>
				<rect x="220.436" y="533.508" fill="#6D6E71" width="26.468" height="26.467"/>
				<g>
					<g>
						<rect id="SVGID_2_" x="220.436" y="533.508" fill="#6D6E71" width="26.468" height="26.467"/>
					</g>
				</g>
			</g>
			<g>
				<polygon fill="#E5B76E" points="226.907,542.881 226.917,551.731 234.123,556.108 241.283,551.731 241.167,542.972 
					234.128,540.683 				"/>
				<polygon fill="#C39652" points="223.567,539.084 230.882,537.528 234.04,540.683 237.303,537.565 244.602,539.19 
					241.167,542.972 246.576,543.56 240.128,547.558 234.04,546.229 227.958,547.521 221.579,543.418 226.827,542.881 
					233.936,546.086 240.991,543.051 233.979,540.763 226.907,542.881 				"/>
				<path fill="#333333" d="M234.014,550.067c-0.025,0.041-0.049,0.082-0.072,0.127c0,0-1.065,1.918-2.671,1.463
					c0,0-1.31-0.289-1.392-1.674c0,0-0.043-1.156,1.319-1.113c0,0,0.877,0.095,1.443,1.078l1.138,0.246c0,0-0.528-1.979-2.563-2.354
					c0,0-2.223-0.511-2.446,1.938c0,0,0.044,2.354,2.571,2.947c0,0,1.345,0.404,2.671-0.744L234.014,550.067L234.014,550.067z"/>
				<path fill="#607B36" d="M236.228,547.726c0,0-1.332,0.514-2.146,2.215v1.959c0.129-0.188,0.259-0.391,0.388-0.611
					c0,0,0.59-1.477,1.438-2.286c0,0,0.399-0.242,0.535-0.277c0,0,1.204-0.457,1.384,0.889c0,0,0.08,1.06-1.197,1.763
					c0,0-1.17,0.606-1.623-0.554l-0.027-0.137c0,0-0.688,1.15-0.777,1.256c0,0,0.634,1.17,2.296,0.547c0,0,2.275-0.662,2.446-3.252
					C238.941,549.235,238.993,546.813,236.228,547.726z"/>
			</g>
		</g>
		<rect x="256.538" y="539.058" fill="#BCBEC0" width="90.675" height="7.568"/>
		<rect x="256.538" y="551.36" fill="#BCBEC0" width="125" height="3.869"/>
		<rect x="221.618" y="572.493" opacity="0.3" fill="#A7A9AC" enable-background="new    " width="57.382" height="50.459"/>
		<rect x="224.102" y="632.778" fill="#BCBEC0" width="225" height="6.965"/>
		<rect x="224.102" y="645.903" fill="#BCBEC0" width="194.648" height="6.965"/>
		<g>
			<rect x="224.834" y="663.052" fill="#BCBEC0" width="9.928" height="9.668"/>
			<rect x="238.646" y="664.302" fill="#BCBEC0" width="23.306" height="7.168"/>
			<rect x="269.073" y="663.052" fill="#BCBEC0" width="9.927" height="9.668"/>
			<rect x="282.885" y="664.302" fill="#BCBEC0" width="30.858" height="7.168"/>
			<rect x="322.592" y="663.052" fill="#BCBEC0" width="9.928" height="9.668"/>
			<rect x="336.403" y="664.302" fill="#BCBEC0" width="42.513" height="7.168"/>
		</g>
		<rect x="223.713" y="689.386" fill="#F1F2F2" width="247.001" height="15.983"/>
		<rect x="279" y="572.601" fill="#F7FCFE" stroke="#BCBEC0" stroke-miterlimit="10" width="184.751" height="50.459"/>
		
			<rect x="283.546" y="582.048" transform="matrix(-1 -0.0012 0.0012 -1 676.7523 1172.0698)" fill="#BCBEC0" width="110.365" height="7.567"/>
		<rect x="285.064" y="595.838" fill="#939598" width="90.675" height="3.987"/>
		
			<rect x="285.05" y="604.617" transform="matrix(-1 -0.0012 0.0012 -1 718.2319 1215.2383)" fill="#E6E7E8" width="148.86" height="5.572"/>
		
			<rect x="285.055" y="613.195" transform="matrix(-1 -0.0012 0.0012 -1 697.2323 1232.3795)" fill="#E6E7E8" width="127.861" height="5.572"/>
	</g>
	<g>
		<rect x="209.623" y="726.118" fill="#F7FCFE" width="273.972" height="103.183"/>
		<g>
			<g>
				<rect x="221.115" y="735.36" fill="#6D6E71" width="26.468" height="26.469"/>
				<g>
					<g>
						<rect id="SVGID_4_" x="221.115" y="735.36" fill="#6D6E71" width="26.468" height="26.469"/>
					</g>
				</g>
			</g>
			<g>
				<polygon fill="#E5B76E" points="227.587,744.735 227.597,753.588 234.803,757.965 241.963,753.588 241.847,744.827 
					234.808,742.536 				"/>
				<polygon fill="#C39652" points="224.247,740.937 231.562,739.385 234.72,742.536 237.982,739.422 245.281,741.047 
					241.847,744.827 247.256,745.413 240.808,749.411 234.72,748.084 228.638,749.377 222.259,745.272 227.507,744.735 
					234.615,747.94 241.671,744.903 234.658,742.618 227.587,744.735 				"/>
				<path fill="#333333" d="M234.693,751.924c-0.025,0.039-0.048,0.082-0.072,0.125c0,0-1.064,1.92-2.671,1.465
					c0,0-1.309-0.289-1.391-1.674c0,0-0.043-1.156,1.318-1.113c0,0,0.877,0.094,1.443,1.078l1.138,0.244
					c0,0-0.527-1.979-2.563-2.354c0,0-2.224-0.512-2.447,1.939c0,0,0.044,2.354,2.572,2.946c0,0,1.344,0.402,2.67-0.743
					L234.693,751.924L234.693,751.924z"/>
				<path fill="#607B36" d="M236.907,749.579c0,0-1.332,0.517-2.146,2.218v1.957c0.129-0.188,0.259-0.39,0.387-0.609
					c0,0,0.59-1.478,1.438-2.287c0,0,0.399-0.242,0.535-0.277c0,0,1.204-0.457,1.384,0.888c0,0,0.08,1.061-1.196,1.764
					c0,0-1.17,0.604-1.623-0.553l-0.028-0.138c0,0-0.688,1.15-0.777,1.257c0,0,0.635,1.17,2.297,0.547c0,0,2.274-0.664,2.445-3.252
					C239.621,751.092,239.673,748.67,236.907,749.579z"/>
			</g>
		</g>
		<rect x="257.218" y="740.913" fill="#BCBEC0" width="90.676" height="7.568"/>
		<rect x="257.218" y="753.217" fill="#BCBEC0" width="125" height="3.869"/>
		<rect x="222.298" y="776.349" opacity="0.6" fill="#BCBEC0" enable-background="new    " width="251.19" height="50.809"/>
	</g>
	<g>
		<rect x="31.463" y="285.296" fill="#F7FCFE" width="166.667" height="82.165"/>
		<line fill="none" stroke="#F1F2F2" stroke-miterlimit="10" x1="31.463" y1="311.405" x2="198.13" y2="311.405"/>
		<line fill="none" stroke="#F1F2F2" stroke-miterlimit="10" x1="31.463" y1="338.01" x2="198.13" y2="338.01"/>
		<rect x="39.586" y="292.296" fill="#E6E7E8" width="16.23" height="13.926"/>
		<rect x="40.758" y="318.884" fill="#E6E7E8" width="16.23" height="13.925"/>
		<rect x="40.758" y="346.427" fill="#E6E7E8" width="16.23" height="13.925"/>
		<rect x="64.273" y="291.233" fill="#E6E7E8" width="87.557" height="7.309"/>
		<rect x="64.273" y="303.114" fill="#E6E7E8" width="120.702" height="3.736"/>
		<rect x="64.495" y="317.322" fill="#E6E7E8" width="87.558" height="7.31"/>
		<rect x="64.495" y="329.203" fill="#E6E7E8" width="120.702" height="3.736"/>
		<rect x="64.495" y="345.582" fill="#E6E7E8" width="87.558" height="7.31"/>
		<rect x="64.495" y="357.463" fill="#E6E7E8" width="120.702" height="3.735"/>
	</g>
</g>
</svg>
