<?xml version="1.0" encoding="utf-8"?>
<!-- Generator: Adobe Illustrator 16.0.0, SVG Export Plug-In . SVG Version: 6.00 Build 0)  -->
<!DOCTYPE svg PUBLIC "-//W3C//DTD SVG 1.1//EN" "http://www.w3.org/Graphics/SVG/1.1/DTD/svg11.dtd">
<svg version="1.1" id="Layer_1" xmlns="http://www.w3.org/2000/svg" xmlns:xlink="http://www.w3.org/1999/xlink" x="0px" y="0px"
	 width="593.971px" height="851.957px" viewBox="0 0 593.971 851.957" enable-background="new 0 0 593.971 851.957"
	 xml:space="preserve">
<g>
	<path fill="#485659" d="M585.564,44V15.981c0-2.771-2.247-5.02-5.02-5.02H13.398c-2.771,0-5.021,2.247-5.021,5.02V44H585.564z"/>
	<path fill="#FFFFFF" d="M8.523,830.678c0,6.271,2.246,11.356,5.019,11.356h567.03c2.771,0,5.021-5.085,5.021-11.356V45.091H8.523
		V830.678z"/>
	<rect x="8.405" y="44.455" fill="#F0EFEF" width="577.188" height="34.288"/>
	<path fill="#FFFFFF" d="M538.865,69.851c0,1.519-1.614,2.75-3.604,2.75H97.572c-1.991,0-3.605-1.231-3.605-2.75V53.347
		c0-1.521,1.614-2.75,3.605-2.75H535.26c1.992,0,3.604,1.229,3.604,2.75V69.851L538.865,69.851z"/>
	<g>
		<path fill="#F0EFEF" d="M221.086,40.357c0.185,0.555-0.539,0.97-1.206,0.97h-17.802c-0.667,0-1.067-0.362-1.206-0.97l-2.729-10.51
			c-0.112-0.519,0.539-0.972,1.206-0.972h17.649c0.667,0,1.076,0.416,1.207,0.972L221.086,40.357z"/>
		<path fill="#F0EFEF" d="M198.449,45.091l-5.033-19.328c-0.627-1.973-1.569-3.463-3.508-3.463H70.608
			c-1.938,0-3.021,1.705-3.509,3.463l-5.04,19.328H198.449z"/>
		<g>
			<polygon fill="#818285" points="76.543,28.863 76.543,32.215 79.896,32.215 			"/>
			<g>
				<polygon fill="#BDBEC0" points="76.543,28.863 72.505,28.863 72.505,38.527 79.896,38.527 79.896,32.215 76.543,32.215 				"/>
			</g>
		</g>
		<g enable-background="new    ">
			<path fill="#BDBEC0" d="M87.055,37.273v-2.871l-2.139-3.896h0.994l0.953,1.868c0.262,0.513,0.463,0.924,0.674,1.396h0.02
				c0.191-0.442,0.422-0.884,0.684-1.396l0.974-1.868h0.994l-2.27,3.887v2.882L87.055,37.273L87.055,37.273z"/>
			<path fill="#BDBEC0" d="M94.583,34.803c0,1.797-1.245,2.579-2.419,2.579c-1.315,0-2.33-0.964-2.33-2.5
				c0-1.626,1.063-2.579,2.41-2.579C93.64,32.303,94.583,33.317,94.583,34.803z M90.728,34.853c0,1.063,0.613,1.868,1.477,1.868
				c0.843,0,1.476-0.794,1.476-1.889c0-0.822-0.412-1.868-1.456-1.868C91.18,32.966,90.728,33.929,90.728,34.853z"/>
			<path fill="#BDBEC0" d="M99.762,35.948c0,0.502,0.01,0.943,0.04,1.325h-0.783l-0.05-0.793h-0.02
				c-0.231,0.392-0.743,0.902-1.606,0.902c-0.763,0-1.677-0.422-1.677-2.129v-2.841h0.884v2.69c0,0.924,0.281,1.547,1.084,1.547
				c0.592,0,1.004-0.412,1.165-0.804c0.05-0.132,0.08-0.291,0.08-0.452v-2.981h0.884L99.762,35.948L99.762,35.948z"/>
			<path fill="#BDBEC0" d="M101.225,33.929c0-0.572-0.01-1.063-0.04-1.517h0.773l0.029,0.954h0.04
				c0.222-0.653,0.753-1.063,1.346-1.063c0.101,0,0.171,0.01,0.251,0.029v0.833c-0.091-0.021-0.182-0.029-0.302-0.029
				c-0.622,0-1.063,0.472-1.185,1.135c-0.02,0.12-0.04,0.261-0.04,0.411v2.591h-0.874L101.225,33.929L101.225,33.929z"/>
			<path fill="#BDBEC0" d="M106.544,36.209c0.392,0.241,0.964,0.442,1.565,0.442c0.895,0,1.416-0.473,1.416-1.155
				c0-0.633-0.36-0.994-1.274-1.345c-1.104-0.392-1.787-0.964-1.787-1.918c0-1.055,0.873-1.838,2.188-1.838
				c0.693,0,1.195,0.161,1.496,0.332l-0.24,0.713c-0.222-0.121-0.673-0.321-1.285-0.321c-0.923,0-1.275,0.552-1.275,1.014
				c0,0.634,0.412,0.943,1.345,1.307c1.146,0.44,1.728,0.993,1.728,1.987c0,1.045-0.773,1.947-2.37,1.947
				c-0.652,0-1.365-0.19-1.728-0.432L106.544,36.209z"/>
			<path fill="#BDBEC0" d="M112.617,31.018v1.396h1.265v0.673h-1.265v2.62c0,0.604,0.17,0.944,0.662,0.944
				c0.231,0,0.401-0.03,0.513-0.062l0.041,0.662c-0.171,0.07-0.442,0.121-0.783,0.121c-0.412,0-0.743-0.131-0.954-0.372
				c-0.251-0.261-0.341-0.691-0.341-1.265v-2.65H111v-0.673h0.753v-1.165L112.617,31.018z"/>
			<path fill="#BDBEC0" d="M119.212,34.803c0,1.797-1.245,2.579-2.419,2.579c-1.315,0-2.33-0.964-2.33-2.5
				c0-1.626,1.063-2.579,2.41-2.579C118.268,32.303,119.212,33.317,119.212,34.803z M115.356,34.853
				c0,1.063,0.613,1.868,1.477,1.868c0.843,0,1.476-0.794,1.476-1.889c0-0.822-0.412-1.868-1.456-1.868
				C115.808,32.966,115.356,33.929,115.356,34.853z"/>
			<path fill="#BDBEC0" d="M120.324,33.929c0-0.572-0.011-1.063-0.04-1.517h0.772l0.03,0.954h0.04
				c0.221-0.653,0.753-1.063,1.345-1.063c0.101,0,0.171,0.01,0.251,0.029v0.833c-0.091-0.021-0.181-0.029-0.301-0.029
				c-0.623,0-1.064,0.472-1.186,1.135c-0.02,0.12-0.04,0.261-0.04,0.411v2.591h-0.874v-3.344H120.324z"/>
			<path fill="#BDBEC0" d="M123.997,35.004c0.02,1.195,0.782,1.688,1.667,1.688c0.632,0,1.014-0.11,1.345-0.251l0.151,0.632
				c-0.313,0.141-0.844,0.302-1.617,0.302c-1.496,0-2.391-0.983-2.391-2.45c0-1.466,0.864-2.619,2.279-2.619
				c1.586,0,2.008,1.396,2.008,2.289c0,0.181-0.021,0.32-0.029,0.41L123.997,35.004L123.997,35.004z M126.588,34.372
				c0.01-0.563-0.231-1.437-1.226-1.437c-0.894,0-1.284,0.824-1.354,1.437H126.588z"/>
		</g>
		<path fill="#818285" d="M189.386,35.265l-1.57-1.57l1.57-1.568c0.23-0.23,0.23-0.606,0-0.841c-0.232-0.23-0.61-0.23-0.843,0
			l-1.568,1.569l-1.567-1.569c-0.232-0.23-0.608-0.23-0.841,0c-0.231,0.232-0.231,0.609,0,0.841l1.568,1.568l-1.568,1.569
			c-0.231,0.23-0.231,0.607,0,0.841c0.23,0.23,0.606,0.23,0.841,0l1.567-1.569l1.569,1.569c0.231,0.23,0.607,0.23,0.842,0
			C189.617,35.873,189.617,35.497,189.386,35.265z"/>
	</g>
	<g>
		<g>
			<path fill="#818285" d="M565.734,57.566c0,0.71-0.576,1.286-1.286,1.286h-7.714c-0.71,0-1.286-0.576-1.286-1.286l0,0
				c0-0.71,0.576-1.286,1.286-1.286h7.714C565.157,56.28,565.734,56.856,565.734,57.566L565.734,57.566z"/>
			<path fill="#818285" d="M565.734,61.424c0,0.71-0.576,1.285-1.286,1.285h-7.714c-0.71,0-1.286-0.575-1.286-1.285l0,0
				c0-0.71,0.576-1.285,1.286-1.285h7.714C565.157,60.137,565.734,60.713,565.734,61.424L565.734,61.424z"/>
			<path fill="#818285" d="M565.734,65.28c0,0.71-0.576,1.286-1.286,1.286h-7.714c-0.71,0-1.286-0.576-1.286-1.286l0,0
				c0-0.71,0.576-1.286,1.286-1.286h7.714C565.157,63.995,565.734,64.57,565.734,65.28L565.734,65.28z"/>
		</g>
		<path fill="#BDBEC0" d="M48.668,62.03c0.119-0.178,0.205-0.379,0.205-0.608c0-0.232-0.089-0.438-0.211-0.617
			c-0.014-0.015-0.016-0.031-0.027-0.043l-0.012-0.014c-0.056-0.069-0.115-0.131-0.188-0.187l-4.103-4.104
			c-0.255-0.255-0.731-0.188-1.067,0.146s-0.398,0.813-0.146,1.066l2.639,2.641h-8.371c-0.612,0-1.11,0.498-1.11,1.11
			c0,0.613,0.498,1.111,1.11,1.111h8.375l-2.643,2.644c-0.255,0.253-0.19,0.729,0.146,1.065c0.336,0.334,0.813,0.399,1.067,0.146
			l4.105-4.108c0.066-0.053,0.126-0.11,0.18-0.177l0.015-0.019C48.652,62.07,48.654,62.047,48.668,62.03z"/>
		<path fill="#BDBEC0" d="M18.451,62.03c-0.12-0.178-0.206-0.379-0.206-0.608c0-0.232,0.09-0.438,0.213-0.617
			c0.012-0.015,0.014-0.031,0.023-0.043l0.014-0.014c0.058-0.069,0.115-0.131,0.188-0.187l4.104-4.104
			c0.254-0.255,0.73-0.188,1.065,0.146c0.336,0.335,0.399,0.813,0.146,1.066l-2.642,2.641h8.372c0.612,0,1.111,0.498,1.111,1.11
			c0,0.613-0.499,1.111-1.111,1.111h-8.374l2.644,2.644c0.253,0.253,0.188,0.729-0.146,1.065c-0.335,0.334-0.813,0.399-1.066,0.146
			L18.68,62.28c-0.067-0.053-0.125-0.11-0.178-0.177l-0.019-0.019C18.467,62.07,18.463,62.047,18.451,62.03z"/>
		<path fill="#818285" d="M63.184,63.766L63.184,63.766c-1.293,1.294-3.393,1.294-4.688,0c-1.294-1.294-1.294-3.395,0-4.688
			c1.276-1.28,3.337-1.293,4.636-0.048l-0.895,0.894l1.581,0.183l1.581,0.179l-0.179-1.581l-0.183-1.582l-0.699,0.7
			c-1.967-1.912-5.106-1.898-7.053,0.046c-1.964,1.962-1.964,5.146,0,7.105c1.961,1.962,5.144,1.962,7.104,0L63.184,63.766z"/>
		<g>
			<polygon fill="#818285" points="81.219,58.876 78.643,56.479 76.067,58.876 73.491,61.272 75.159,61.272 75.159,66.366 
				77.599,66.366 77.599,62.771 79.687,62.771 79.687,66.366 82.127,66.366 82.127,61.272 83.794,61.272 			"/>
			<polygon fill="#818285" points="81.369,58.538 82.127,59.243 82.127,56.704 80.889,56.704 80.889,58.094 			"/>
		</g>
		<path fill="#BDBEC0" d="M108.027,65.121l-2.999-2.998c0.299-0.519,0.472-1.121,0.472-1.762c0-1.967-1.597-3.563-3.562-3.563
			c-1.968,0-3.563,1.596-3.563,3.563c0,1.966,1.596,3.56,3.563,3.56c0.691,0,1.336-0.198,1.883-0.542l2.975,2.975
			c0.196,0.192,0.629,0.077,0.969-0.266C108.104,65.75,108.221,65.316,108.027,65.121z M99.582,60.361
			c0-1.302,1.057-2.356,2.355-2.356s2.355,1.057,2.355,2.356s-1.058,2.354-2.355,2.354C100.638,62.717,99.582,61.662,99.582,60.361z
			"/>
		<g>
			<rect x="514.781" y="61.004" fill="#BDBEC0" width="3.608" height="0.724"/>
			<path fill="#BDBEC0" d="M522.004,65.597l-2.033-2.033c0.414-0.633,0.659-1.387,0.659-2.199c0-2.233-1.813-4.042-4.043-4.042
				c-2.232,0-4.04,1.809-4.04,4.042c0,2.23,1.808,4.042,4.04,4.042c0.804,0,1.549-0.242,2.178-0.646l2.037,2.035
				c0.218,0.22,0.663,0.125,0.994-0.207C522.129,66.26,522.222,65.815,522.004,65.597z M513.689,61.366
				c0-1.601,1.297-2.896,2.896-2.896c1.599,0,2.896,1.297,2.896,2.896s-1.297,2.896-2.896,2.896
				C514.986,64.262,513.689,62.964,513.689,61.366z"/>
		</g>
		<g>
			<g>
				<path fill="#BDBEC0" d="M534.554,60.841c0.118-0.113,0.081-0.229-0.082-0.252l-2.98-0.429c-0.163-0.022-0.354-0.164-0.43-0.312
					l-1.337-2.698c-0.073-0.148-0.192-0.148-0.266,0l-1.328,2.702c-0.073,0.146-0.269,0.289-0.432,0.313l-2.979,0.438
					c-0.163,0.022-0.2,0.138-0.082,0.252l2.157,2.1c0.118,0.115,0.19,0.342,0.164,0.505l-0.505,2.97
					c-0.027,0.161,0.067,0.231,0.216,0.154l2.663-1.402c0.146-0.077,0.386-0.078,0.529-0.001l2.667,1.396
					c0.146,0.077,0.242,0.006,0.217-0.156l-0.515-2.966c-0.026-0.163,0.046-0.39,0.164-0.505L534.554,60.841z M529.865,64.261
					c-0.146-0.077-0.385-0.076-0.53,0.001l-1.76,0.928c-0.146,0.077-0.242,0.007-0.216-0.156l0.334-1.962
					c0.027-0.163-0.047-0.39-0.165-0.505l-1.427-1.389c-0.118-0.115-0.081-0.229,0.082-0.252l1.969-0.288
					c0.163-0.024,0.356-0.165,0.43-0.313l0.878-1.786c0.073-0.146,0.192-0.146,0.268,0l0.884,1.784
					c0.073,0.148,0.269,0.288,0.43,0.313l1.974,0.282c0.163,0.024,0.199,0.139,0.082,0.252l-1.426,1.394
					c-0.116,0.115-0.189,0.342-0.162,0.505l0.339,1.961c0.026,0.163-0.069,0.233-0.216,0.156L529.865,64.261z"/>
			</g>
		</g>
	</g>
	<g>
		<g>
			
				<rect x="565.607" y="28.462" transform="matrix(-0.7072 0.707 -0.707 -0.7072 991.6727 -351.9356)" fill="#F0EFEF" width="6.211" height="1.84"/>
			<polygon fill="#F0EFEF" points="568.316,29.823 570.825,32.333 568.12,32.529 565.413,32.727 565.611,30.02 565.808,27.314 			
				"/>
		</g>
		<g>
			
				<rect x="570.535" y="23.513" transform="matrix(0.7073 -0.7069 0.7069 0.7073 150.6092 412.6393)" fill="#F0EFEF" width="6.209" height="1.84"/>
			<polygon fill="#F0EFEF" points="574.091,24.052 571.579,21.542 574.286,21.345 576.992,21.147 576.797,23.854 576.599,26.56 			
				"/>
		</g>
	</g>
	<g enable-background="new    ">
		<path fill="#6D6E71" d="M119.079,56.479h1.056v3.622h0.024c0.168-0.3,0.432-0.563,0.755-0.743c0.312-0.18,0.684-0.3,1.08-0.3
			c0.778,0,2.026,0.479,2.026,2.481v3.454h-1.056V61.66c0-0.936-0.348-1.728-1.343-1.728c-0.685,0-1.224,0.479-1.415,1.056
			c-0.061,0.144-0.072,0.3-0.072,0.504v3.502h-1.056V56.479z"/>
		<path fill="#6D6E71" d="M126.962,57.523v1.667h1.511v0.804h-1.511v3.13c0,0.721,0.204,1.128,0.792,1.128
			c0.275,0,0.479-0.036,0.612-0.071l0.048,0.791c-0.204,0.084-0.528,0.145-0.937,0.145c-0.492,0-0.888-0.156-1.14-0.444
			c-0.3-0.312-0.408-0.826-0.408-1.511v-3.166h-0.899V59.19h0.899v-1.393L126.962,57.523z"/>
		<path fill="#6D6E71" d="M130.934,57.523v1.667h1.511v0.804h-1.511v3.13c0,0.721,0.204,1.128,0.792,1.128
			c0.276,0,0.479-0.036,0.611-0.071l0.048,0.791c-0.204,0.084-0.528,0.145-0.936,0.145c-0.492,0-0.889-0.156-1.141-0.444
			c-0.3-0.312-0.408-0.826-0.408-1.511v-3.166h-0.898V59.19h0.898v-1.393L130.934,57.523z"/>
		<path fill="#6D6E71" d="M133.635,61.085c0-0.743-0.024-1.343-0.048-1.895h0.947l0.048,0.995h0.023
			c0.433-0.707,1.115-1.127,2.063-1.127c1.402,0,2.459,1.188,2.459,2.949c0,2.088-1.271,3.118-2.64,3.118
			c-0.768,0-1.438-0.336-1.786-0.911h-0.024v3.154h-1.043V61.085L133.635,61.085z M134.678,62.633c0,0.155,0.024,0.301,0.048,0.433
			c0.192,0.73,0.828,1.234,1.583,1.234c1.116,0,1.763-0.911,1.763-2.242c0-1.163-0.611-2.159-1.727-2.159
			c-0.72,0-1.391,0.517-1.595,1.308c-0.036,0.132-0.072,0.288-0.072,0.433V62.633L134.678,62.633z"/>
		<path fill="#6D6E71" d="M140.211,60.149c0-0.443,0.3-0.755,0.72-0.755s0.696,0.312,0.708,0.755c0,0.42-0.276,0.744-0.72,0.744
			C140.499,60.893,140.211,60.569,140.211,60.149z M140.211,64.385c0-0.444,0.3-0.757,0.72-0.757s0.696,0.313,0.708,0.757
			c0,0.42-0.276,0.742-0.72,0.742C140.499,65.127,140.211,64.803,140.211,64.385z"/>
		<path fill="#6D6E71" d="M142.058,65.474l3.346-8.695h0.816l-3.358,8.695H142.058z"/>
		<path fill="#6D6E71" d="M146.175,65.474l3.346-8.695h0.816l-3.358,8.695H146.175z"/>
		<path fill="#6D6E71" d="M151.598,59.19l0.769,2.95c0.168,0.646,0.323,1.247,0.432,1.847h0.036
			c0.132-0.587,0.324-1.211,0.516-1.835l0.947-2.962h0.888l0.899,2.901c0.216,0.695,0.384,1.309,0.516,1.896h0.036
			c0.096-0.587,0.252-1.199,0.444-1.883l0.828-2.914h1.043l-1.871,5.805h-0.959l-0.889-2.771c-0.204-0.647-0.372-1.225-0.516-1.907
			h-0.024c-0.144,0.696-0.323,1.296-0.527,1.919l-0.937,2.759h-0.959l-1.751-5.805H151.598z"/>
		<path fill="#6D6E71" d="M160.574,59.19l0.768,2.95c0.168,0.646,0.324,1.247,0.432,1.847h0.036
			c0.132-0.587,0.324-1.211,0.517-1.835l0.946-2.962h0.889l0.898,2.901c0.216,0.695,0.384,1.309,0.517,1.896h0.035
			c0.097-0.587,0.253-1.199,0.444-1.883l0.828-2.914h1.043l-1.871,5.805h-0.959l-0.888-2.771c-0.204-0.647-0.372-1.225-0.517-1.907
			h-0.023c-0.145,0.696-0.324,1.296-0.528,1.919l-0.936,2.759h-0.959l-1.751-5.805H160.574z"/>
		<path fill="#6D6E71" d="M169.55,59.19l0.768,2.95c0.168,0.646,0.324,1.247,0.433,1.847h0.036c0.132-0.587,0.323-1.211,0.516-1.835
			l0.947-2.962h0.888l0.899,2.901c0.216,0.695,0.384,1.309,0.516,1.896h0.036c0.096-0.587,0.252-1.199,0.444-1.883l0.827-2.914
			h1.043l-1.87,5.805h-0.959l-0.889-2.771c-0.204-0.647-0.372-1.225-0.516-1.907h-0.024c-0.144,0.696-0.324,1.296-0.527,1.919
			l-0.937,2.759h-0.959l-1.751-5.805H169.55z"/>
		<path fill="#6D6E71" d="M177.242,64.371c0-0.442,0.3-0.755,0.72-0.755s0.708,0.313,0.708,0.755c0,0.434-0.276,0.756-0.72,0.756
			C177.53,65.127,177.242,64.803,177.242,64.371z"/>
		<path fill="#6D6E71" d="M180.361,59.19l1.271,3.43c0.132,0.384,0.276,0.84,0.372,1.188h0.023c0.108-0.349,0.229-0.791,0.372-1.211
			l1.151-3.406h1.115l-1.583,4.138c-0.756,1.991-1.271,3.011-1.991,3.634c-0.516,0.456-1.031,0.637-1.295,0.685l-0.264-0.888
			c0.264-0.085,0.611-0.253,0.924-0.517c0.288-0.228,0.646-0.636,0.887-1.175c0.048-0.108,0.084-0.192,0.084-0.252
			c0-0.062-0.024-0.146-0.072-0.276l-2.146-5.349L180.361,59.19L180.361,59.19z"/>
		<path fill="#6D6E71" d="M190.762,62.045c0,2.146-1.487,3.082-2.89,3.082c-1.571,0-2.783-1.15-2.783-2.985
			c0-1.942,1.271-3.082,2.878-3.082C189.635,59.058,190.762,60.269,190.762,62.045z M186.157,62.104c0,1.271,0.731,2.23,1.763,2.23
			c1.007,0,1.763-0.947,1.763-2.255c0-0.982-0.492-2.23-1.739-2.23S186.157,61.001,186.157,62.104z"/>
		<path fill="#6D6E71" d="M196.955,63.412c0,0.601,0.012,1.127,0.048,1.583h-0.937l-0.06-0.947h-0.024
			c-0.275,0.469-0.887,1.079-1.919,1.079c-0.911,0-2.003-0.504-2.003-2.543V59.19h1.057v3.214c0,1.104,0.336,1.848,1.295,1.848
			c0.708,0,1.198-0.491,1.391-0.96c0.06-0.155,0.096-0.348,0.096-0.54V59.19h1.057V63.412L196.955,63.412z"/>
		<path fill="#6D6E71" d="M198.709,61.001c0-0.684-0.013-1.271-0.048-1.811h0.923l0.036,1.14h0.048
			c0.264-0.78,0.898-1.271,1.606-1.271c0.12,0,0.204,0.012,0.301,0.036v0.994c-0.108-0.023-0.217-0.035-0.359-0.035
			c-0.744,0-1.271,0.563-1.416,1.354c-0.024,0.145-0.048,0.313-0.048,0.491v3.095h-1.043V61.001z"/>
		<path fill="#6D6E71" d="M205.02,61.361v0.779h-2.962v-0.779H205.02z"/>
		<path fill="#6D6E71" d="M211.726,62.045c0,2.146-1.487,3.082-2.89,3.082c-1.571,0-2.783-1.15-2.783-2.985
			c0-1.942,1.271-3.082,2.878-3.082C210.599,59.058,211.726,60.269,211.726,62.045z M207.121,62.104c0,1.271,0.731,2.23,1.763,2.23
			c1.007,0,1.763-0.947,1.763-2.255c0-0.982-0.492-2.23-1.738-2.23C207.661,59.849,207.121,61.001,207.121,62.104z"/>
		<path fill="#6D6E71" d="M213.061,60.761c0-0.601-0.012-1.093-0.048-1.571h0.937l0.06,0.959h0.024
			c0.287-0.552,0.959-1.091,1.919-1.091c0.803,0,2.051,0.479,2.051,2.471v3.466h-1.057v-3.346c0-0.937-0.348-1.716-1.343-1.716
			c-0.694,0-1.234,0.491-1.415,1.08c-0.048,0.132-0.071,0.312-0.071,0.49v3.49h-1.057V60.761z"/>
		<path fill="#6D6E71" d="M219.721,56.479h1.056v8.516h-1.056V56.479z"/>
		<path fill="#6D6E71" d="M223.728,57.559c0.012,0.358-0.252,0.646-0.671,0.646c-0.372,0-0.636-0.288-0.636-0.646
			c0-0.372,0.275-0.66,0.66-0.66C223.476,56.899,223.728,57.187,223.728,57.559z M222.553,64.995V59.19h1.056v5.805H222.553z"/>
		<path fill="#6D6E71" d="M225.361,60.761c0-0.601-0.012-1.093-0.048-1.571h0.937l0.06,0.959h0.024
			c0.288-0.552,0.959-1.091,1.919-1.091c0.803,0,2.051,0.479,2.051,2.471v3.466h-1.056v-3.346c0-0.937-0.349-1.716-1.344-1.716
			c-0.694,0-1.234,0.491-1.415,1.08c-0.048,0.132-0.071,0.312-0.071,0.49v3.49h-1.057V60.761z"/>
		<path fill="#6D6E71" d="M232.609,62.284c0.024,1.428,0.937,2.016,1.991,2.016c0.755,0,1.211-0.132,1.607-0.3l0.18,0.755
			c-0.372,0.168-1.007,0.36-1.931,0.36c-1.787,0-2.854-1.176-2.854-2.927s1.032-3.13,2.724-3.13c1.895,0,2.398,1.667,2.398,2.733
			c0,0.216-0.023,0.385-0.036,0.491L232.609,62.284L232.609,62.284z M235.703,61.529c0.012-0.672-0.276-1.716-1.464-1.716
			c-1.066,0-1.534,0.983-1.618,1.716H235.703z"/>
		<path fill="#6D6E71" d="M240.816,61.361v0.779h-2.962v-0.779H240.816z"/>
		<path fill="#6D6E71" d="M241.908,63.916c0.312,0.203,0.863,0.42,1.392,0.42c0.768,0,1.127-0.384,1.127-0.863
			c0-0.504-0.3-0.779-1.079-1.067c-1.043-0.371-1.535-0.947-1.535-1.643c0-0.937,0.755-1.703,2.003-1.703
			c0.587,0,1.104,0.168,1.428,0.358l-0.265,0.769c-0.228-0.145-0.646-0.336-1.187-0.336c-0.624,0-0.973,0.359-0.973,0.792
			c0,0.479,0.349,0.694,1.104,0.982c1.007,0.385,1.522,0.889,1.522,1.751c0,1.021-0.792,1.739-2.171,1.739
			c-0.635,0-1.223-0.156-1.631-0.396L241.908,63.916z"/>
		<path fill="#6D6E71" d="M248.076,57.523v1.667h1.511v0.804h-1.511v3.13c0,0.721,0.203,1.128,0.792,1.128
			c0.275,0,0.479-0.036,0.61-0.071l0.048,0.791c-0.204,0.084-0.527,0.145-0.936,0.145c-0.492,0-0.888-0.156-1.14-0.444
			c-0.301-0.312-0.408-0.826-0.408-1.511v-3.166h-0.899V59.19h0.899v-1.393L248.076,57.523z"/>
		<path fill="#6D6E71" d="M255.958,62.045c0,2.146-1.487,3.082-2.891,3.082c-1.57,0-2.782-1.15-2.782-2.985
			c0-1.942,1.271-3.082,2.878-3.082C254.831,59.058,255.958,60.269,255.958,62.045z M251.352,62.104c0,1.271,0.732,2.23,1.763,2.23
			c1.008,0,1.764-0.947,1.764-2.255c0-0.982-0.492-2.23-1.739-2.23S251.352,61.001,251.352,62.104z"/>
		<path fill="#6D6E71" d="M257.293,61.001c0-0.684-0.013-1.271-0.048-1.811h0.923l0.036,1.14h0.048
			c0.264-0.78,0.898-1.271,1.606-1.271c0.12,0,0.204,0.012,0.301,0.036v0.994c-0.108-0.023-0.217-0.035-0.36-0.035
			c-0.744,0-1.271,0.563-1.416,1.354c-0.024,0.145-0.048,0.313-0.048,0.491v3.095h-1.043L257.293,61.001L257.293,61.001z"/>
		<path fill="#6D6E71" d="M261.684,62.284c0.024,1.428,0.936,2.016,1.991,2.016c0.755,0,1.211-0.132,1.606-0.3l0.181,0.755
			c-0.372,0.168-1.007,0.36-1.932,0.36c-1.786,0-2.854-1.176-2.854-2.927s1.032-3.13,2.723-3.13c1.896,0,2.399,1.667,2.399,2.733
			c0,0.216-0.024,0.385-0.036,0.491L261.684,62.284L261.684,62.284z M264.779,61.529c0.013-0.672-0.275-1.716-1.463-1.716
			c-1.066,0-1.535,0.983-1.619,1.716H264.779z"/>
		<path fill="#6D6E71" d="M266.713,64.371c0-0.442,0.3-0.755,0.72-0.755s0.708,0.313,0.708,0.755c0,0.434-0.275,0.756-0.72,0.756
			C267.001,65.127,266.713,64.803,266.713,64.371z"/>
		<path fill="#6D6E71" d="M273.586,64.779c-0.276,0.144-0.889,0.336-1.667,0.336c-1.751,0-2.892-1.188-2.892-2.963
			c0-1.787,1.225-3.082,3.119-3.082c0.624,0,1.175,0.156,1.463,0.3l-0.239,0.815c-0.252-0.145-0.647-0.275-1.224-0.275
			c-1.332,0-2.051,0.983-2.051,2.194c0,1.344,0.864,2.171,2.015,2.171c0.601,0,0.996-0.156,1.296-0.288L273.586,64.779z"/>
		<path fill="#6D6E71" d="M280.005,62.045c0,2.146-1.487,3.082-2.891,3.082c-1.57,0-2.782-1.15-2.782-2.985
			c0-1.942,1.271-3.082,2.878-3.082C278.878,59.058,280.005,60.269,280.005,62.045z M275.4,62.104c0,1.271,0.732,2.23,1.764,2.23
			c1.007,0,1.763-0.947,1.763-2.255c0-0.982-0.492-2.23-1.739-2.23S275.4,61.001,275.4,62.104z"/>
		<path fill="#6D6E71" d="M281.341,60.761c0-0.601-0.012-1.093-0.048-1.571h0.923l0.048,0.936h0.036
			c0.324-0.552,0.864-1.066,1.823-1.066c0.792,0,1.391,0.479,1.643,1.163h0.024c0.18-0.324,0.407-0.575,0.646-0.757
			c0.349-0.264,0.731-0.406,1.283-0.406c0.768,0,1.907,0.504,1.907,2.519v3.418h-1.032V61.71c0-1.114-0.408-1.787-1.259-1.787
			c-0.601,0-1.067,0.443-1.247,0.96c-0.048,0.145-0.084,0.336-0.084,0.527v3.586h-1.031v-3.479c0-0.923-0.408-1.596-1.211-1.596
			c-0.66,0-1.14,0.527-1.308,1.057c-0.061,0.154-0.084,0.336-0.084,0.516v3.502h-1.031L281.341,60.761L281.341,60.761z"/>
	</g>
	<g>
		<path fill="#4C5156" d="M107.088,100.736h3.91v13.955h6.85v3.271h-10.76V100.736z"/>
		<path fill="#4C5156" d="M132.131,111.573c0,4.575-3.246,6.671-6.594,6.671c-3.655,0-6.467-2.402-6.467-6.439
			c0-4.039,2.658-6.62,6.672-6.62C129.575,105.183,132.131,107.816,132.131,111.573z M123.083,111.701
			c0,2.146,0.895,3.757,2.556,3.757c1.508,0,2.479-1.508,2.479-3.757c0-1.866-0.717-3.757-2.479-3.757
			C123.774,107.944,123.083,109.861,123.083,111.701z"/>
		<path fill="#4C5156" d="M146.542,105.465c-0.051,0.792-0.104,1.841-0.104,3.706v6.979c0,2.401-0.484,4.37-1.891,5.623
			c-1.38,1.176-3.246,1.533-5.086,1.533c-1.636,0-3.374-0.332-4.498-0.973l0.767-2.938c0.792,0.46,2.172,0.944,3.629,0.944
			c1.841,0,3.246-0.997,3.246-3.297v-0.817h-0.051c-0.741,1.048-1.942,1.636-3.374,1.636c-3.092,0-5.291-2.505-5.291-6.108
			c0-4.013,2.607-6.567,5.674-6.567c1.712,0,2.786,0.74,3.425,1.764h0.052l0.128-1.482h3.374V105.465z M142.555,110.551
			c0-0.256-0.025-0.511-0.077-0.716c-0.281-1.021-1.021-1.712-2.096-1.712c-1.406,0-2.556,1.277-2.556,3.553
			c0,1.865,0.92,3.322,2.556,3.322c0.997,0,1.789-0.664,2.044-1.585c0.103-0.28,0.128-0.688,0.128-1.021L142.555,110.551
			L142.555,110.551z"/>
		<path fill="#4C5156" d="M161.898,111.573c0,4.575-3.246,6.671-6.594,6.671c-3.655,0-6.466-2.402-6.466-6.439
			c0-4.039,2.658-6.62,6.671-6.62C159.343,105.183,161.898,107.816,161.898,111.573z M152.85,111.701
			c0,2.146,0.896,3.757,2.556,3.757c1.509,0,2.479-1.508,2.479-3.757c0-1.866-0.716-3.757-2.479-3.757
			C153.541,107.944,152.85,109.861,152.85,111.701z"/>
	</g>
	<g enable-background="new    ">
		<path fill="#939598" d="M108.847,97.116v-3.339l-2.486-4.528h1.156l1.109,2.171c0.303,0.596,0.537,1.074,0.782,1.622h0.022
			c0.222-0.514,0.49-1.026,0.794-1.622l1.132-2.171h1.155l-2.638,4.518v3.351L108.847,97.116L108.847,97.116z"/>
		<path fill="#939598" d="M117.6,94.245c0,2.089-1.447,2.999-2.813,2.999c-1.529,0-2.708-1.12-2.708-2.906c0-1.891,1.236-3,2.802-3
			C116.503,91.338,117.6,92.516,117.6,94.245z M113.117,94.302c0,1.236,0.712,2.172,1.716,2.172c0.979,0,1.716-0.924,1.716-2.195
			c0-0.957-0.479-2.171-1.693-2.171S113.117,93.229,113.117,94.302z"/>
		<path fill="#939598" d="M123.62,95.575c0,0.584,0.012,1.098,0.047,1.541h-0.911l-0.059-0.922h-0.022
			c-0.27,0.455-0.864,1.05-1.868,1.05c-0.887,0-1.95-0.49-1.95-2.475v-3.304h1.027v3.129c0,1.073,0.327,1.798,1.261,1.798
			c0.689,0,1.167-0.479,1.354-0.935c0.059-0.151,0.093-0.339,0.093-0.524v-3.468h1.027L123.62,95.575L123.62,95.575z"/>
		<path fill="#939598" d="M125.322,93.229c0-0.666-0.012-1.237-0.046-1.764h0.898l0.035,1.108h0.047
			c0.257-0.759,0.875-1.237,1.563-1.237c0.117,0,0.198,0.013,0.292,0.035v0.969c-0.104-0.022-0.21-0.034-0.35-0.034
			c-0.724,0-1.238,0.549-1.377,1.318c-0.023,0.141-0.047,0.305-0.047,0.479v3.012h-1.017V93.229L125.322,93.229z"/>
		<path fill="#939598" d="M131.506,95.879c0.455,0.28,1.121,0.515,1.821,0.515c1.039,0,1.646-0.549,1.646-1.344
			c0-0.734-0.42-1.154-1.481-1.563c-1.284-0.456-2.078-1.121-2.078-2.229c0-1.227,1.016-2.137,2.544-2.137
			c0.806,0,1.389,0.188,1.738,0.386l-0.279,0.828c-0.257-0.14-0.782-0.373-1.494-0.373c-1.074,0-1.482,0.643-1.482,1.18
			c0,0.734,0.479,1.098,1.564,1.518c1.331,0.514,2.008,1.155,2.008,2.313c0,1.214-0.899,2.265-2.755,2.265
			c-0.759,0-1.587-0.223-2.008-0.502L131.506,95.879z"/>
		<path fill="#939598" d="M138.565,89.844v1.622h1.472v0.782h-1.472v3.046c0,0.7,0.199,1.099,0.771,1.099
			c0.269,0,0.467-0.035,0.595-0.07l0.047,0.771c-0.199,0.081-0.514,0.141-0.911,0.141c-0.479,0-0.863-0.152-1.108-0.433
			c-0.292-0.305-0.397-0.807-0.397-1.472V92.25h-0.875v-0.781h0.875v-1.354L138.565,89.844z"/>
		<path fill="#939598" d="M146.233,94.245c0,2.089-1.446,2.999-2.813,2.999c-1.529,0-2.708-1.12-2.708-2.906
			c0-1.891,1.237-3,2.802-3C145.135,91.338,146.233,92.516,146.233,94.245z M141.75,94.302c0,1.236,0.712,2.172,1.716,2.172
			c0.979,0,1.716-0.924,1.716-2.195c0-0.957-0.479-2.171-1.693-2.171C142.275,92.108,141.75,93.229,141.75,94.302z"/>
		<path fill="#939598" d="M147.526,93.229c0-0.666-0.012-1.237-0.046-1.764h0.898l0.035,1.108h0.047
			c0.257-0.759,0.875-1.237,1.563-1.237c0.117,0,0.198,0.013,0.292,0.035v0.969c-0.104-0.022-0.21-0.034-0.35-0.034
			c-0.724,0-1.238,0.549-1.377,1.318c-0.023,0.141-0.047,0.305-0.047,0.479v3.012h-1.017V93.229L147.526,93.229z"/>
		<path fill="#939598" d="M151.797,94.478c0.022,1.389,0.91,1.961,1.938,1.961c0.735,0,1.18-0.129,1.564-0.292l0.175,0.734
			c-0.362,0.163-0.979,0.352-1.879,0.352c-1.739,0-2.778-1.146-2.778-2.85c0-1.703,1.004-3.047,2.65-3.047
			c1.844,0,2.334,1.623,2.334,2.662c0,0.21-0.023,0.373-0.035,0.479H151.797z M154.808,93.743c0.012-0.654-0.268-1.67-1.424-1.67
			c-1.039,0-1.494,0.957-1.576,1.67H154.808z"/>
	</g>
	<g>
		<g>
			<rect x="237.997" y="95.116" fill="#4C5156" width="197.169" height="19.663"/>
			<rect x="238.263" y="95.48" fill="#FFFFFF" width="196.639" height="18.934"/>
		</g>
		<g>
			<rect x="392.201" y="95.116" fill="#4C5156" width="42.965" height="19.663"/>
			<g>
				<path fill="#EBEBEB" d="M416.229,100.495c-1.614-2.331-4.822-2.913-7.152-1.3c-2.331,1.614-2.913,4.823-1.3,7.153
					c1.614,2.331,4.822,2.914,7.152,1.3C417.261,106.033,417.844,102.825,416.229,100.495z M414.298,106.733
					c-1.826,1.265-4.343,0.808-5.606-1.021c-1.264-1.824-0.808-4.341,1.021-5.604c1.824-1.265,4.341-0.81,5.604,1.019
					C416.58,102.954,416.123,105.469,414.298,106.733z"/>
				<polygon fill="#EBEBEB" points="417.234,112.135 418.32,111.383 415.473,107.272 414.93,107.647 414.388,108.023 				"/>
			</g>
		</g>
		<g>
			<g>
				<path fill="#ADADAD" d="M249.595,107.534c0.426,0.262,1.048,0.48,1.702,0.48c0.972,0,1.538-0.514,1.538-1.257
					c0-0.687-0.395-1.078-1.387-1.462c-1.199-0.425-1.941-1.047-1.941-2.083c0-1.146,0.949-1.997,2.379-1.997
					c0.753,0,1.299,0.176,1.626,0.36l-0.264,0.774c-0.238-0.131-0.729-0.351-1.396-0.351c-1.004,0-1.387,0.602-1.387,1.104
					c0,0.688,0.447,1.024,1.463,1.418c1.242,0.479,1.877,1.081,1.877,2.16c0,1.135-0.841,2.115-2.575,2.115
					c-0.709,0-1.482-0.208-1.876-0.47L249.595,107.534z"/>
				<path fill="#ADADAD" d="M255.675,106.225c0.021,1.298,0.853,1.833,1.813,1.833c0.688,0,1.103-0.12,1.464-0.273l0.161,0.688
					c-0.338,0.151-0.916,0.326-1.756,0.326c-1.625,0-2.598-1.068-2.598-2.661c0-1.595,0.938-2.849,2.478-2.849
					c1.725,0,2.183,1.518,2.183,2.487c0,0.196-0.021,0.349-0.031,0.447L255.675,106.225L255.675,106.225z M258.49,105.538
					c0.012-0.609-0.252-1.56-1.33-1.56c-0.972,0-1.396,0.895-1.474,1.56H258.49z"/>
				<path fill="#ADADAD" d="M263.533,108.691l-0.076-0.666h-0.033c-0.294,0.415-0.86,0.785-1.613,0.785
					c-1.068,0-1.615-0.752-1.615-1.519c0-1.274,1.136-1.974,3.176-1.963v-0.107c0-0.438-0.119-1.224-1.199-1.224
					c-0.49,0-1.005,0.153-1.376,0.395l-0.217-0.632c0.437-0.284,1.067-0.471,1.733-0.471c1.613,0,2.007,1.104,2.007,2.16v1.975
					c0,0.458,0.021,0.905,0.087,1.268L263.533,108.691L263.533,108.691z M263.391,105.996c-1.047-0.021-2.235,0.164-2.235,1.189
					c0,0.622,0.413,0.917,0.905,0.917c0.688,0,1.123-0.438,1.275-0.884c0.032-0.1,0.055-0.208,0.055-0.308V105.996z"/>
				<path fill="#ADADAD" d="M265.871,105.058c0-0.622-0.012-1.157-0.044-1.647h0.84l0.033,1.036h0.044
					c0.238-0.709,0.816-1.156,1.462-1.156c0.108,0,0.186,0.013,0.271,0.032v0.906c-0.1-0.021-0.196-0.033-0.328-0.033
					c-0.676,0-1.155,0.513-1.287,1.233c-0.021,0.131-0.043,0.282-0.043,0.445v2.815h-0.948V105.058z"/>
				<path fill="#ADADAD" d="M273.096,108.494c-0.252,0.131-0.81,0.306-1.519,0.306c-1.594,0-2.63-1.079-2.63-2.693
					c0-1.625,1.112-2.806,2.838-2.806c0.565,0,1.068,0.144,1.329,0.273l-0.218,0.742c-0.229-0.131-0.59-0.251-1.111-0.251
					c-1.211,0-1.865,0.895-1.865,1.997c0,1.222,0.785,1.975,1.832,1.975c0.546,0,0.905-0.142,1.179-0.262L273.096,108.494z"/>
				<path fill="#ADADAD" d="M274.222,100.945h0.96v3.294h0.021c0.152-0.272,0.394-0.513,0.688-0.676
					c0.283-0.164,0.622-0.273,0.98-0.273c0.709,0,1.844,0.438,1.844,2.258v3.144h-0.959v-3.033c0-0.851-0.316-1.571-1.224-1.571
					c-0.621,0-1.112,0.438-1.286,0.96c-0.056,0.133-0.064,0.273-0.064,0.458v3.188h-0.96V100.945L274.222,100.945z"/>
				<path fill="#ADADAD" d="M280.052,108.124c0-0.402,0.271-0.688,0.652-0.688c0.381,0,0.646,0.284,0.646,0.688
					c0,0.395-0.251,0.688-0.655,0.688C280.313,108.811,280.052,108.516,280.052,108.124z"/>
				<path fill="#ADADAD" d="M282.31,108.124c0-0.402,0.272-0.688,0.654-0.688c0.383,0,0.645,0.284,0.645,0.688
					c0,0.395-0.251,0.688-0.653,0.688C282.571,108.811,282.31,108.516,282.31,108.124z"/>
				<path fill="#ADADAD" d="M284.57,108.124c0-0.402,0.271-0.688,0.655-0.688c0.381,0,0.644,0.284,0.644,0.688
					c0,0.395-0.25,0.688-0.655,0.688C284.831,108.811,284.57,108.516,284.57,108.124z"/>
			</g>
		</g>
	</g>
	<rect x="11.553" y="507.479" fill="#E6E7E8" width="570.463" height="70.887"/>
	<g>
		<rect x="73.751" y="588.372" fill="#E6E7E8" width="299.955" height="86.756"/>
		<rect x="395.149" y="588.372" fill="#E6E7E8" width="124.667" height="86.756"/>
	</g>
	<g>
		<rect x="118.404" y="539.706" fill="#D1D3D4" width="147.5" height="10"/>
		<rect x="272.57" y="534.354" fill="#D1D3D4" width="68.668" height="20.375"/>
		<rect x="351.904" y="539.706" fill="#D1D3D4" width="30.336" height="10"/>
		<rect x="396.229" y="532.854" fill="#D1D3D4" width="78.934" height="23.375"/>
	</g>
	<g>
		<rect x="11.552" y="130.372" opacity="0.7" fill="#8DC63F" enable-background="new    " width="570.463" height="149.823"/>
		<g>
			<rect x="117.129" y="159.116" fill="#E6E7E8" width="149.435" height="13.256"/>
			<rect x="116.642" y="180.513" fill="#E6E7E8" width="72.338" height="3.607"/>
			<rect x="117.129" y="192.751" fill="#E6E7E8" width="144.601" height="5.878"/>
			<rect x="117.129" y="205.039" fill="#E6E7E8" width="130.541" height="5.878"/>
			<rect x="117.129" y="218.084" fill="#E6E7E8" width="136.741" height="5.878"/>
			<rect x="117.129" y="236.706" fill="#BCBEC0" width="56.075" height="16.333"/>
		</g>
		<g opacity="0.9">
			<polygon fill="#E5B76E" points="376.858,189.521 376.902,232.344 411.767,253.514 446.409,232.344 445.844,189.963 
				411.796,178.881 			"/>
			<polygon fill="#C39652" points="360.701,171.145 396.086,163.63 411.365,178.881 427.15,163.807 462.464,171.669 
				445.844,189.963 472.017,192.801 440.817,212.144 411.365,205.717 381.938,211.972 351.077,192.117 376.473,189.521 
				410.861,205.025 444.993,190.334 411.068,179.278 376.858,189.521 			"/>
			<path fill="#333333" d="M411.237,224.293c-0.121,0.192-0.229,0.397-0.349,0.607c0,0-5.156,9.287-12.92,7.084
				c0,0-6.335-1.397-6.729-8.103c0,0-0.209-5.594,6.379-5.384c0,0,4.245,0.453,6.983,5.218l5.506,1.184
				c0,0-2.557-9.575-12.401-11.393c0,0-10.751-2.47-11.838,9.388c0,0,0.215,11.387,12.444,14.258c0,0,6.504,1.949,12.921-3.601
				L411.237,224.293L411.237,224.293z"/>
			<path fill="#607B36" d="M421.946,212.957c0,0-6.438,2.49-10.382,10.725v9.47c0.624-0.911,1.254-1.888,1.872-2.955
				c0,0,2.85-7.146,6.958-11.063c0,0,1.933-1.175,2.59-1.346c0,0,5.825-2.209,6.692,4.295c0,0,0.387,5.13-5.792,8.526
				c0,0-5.655,2.938-7.854-2.673l-0.134-0.656c0,0-3.329,5.56-3.761,6.073c0,0,3.063,5.661,11.104,2.646
				c0,0,11.013-3.208,11.834-15.729C435.076,220.267,435.33,208.549,421.946,212.957z"/>
		</g>
	</g>
	<g>
		<rect id="XMLID_223_" x="82.303" y="292.075" fill="#F79057" width="40.574" height="38.271"/>
		<rect id="XMLID_222_" x="129.096" y="292.075" fill="#F0526F" width="40.573" height="38.271"/>
		<rect id="XMLID_221_" x="177.373" y="292.075" fill="#A2BA7D" width="40.573" height="38.271"/>
		<path id="XMLID_210_" fill="#FFFFFF" d="M143.253,303.059c0.606-0.268,2.398-0.537,3.386-0.732
			c-0.014,0.111-0.021,0.227-0.021,0.34c0,1.545,1.237,2.799,2.766,2.799s2.766-1.254,2.766-2.799c0-0.113-0.008-0.229-0.021-0.34
			c0.986,0.195,2.777,0.467,3.386,0.732c2.038,1.59,4.077,3.179,6.116,4.769l-2.707,3.133l-3.409-3.005c0,3.063,0,9.076,0,12.14
			h-6.13h-6.13c0-3.063,0-9.076,0-12.14l-3.408,3.005l-2.707-3.133C139.176,306.238,141.214,304.649,143.253,303.059z"/>
		<g id="XMLID_176_">
			<path id="XMLID_182_" fill="#FFFFFF" d="M96.856,311.86c0-3.202,2.566-5.799,5.732-5.799c3.168,0,5.733,2.597,5.733,5.799
				s-2.565,5.799-5.733,5.799C99.424,317.659,96.856,315.062,96.856,311.86L96.856,311.86z M112.139,304.043L112.139,304.043H93.041
				c-1.229,0-2.231,1.006-2.231,2.233v11.166c0,1.229,1.005,2.232,2.231,2.232h19.099c1.229,0,2.231-1.005,2.231-2.232v-11.166
				C114.371,305.049,113.367,304.043,112.139,304.043L112.139,304.043z M108.475,305.87L108.475,305.87
				c0-0.132,0.105-0.24,0.237-0.24h3.321c0.132,0,0.238,0.108,0.238,0.24v1.582c0,0.132-0.106,0.24-0.238,0.24h-3.321
				c-0.132,0-0.237-0.109-0.237-0.24V305.87z"/>
			<path id="XMLID_181_" fill="#FFFFFF" d="M92.937,303.795h2.854c0.106,0,0.194-0.086,0.194-0.192v-0.661
				c0-0.107-0.088-0.195-0.194-0.195h-2.854c-0.106,0-0.193,0.088-0.193,0.195v0.661C92.742,303.709,92.829,303.795,92.937,303.795z
				"/>
			<ellipse id="XMLID_180_" fill="#FFFFFF" cx="102.59" cy="311.86" rx="3.759" ry="3.8"/>
			<path id="XMLID_177_" fill="#FFFFFF" d="M102.59,307.682c2.282,0,4.132,1.871,4.132,4.178c0,2.31-1.85,4.178-4.132,4.178
				c-2.28,0-4.131-1.868-4.131-4.178C98.459,309.553,100.309,307.682,102.59,307.682L102.59,307.682z M107.242,311.86
				L107.242,311.86c0-2.598-2.082-4.703-4.652-4.703c-2.567,0-4.649,2.105-4.649,4.703s2.082,4.703,4.649,4.703
				C105.16,316.563,107.242,314.46,107.242,311.86z"/>
		</g>
		<g id="XMLID_96_">
			<path id="XMLID_173_" fill="#FFFFFF" d="M189.764,304.68h15.748v8.303h-15.748V304.68L189.764,304.68z M206.115,303.573
				L206.115,303.573H189.16c-0.277,0-0.505,0.227-0.505,0.506v9.94c0,0.023,0.003,0.048,0.005,0.071h17.955
				c0.004-0.023,0.004-0.048,0.004-0.071v-9.94C206.619,303.799,206.393,303.573,206.115,303.573z"/>
			<path id="XMLID_98_" fill="#FFFFFF" d="M188.914,316.078H188l0.356-0.382l0.883-0.001L188.914,316.078L188.914,316.078z
				 M206.68,314.368L206.68,314.368h-18.039l-3.134,3.364h24.304L206.68,314.368L206.68,314.368z M192.191,316.077L192.191,316.077
				h-0.912c0.08-0.13,0.16-0.258,0.238-0.382h0.879C192.33,315.819,192.26,315.946,192.191,316.077L192.191,316.077z
				 M192.369,316.076L192.369,316.076l0.198-0.381c0.291,0,0.586,0,0.882,0c-0.056,0.124-0.111,0.251-0.166,0.381H192.369
				L192.369,316.076z M193.459,316.076L193.459,316.076c0.056-0.13,0.106-0.257,0.16-0.381h0.877
				c-0.041,0.124-0.084,0.251-0.125,0.381H193.459L193.459,316.076z M194.547,316.076L194.547,316.076
				c0.041-0.13,0.08-0.257,0.119-0.381h0.877c-0.028,0.124-0.058,0.251-0.086,0.381H194.547L194.547,316.076z M195.635,316.076
				L195.635,316.076l0.082-0.381h0.875l-0.049,0.38L195.635,316.076L195.635,316.076z M191.102,316.077L191.102,316.077
				l-0.918,0.001l0.278-0.383h0.886L191.102,316.077L191.102,316.077z M194.514,315.643L194.514,315.643h-0.873
				c0.051-0.119,0.101-0.236,0.146-0.351h0.844C194.592,315.407,194.555,315.524,194.514,315.643L194.514,315.643z M194.682,315.643
				L194.682,315.643c0.039-0.119,0.075-0.236,0.11-0.351h0.842c-0.024,0.112-0.053,0.229-0.079,0.351H194.682L194.682,315.643z
				 M195.725,315.643L195.725,315.643l0.078-0.351h0.84l-0.045,0.351H195.725L195.725,315.643z M190.008,316.078L190.008,316.078
				c0.099-0.131,0.191-0.258,0.283-0.383h-0.881l-0.315,0.383H190.008L190.008,316.078z M192.424,315.644L192.424,315.644h-0.875
				l0.222-0.352h0.844C192.553,315.407,192.49,315.524,192.424,315.644L192.424,315.644z M192.594,315.644L192.594,315.644
				l0.184-0.352h0.847c-0.049,0.112-0.101,0.229-0.151,0.351L192.594,315.644L192.594,315.644z M191.381,315.644L191.381,315.644
				c-0.297,0-0.59,0-0.881,0c0.088-0.12,0.174-0.237,0.256-0.352h0.851C191.531,315.407,191.455,315.524,191.381,315.644
				L191.381,315.644z M190.33,315.644L190.33,315.644h-0.877c0.103-0.12,0.196-0.237,0.293-0.354l0.849,0.003L190.33,315.644
				L190.33,315.644z M194.646,315.246L194.646,315.246h-0.84l0.137-0.323h0.812C194.717,315.027,194.682,315.135,194.646,315.246
				L194.646,315.246z M194.809,315.246L194.809,315.246c0.035-0.109,0.067-0.219,0.103-0.323l0.812,0.001
				c-0.022,0.104-0.05,0.214-0.074,0.322H194.809L194.809,315.246z M195.811,315.246L195.811,315.246l0.069-0.322h0.81l-0.041,0.322
				H195.811L195.811,315.246z M192.639,315.246L192.639,315.246h-0.841c0.068-0.109,0.138-0.219,0.201-0.323h0.813L192.639,315.246
				L192.639,315.246z M192.803,315.246L192.803,315.246c0.057-0.109,0.112-0.219,0.168-0.323h0.813
				c-0.046,0.104-0.095,0.214-0.142,0.323H192.803L192.803,315.246z M191.635,315.246L191.635,315.246h-0.844l0.235-0.323h0.818
				L191.635,315.246L191.635,315.246z M190.629,315.246L190.629,315.246l-0.846-0.001l0.272-0.323l0.813,0.001
				C190.791,315.026,190.711,315.135,190.629,315.246L190.629,315.246z M189.283,315.644L189.283,315.644l-0.878,0.001l0.328-0.354
				h0.849L189.283,315.644L189.283,315.644z M189.621,315.245L189.621,315.245h-0.843l0.306-0.323h0.813L189.621,315.245
				L189.621,315.245z M195.73,314.879L195.73,314.879h-0.808l0.097-0.304l0.778,0.001L195.73,314.879L195.73,314.879z
				 M195.889,314.879L195.889,314.879c0.021-0.104,0.043-0.203,0.063-0.303h0.778l-0.039,0.304L195.889,314.879L195.889,314.879z
				 M193.805,314.879L193.805,314.879h-0.812c0.055-0.104,0.104-0.203,0.155-0.304h0.785L193.805,314.879L193.805,314.879z
				 M193.961,314.879L193.961,314.879c0.041-0.104,0.084-0.203,0.127-0.304h0.779c-0.033,0.101-0.063,0.2-0.101,0.304H193.961
				L193.961,314.879z M192.836,314.879L192.836,314.879h-0.81l0.188-0.305l0.781,0.001L192.836,314.879L192.836,314.879z
				 M191.873,314.879L191.873,314.879l-0.813-0.001c0.076-0.104,0.147-0.203,0.219-0.304h0.787
				C192.002,314.675,191.938,314.774,191.873,314.879L191.873,314.879z M190.902,314.878L190.902,314.878h-0.812l0.252-0.304h0.783
				L190.902,314.878L190.902,314.878z M189.934,314.878L189.934,314.878l-0.81-0.003l0.28-0.301h0.783L189.934,314.878
				L189.934,314.878z M195.141,317.379L195.141,317.379l0.53-1.17h3.978l0.529,1.17H195.141L195.141,317.379z M201.963,316.073
				L201.963,316.073l-0.905,0.001l-0.113-0.38l0.871-0.001C201.863,315.817,201.912,315.944,201.963,316.073L201.963,316.073z
				 M202.139,316.073L202.139,316.073c-0.056-0.129-0.104-0.256-0.154-0.38h0.871l0.185,0.379L202.139,316.073L202.139,316.073z
				 M203.215,316.072L203.215,316.072c-0.063-0.129-0.127-0.256-0.19-0.379h0.869l0.226,0.379H203.215L203.215,316.072z
				 M204.291,316.072L204.291,316.072l-0.229-0.379h0.869l0.264,0.379H204.291L204.291,316.072z M205.371,316.072L205.371,316.072
				c-0.093-0.13-0.185-0.256-0.271-0.379c0.291,0,0.575,0,0.866,0l0.304,0.379H205.371L205.371,316.072z M196.719,316.075
				L196.719,316.075c0.016-0.13,0.028-0.257,0.043-0.381h0.875l-0.011,0.381H196.719L196.719,316.075z M197.811,316.075
				L197.811,316.075l0.004-0.381h0.873c0.01,0.124,0.021,0.251,0.028,0.381H197.811L197.811,316.075z M198.895,316.075
				L198.895,316.075l-0.035-0.381c0.289,0,0.58,0,0.871,0l0.067,0.38L198.895,316.075L198.895,316.075z M199.977,316.074
				L199.977,316.074c-0.024-0.129-0.052-0.257-0.074-0.38h0.871c0.035,0.123,0.072,0.25,0.108,0.38H199.977L199.977,316.074z
				 M200.926,315.642L200.926,315.642l-0.104-0.35h0.839l0.135,0.35H200.926L200.926,315.642z M201.965,315.642L201.965,315.642
				c-0.049-0.119-0.098-0.235-0.144-0.35h0.837c0.057,0.112,0.114,0.229,0.172,0.35H201.965L201.965,315.642z M202.998,315.642
				L202.998,315.642l-0.179-0.35l0.836,0.001c0.066,0.111,0.136,0.229,0.207,0.349C203.574,315.642,203.287,315.642,202.998,315.642
				L202.998,315.642z M204.031,315.642L204.031,315.642l-0.213-0.349h0.836c0.08,0.111,0.16,0.229,0.244,0.349H204.031
				L204.031,315.642z M205.064,315.642L205.064,315.642l-0.248-0.349h0.834l0.276,0.349H205.064L205.064,315.642z M206.443,316.072
				L206.443,316.072l-0.31-0.379h0.871l0.343,0.378L206.443,316.072L206.443,316.072z M206.094,315.642L206.094,315.642
				l-0.283-0.349h0.838l0.313,0.349H206.094L206.094,315.642z M196.768,315.643L196.768,315.643l0.039-0.351h0.84l-0.01,0.351
				C197.346,315.643,197.057,315.643,196.768,315.643L196.768,315.643z M197.813,315.643L197.813,315.643l0.004-0.351h0.841
				l0.026,0.35L197.813,315.643L197.813,315.643z M198.852,315.642L198.852,315.642l-0.031-0.35h0.839l0.063,0.35H198.852
				L198.852,315.642z M199.891,315.642L199.891,315.642c-0.021-0.119-0.045-0.235-0.07-0.35h0.841
				c0.03,0.112,0.065,0.229,0.101,0.35H199.891L199.891,315.642z M202.635,315.246L202.635,315.246h-0.831
				c-0.044-0.107-0.087-0.218-0.132-0.32h0.808L202.635,315.246L202.635,315.246z M202.799,315.246L202.799,315.246
				c-0.057-0.107-0.11-0.217-0.166-0.32h0.808l0.188,0.32H202.799L202.799,315.246z M203.791,315.246L203.791,315.246
				c-0.067-0.107-0.133-0.217-0.196-0.32h0.805l0.224,0.32H203.791L203.791,315.246z M204.783,315.246L204.783,315.246
				c-0.078-0.107-0.156-0.217-0.229-0.32h0.803l0.258,0.32H204.783L204.783,315.246z M205.773,315.246L205.773,315.246l-0.262-0.32
				l0.803,0.001l0.291,0.319H205.773L205.773,315.246z M198.65,315.246L198.65,315.246h-0.836l0.004-0.322l0.81,0.001
				L198.65,315.246L198.65,315.246z M198.813,315.246L198.813,315.246l-0.028-0.321h0.807c0.021,0.104,0.039,0.213,0.062,0.321
				H198.813L198.813,315.246z M199.813,315.246L199.813,315.246c-0.021-0.108-0.043-0.218-0.065-0.321h0.808
				c0.032,0.104,0.063,0.214,0.094,0.321H199.813L199.813,315.246z M200.809,315.246L200.809,315.246
				c-0.035-0.107-0.065-0.218-0.101-0.321l0.808,0.001l0.125,0.32H200.809L200.809,315.246z M196.811,315.246L196.811,315.246
				l0.037-0.322h0.807l-0.008,0.322H196.811L196.811,315.246z M203.412,314.881L203.412,314.881h-0.802l-0.149-0.302h0.774
				L203.412,314.881L203.412,314.881z M203.566,314.881L203.566,314.881l-0.183-0.302h0.772c0.07,0.1,0.14,0.198,0.209,0.303
				L203.566,314.881L203.566,314.881z M204.523,314.882L204.523,314.882l-0.213-0.303l0.772,0.001l0.237,0.302H204.523
				L204.523,314.882z M205.477,314.882L205.477,314.882l-0.244-0.302h0.774l0.271,0.302H205.477L205.477,314.882z M199.738,314.881
				L199.738,314.881l-0.059-0.304l0.776,0.001l0.084,0.303H199.738L199.738,314.881z M200.697,314.881L200.697,314.881
				c-0.03-0.104-0.063-0.202-0.092-0.303h0.776c0.037,0.101,0.076,0.198,0.117,0.303H200.697L200.697,314.881z M201.654,314.881
				L201.654,314.881l-0.12-0.303l0.774,0.001c0.049,0.1,0.101,0.197,0.147,0.302H201.654L201.654,314.881z M197.654,314.88
				L197.654,314.88h-0.803c0.01-0.104,0.021-0.203,0.032-0.304l0.777,0.001L197.654,314.88L197.654,314.88z M197.818,314.88
				L197.818,314.88l0.002-0.303h0.779c0.006,0.101,0.014,0.199,0.022,0.303H197.818L197.818,314.88z M198.777,314.881
				L198.777,314.881l-0.026-0.304h0.776c0.019,0.102,0.035,0.199,0.056,0.304H198.777z"/>
			<polygon id="XMLID_97_" fill="#FFFFFF" points="209.842,317.961 185.479,317.961 185.479,318.567 185.479,318.847 
				185.74,318.847 209.842,318.847 			"/>
		</g>
		<rect id="XMLID_220_" x="224.697" y="292.076" fill="#5EBBB7" width="40.575" height="38.271"/>
		<rect id="XMLID_219_" x="271.49" y="292.076" fill="#F0526F" width="40.574" height="38.271"/>
		<rect id="XMLID_218_" x="319.768" y="292.076" fill="#5EBBB7" width="40.573" height="38.271"/>
		<g id="XMLID_191_">
			<path id="XMLID_204_" fill="#FFFFFF" d="M286.664,299.794h10.226c0.543,0,0.985,0.443,0.985,0.985v20.861
				c0,0.542-0.442,0.983-0.985,0.983h-10.226c-0.541,0-0.983-0.441-0.983-0.983v-20.86
				C285.68,300.238,286.123,299.794,286.664,299.794L286.664,299.794z M291.093,320.586L291.093,320.586
				c-0.099,0-0.179,0.078-0.179,0.179v0.911c0,0.099,0.08,0.179,0.179,0.179h1.368c0.099,0,0.179-0.08,0.179-0.179v-0.911
				c0-0.101-0.08-0.179-0.179-0.179H291.093L291.093,320.586z M290.542,300.725L290.542,300.725c-0.044,0-0.081,0.046-0.081,0.103
				v0.032c0,0.057,0.037,0.103,0.081,0.103h2.471c0.044,0,0.078-0.046,0.078-0.103v-0.032c0-0.057-0.034-0.103-0.078-0.103H290.542
				L290.542,300.725z M294.287,301.168L294.287,301.168c0.18,0,0.325-0.146,0.325-0.325c0-0.178-0.146-0.322-0.325-0.322
				c-0.179,0-0.324,0.146-0.324,0.322C293.963,301.022,294.109,301.168,294.287,301.168L294.287,301.168z M286.773,302.011
				L286.773,302.011c-0.217,0-0.396,0.178-0.396,0.395v17.295c0,0.219,0.179,0.396,0.396,0.396h10.007
				c0.217,0,0.395-0.177,0.395-0.396v-17.295c0-0.217-0.178-0.395-0.395-0.395H286.773z"/>
			<path id="XMLID_203_" fill="#FFFFFF" d="M287.625,304.151h1.989c0.164,0,0.298,0.134,0.298,0.296v1.888
				c0,0.163-0.134,0.297-0.298,0.297h-1.989c-0.162,0-0.297-0.134-0.297-0.297v-1.888
				C287.328,304.285,287.463,304.151,287.625,304.151z"/>
			<path id="XMLID_202_" fill="#FFFFFF" d="M290.727,304.151h1.989c0.163,0,0.298,0.134,0.298,0.296v1.888
				c0,0.163-0.135,0.297-0.298,0.297h-1.989c-0.163,0-0.297-0.134-0.297-0.297v-1.888
				C290.43,304.285,290.563,304.151,290.727,304.151z"/>
			<path id="XMLID_201_" fill="#FFFFFF" d="M293.82,304.151h1.99c0.162,0,0.297,0.134,0.297,0.296v1.888
				c0,0.163-0.135,0.297-0.297,0.297h-1.99c-0.162,0-0.297-0.134-0.297-0.297v-1.888
				C293.523,304.285,293.657,304.151,293.82,304.151z"/>
			<path id="XMLID_200_" fill="#FFFFFF" d="M287.625,307.165h1.989c0.164,0,0.298,0.136,0.298,0.3v1.887
				c0,0.163-0.134,0.297-0.298,0.297h-1.989c-0.162,0-0.297-0.134-0.297-0.297v-1.887
				C287.328,307.3,287.463,307.165,287.625,307.165z"/>
			<path id="XMLID_199_" fill="#FFFFFF" d="M290.727,307.165h1.989c0.163,0,0.298,0.136,0.298,0.3v1.887
				c0,0.163-0.135,0.297-0.298,0.297h-1.989c-0.163,0-0.297-0.134-0.297-0.297v-1.887C290.43,307.3,290.563,307.165,290.727,307.165
				z"/>
			<path id="XMLID_198_" fill="#FFFFFF" d="M293.82,307.165h1.99c0.162,0,0.297,0.136,0.297,0.3v1.887
				c0,0.163-0.135,0.297-0.297,0.297h-1.99c-0.162,0-0.297-0.134-0.297-0.297v-1.887C293.523,307.3,293.657,307.165,293.82,307.165z
				"/>
			<path id="XMLID_197_" fill="#FFFFFF" d="M287.625,310.18h1.989c0.164,0,0.298,0.133,0.298,0.296v1.888
				c0,0.163-0.134,0.297-0.298,0.297h-1.989c-0.162,0-0.297-0.134-0.297-0.297v-1.888
				C287.328,310.313,287.463,310.18,287.625,310.18z"/>
			<path id="XMLID_196_" fill="#FFFFFF" d="M290.727,310.18h1.989c0.163,0,0.298,0.133,0.298,0.296v1.888
				c0,0.163-0.135,0.297-0.298,0.297h-1.989c-0.163,0-0.297-0.134-0.297-0.297v-1.888C290.43,310.313,290.563,310.18,290.727,310.18
				z"/>
			<path id="XMLID_195_" fill="#FFFFFF" d="M293.82,310.18h1.99c0.162,0,0.297,0.133,0.297,0.296v1.888
				c0,0.163-0.135,0.297-0.297,0.297h-1.99c-0.162,0-0.297-0.134-0.297-0.297v-1.888C293.523,310.313,293.657,310.18,293.82,310.18z
				"/>
			<path id="XMLID_194_" fill="#FFFFFF" d="M287.625,313.195h1.989c0.164,0,0.298,0.133,0.298,0.296v1.889
				c0,0.164-0.134,0.298-0.298,0.298h-1.989c-0.162,0-0.297-0.134-0.297-0.298v-1.889
				C287.328,313.328,287.463,313.195,287.625,313.195z"/>
			<path id="XMLID_193_" fill="#FFFFFF" d="M290.727,313.195h1.989c0.163,0,0.298,0.133,0.298,0.296v1.889
				c0,0.164-0.135,0.298-0.298,0.298h-1.989c-0.163,0-0.297-0.134-0.297-0.298v-1.889
				C290.43,313.328,290.563,313.195,290.727,313.195z"/>
			<path id="XMLID_192_" fill="#FFFFFF" d="M293.82,313.195h1.99c0.162,0,0.297,0.133,0.297,0.296v1.889
				c0,0.164-0.135,0.298-0.297,0.298h-1.99c-0.162,0-0.297-0.134-0.297-0.298v-1.889
				C293.523,313.328,293.657,313.195,293.82,313.195z"/>
		</g>
		<g id="XMLID_186_">
			<path id="XMLID_188_" fill="#FFFFFF" d="M234.627,301.273h20.715c0.684,0,1.24,0.559,1.24,1.241v14.637
				c0,0.685-0.559,1.24-1.24,1.24h-20.715c-0.683,0-1.239-0.56-1.239-1.24v-14.637C233.387,301.832,233.945,301.273,234.627,301.273
				L234.627,301.273z M234.889,302.36L234.889,302.36c-0.144,0-0.258,0.115-0.258,0.256v13.058c0,0.141,0.114,0.257,0.258,0.257
				h20.192c0.142,0,0.256-0.116,0.256-0.257v-13.058c0-0.141-0.114-0.256-0.256-0.256H234.889z"/>
			<path id="XMLID_187_" fill="#FFFFFF" d="M243.262,318.813h3.445v1.399c1.604,0.147,2.829,0.502,3.198,0.936h-9.845
				c0.37-0.434,1.595-0.786,3.199-0.936L243.262,318.813L243.262,318.813z"/>
		</g>
		<path id="XMLID_90_" fill="#FFFFFF" d="M351.48,318.483c0,0-8.883-1.012-11.808-0.449c-2.924,0.563-5.51,1.181-8.827,0.618
			c-3.318-0.561-5.285-2.587-5.793-3.486c-0.396-0.7-0.412-1.368,0.135-2.108c1.062,0.945,2.819,2.313,4.804,3.058
			c1.573,0.59,3.565,0.919,5.524,0.999c2.049,0.086,4.069-0.101,5.541-0.542c1.864-0.56,4.519-0.4,6.856-0.264
			c1.101,0.063,2.131,0.126,3.004,0.107c1.547-0.031,3.039-0.979,4.198-1.721c0.162-0.103,0.316-0.2,0.46-0.29
			c-0.052,1.975-0.65,3.353-1.283,3.656C353.477,318.455,351.48,318.483,351.48,318.483L351.48,318.483z M339.287,309.051
			L339.287,309.051l-1.063,0.656l2.391,3.646l1.384-0.172L339.287,309.051L339.287,309.051z M337.857,309.935L337.857,309.935
			l-1.063,0.659l1.961,2.986l1.384-0.172L337.857,309.935L337.857,309.935z M336.346,310.873L336.346,310.873l-1.063,0.658
			l1.504,2.295l1.383-0.171L336.346,310.873L336.346,310.873z M325.633,312.552L325.633,312.552
			c1.019,0.907,2.701,2.221,4.595,2.931c1.504,0.563,3.422,0.879,5.313,0.957c1.979,0.082,3.92-0.095,5.323-0.516
			c1.978-0.596,4.693-0.435,7.091-0.29c1.092,0.063,2.116,0.126,2.95,0.106c1.353-0.026,2.759-0.922,3.851-1.617
			c0.291-0.184,0.562-0.354,0.813-0.497c-0.016-0.339-0.047-0.688-0.094-1.05c-0.396-2.924-0.957-5.342-1.746-5.679
			c-0.785-0.337-0.394,1.8-1.629,2.08c-1.236,0.282-5.343-1.067-6.69-1.855c-1.351-0.786-0.111-2.418-1.013-2.979
			c-0.899-0.563-1.183,0.169-2.022,1.234c-0.845,1.069-7.761,5.904-10.233,6.638c-2.476,0.729-5.229-0.619-6.354,0.393
			C325.732,312.46,325.682,312.507,325.633,312.552z"/>
		<rect id="XMLID_217_" x="367.227" y="292.285" fill="#A2BA7D" width="40.575" height="38.271"/>
		<rect id="XMLID_216_" x="414.02" y="292.285" fill="#F79057" width="40.574" height="38.271"/>
		<rect id="XMLID_215_" x="462.298" y="292.285" fill="#D7B8D7" width="40.572" height="38.271"/>
		<path id="XMLID_211_" fill="#FFFFFF" d="M496.843,310.887c-1.268,11.18-11.873,8.675-13.912,0.582
			c-0.117-0.027-0.232-0.04-0.346-0.04c-0.115,0-0.229,0.013-0.348,0.04c-2.039,8.093-12.646,10.598-13.912-0.582
			c0.539-1.041,0.76-1.604,1.361-1.729c1.801-2.102,4.971-6.916,7.68-3.624c0.93,1.179,0.168,1.443-0.473,0.834
			c-1.822-2.007-3.527,1.088-4.459,2.768h9.135h1.016h1.016h9.09c-0.932-1.68-2.637-4.772-4.459-2.768
			c-0.641,0.609-1.4,0.345-0.473-0.834c2.703-3.286,5.869,1.51,7.67,3.614C496.072,309.255,496.286,309.817,496.843,310.887
			L496.843,310.887z M480.831,310.365L480.831,310.365h-10.129l-0.016-0.001c-0.063-0.003-0.174-0.004-0.23,0.028
			c-0.145,0.085-0.426,0.641-0.586,0.962c0.313,2.418,1.369,5.323,4.09,5.782c1.525,0.258,3.07-0.38,4.229-1.349
			c1.545-1.286,2.41-3.059,2.744-5.017C480.986,310.492,481.068,310.37,480.831,310.365L480.831,310.365z M484.337,310.365
			L484.337,310.365c-0.236,0.005-0.154,0.127-0.104,0.408c0.334,1.958,1.199,3.729,2.744,5.017c1.158,0.969,2.705,1.604,4.229,1.349
			c2.72-0.459,3.776-3.364,4.089-5.782c-0.16-0.321-0.443-0.877-0.587-0.962c-0.06-0.032-0.168-0.031-0.229-0.028l-0.018,0.001
			L484.337,310.365L484.337,310.365z"/>
		<g id="XMLID_80_">
			<path id="XMLID_89_" fill="#FFFFFF" d="M380.795,302.016l2.543,0.426c0.283,0.048,0.479,0.32,0.43,0.604l-0.064,0.37
				c-1.147-0.169-3.3-0.624-3.656-0.343l0.146-0.628C380.258,302.166,380.512,301.968,380.795,302.016z"/>
			<path id="XMLID_88_" fill="#FFFFFF" d="M394.343,302.077l-2.542,0.427c-0.282,0.047-0.479,0.319-0.43,0.604l0.058,0.313
				c1.146-0.169,3.309-0.566,3.666-0.286l-0.148-0.628C394.881,302.226,394.627,302.03,394.343,302.077z"/>
			<path id="XMLID_81_" fill="#FFFFFF" d="M382.99,308.045h1.363c0.104,0,0.188,0.085,0.188,0.188v1.037
				c0,0.104-0.085,0.188-0.188,0.188h-1.363v1.363c0,0.105-0.085,0.188-0.188,0.188h-1.036c-0.104,0-0.188-0.083-0.188-0.188v-1.363
				h-1.361c-0.104,0-0.188-0.084-0.188-0.188v-1.037c0-0.104,0.084-0.188,0.188-0.188h1.361v-1.362c0-0.104,0.086-0.188,0.188-0.188
				h1.036c0.104,0,0.188,0.085,0.188,0.188V308.045L382.99,308.045z M386.578,303.873L386.578,303.873
				c-2.792-0.096-4.479-0.586-5.949-0.646c-3.683-0.153-8.129,13.188-2.401,17.481c0,0,0.073,0.074,0.209,0.076
				c0.192,0.07,0.405,0.071,0.608-0.076c2.48-1.807-0.718-7.659,8.646-7.659c8.813,0,5.369,4.212,8.07,7.457
				c0.267,0.316,0.547,0.334,0.753,0.272c0.187,0.033,0.288-0.07,0.288-0.07c5.727-4.294,1.277-17.637-2.402-17.481
				c-1.629,0.066-4.567,0.664-6.868,0.664h-0.033L386.578,303.873L386.578,303.873z M390.554,308.705L390.554,308.705
				c0-0.535,0.435-0.972,0.972-0.972s0.975,0.437,0.975,0.972c0,0.538-0.438,0.976-0.975,0.976S390.554,309.243,390.554,308.705
				L390.554,308.705z M393.212,307.992L393.212,307.992c-0.538,0-0.974-0.436-0.974-0.973s0.436-0.975,0.974-0.975
				c0.536,0,0.973,0.438,0.973,0.975S393.748,307.992,393.212,307.992L393.212,307.992z M393.926,308.705L393.926,308.705
				c0-0.535,0.436-0.972,0.972-0.972c0.539,0,0.975,0.437,0.975,0.972c0,0.538-0.436,0.976-0.975,0.976
				C394.36,309.678,393.926,309.243,393.926,308.705L393.926,308.705z M392.239,310.391L392.239,310.391
				c0-0.537,0.436-0.973,0.974-0.973c0.536,0,0.973,0.436,0.973,0.973s-0.437,0.973-0.973,0.973
				C392.674,311.364,392.239,310.928,392.239,310.391z"/>
		</g>
		<path id="XMLID_76_" fill="#FFFFFF" d="M444.482,311.086l-0.209-0.063c0.049-0.396,0.072-0.797,0.072-1.198
			c0-5.529-4.498-10.027-10.027-10.027c-5.527,0-10.023,4.498-10.027,10.027c0,0.399,0.024,0.798,0.072,1.19l-0.23,0.069
			c-0.236,0.067-0.371,0.318-0.303,0.556l0.018,0.051c-0.905,0.623-1.186,2.479-0.602,4.438c0.582,1.959,1.828,3.359,2.928,3.389
			l0.055,0.182c0.069,0.235,0.319,0.371,0.555,0.301l1.713-0.509c0.236-0.068,0.371-0.318,0.303-0.556l-0.979-3.294l0.007-0.006
			l-0.012-0.018l-1.411-4.744c-0.069-0.233-0.319-0.369-0.556-0.302l-0.202,0.063c-0.024-0.271-0.038-0.538-0.038-0.813
			c0-2.327,0.907-4.516,2.553-6.163c1.648-1.646,3.836-2.553,6.162-2.553c2.328,0,4.518,0.906,6.164,2.553
			c1.646,1.647,2.553,3.836,2.553,6.163c0,0.274-0.014,0.547-0.039,0.818l-0.227-0.068c-0.236-0.067-0.486,0.066-0.557,0.302
			l-2.396,8.062c-0.069,0.235,0.065,0.485,0.302,0.556l1.184,0.354c-1.703,1.873-4.809,2.067-7.677,2.405
			c-0.069-0.271-0.317-0.473-0.611-0.473c-0.351,0-0.633,0.284-0.633,0.633c0,0.35,0.282,0.634,0.633,0.634
			c0.263,0,0.488-0.162,0.585-0.393c3.063-0.294,6.482-0.687,8.186-2.666l0.049,0.017c0.234,0.068,0.484-0.065,0.557-0.303
			l0.055-0.182c1.099-0.028,2.344-1.43,2.926-3.389c0.583-1.96,0.307-3.815-0.6-4.438l0.015-0.051
			C444.854,311.405,444.719,311.154,444.482,311.086L444.482,311.086z M426.904,310.618L426.904,310.618l0.682-0.202
			c0.151-0.045,0.314,0.045,0.359,0.197l2.246,7.558c0.045,0.151-0.043,0.314-0.196,0.359l-0.679,0.202
			c-0.152,0.046-0.313-0.042-0.36-0.195l-2.245-7.558C426.663,310.827,426.753,310.664,426.904,310.618L426.904,310.618z
			 M441.665,310.703L441.665,310.703c0.152,0.046,0.241,0.209,0.195,0.361l-2.246,7.558c-0.046,0.153-0.208,0.241-0.359,0.194
			l-0.682-0.201c-0.15-0.045-0.238-0.208-0.192-0.359l2.246-7.559c0.044-0.151,0.208-0.241,0.359-0.193L441.665,310.703z"/>
	</g>
	<g opacity="0.9">
		<g>
			<path fill="#4C5156" d="M98.79,95.26c-0.337-0.449-0.865-0.716-1.428-0.716H69.599l-1.056-3.584
				c-0.03-0.104-0.082-0.2-0.139-0.29c0.087,0.243,0.121,0.512,0.072,0.783c-0.129,0.75-0.774,1.278-1.508,1.278
				c-0.076,0-0.156-0.008-0.234-0.021l0.729,2.479c-0.021,0.022-0.046,0.042-0.063,0.065c-0.338,0.45-0.441,1.031-0.283,1.57
				l3.622,12.364c0.089,0.295,0.247,0.553,0.454,0.759l-2.596,4.847c-0.222,0.414-0.209,0.914,0.032,1.318
				c0.241,0.403,0.677,0.65,1.146,0.65h19.063c0.738,0,1.338-0.601,1.338-1.337c0-0.739-0.6-1.34-1.338-1.34H72.012l1.938-3.616
				H93.74c0.79,0,1.486-0.521,1.71-1.281l3.625-12.364C99.231,96.292,99.127,95.71,98.79,95.26z M92.403,106.911H73.787
				l-0.438-1.502h19.496L92.403,106.911z M93.498,103.18H72.694l-0.394-1.34h21.59L93.498,103.18z M94.543,99.614H71.648
				l-0.439-1.502h23.774L94.543,99.614z"/>
			<circle fill="#FBC153" cx="70.808" cy="115.432" r="3.091"/>
			<circle fill="#FFFFFF" cx="70.808" cy="115.432" r="1.89"/>
			<circle fill="#FBC153" cx="88.842" cy="115.432" r="3.091"/>
			<circle fill="#FFFFFF" cx="88.842" cy="115.432" r="1.889"/>
			<g>
				<path fill="#FBC153" d="M66.971,92.733c-0.087,0-0.175-0.007-0.264-0.023l-6.184-1.08c-0.834-0.145-1.394-0.941-1.247-1.78
					c0.146-0.839,0.938-1.403,1.771-1.255l6.184,1.078c0.833,0.146,1.393,0.944,1.246,1.783
					C68.35,92.205,67.703,92.733,66.971,92.733z"/>
			</g>
		</g>
	</g>
	<g opacity="0.9">
		<rect x="453.271" y="96.478" fill="#2AA9E1" width="17.483" height="18.837"/>
		<polygon fill="#1C76B9" points="451.537,93.934 455.273,95.206 453.271,96.478 453.271,96.478 453.271,115.314 451.537,112.771 		
			"/>
		<polygon fill="#1C76B9" points="469.022,93.934 469.022,95.892 467.072,95.233 		"/>
		<polygon fill="#FDEE14" points="470.755,96.478 453.271,96.478 455.273,95.206 451.537,93.934 469.022,93.934 467.072,95.233 
			469.022,95.892 		"/>
		<polygon fill="#FDC20F" points="470.755,96.478 467.073,95.233 467.073,96.478 		"/>
		<circle fill="#FFFFFF" cx="458.033" cy="99.437" r="0.844"/>
		<circle fill="#FFFFFF" cx="466.332" cy="99.437" r="0.843"/>
		<path fill="#FDC20F" d="M463.527,104.442h-2.688c-1.919,0-3.48-1.563-3.48-3.481v-1.523c0-0.373,0.303-0.675,0.675-0.675
			c0.373,0,0.678,0.302,0.678,0.675v1.523c0,1.177,0.953,2.13,2.13,2.13h2.688c1.175,0,2.131-0.954,2.131-2.13v-1.523
			c0-0.373,0.305-0.675,0.677-0.675c0.371,0,0.676,0.302,0.676,0.675v1.523C467.01,102.881,465.447,104.442,463.527,104.442z"/>
		<polygon fill="#2D5BAA" points="451.537,112.77 453.271,112.77 453.271,115.314 		"/>
	</g>
	<g opacity="0.9">
		<path fill="#4C5156" d="M502.186,99.53c-1.909-1.516-3.24-0.007-4.731,1.922c-0.906,1.175-1.747,4.229-0.667,5.063
			c0.483,0.375,1.021,0.633,1.578,0.776c-1.144,1.418-2.613,3.012-4.291,4.298c-0.15-0.544-0.414-1.066-0.785-1.537
			c-0.848-1.07-3.892-0.198-5.057,0.724c-1.912,1.513-3.381,2.841-1.869,4.753c1.515,1.912,4.055,1.876,6.201,0.724
			c0.139-0.073,3.543-1.83,6.252-4.63c2.728-2.817,4.156-5.229,4.653-6.699C503.678,104.361,504.404,101.292,502.186,99.53z"/>
		<g>
			<path fill="#4C5156" d="M483.55,113.739L483.55,113.739c0.18,0.162,0.453,0.158,0.627-0.01l0.375-0.362
				c0.193-0.188,0.188-0.5-0.014-0.68l-0.02-0.021c-2.215-2.003-3.458-4.797-3.459-7.808c-0.002-2.412,0.839-4.77,2.367-6.633
				c1.908-2.329,4.64-3.704,7.621-3.854c0.18-0.009,0.357-0.013,0.536-0.013c2.608,0,5.093,0.955,7.041,2.718
				c0.347,0.313,0.663,0.646,0.957,0.989c0.201,0.239,0.563,0.261,0.787,0.043l0.265-0.253c0.205-0.198,0.223-0.521,0.038-0.738
				c-0.33-0.389-0.688-0.761-1.077-1.113c-2.367-2.142-5.432-3.232-8.619-3.074c-3.405,0.17-6.523,1.745-8.694,4.415
				c-1.714,2.106-2.66,4.758-2.667,7.475C479.605,108.259,481.022,111.452,483.55,113.739z"/>
		</g>
		<g enable-background="new    ">
			<path fill="#F26522" d="M490.261,104.834v1.194h-7.028c-0.01-0.299,0.041-0.586,0.152-0.862c0.18-0.456,0.466-0.903,0.859-1.346
				c0.395-0.442,0.963-0.952,1.708-1.532c1.155-0.9,1.938-1.616,2.344-2.143c0.404-0.526,0.607-1.024,0.607-1.494
				c0-0.492-0.185-0.907-0.555-1.246c-0.37-0.338-0.853-0.507-1.446-0.507c-0.629,0-1.132,0.18-1.509,0.539
				c-0.377,0.358-0.568,0.854-0.573,1.49l-1.342-0.132c0.092-0.953,0.438-1.678,1.037-2.177c0.599-0.499,1.404-0.749,2.415-0.749
				c1.021,0,1.828,0.27,2.423,0.808c0.595,0.537,0.892,1.205,0.892,2.001c0,0.404-0.087,0.803-0.261,1.193
				c-0.174,0.392-0.463,0.803-0.866,1.235s-1.075,1.025-2.013,1.78c-0.784,0.625-1.287,1.05-1.509,1.272
				c-0.224,0.223-0.406,0.448-0.552,0.673L490.261,104.834L490.261,104.834z"/>
			<path fill="#F26522" d="M495.846,106.028v-2.422h-4.613v-1.14l4.854-6.556h1.065v6.556h1.437v1.14h-1.437v2.422H495.846z
				 M495.846,102.469v-4.562l-3.329,4.562H495.846z"/>
		</g>
	</g>
	<g>
		<rect x="82.127" y="351.446" fill="#E6E7E8" width="127.715" height="94.051"/>
		<rect x="82.127" y="452.997" fill="#E6E7E8" width="40.751" height="11"/>
		<rect x="82.127" y="471.497" fill="#E6E7E8" width="118.528" height="6.5"/>
		<rect x="82.303" y="483.997" fill="#E6E7E8" width="106.354" height="3"/>
		<rect x="174.372" y="452.997" fill="#E6E7E8" width="12.24" height="11"/>
		<rect x="188.627" y="452.997" fill="#E6E7E8" width="18.251" height="11"/>
	</g>
	<g>
		<rect x="231.086" y="349.673" fill="#E6E7E8" width="127.715" height="94.051"/>
		<rect x="231.086" y="451.222" fill="#E6E7E8" width="40.751" height="11"/>
		<rect x="231.086" y="469.722" fill="#E6E7E8" width="118.528" height="6.5"/>
		<rect x="231.262" y="482.222" fill="#E6E7E8" width="106.354" height="3"/>
		<rect x="323.331" y="451.222" fill="#E6E7E8" width="12.24" height="11"/>
		<rect x="337.586" y="451.222" fill="#E6E7E8" width="18.251" height="11"/>
	</g>
	<g>
		<rect x="380.045" y="349.673" fill="#E6E7E8" width="127.716" height="94.051"/>
		<rect x="380.045" y="451.222" fill="#E6E7E8" width="40.752" height="11"/>
		<rect x="380.045" y="469.722" fill="#E6E7E8" width="118.528" height="6.5"/>
		<rect x="380.221" y="482.222" fill="#E6E7E8" width="106.354" height="3"/>
		<rect x="472.289" y="451.222" fill="#E6E7E8" width="12.241" height="11"/>
		<rect x="486.546" y="451.222" fill="#E6E7E8" width="18.251" height="11"/>
	</g>
	<polygon fill="#EF929A" points="209.916,338.494 210.396,352.323 222.062,359.768 209.058,364.498 205.581,377.893 
		197.063,366.986 183.251,367.82 190.991,356.35 185.931,343.47 199.231,347.287 	"/>
	<polygon fill="#D1D3D4" points="160.383,659.343 123.691,672.945 93.563,647.972 100.127,609.393 136.819,595.788 166.947,620.763 
			"/>
	<g enable-background="new    ">
		<path fill="#BCBEC0" d="M146.092,634.003c2,1.003,5.072,2.006,8.242,2.006c3.414,0,5.218-1.386,5.218-3.485
			c0-2.006-1.561-3.151-5.511-4.536c-5.462-1.862-9.022-4.822-9.022-9.501c0-5.491,4.683-9.691,12.437-9.691
			c3.707,0,6.437,0.764,8.388,1.623l-1.658,5.872c-1.316-0.62-3.658-1.527-6.876-1.527s-4.779,1.433-4.779,3.104
			c0,2.054,1.854,2.96,6.097,4.536c5.803,2.102,8.534,5.062,8.534,9.597c0,5.396-4.243,9.979-13.266,9.979
			c-3.755,0-7.461-0.955-9.313-1.958L146.092,634.003z"/>
		<path fill="#BCBEC0" d="M185.888,641.498l-0.438-2.34h-0.146c-1.561,1.862-3.999,2.865-6.827,2.865
			c-4.828,0-7.706-3.438-7.706-7.162c0-6.063,5.561-8.976,13.996-8.928v-0.335c0-1.241-0.683-3.008-4.34-3.008
			c-2.438,0-5.023,0.812-6.584,1.767l-1.365-4.679c1.658-0.907,4.925-2.054,9.267-2.054c7.948,0,10.484,4.584,10.484,10.074v8.116
			c0,2.244,0.099,4.394,0.341,5.682L185.888,641.498L185.888,641.498z M185.01,630.469c-3.901-0.048-6.925,0.858-6.925,3.677
			c0,1.862,1.268,2.769,2.926,2.769c1.853,0,3.365-1.192,3.853-2.673c0.099-0.382,0.146-0.813,0.146-1.242V630.469L185.01,630.469z"
			/>
		<path fill="#BCBEC0" d="M198.082,607.599h7.413v33.897h-7.413V607.599z"/>
		<path fill="#BCBEC0" d="M217.201,632.139c0.243,3.009,3.267,4.439,6.729,4.439c2.536,0,4.584-0.334,6.584-0.955l0.975,4.919
			c-2.438,0.954-5.412,1.433-8.632,1.433c-8.095,0-12.728-4.584-12.728-11.889c0-5.921,3.755-12.462,12.045-12.462
			c7.705,0,10.631,5.872,10.631,11.649c0,1.241-0.146,2.34-0.244,2.864L217.201,632.139L217.201,632.139z M225.93,627.176
			c0-1.768-0.78-4.728-4.194-4.728c-3.121,0-4.389,2.77-4.584,4.728H225.93z"/>
	</g>
	<rect x="146.67" y="654.929" fill="#BCBEC0" width="159.781" height="5.197"/>
	<g>
		<rect x="92.088" y="693.152" fill="#E6E7E8" width="127.716" height="94.051"/>
		<rect x="92.088" y="794.703" fill="#E6E7E8" width="40.751" height="11"/>
		<rect x="92.088" y="813.203" fill="#E6E7E8" width="118.529" height="6.5"/>
		<rect x="92.264" y="825.703" fill="#E6E7E8" width="106.354" height="3"/>
		<rect x="184.333" y="794.703" fill="#E6E7E8" width="12.241" height="11"/>
		<rect x="198.588" y="794.703" fill="#E6E7E8" width="18.251" height="11"/>
	</g>
	<g>
		<rect x="241.047" y="691.379" fill="#E6E7E8" width="127.716" height="94.051"/>
		<rect x="241.047" y="792.928" fill="#E6E7E8" width="40.751" height="11"/>
		<rect x="241.047" y="811.428" fill="#E6E7E8" width="118.529" height="6.5"/>
		<rect x="241.223" y="823.928" fill="#E6E7E8" width="106.354" height="3"/>
		<rect x="333.292" y="792.928" fill="#E6E7E8" width="12.241" height="11"/>
		<rect x="347.547" y="792.928" fill="#E6E7E8" width="18.251" height="11"/>
	</g>
	<g>
		<rect x="399.545" y="691.379" fill="#E6E7E8" width="119.177" height="94.051"/>
		<rect x="399.545" y="792.928" fill="#E6E7E8" width="38.024" height="11"/>
		<rect x="399.545" y="811.428" fill="#E6E7E8" width="110.604" height="6.5"/>
		<rect x="399.707" y="823.928" fill="#E6E7E8" width="99.243" height="3"/>
		<rect x="485.621" y="792.928" fill="#E6E7E8" width="11.425" height="11"/>
		<rect x="498.925" y="792.928" fill="#E6E7E8" width="17.029" height="11"/>
	</g>
</g>
</svg>
