<?xml version="1.0" encoding="utf-8"?>
<!-- Generator: Adobe Illustrator 16.0.0, SVG Export Plug-In . SVG Version: 6.00 Build 0)  -->
<!DOCTYPE svg PUBLIC "-//W3C//DTD SVG 1.1//EN" "http://www.w3.org/Graphics/SVG/1.1/DTD/svg11.dtd">
<svg version="1.1" id="Layer_1" xmlns="http://www.w3.org/2000/svg" xmlns:xlink="http://www.w3.org/1999/xlink" x="0px" y="0px"
	 width="593.971px" height="851.957px" viewBox="0 0 593.971 851.957" enable-background="new 0 0 593.971 851.957"
	 xml:space="preserve">
<g>
	<g>
		<rect x="7.672" y="11.12" fill="#FFFFFF" width="576.001" height="829.329"/>
		<path fill="#F2F2F2" d="M585.173,842.478H6.172V9.09h579.001V842.478z M9.172,838.42h573.001V13.149H9.172V838.42z"/>
		<line fill="none" stroke="#EBEBEB" stroke-width="2" stroke-miterlimit="10" x1="9.172" y1="114.553" x2="582.173" y2="114.553"/>
	</g>
	<g>
		<rect x="7.672" y="8.5" fill="#F2F2F2" width="576.001" height="59.063"/>
		<g>
			<g>
				<rect x="565.739" y="27.364" fill="#9C9C9C" width="5.531" height="5.531"/>
				<rect x="557.84" y="43.166" fill="#9C9C9C" width="5.529" height="5.531"/>
				<rect x="557.84" y="27.364" fill="#9C9C9C" width="5.529" height="5.531"/>
				<rect x="565.739" y="35.265" fill="#9C9C9C" width="5.531" height="5.529"/>
				<rect x="549.938" y="43.166" fill="#9C9C9C" width="5.53" height="5.531"/>
				<rect x="565.739" y="43.166" fill="#9C9C9C" width="5.531" height="5.531"/>
				<rect x="549.938" y="35.265" fill="#9C9C9C" width="5.53" height="5.529"/>
				<rect x="549.938" y="27.364" fill="#9C9C9C" width="5.53" height="5.531"/>
				<rect x="557.84" y="35.265" fill="#9C9C9C" width="5.529" height="5.529"/>
			</g>
		</g>
		<g>
			<g>
				<g>
					<rect x="159.051" y="24.53" fill="#C7C7C7" width="371.001" height="27"/>
					<rect x="159.551" y="25.03" fill="#FFFFFF" width="370.001" height="26"/>
				</g>
				<g>
					<rect x="471.052" y="24.53" fill="#567DBF" width="59" height="27"/>
					<g>
						<path fill="#EBEBEB" d="M504.048,31.917c-2.218-3.2-6.622-4-9.822-1.785c-3.2,2.216-4,6.622-1.785,9.822
							c2.217,3.2,6.622,4.001,9.822,1.785S506.263,35.116,504.048,31.917z M501.393,40.483c-2.508,1.737-5.961,1.108-7.698-1.398
							c-1.735-2.508-1.108-5.961,1.399-7.697c2.508-1.737,5.961-1.109,7.697,1.397C504.528,35.293,503.901,38.747,501.393,40.483z"
							/>
						<polygon fill="#EBEBEB" points="505.427,47.9 506.917,46.869 503.008,41.223 502.262,41.738 501.517,42.254 						"/>
					</g>
				</g>
			</g>
			<g>
				<g>
					<path fill="#ADADAD" d="M169.493,41.583c0.585,0.36,1.438,0.659,2.338,0.659c1.333,0,2.112-0.704,2.112-1.723
						c0-0.943-0.54-1.482-1.902-2.007c-1.647-0.584-2.667-1.438-2.667-2.861c0-1.573,1.303-2.742,3.267-2.742
						c1.032,0,1.782,0.24,2.231,0.494l-0.359,1.063c-0.329-0.18-1.005-0.479-1.917-0.479c-1.38,0-1.903,0.824-1.903,1.513
						c0,0.944,0.615,1.409,2.008,1.948c1.708,0.659,2.578,1.483,2.578,2.966c0,1.56-1.154,2.907-3.537,2.907
						c-0.974,0-2.037-0.285-2.576-0.645L169.493,41.583z"/>
					<path fill="#ADADAD" d="M177.842,39.786c0.031,1.783,1.17,2.518,2.487,2.518c0.944,0,1.513-0.165,2.009-0.375l0.225,0.943
						c-0.465,0.21-1.259,0.45-2.411,0.45c-2.232,0-3.566-1.469-3.566-3.656s1.289-3.91,3.401-3.91c2.366,0,2.996,2.082,2.996,3.416
						c0,0.271-0.03,0.479-0.045,0.614H177.842z M181.708,38.841c0.016-0.839-0.346-2.142-1.827-2.142
						c-1.334,0-1.918,1.229-2.021,2.142H181.708z"/>
					<path fill="#ADADAD" d="M188.633,43.171l-0.104-0.914h-0.045c-0.404,0.569-1.185,1.079-2.218,1.079
						c-1.469,0-2.218-1.033-2.218-2.083c0-1.753,1.559-2.711,4.359-2.695v-0.15c0-0.599-0.164-1.678-1.646-1.678
						c-0.676,0-1.38,0.21-1.89,0.539l-0.299-0.868c0.599-0.39,1.468-0.645,2.382-0.645c2.217,0,2.756,1.513,2.756,2.967v2.712
						c0,0.629,0.031,1.243,0.12,1.737L188.633,43.171L188.633,43.171z M188.438,39.471c-1.438-0.03-3.07,0.225-3.07,1.633
						c0,0.854,0.568,1.259,1.243,1.259c0.944,0,1.543-0.6,1.753-1.214c0.045-0.135,0.074-0.285,0.074-0.419V39.471z"/>
					<path fill="#ADADAD" d="M191.844,38.183c0-0.854-0.017-1.588-0.062-2.263h1.153l0.045,1.424h0.061
						c0.329-0.975,1.123-1.588,2.008-1.588c0.149,0,0.254,0.016,0.374,0.045v1.243c-0.135-0.029-0.27-0.045-0.449-0.045
						c-0.929,0-1.588,0.705-1.769,1.693c-0.029,0.18-0.06,0.389-0.06,0.614v3.864h-1.304v-4.988H191.844z"/>
					<path fill="#ADADAD" d="M201.764,42.901c-0.347,0.18-1.109,0.42-2.084,0.42c-2.188,0-3.609-1.483-3.609-3.701
						c0-2.231,1.527-3.85,3.896-3.85c0.778,0,1.469,0.193,1.827,0.375l-0.3,1.019c-0.313-0.18-0.81-0.344-1.527-0.344
						c-1.662,0-2.562,1.229-2.562,2.741c0,1.678,1.078,2.711,2.516,2.711c0.75,0,1.243-0.194,1.618-0.359L201.764,42.901z"/>
					<path fill="#ADADAD" d="M203.311,32.535h1.316v4.524h0.03c0.21-0.375,0.539-0.704,0.944-0.929
						c0.39-0.225,0.854-0.375,1.348-0.375c0.974,0,2.531,0.6,2.531,3.102v4.314h-1.317v-4.165c0-1.168-0.436-2.156-1.679-2.156
						c-0.854,0-1.528,0.599-1.769,1.317c-0.073,0.181-0.09,0.375-0.09,0.629v4.375h-1.316L203.311,32.535L203.311,32.535z"/>
					<path fill="#ADADAD" d="M211.315,42.392c0-0.555,0.374-0.944,0.896-0.944c0.524,0,0.886,0.39,0.886,0.944
						c0,0.54-0.346,0.943-0.899,0.943C211.674,43.336,211.315,42.932,211.315,42.392z"/>
					<path fill="#ADADAD" d="M214.417,42.392c0-0.555,0.375-0.944,0.899-0.944c0.522,0,0.883,0.39,0.883,0.944
						c0,0.54-0.344,0.943-0.898,0.943C214.775,43.336,214.417,42.932,214.417,42.392z"/>
					<path fill="#ADADAD" d="M217.521,42.392c0-0.555,0.374-0.944,0.898-0.944c0.523,0,0.884,0.39,0.884,0.944
						c0,0.54-0.345,0.943-0.899,0.943C217.879,43.336,217.521,42.932,217.521,42.392z"/>
				</g>
			</g>
		</g>
		<g>
			<path fill="#557DBF" d="M45.944,34.21c1.468,0,2.937,0.002,4.405-0.003c0.168-0.001,0.242,0.033,0.269,0.217
				c0.359,2.624-0.058,5.076-1.652,7.247c-1.044,1.421-2.438,2.39-4.099,2.962c-1.728,0.598-3.5,0.733-5.297,0.412
				c-3.324-0.595-5.767-2.422-7.354-5.382c-0.843-1.568-1.223-3.264-1.127-5.046c0.11-2.052,0.826-3.891,2.067-5.521
				c1.181-1.552,2.665-2.731,4.503-3.39c3.573-1.28,6.899-0.771,9.939,1.518c0.179,0.135,0.336,0.299,0.506,0.445
				c0.076,0.067,0.102,0.12,0.016,0.208c-0.587,0.602-1.171,1.206-1.751,1.813c-0.072,0.075-0.113,0.049-0.176-0.008
				c-1.074-0.995-2.341-1.61-3.785-1.812c-2.185-0.305-4.15,0.233-5.825,1.688c-1.48,1.286-2.291,2.935-2.456,4.885
				c-0.202,2.415,0.543,4.49,2.336,6.141c1.108,1.021,2.434,1.626,3.936,1.806c1.843,0.22,3.571-0.111,5.118-1.17
				c1.328-0.91,2.063-2.201,2.31-3.779c0.073-0.47,0.065-0.471-0.404-0.471c-1.95,0-3.902-0.004-5.854,0.004
				c-0.198,0.001-0.257-0.045-0.253-0.25c0.013-0.762,0.013-1.521,0-2.282c-0.004-0.201,0.06-0.235,0.243-0.234
				C43.021,34.214,44.482,34.21,45.944,34.21z"/>
			<path fill="#36A852" d="M94.349,35.251c0-3.107,0.002-6.216-0.005-9.323c0-0.18,0.043-0.229,0.225-0.227
				c0.813,0.011,1.626,0.008,2.439,0.002c0.146-0.001,0.201,0.022,0.201,0.188c-0.006,6.242-0.006,12.484-0.002,18.728
				c0.001,0.154-0.036,0.199-0.193,0.197c-0.826-0.008-1.653-0.009-2.479,0.001c-0.168,0.002-0.188-0.06-0.188-0.203
				C94.35,41.494,94.349,38.372,94.349,35.251z"/>
			<path fill="#557DBF" d="M92.448,42.23c0.001-3.135-0.001-6.271,0.004-9.405c0-0.163-0.04-0.212-0.207-0.21
				c-0.772,0.009-1.548,0.008-2.321,0c-0.148-0.001-0.193,0.04-0.188,0.189c0.012,0.286,0.004,0.574,0.004,0.857
				c-0.073,0.012-0.092-0.03-0.117-0.056c-0.998-1.004-2.217-1.417-3.613-1.362c-1.59,0.063-2.951,0.672-4.044,1.805
				c-1.81,1.876-2.373,4.11-1.657,6.62c0.766,2.688,3.405,4.678,6.205,4.526c0.791-0.042,1.537-0.23,2.213-0.666
				c0.368-0.239,0.681-0.54,1.018-0.904c-0.015,0.675,0.033,1.29-0.045,1.9c-0.1,0.787-0.383,1.49-0.955,2.063
				c-1.152,1.156-3.644,1.328-5.006-0.263c-0.269-0.313-0.503-0.646-0.671-1.023c-0.035-0.08-0.063-0.132-0.173-0.083
				c-0.747,0.318-1.496,0.633-2.247,0.94c-0.112,0.046-0.122,0.093-0.067,0.189c0.093,0.16,0.173,0.328,0.267,0.486
				c0.658,1.129,1.54,2.031,2.729,2.599c1.356,0.646,2.782,0.743,4.24,0.454c1.538-0.306,2.764-1.094,3.601-2.438
				c0.724-1.161,0.99-2.453,1.025-3.799C92.462,43.844,92.448,43.037,92.448,42.23z M89.95,38.733
				c-0.007,1.037-0.271,1.983-0.973,2.778c-1.164,1.315-3.144,1.524-4.561,0.479c-0.956-0.705-1.438-1.676-1.533-2.838
				c-0.087-1.052,0.108-2.051,0.76-2.908c0.816-1.076,1.915-1.613,3.266-1.429c1.366,0.186,2.253,1.028,2.757,2.287
				C89.875,37.624,89.959,38.171,89.95,38.733z"/>
			<path fill="#EA4535" d="M64.031,35.825c-1.208-2.513-3.376-3.529-5.722-3.608c-1.398,0.053-2.367,0.295-3.207,0.73
				c-2.984,1.547-4.282,5.128-2.964,8.266c0.907,2.161,2.542,3.457,4.854,3.874c1.513,0.272,2.965,0.065,4.323-0.663
				C64.671,42.624,65.394,38.661,64.031,35.825z M60.809,41.467c-1.87,2.083-5.249,1.306-6.112-1.392
				c-0.144-0.45-0.218-0.912-0.213-1.388c0.041-1.472,0.587-2.683,1.897-3.438c2.083-1.199,4.689-0.071,5.291,2.285
				C62.041,38.979,61.828,40.331,60.809,41.467z"/>
			<path fill="#F9BC17" d="M72.335,32.229c-3.653-0.02-6.528,2.836-6.521,6.439c0.007,3.703,2.853,6.531,6.568,6.527
				c3.65-0.004,6.457-2.818,6.453-6.47C78.854,34.7,75.767,32.246,72.335,32.229z M75.209,41.199
				c-0.867,1.122-2.027,1.625-3.433,1.398c-1.471-0.237-2.457-1.125-2.896-2.533c-0.479-1.543-0.246-2.985,0.887-4.205
				c0.65-0.701,1.552-1.063,2.611-1.087c1.135,0.024,2.092,0.482,2.81,1.409C76.278,37.587,76.295,39.797,75.209,41.199z"/>
			<path fill="#EA4535" d="M110.322,36.927c-0.155-0.351-0.291-0.708-0.453-1.056c-0.978-2.084-2.536-3.415-4.886-3.625
				c-1.751-0.156-3.29,0.405-4.559,1.628c-1.354,1.31-1.908,2.958-1.935,4.827c0.017,0.394,0.034,0.801,0.1,1.208
				c0.59,3.691,3.993,5.799,7.479,5.186c1.72-0.304,3.044-1.241,4.108-2.593c0.093-0.118,0.093-0.166-0.036-0.25
				c-0.644-0.418-1.279-0.844-1.913-1.273c-0.13-0.088-0.191-0.11-0.299,0.047c-1.029,1.506-2.688,1.905-4.243,1.451
				c-0.857-0.251-1.443-0.845-1.892-1.599c-0.094-0.157-0.083-0.212,0.09-0.283c2.787-1.148,5.571-2.306,8.357-3.455
				C110.373,37.086,110.37,37.033,110.322,36.927z M106.892,36.167c-1.856,0.771-3.71,1.548-5.565,2.323
				c-0.018,0.008-0.038,0.011-0.069,0.019c-0.081-0.407-0.034-0.81,0.099-1.189c0.49-1.408,1.442-2.312,2.934-2.576
				c1.047-0.186,2.187,0.341,2.685,1.196C107.046,36.066,107.029,36.109,106.892,36.167z"/>
		</g>
	</g>
	<g>
		<rect x="165.51" y="91.652" fill="#E15946" width="28" height="6"/>
		<rect x="214.867" y="91.652" fill="#AAABAB" width="41.738" height="6"/>
		<rect x="280.224" y="91.652" fill="#AAABAB" width="32.737" height="6"/>
		<rect x="337.58" y="91.652" fill="#AAABAB" width="41.738" height="6"/>
		<rect x="155.438" y="112.569" fill="#E15946" width="48.146" height="2.333"/>
		<rect x="394.938" y="91.652" fill="#AAABAB" width="41.738" height="6"/>
	</g>
	<g enable-background="new    ">
		<path fill="#AAABAB" d="M87.547,145.696h-0.028l-1.583,0.854l-0.238-0.938l1.989-1.064h1.051v9.104h-1.191V145.696z"/>
		<path fill="#AAABAB" d="M92.053,153.652v-0.757l0.966-0.938c2.325-2.213,3.376-3.39,3.39-4.762c0-0.925-0.448-1.779-1.807-1.779
			c-0.826,0-1.513,0.42-1.933,0.771l-0.392-0.869c0.63-0.532,1.527-0.924,2.577-0.924c1.961,0,2.788,1.345,2.788,2.647
			c0,1.681-1.219,3.039-3.138,4.889l-0.728,0.672v0.028h4.09v1.022H92.053z"/>
		<path fill="#AAABAB" d="M99.53,152.237c0.351,0.225,1.163,0.574,2.017,0.574c1.583,0,2.073-1.008,2.059-1.765
			c-0.014-1.274-1.163-1.821-2.353-1.821h-0.687v-0.924h0.687c0.896,0,2.031-0.463,2.031-1.541c0-0.729-0.462-1.373-1.597-1.373
			c-0.729,0-1.429,0.322-1.821,0.603l-0.322-0.896c0.476-0.351,1.401-0.7,2.381-0.7c1.793,0,2.605,1.064,2.605,2.171
			c0,0.938-0.561,1.737-1.681,2.144v0.027c1.121,0.225,2.031,1.064,2.031,2.34c0,1.456-1.135,2.731-3.32,2.731
			c-1.022,0-1.919-0.322-2.367-0.616L99.53,152.237z"/>
		<path fill="#AAABAB" d="M110.227,153.652v-2.479h-4.23v-0.813l4.063-5.813h1.331v5.658h1.275v0.967h-1.275v2.479H110.227z
			 M110.227,150.206v-3.039c0-0.477,0.014-0.953,0.042-1.429h-0.042c-0.28,0.532-0.504,0.924-0.756,1.345l-2.228,3.096v0.027
			H110.227z"/>
		<path fill="#AAABAB" d="M119.034,145.584h-3.474l-0.35,2.339c0.21-0.027,0.406-0.056,0.742-0.056c0.701,0,1.401,0.154,1.961,0.49
			c0.714,0.406,1.303,1.19,1.303,2.339c0,1.779-1.415,3.11-3.39,3.11c-0.995,0-1.835-0.28-2.269-0.561l0.308-0.938
			c0.378,0.224,1.121,0.504,1.947,0.504c1.163,0,2.157-0.756,2.157-1.975c-0.014-1.177-0.798-2.018-2.619-2.018
			c-0.519,0-0.925,0.057-1.261,0.099l0.588-4.37h4.356V145.584z"/>
		<path fill="#AAABAB" d="M124.591,153.652v-2.479h-4.23v-0.813l4.063-5.813h1.331v5.658h1.275v0.967h-1.275v2.479H124.591z
			 M124.591,150.206v-3.039c0-0.477,0.014-0.953,0.042-1.429h-0.042c-0.28,0.532-0.504,0.924-0.756,1.345l-2.227,3.096v0.027
			H124.591z"/>
		<path fill="#AAABAB" d="M127.963,153.652v-0.757l0.966-0.938c2.325-2.213,3.376-3.39,3.39-4.762c0-0.925-0.448-1.779-1.807-1.779
			c-0.826,0-1.513,0.42-1.933,0.771l-0.392-0.869c0.63-0.532,1.527-0.924,2.577-0.924c1.961,0,2.788,1.345,2.788,2.647
			c0,1.681-1.219,3.039-3.138,4.889l-0.728,0.672v0.028h4.09v1.022H127.963z"/>
		<path fill="#AAABAB" d="M143.547,145.584h-3.474l-0.35,2.339c0.21-0.027,0.406-0.056,0.742-0.056c0.701,0,1.401,0.154,1.961,0.49
			c0.714,0.406,1.303,1.19,1.303,2.339c0,1.779-1.415,3.11-3.39,3.11c-0.995,0-1.835-0.28-2.269-0.561l0.308-0.938
			c0.378,0.224,1.121,0.504,1.947,0.504c1.163,0,2.157-0.756,2.157-1.975c-0.014-1.177-0.798-2.018-2.619-2.018
			c-0.519,0-0.924,0.057-1.261,0.099l0.588-4.37h4.356V145.584z"/>
		<path fill="#AAABAB" d="M151.205,144.548v0.812l-3.964,8.293h-1.275l3.95-8.055v-0.027h-4.455v-1.022H151.205z"/>
		<path fill="#AAABAB" d="M157.673,145.416c-0.252-0.014-0.574,0-0.924,0.056c-1.933,0.322-2.956,1.737-3.166,3.236h0.042
			c0.435-0.574,1.191-1.051,2.199-1.051c1.611,0,2.746,1.162,2.746,2.941c0,1.667-1.135,3.208-3.026,3.208
			c-1.947,0-3.222-1.513-3.222-3.88c0-1.793,0.645-3.208,1.541-4.104c0.756-0.742,1.765-1.205,2.914-1.345
			c0.364-0.057,0.672-0.07,0.896-0.07V145.416z M157.323,150.669c0-1.303-0.743-2.087-1.877-2.087c-0.743,0-1.429,0.462-1.765,1.12
			c-0.084,0.14-0.14,0.322-0.14,0.546c0.028,1.499,0.714,2.605,2.003,2.605C156.608,152.853,157.323,151.971,157.323,150.669z"/>
		<path fill="#AAABAB" d="M163.018,148.988c0-0.799-0.014-1.485-0.056-2.115h1.079l0.042,1.33h0.056
			c0.308-0.91,1.051-1.484,1.877-1.484c0.14,0,0.238,0.014,0.35,0.042v1.162c-0.126-0.027-0.252-0.042-0.42-0.042
			c-0.869,0-1.485,0.659-1.653,1.583c-0.028,0.168-0.056,0.364-0.056,0.574v3.614h-1.219V148.988z"/>
		<path fill="#AAABAB" d="M168.142,150.486c0.028,1.667,1.092,2.354,2.325,2.354c0.882,0,1.415-0.154,1.877-0.351l0.21,0.883
			c-0.434,0.196-1.176,0.42-2.255,0.42c-2.087,0-3.334-1.372-3.334-3.417c0-2.046,1.205-3.656,3.18-3.656
			c2.213,0,2.802,1.947,2.802,3.193c0,0.252-0.028,0.448-0.042,0.574H168.142z M171.756,149.604
			c0.014-0.785-0.322-2.003-1.709-2.003c-1.247,0-1.793,1.148-1.891,2.003H171.756z"/>
		<path fill="#AAABAB" d="M174.302,152.391c0.364,0.238,1.008,0.49,1.625,0.49c0.896,0,1.316-0.448,1.316-1.009
			c0-0.588-0.35-0.91-1.261-1.246c-1.218-0.435-1.793-1.106-1.793-1.919c0-1.093,0.883-1.989,2.339-1.989
			c0.687,0,1.289,0.196,1.667,0.42l-0.308,0.896c-0.266-0.168-0.756-0.392-1.387-0.392c-0.729,0-1.135,0.42-1.135,0.924
			c0,0.561,0.406,0.813,1.289,1.148c1.177,0.448,1.779,1.037,1.779,2.046c0,1.19-0.925,2.03-2.536,2.03
			c-0.742,0-1.429-0.182-1.905-0.462L174.302,152.391z"/>
		<path fill="#AAABAB" d="M185.687,151.803c0,0.7,0.014,1.316,0.056,1.849h-1.092l-0.07-1.106h-0.028
			c-0.322,0.546-1.037,1.261-2.241,1.261c-1.064,0-2.339-0.589-2.339-2.97v-3.964h1.233v3.754c0,1.288,0.392,2.157,1.513,2.157
			c0.826,0,1.401-0.574,1.625-1.121c0.07-0.182,0.112-0.406,0.112-0.63v-4.16h1.233V151.803z"/>
		<path fill="#AAABAB" d="M187.727,143.707h1.233v9.945h-1.233V143.707z"/>
		<path fill="#AAABAB" d="M192.516,144.926v1.947h1.765v0.938h-1.765v3.655c0,0.841,0.238,1.317,0.924,1.317
			c0.322,0,0.561-0.042,0.715-0.084l0.056,0.924c-0.238,0.099-0.616,0.168-1.092,0.168c-0.575,0-1.037-0.182-1.331-0.518
			c-0.35-0.364-0.476-0.967-0.476-1.766v-3.697h-1.051v-0.938h1.051v-1.625L192.516,144.926z"/>
		<path fill="#AAABAB" d="M195.497,152.391c0.364,0.238,1.008,0.49,1.625,0.49c0.896,0,1.316-0.448,1.316-1.009
			c0-0.588-0.35-0.91-1.261-1.246c-1.218-0.435-1.793-1.106-1.793-1.919c0-1.093,0.883-1.989,2.339-1.989
			c0.687,0,1.289,0.196,1.667,0.42l-0.308,0.896c-0.266-0.168-0.756-0.392-1.387-0.392c-0.729,0-1.135,0.42-1.135,0.924
			c0,0.561,0.406,0.813,1.289,1.148c1.177,0.448,1.779,1.037,1.779,2.046c0,1.19-0.925,2.03-2.536,2.03
			c-0.742,0-1.429-0.182-1.905-0.462L195.497,152.391z"/>
	</g>
	<g enable-background="new    ">
		<path fill="#31409A" d="M87.829,184.586v-4.46l-3.442-6.432h2.812l1.115,2.618c0.339,0.792,0.565,1.373,0.84,2.085h0.033
			c0.242-0.679,0.501-1.31,0.824-2.085l1.099-2.618h2.763l-3.587,6.351v4.541H87.829z"/>
		<path fill="#31409A" d="M101.011,180.546c0,2.893-2.052,4.218-4.169,4.218c-2.311,0-4.088-1.519-4.088-4.072
			c0-2.553,1.681-4.185,4.218-4.185C99.396,176.507,101.011,178.171,101.011,180.546z M95.291,180.627
			c0,1.357,0.565,2.375,1.616,2.375c0.954,0,1.567-0.953,1.567-2.375c0-1.18-0.452-2.375-1.567-2.375
			C95.727,178.252,95.291,179.464,95.291,180.627z"/>
		<path fill="#31409A" d="M109.976,182.049c0,1.034,0.032,1.875,0.064,2.537h-2.133l-0.113-1.115h-0.048
			c-0.307,0.485-1.05,1.293-2.472,1.293c-1.6,0-2.779-1.002-2.779-3.441v-4.638h2.472v4.249c0,1.147,0.372,1.843,1.228,1.843
			c0.679,0,1.066-0.469,1.228-0.856c0.065-0.146,0.081-0.34,0.081-0.533v-4.702h2.472V182.049z"/>
		<path fill="#31409A" d="M111.944,179.286c0-1.164-0.032-1.923-0.065-2.602h2.117l0.081,1.454h0.064
			c0.404-1.147,1.374-1.632,2.133-1.632c0.226,0,0.339,0,0.517,0.032v2.311c-0.178-0.032-0.388-0.064-0.663-0.064
			c-0.905,0-1.519,0.484-1.681,1.244c-0.032,0.161-0.048,0.355-0.048,0.549v4.008h-2.456V179.286z"/>
		<path fill="#31409A" d="M121.279,184.586c0.033-0.518,0.065-1.471,0.065-2.359v-9.113h2.456v4.508h0.032
			c0.469-0.679,1.293-1.114,2.392-1.114c1.891,0,3.28,1.567,3.264,3.991c0,2.844-1.81,4.266-3.62,4.266
			c-0.921,0-1.81-0.339-2.375-1.276h-0.032l-0.097,1.099H121.279z M123.8,181.224c0,0.162,0.016,0.308,0.048,0.437
			c0.162,0.662,0.727,1.163,1.438,1.163c1.05,0,1.696-0.808,1.696-2.229c0-1.229-0.549-2.197-1.696-2.197
			c-0.663,0-1.277,0.501-1.438,1.212c-0.032,0.145-0.048,0.29-0.048,0.452V181.224z"/>
		<path fill="#31409A" d="M138.452,182.049c0,1.034,0.032,1.875,0.064,2.537h-2.133l-0.113-1.115h-0.048
			c-0.307,0.485-1.05,1.293-2.472,1.293c-1.6,0-2.779-1.002-2.779-3.441v-4.638h2.472v4.249c0,1.147,0.372,1.843,1.228,1.843
			c0.679,0,1.066-0.469,1.228-0.856c0.065-0.146,0.081-0.34,0.081-0.533v-4.702h2.472V182.049z"/>
		<path fill="#31409A" d="M140.404,182.436c0.452,0.275,1.39,0.599,2.117,0.599c0.743,0,1.05-0.259,1.05-0.663
			s-0.242-0.598-1.164-0.905c-1.632-0.549-2.262-1.438-2.246-2.375c0-1.471,1.261-2.585,3.216-2.585c0.921,0,1.745,0.21,2.23,0.452
			l-0.437,1.696c-0.355-0.193-1.034-0.452-1.713-0.452c-0.598,0-0.937,0.242-0.937,0.646c0,0.371,0.307,0.565,1.276,0.904
			c1.503,0.518,2.133,1.277,2.149,2.44c0,1.471-1.164,2.553-3.426,2.553c-1.034,0-1.955-0.226-2.553-0.549L140.404,182.436z"/>
		<path fill="#31409A" d="M149.967,174.486c0,0.679-0.517,1.229-1.325,1.229c-0.776,0-1.293-0.55-1.277-1.229
			c-0.016-0.711,0.501-1.244,1.293-1.244C149.449,173.242,149.95,173.775,149.967,174.486z M147.43,184.586v-7.901h2.456v7.901
			H147.43z"/>
		<path fill="#31409A" d="M151.856,179.205c0-0.985-0.032-1.826-0.065-2.521h2.133l0.113,1.082h0.049
			c0.323-0.501,1.131-1.26,2.44-1.26c1.616,0,2.828,1.066,2.828,3.393v4.687h-2.456v-4.379c0-1.019-0.355-1.713-1.244-1.713
			c-0.679,0-1.083,0.469-1.244,0.921c-0.065,0.146-0.097,0.388-0.097,0.614v4.557h-2.456V179.205z"/>
		<path fill="#31409A" d="M163.212,181.419c0.081,1.018,1.083,1.503,2.23,1.503c0.84,0,1.519-0.113,2.181-0.323l0.323,1.664
			c-0.808,0.323-1.793,0.484-2.86,0.484c-2.683,0-4.218-1.551-4.218-4.023c0-2.004,1.244-4.217,3.991-4.217
			c2.553,0,3.523,1.987,3.523,3.942c0,0.42-0.049,0.792-0.081,0.97H163.212z M166.104,179.738c0-0.598-0.258-1.6-1.39-1.6
			c-1.034,0-1.454,0.938-1.519,1.6H166.104z"/>
		<path fill="#31409A" d="M169.834,182.436c0.452,0.275,1.39,0.599,2.117,0.599c0.743,0,1.05-0.259,1.05-0.663
			s-0.242-0.598-1.164-0.905c-1.632-0.549-2.262-1.438-2.246-2.375c0-1.471,1.261-2.585,3.216-2.585c0.921,0,1.745,0.21,2.23,0.452
			l-0.437,1.696c-0.355-0.193-1.034-0.452-1.713-0.452c-0.598,0-0.937,0.242-0.937,0.646c0,0.371,0.307,0.565,1.276,0.904
			c1.503,0.518,2.133,1.277,2.149,2.44c0,1.471-1.164,2.553-3.426,2.553c-1.034,0-1.955-0.226-2.553-0.549L169.834,182.436z"/>
		<path fill="#31409A" d="M176.844,182.436c0.452,0.275,1.39,0.599,2.117,0.599c0.743,0,1.05-0.259,1.05-0.663
			s-0.242-0.598-1.164-0.905c-1.632-0.549-2.262-1.438-2.246-2.375c0-1.471,1.261-2.585,3.216-2.585c0.921,0,1.745,0.21,2.23,0.452
			l-0.437,1.696c-0.355-0.193-1.034-0.452-1.713-0.452c-0.598,0-0.937,0.242-0.937,0.646c0,0.371,0.307,0.565,1.276,0.904
			c1.503,0.518,2.133,1.277,2.149,2.44c0,1.471-1.164,2.553-3.426,2.553c-1.034,0-1.955-0.226-2.553-0.549L176.844,182.436z"/>
	</g>
	<g enable-background="new    ">
		<path fill="#31409A" d="M194.823,184.295c-0.372,0.194-1.196,0.452-2.246,0.452c-2.359,0-3.894-1.6-3.894-3.991
			c0-2.407,1.648-4.152,4.201-4.152c0.84,0,1.583,0.21,1.971,0.404l-0.323,1.099c-0.339-0.194-0.873-0.372-1.648-0.372
			c-1.793,0-2.763,1.325-2.763,2.957c0,1.81,1.164,2.925,2.715,2.925c0.808,0,1.341-0.21,1.745-0.388L194.823,184.295z"/>
		<path fill="#31409A" d="M200.815,184.586l-0.113-0.985h-0.048c-0.436,0.613-1.276,1.163-2.392,1.163
			c-1.583,0-2.392-1.115-2.392-2.246c0-1.891,1.681-2.925,4.703-2.908v-0.162c0-0.646-0.178-1.81-1.778-1.81
			c-0.727,0-1.486,0.226-2.036,0.582l-0.323-0.938c0.646-0.42,1.583-0.695,2.569-0.695c2.392,0,2.974,1.633,2.974,3.2v2.925
			c0,0.679,0.032,1.341,0.129,1.874H200.815z M200.605,180.594c-1.551-0.032-3.313,0.242-3.313,1.762
			c0,0.921,0.614,1.356,1.341,1.356c1.018,0,1.665-0.646,1.891-1.309c0.049-0.146,0.081-0.307,0.081-0.452V180.594z"/>
		<path fill="#31409A" d="M204.27,178.882c0-0.808-0.016-1.471-0.065-2.117h1.261l0.081,1.293h0.032
			c0.388-0.743,1.293-1.471,2.585-1.471c1.083,0,2.763,0.646,2.763,3.329v4.67h-1.422v-4.509c0-1.26-0.468-2.311-1.81-2.311
			c-0.938,0-1.665,0.663-1.907,1.454c-0.065,0.178-0.097,0.421-0.097,0.663v4.702h-1.422V178.882z"/>
		<path fill="#31409A" d="M216.594,184.586c0.033-0.533,0.065-1.325,0.065-2.02v-9.453h1.406v4.912h0.032
			c0.501-0.873,1.406-1.438,2.667-1.438c1.939,0,3.313,1.616,3.296,3.991c0,2.796-1.761,4.186-3.507,4.186
			c-1.131,0-2.036-0.437-2.618-1.471h-0.048l-0.064,1.293H216.594z M218.065,181.451c0,0.178,0.032,0.355,0.064,0.517
			c0.275,0.986,1.099,1.665,2.133,1.665c1.486,0,2.375-1.212,2.375-3.006c0-1.567-0.808-2.908-2.327-2.908
			c-0.97,0-1.875,0.662-2.166,1.745c-0.032,0.161-0.081,0.355-0.081,0.581V181.451z"/>
		<path fill="#31409A" d="M226.641,180.933c0.033,1.923,1.261,2.715,2.683,2.715c1.018,0,1.632-0.178,2.166-0.403l0.242,1.018
			c-0.501,0.227-1.357,0.484-2.602,0.484c-2.408,0-3.846-1.583-3.846-3.942s1.39-4.218,3.668-4.218c2.553,0,3.232,2.246,3.232,3.685
			c0,0.291-0.033,0.517-0.049,0.662H226.641z M230.81,179.916c0.016-0.905-0.372-2.311-1.972-2.311
			c-1.438,0-2.068,1.325-2.181,2.311H230.81z"/>
		<path fill="#31409A" d="M237.366,173.113h1.422v4.88h0.032c0.227-0.404,0.582-0.76,1.018-1.002
			c0.42-0.242,0.921-0.404,1.455-0.404c1.05,0,2.73,0.646,2.73,3.345v4.654h-1.422v-4.492c0-1.261-0.469-2.327-1.81-2.327
			c-0.921,0-1.648,0.646-1.907,1.422c-0.081,0.194-0.097,0.404-0.097,0.679v4.719h-1.422V173.113z"/>
		<path fill="#31409A" d="M247.122,180.933c0.033,1.923,1.261,2.715,2.683,2.715c1.018,0,1.632-0.178,2.166-0.403l0.242,1.018
			c-0.501,0.227-1.357,0.484-2.602,0.484c-2.408,0-3.846-1.583-3.846-3.942s1.39-4.218,3.668-4.218c2.553,0,3.232,2.246,3.232,3.685
			c0,0.291-0.033,0.517-0.049,0.662H247.122z M251.291,179.916c0.016-0.905-0.372-2.311-1.972-2.311
			c-1.438,0-2.068,1.325-2.181,2.311H251.291z"/>
		<path fill="#31409A" d="M254.423,179.205c0-0.921-0.016-1.713-0.065-2.44h1.245l0.048,1.535h0.064
			c0.355-1.05,1.212-1.713,2.166-1.713c0.162,0,0.274,0.017,0.404,0.049v1.341c-0.146-0.032-0.291-0.048-0.485-0.048
			c-1.001,0-1.713,0.759-1.907,1.825c-0.032,0.194-0.064,0.421-0.064,0.663v4.169h-1.406V179.205z"/>
		<path fill="#31409A" d="M260.335,180.933c0.033,1.923,1.261,2.715,2.683,2.715c1.018,0,1.632-0.178,2.166-0.403l0.242,1.018
			c-0.501,0.227-1.357,0.484-2.602,0.484c-2.408,0-3.846-1.583-3.846-3.942s1.39-4.218,3.668-4.218c2.553,0,3.232,2.246,3.232,3.685
			c0,0.291-0.033,0.517-0.049,0.662H260.335z M264.504,179.916c0.016-0.905-0.372-2.311-1.972-2.311
			c-1.438,0-2.068,1.325-2.181,2.311H264.504z"/>
		<path fill="#31409A" d="M270.785,183.761c0-0.582,0.404-1.002,0.954-1.002c0.582,0,0.953,0.42,0.953,1.002
			c0,0.565-0.372,1.002-0.953,1.002C271.173,184.763,270.785,184.327,270.785,183.761z M271.189,181.451l-0.227-7.757h1.551
			l-0.226,7.757H271.189z"/>
	</g>
	<g enable-background="new    ">
		<path fill="#0C8241" d="M85.423,191.932l0.7,2.691c0.153,0.591,0.295,1.138,0.394,1.685h0.033c0.12-0.536,0.295-1.105,0.47-1.674
			l0.864-2.702h0.81l0.821,2.647c0.197,0.635,0.35,1.192,0.47,1.729h0.033c0.088-0.536,0.23-1.094,0.405-1.718l0.755-2.658h0.952
			l-1.707,5.295h-0.875l-0.81-2.527c-0.186-0.591-0.339-1.116-0.47-1.739h-0.022c-0.131,0.635-0.295,1.182-0.481,1.75l-0.854,2.517
			h-0.875l-1.598-5.295H85.423z"/>
		<path fill="#0C8241" d="M93.604,191.932l0.7,2.691c0.153,0.591,0.295,1.138,0.394,1.685h0.033c0.12-0.536,0.295-1.105,0.47-1.674
			l0.864-2.702h0.81l0.821,2.647c0.197,0.635,0.35,1.192,0.47,1.729h0.033c0.087-0.536,0.229-1.094,0.405-1.718l0.755-2.658h0.952
			l-1.707,5.295h-0.875l-0.81-2.527c-0.186-0.591-0.339-1.116-0.471-1.739h-0.021c-0.131,0.635-0.295,1.182-0.481,1.75l-0.854,2.517
			h-0.875l-1.598-5.295H93.604z"/>
		<path fill="#0C8241" d="M101.785,191.932l0.7,2.691c0.153,0.591,0.295,1.138,0.394,1.685h0.033c0.12-0.536,0.295-1.105,0.47-1.674
			l0.864-2.702h0.81l0.821,2.647c0.197,0.635,0.35,1.192,0.47,1.729h0.033c0.088-0.536,0.23-1.094,0.405-1.718l0.755-2.658h0.952
			l-1.707,5.295h-0.875l-0.81-2.527c-0.186-0.591-0.339-1.116-0.47-1.739h-0.022c-0.131,0.635-0.295,1.182-0.481,1.75l-0.854,2.517
			h-0.875l-1.598-5.295H101.785z"/>
		<path fill="#0C8241" d="M108.796,196.658c0-0.404,0.273-0.688,0.656-0.688c0.383,0,0.646,0.284,0.646,0.688
			c0,0.395-0.251,0.689-0.656,0.689C109.059,197.347,108.796,197.052,108.796,196.658z"/>
		<path fill="#0C8241" d="M111.64,191.932l1.16,3.129c0.12,0.35,0.251,0.766,0.339,1.083h0.022c0.099-0.317,0.208-0.723,0.339-1.105
			l1.05-3.106h1.018l-1.444,3.774c-0.689,1.815-1.16,2.746-1.816,3.314c-0.47,0.416-0.94,0.58-1.181,0.624l-0.241-0.81
			c0.241-0.077,0.558-0.229,0.842-0.471c0.263-0.208,0.591-0.58,0.81-1.072c0.044-0.099,0.077-0.175,0.077-0.229
			s-0.022-0.131-0.066-0.252l-1.958-4.879H111.64z"/>
		<path fill="#0C8241" d="M121.124,194.536c0,1.958-1.357,2.812-2.637,2.812c-1.434,0-2.539-1.05-2.539-2.724
			c0-1.772,1.16-2.813,2.626-2.813C120.095,191.811,121.124,192.917,121.124,194.536z M116.923,194.591
			c0,1.16,0.667,2.035,1.608,2.035c0.919,0,1.608-0.864,1.608-2.057c0-0.897-0.449-2.035-1.586-2.035
			S116.923,193.584,116.923,194.591z"/>
		<path fill="#0C8241" d="M126.767,195.783c0,0.547,0.011,1.028,0.044,1.444h-0.854l-0.055-0.864h-0.022
			c-0.251,0.427-0.81,0.984-1.75,0.984c-0.832,0-1.827-0.459-1.827-2.319v-3.096h0.963v2.932c0,1.007,0.307,1.685,1.182,1.685
			c0.646,0,1.094-0.448,1.269-0.875c0.055-0.142,0.087-0.317,0.087-0.492v-3.249h0.963V195.783z"/>
		<path fill="#0C8241" d="M128.363,193.584c0-0.623-0.011-1.159-0.044-1.651h0.842l0.033,1.039h0.043
			c0.241-0.711,0.821-1.16,1.466-1.16c0.109,0,0.186,0.012,0.273,0.033v0.908c-0.099-0.021-0.197-0.033-0.328-0.033
			c-0.679,0-1.16,0.515-1.291,1.236c-0.022,0.132-0.044,0.285-0.044,0.449v2.822h-0.952V193.584z"/>
		<path fill="#0C8241" d="M131.939,197.227c0.022-0.361,0.044-0.897,0.044-1.367v-6.4h0.952v3.326h0.022
			c0.339-0.591,0.952-0.975,1.805-0.975c1.313,0,2.243,1.095,2.232,2.703c0,1.893-1.193,2.833-2.374,2.833
			c-0.766,0-1.379-0.295-1.772-0.995h-0.033l-0.044,0.875H131.939z M132.935,195.105c0,0.12,0.022,0.24,0.044,0.35
			c0.186,0.667,0.744,1.127,1.444,1.127c1.007,0,1.608-0.82,1.608-2.035c0-1.061-0.547-1.969-1.576-1.969
			c-0.656,0-1.269,0.448-1.466,1.182c-0.022,0.109-0.055,0.24-0.055,0.394V195.105z"/>
		<path fill="#0C8241" d="M142.637,195.783c0,0.547,0.011,1.028,0.044,1.444h-0.854l-0.055-0.864h-0.022
			c-0.251,0.427-0.81,0.984-1.75,0.984c-0.832,0-1.827-0.459-1.827-2.319v-3.096h0.963v2.932c0,1.007,0.307,1.685,1.182,1.685
			c0.646,0,1.094-0.448,1.269-0.875c0.055-0.142,0.087-0.317,0.087-0.492v-3.249h0.963V195.783z"/>
		<path fill="#0C8241" d="M144.102,196.243c0.284,0.186,0.788,0.383,1.269,0.383c0.7,0,1.028-0.351,1.028-0.788
			c0-0.459-0.273-0.711-0.984-0.974c-0.952-0.339-1.4-0.864-1.4-1.499c0-0.854,0.689-1.554,1.827-1.554
			c0.536,0,1.007,0.153,1.302,0.329l-0.241,0.7c-0.208-0.132-0.591-0.307-1.083-0.307c-0.569,0-0.886,0.328-0.886,0.722
			c0,0.438,0.317,0.635,1.006,0.897c0.919,0.35,1.39,0.81,1.39,1.598c0,0.93-0.722,1.586-1.98,1.586
			c-0.58,0-1.116-0.143-1.488-0.361L144.102,196.243z"/>
		<path fill="#0C8241" d="M149.636,190.444c0.011,0.328-0.229,0.591-0.612,0.591c-0.339,0-0.58-0.263-0.58-0.591
			c0-0.339,0.252-0.602,0.602-0.602C149.406,189.843,149.636,190.105,149.636,190.444z M148.564,197.227v-5.295h0.962v5.295H148.564
			z"/>
		<path fill="#0C8241" d="M151.124,193.365c0-0.547-0.011-0.995-0.044-1.433h0.854l0.055,0.875h0.022
			c0.262-0.503,0.875-0.996,1.75-0.996c0.733,0,1.871,0.438,1.871,2.254v3.162h-0.963v-3.053c0-0.854-0.317-1.564-1.225-1.564
			c-0.635,0-1.127,0.449-1.291,0.985c-0.044,0.12-0.066,0.284-0.066,0.448v3.184h-0.962V193.365z"/>
		<path fill="#0C8241" d="M157.73,194.755c0.021,1.302,0.853,1.838,1.816,1.838c0.689,0,1.105-0.12,1.466-0.273l0.165,0.689
			c-0.339,0.153-0.919,0.328-1.762,0.328c-1.63,0-2.604-1.072-2.604-2.67c0-1.597,0.941-2.855,2.484-2.855
			c1.729,0,2.188,1.521,2.188,2.495c0,0.196-0.022,0.35-0.033,0.448H157.73z M160.552,194.065c0.011-0.612-0.251-1.564-1.334-1.564
			c-0.974,0-1.4,0.897-1.477,1.564H160.552z"/>
		<path fill="#0C8241" d="M162.542,196.243c0.284,0.186,0.788,0.383,1.269,0.383c0.7,0,1.028-0.351,1.028-0.788
			c0-0.459-0.273-0.711-0.984-0.974c-0.952-0.339-1.4-0.864-1.4-1.499c0-0.854,0.689-1.554,1.827-1.554
			c0.536,0,1.007,0.153,1.302,0.329l-0.241,0.7c-0.208-0.132-0.591-0.307-1.083-0.307c-0.569,0-0.886,0.328-0.886,0.722
			c0,0.438,0.317,0.635,1.006,0.897c0.919,0.35,1.39,0.81,1.39,1.598c0,0.93-0.722,1.586-1.98,1.586
			c-0.58,0-1.116-0.143-1.488-0.361L162.542,196.243z"/>
		<path fill="#0C8241" d="M166.873,196.243c0.284,0.186,0.788,0.383,1.269,0.383c0.7,0,1.028-0.351,1.028-0.788
			c0-0.459-0.273-0.711-0.984-0.974c-0.952-0.339-1.4-0.864-1.4-1.499c0-0.854,0.689-1.554,1.827-1.554
			c0.536,0,1.007,0.153,1.302,0.329l-0.241,0.7c-0.208-0.132-0.591-0.307-1.083-0.307c-0.569,0-0.886,0.328-0.886,0.722
			c0,0.438,0.317,0.635,1.006,0.897c0.919,0.35,1.39,0.81,1.39,1.598c0,0.93-0.722,1.586-1.98,1.586
			c-0.58,0-1.116-0.143-1.488-0.361L166.873,196.243z"/>
		<path fill="#0C8241" d="M170.986,196.658c0-0.404,0.273-0.688,0.656-0.688c0.383,0,0.646,0.284,0.646,0.688
			c0,0.395-0.251,0.689-0.656,0.689C171.248,197.347,170.986,197.052,170.986,196.658z"/>
		<path fill="#0C8241" d="M177.254,197.03c-0.252,0.132-0.81,0.307-1.521,0.307c-1.597,0-2.637-1.083-2.637-2.702
			c0-1.63,1.116-2.812,2.845-2.812c0.569,0,1.072,0.142,1.335,0.273l-0.219,0.744c-0.229-0.132-0.59-0.252-1.116-0.252
			c-1.214,0-1.871,0.897-1.871,2.002c0,1.226,0.788,1.98,1.838,1.98c0.547,0,0.908-0.143,1.182-0.263L177.254,197.03z"/>
		<path fill="#0C8241" d="M183.106,194.536c0,1.958-1.357,2.812-2.637,2.812c-1.434,0-2.539-1.05-2.539-2.724
			c0-1.772,1.16-2.813,2.626-2.813C182.077,191.811,183.106,192.917,183.106,194.536z M178.905,194.591
			c0,1.16,0.667,2.035,1.608,2.035c0.919,0,1.608-0.864,1.608-2.057c0-0.897-0.449-2.035-1.586-2.035
			S178.905,193.584,178.905,194.591z"/>
		<path fill="#0C8241" d="M184.319,193.365c0-0.547-0.011-0.995-0.044-1.433h0.842l0.044,0.854h0.033
			c0.295-0.504,0.788-0.975,1.663-0.975c0.722,0,1.269,0.438,1.499,1.062h0.021c0.164-0.295,0.372-0.525,0.591-0.689
			c0.317-0.24,0.667-0.372,1.171-0.372c0.7,0,1.739,0.46,1.739,2.298v3.118h-0.941v-2.998c0-1.018-0.372-1.63-1.148-1.63
			c-0.547,0-0.974,0.405-1.138,0.875c-0.044,0.132-0.077,0.307-0.077,0.481v3.271h-0.941v-3.173c0-0.843-0.372-1.455-1.105-1.455
			c-0.602,0-1.04,0.481-1.193,0.963c-0.055,0.143-0.076,0.307-0.076,0.471v3.194h-0.941V193.365z"/>
	</g>
	<g>
		<g enable-background="new    ">
			<path fill="#6D6D6D" d="M86.808,205.64h1.043v5.409c0,2.147-1.055,2.807-2.446,2.807c-0.384,0-0.852-0.084-1.116-0.191
				l0.156-0.852c0.216,0.084,0.527,0.155,0.875,0.155c0.935,0,1.487-0.42,1.487-2.003V205.64z"/>
			<path fill="#6D6D6D" d="M94.414,212.141c0,0.6,0.012,1.127,0.048,1.583h-0.936l-0.06-0.947h-0.024
				c-0.276,0.468-0.887,1.079-1.919,1.079c-0.911,0-2.003-0.504-2.003-2.543v-3.394h1.056v3.214c0,1.104,0.336,1.848,1.295,1.848
				c0.708,0,1.199-0.492,1.391-0.96c0.06-0.156,0.096-0.348,0.096-0.54v-3.562h1.056V212.141z"/>
			<path fill="#6D6D6D" d="M96.025,212.645c0.312,0.203,0.864,0.42,1.392,0.42c0.768,0,1.127-0.384,1.127-0.864
				c0-0.504-0.3-0.779-1.079-1.067c-1.043-0.371-1.535-0.947-1.535-1.643c0-0.936,0.755-1.703,2.003-1.703
				c0.587,0,1.104,0.168,1.427,0.359l-0.264,0.768c-0.228-0.144-0.647-0.336-1.187-0.336c-0.624,0-0.972,0.36-0.972,0.792
				c0,0.479,0.348,0.695,1.104,0.983c1.007,0.384,1.523,0.888,1.523,1.751c0,1.02-0.792,1.739-2.171,1.739
				c-0.635,0-1.223-0.156-1.631-0.396L96.025,212.645z"/>
			<path fill="#6D6D6D" d="M102.192,206.253v1.667h1.511v0.804h-1.511v3.13c0,0.72,0.204,1.128,0.792,1.128
				c0.276,0,0.479-0.036,0.611-0.072l0.048,0.791c-0.204,0.084-0.528,0.145-0.936,0.145c-0.492,0-0.888-0.156-1.14-0.444
				c-0.3-0.312-0.408-0.827-0.408-1.511v-3.166h-0.899v-0.804h0.899v-1.392L102.192,206.253z"/>
			<path fill="#6D6D6D" d="M113.122,213.461c-0.384,0.191-1.151,0.384-2.135,0.384c-2.279,0-3.994-1.439-3.994-4.09
				c0-2.53,1.715-4.246,4.222-4.246c1.007,0,1.643,0.216,1.919,0.36l-0.252,0.852c-0.396-0.192-0.959-0.336-1.631-0.336
				c-1.895,0-3.154,1.211-3.154,3.334c0,1.979,1.139,3.25,3.106,3.25c0.635,0,1.283-0.132,1.703-0.336L113.122,213.461z"/>
			<path fill="#6D6D6D" d="M114.361,209.73c0-0.684-0.012-1.271-0.048-1.811h0.923l0.036,1.14h0.048
				c0.264-0.78,0.899-1.271,1.607-1.271c0.12,0,0.204,0.012,0.3,0.036v0.995c-0.108-0.024-0.216-0.036-0.359-0.036
				c-0.744,0-1.271,0.563-1.416,1.355c-0.024,0.144-0.048,0.312-0.048,0.491v3.095h-1.043V209.73z"/>
			<path fill="#6D6D6D" d="M118.753,211.013c0.024,1.428,0.935,2.016,1.991,2.016c0.755,0,1.211-0.132,1.607-0.3l0.18,0.755
				c-0.372,0.168-1.007,0.36-1.931,0.36c-1.787,0-2.854-1.176-2.854-2.927s1.032-3.13,2.723-3.13c1.895,0,2.399,1.667,2.399,2.734
				c0,0.216-0.024,0.384-0.036,0.491H118.753z M121.847,210.259c0.012-0.672-0.276-1.716-1.463-1.716
				c-1.067,0-1.535,0.984-1.619,1.716H121.847z"/>
			<path fill="#6D6D6D" d="M127.391,213.724l-0.084-0.731h-0.036c-0.324,0.456-0.947,0.863-1.775,0.863
				c-1.175,0-1.775-0.827-1.775-1.667c0-1.403,1.247-2.171,3.49-2.159v-0.119c0-0.48-0.132-1.344-1.319-1.344
				c-0.54,0-1.104,0.168-1.511,0.432l-0.24-0.695c0.48-0.312,1.175-0.516,1.907-0.516c1.775,0,2.207,1.211,2.207,2.374v2.171
				c0,0.504,0.024,0.996,0.096,1.392H127.391z M127.235,210.762c-1.151-0.024-2.458,0.18-2.458,1.307
				c0,0.684,0.456,1.008,0.996,1.008c0.755,0,1.235-0.479,1.403-0.972c0.036-0.107,0.06-0.228,0.06-0.336V210.762z"/>
			<path fill="#6D6D6D" d="M131.184,206.253v1.667h1.511v0.804h-1.511v3.13c0,0.72,0.204,1.128,0.792,1.128
				c0.276,0,0.479-0.036,0.612-0.072l0.048,0.791c-0.204,0.084-0.528,0.145-0.936,0.145c-0.492,0-0.888-0.156-1.14-0.444
				c-0.3-0.312-0.408-0.827-0.408-1.511v-3.166h-0.899v-0.804h0.899v-1.392L131.184,206.253z"/>
			<path fill="#6D6D6D" d="M134.4,211.013c0.024,1.428,0.935,2.016,1.991,2.016c0.755,0,1.211-0.132,1.607-0.3l0.18,0.755
				c-0.372,0.168-1.007,0.36-1.931,0.36c-1.787,0-2.854-1.176-2.854-2.927s1.032-3.13,2.723-3.13c1.895,0,2.399,1.667,2.399,2.734
				c0,0.216-0.024,0.384-0.036,0.491H134.4z M137.494,210.259c0.012-0.672-0.276-1.716-1.463-1.716
				c-1.067,0-1.535,0.984-1.619,1.716H137.494z"/>
			<path fill="#6D6D6D" d="M145.582,213.724l-0.084-0.731h-0.036c-0.324,0.456-0.947,0.863-1.775,0.863
				c-1.175,0-1.775-0.827-1.775-1.667c0-1.403,1.247-2.171,3.49-2.159v-0.119c0-0.48-0.132-1.344-1.319-1.344
				c-0.54,0-1.104,0.168-1.511,0.432l-0.24-0.695c0.48-0.312,1.175-0.516,1.907-0.516c1.775,0,2.207,1.211,2.207,2.374v2.171
				c0,0.504,0.024,0.996,0.096,1.392H145.582z M145.426,210.762c-1.151-0.024-2.458,0.18-2.458,1.307
				c0,0.684,0.456,1.008,0.996,1.008c0.755,0,1.235-0.479,1.403-0.972c0.036-0.107,0.06-0.228,0.06-0.336V210.762z"/>
			<path fill="#6D6D6D" d="M148.152,209.491c0-0.6-0.012-1.092-0.048-1.571h0.936l0.06,0.959h0.024
				c0.288-0.552,0.959-1.091,1.919-1.091c0.803,0,2.051,0.479,2.051,2.471v3.466h-1.056v-3.346c0-0.936-0.348-1.716-1.343-1.716
				c-0.695,0-1.235,0.492-1.415,1.08c-0.048,0.132-0.072,0.312-0.072,0.491v3.49h-1.056V209.491z"/>
			<path fill="#6D6D6D" d="M160.57,213.724l-0.084-0.731h-0.036c-0.324,0.456-0.947,0.863-1.775,0.863
				c-1.175,0-1.775-0.827-1.775-1.667c0-1.403,1.247-2.171,3.49-2.159v-0.119c0-0.48-0.132-1.344-1.319-1.344
				c-0.54,0-1.103,0.168-1.511,0.432l-0.24-0.695c0.48-0.312,1.176-0.516,1.907-0.516c1.775,0,2.207,1.211,2.207,2.374v2.171
				c0,0.504,0.024,0.996,0.096,1.392H160.57z M160.414,210.762c-1.151-0.024-2.459,0.18-2.459,1.307
				c0,0.684,0.456,1.008,0.996,1.008c0.755,0,1.235-0.479,1.403-0.972c0.036-0.107,0.06-0.228,0.06-0.336V210.762z"/>
			<path fill="#6D6D6D" d="M167.278,213.509c-0.276,0.144-0.888,0.336-1.667,0.336c-1.751,0-2.891-1.188-2.891-2.963
				c0-1.787,1.224-3.082,3.119-3.082c0.624,0,1.175,0.156,1.463,0.3l-0.24,0.815c-0.252-0.144-0.647-0.275-1.223-0.275
				c-1.332,0-2.051,0.983-2.051,2.194c0,1.344,0.864,2.171,2.015,2.171c0.6,0,0.996-0.156,1.295-0.288L167.278,213.509z"/>
			<path fill="#6D6D6D" d="M172.582,213.509c-0.276,0.144-0.887,0.336-1.667,0.336c-1.751,0-2.891-1.188-2.891-2.963
				c0-1.787,1.224-3.082,3.119-3.082c0.624,0,1.175,0.156,1.463,0.3l-0.24,0.815c-0.252-0.144-0.647-0.275-1.223-0.275
				c-1.332,0-2.051,0.983-2.051,2.194c0,1.344,0.864,2.171,2.015,2.171c0.6,0,0.996-0.156,1.295-0.288L172.582,213.509z"/>
			<path fill="#6D6D6D" d="M179.001,210.774c0,2.146-1.487,3.082-2.89,3.082c-1.571,0-2.783-1.151-2.783-2.986
				c0-1.942,1.271-3.082,2.878-3.082C177.874,207.788,179.001,208.999,179.001,210.774z M174.395,210.834
				c0,1.271,0.732,2.231,1.763,2.231c1.007,0,1.763-0.948,1.763-2.255c0-0.983-0.492-2.231-1.739-2.231
				C174.935,208.579,174.395,209.73,174.395,210.834z"/>
			<path fill="#6D6D6D" d="M185.193,212.141c0,0.6,0.012,1.127,0.048,1.583h-0.936l-0.06-0.947h-0.024
				c-0.276,0.468-0.887,1.079-1.919,1.079c-0.911,0-2.003-0.504-2.003-2.543v-3.394h1.056v3.214c0,1.104,0.336,1.848,1.295,1.848
				c0.708,0,1.199-0.492,1.391-0.96c0.06-0.156,0.096-0.348,0.096-0.54v-3.562h1.056V212.141z"/>
			<path fill="#6D6D6D" d="M186.948,209.491c0-0.6-0.012-1.092-0.048-1.571h0.936l0.06,0.959h0.024
				c0.288-0.552,0.959-1.091,1.919-1.091c0.803,0,2.051,0.479,2.051,2.471v3.466h-1.056v-3.346c0-0.936-0.348-1.716-1.343-1.716
				c-0.695,0-1.235,0.492-1.415,1.08c-0.048,0.132-0.072,0.312-0.072,0.491v3.49h-1.056V209.491z"/>
			<path fill="#6D6D6D" d="M194.831,206.253v1.667h1.511v0.804h-1.511v3.13c0,0.72,0.204,1.128,0.792,1.128
				c0.276,0,0.479-0.036,0.612-0.072l0.048,0.791c-0.204,0.084-0.528,0.145-0.936,0.145c-0.492,0-0.888-0.156-1.14-0.444
				c-0.3-0.312-0.408-0.827-0.408-1.511v-3.166H192.9v-0.804h0.899v-1.392L194.831,206.253z"/>
			<path fill="#6D6D6D" d="M197.244,213.1c0-0.443,0.3-0.755,0.72-0.755s0.708,0.312,0.708,0.755c0,0.433-0.276,0.756-0.72,0.756
				C197.532,213.856,197.244,213.533,197.244,213.1z"/>
			<path fill="#6D6D6D" d="M202.379,212.645c0.312,0.203,0.864,0.42,1.392,0.42c0.768,0,1.127-0.384,1.127-0.864
				c0-0.504-0.3-0.779-1.079-1.067c-1.043-0.371-1.535-0.947-1.535-1.643c0-0.936,0.755-1.703,2.003-1.703
				c0.587,0,1.104,0.168,1.427,0.359l-0.264,0.768c-0.228-0.144-0.647-0.336-1.187-0.336c-0.624,0-0.972,0.36-0.972,0.792
				c0,0.479,0.348,0.695,1.104,0.983c1.007,0.384,1.523,0.888,1.523,1.751c0,1.02-0.792,1.739-2.171,1.739
				c-0.635,0-1.223-0.156-1.631-0.396L202.379,212.645z"/>
			<path fill="#6D6D6D" d="M207.863,211.013c0.024,1.428,0.935,2.016,1.991,2.016c0.755,0,1.211-0.132,1.607-0.3l0.18,0.755
				c-0.372,0.168-1.007,0.36-1.931,0.36c-1.787,0-2.854-1.176-2.854-2.927s1.032-3.13,2.723-3.13c1.895,0,2.399,1.667,2.399,2.734
				c0,0.216-0.024,0.384-0.036,0.491H207.863z M210.957,210.259c0.012-0.672-0.276-1.716-1.463-1.716
				c-1.067,0-1.535,0.984-1.619,1.716H210.957z"/>
			<path fill="#6D6D6D" d="M214.559,206.253v1.667h1.511v0.804h-1.511v3.13c0,0.72,0.204,1.128,0.792,1.128
				c0.276,0,0.479-0.036,0.612-0.072l0.048,0.791c-0.204,0.084-0.528,0.145-0.936,0.145c-0.492,0-0.888-0.156-1.14-0.444
				c-0.3-0.312-0.408-0.827-0.408-1.511v-3.166h-0.899v-0.804h0.899v-1.392L214.559,206.253z"/>
			<path fill="#6D6D6D" d="M220.187,207.92l1.271,3.43c0.132,0.384,0.276,0.84,0.372,1.188h0.024
				c0.108-0.348,0.228-0.791,0.372-1.211l1.151-3.406h1.115l-1.583,4.138c-0.756,1.991-1.271,3.011-1.991,3.634
				c-0.516,0.456-1.031,0.636-1.295,0.684l-0.264-0.888c0.264-0.084,0.612-0.252,0.924-0.516c0.288-0.228,0.647-0.636,0.887-1.175
				c0.048-0.108,0.084-0.192,0.084-0.252c0-0.061-0.024-0.145-0.072-0.276l-2.147-5.349H220.187z"/>
			<path fill="#6D6D6D" d="M230.588,210.774c0,2.146-1.487,3.082-2.89,3.082c-1.571,0-2.783-1.151-2.783-2.986
				c0-1.942,1.271-3.082,2.878-3.082C229.461,207.788,230.588,208.999,230.588,210.774z M225.983,210.834
				c0,1.271,0.732,2.231,1.763,2.231c1.007,0,1.763-0.948,1.763-2.255c0-0.983-0.492-2.231-1.739-2.231
				C226.523,208.579,225.983,209.73,225.983,210.834z"/>
			<path fill="#6D6D6D" d="M236.781,212.141c0,0.6,0.012,1.127,0.048,1.583h-0.936l-0.06-0.947h-0.024
				c-0.276,0.468-0.887,1.079-1.919,1.079c-0.911,0-2.003-0.504-2.003-2.543v-3.394h1.056v3.214c0,1.104,0.336,1.848,1.295,1.848
				c0.708,0,1.199-0.492,1.391-0.96c0.06-0.156,0.096-0.348,0.096-0.54v-3.562h1.056V212.141z"/>
			<path fill="#6D6D6D" d="M238.535,209.73c0-0.684-0.012-1.271-0.048-1.811h0.923l0.036,1.14h0.048
				c0.264-0.78,0.899-1.271,1.607-1.271c0.12,0,0.204,0.012,0.3,0.036v0.995c-0.108-0.024-0.216-0.036-0.36-0.036
				c-0.744,0-1.271,0.563-1.416,1.355c-0.024,0.144-0.048,0.312-0.048,0.491v3.095h-1.043V209.73z"/>
			<path fill="#6D6D6D" d="M244.955,213.724c0.024-0.396,0.048-0.983,0.048-1.499v-7.017h1.043v3.646h0.024
				c0.372-0.647,1.043-1.067,1.979-1.067c1.439,0,2.458,1.199,2.447,2.962c0,2.075-1.308,3.106-2.603,3.106
				c-0.84,0-1.511-0.323-1.943-1.091h-0.036l-0.048,0.959H244.955z M246.046,211.397c0,0.133,0.024,0.265,0.048,0.384
				c0.204,0.732,0.815,1.235,1.583,1.235c1.104,0,1.763-0.899,1.763-2.23c0-1.163-0.6-2.159-1.727-2.159
				c-0.72,0-1.391,0.492-1.607,1.296c-0.024,0.12-0.06,0.264-0.06,0.432V211.397z"/>
			<path fill="#6D6D6D" d="M256.688,212.141c0,0.6,0.012,1.127,0.048,1.583h-0.936l-0.06-0.947h-0.024
				c-0.276,0.468-0.887,1.079-1.919,1.079c-0.911,0-2.003-0.504-2.003-2.543v-3.394h1.056v3.214c0,1.104,0.336,1.848,1.295,1.848
				c0.708,0,1.199-0.492,1.391-0.96c0.06-0.156,0.096-0.348,0.096-0.54v-3.562h1.056V212.141z"/>
			<path fill="#6D6D6D" d="M263.456,205.209v7.017c0,0.516,0.012,1.104,0.048,1.499h-0.947l-0.048-1.008h-0.024
				c-0.324,0.648-1.032,1.14-1.979,1.14c-1.403,0-2.483-1.188-2.483-2.95c-0.012-1.931,1.188-3.118,2.603-3.118
				c0.888,0,1.487,0.42,1.751,0.888h0.024v-3.467H263.456z M262.401,210.282c0-0.132-0.012-0.312-0.048-0.443
				c-0.156-0.672-0.731-1.224-1.523-1.224c-1.091,0-1.739,0.96-1.739,2.243c0,1.175,0.576,2.146,1.715,2.146
				c0.708,0,1.355-0.468,1.547-1.259c0.036-0.145,0.048-0.288,0.048-0.456V210.282z"/>
			<path fill="#6D6D6D" d="M270.212,207.92c-0.024,0.42-0.048,0.888-0.048,1.595v3.37c0,1.332-0.264,2.147-0.827,2.65
				c-0.564,0.528-1.379,0.696-2.111,0.696c-0.696,0-1.463-0.168-1.931-0.479l0.264-0.804c0.384,0.239,0.984,0.455,1.703,0.455
				c1.08,0,1.871-0.563,1.871-2.026v-0.647h-0.024c-0.324,0.539-0.948,0.971-1.847,0.971c-1.439,0-2.471-1.223-2.471-2.83
				c0-1.967,1.284-3.082,2.615-3.082c1.007,0,1.559,0.527,1.811,1.007h0.024l0.048-0.875H270.212z M269.12,210.211
				c0-0.181-0.012-0.336-0.06-0.48c-0.192-0.611-0.708-1.115-1.476-1.115c-1.007,0-1.727,0.852-1.727,2.195
				c0,1.139,0.576,2.087,1.715,2.087c0.647,0,1.235-0.408,1.463-1.08c0.06-0.18,0.084-0.384,0.084-0.563V210.211z"/>
			<path fill="#6D6D6D" d="M272.506,211.013c0.024,1.428,0.936,2.016,1.991,2.016c0.755,0,1.211-0.132,1.607-0.3l0.18,0.755
				c-0.372,0.168-1.007,0.36-1.931,0.36c-1.787,0-2.854-1.176-2.854-2.927s1.032-3.13,2.723-3.13c1.895,0,2.399,1.667,2.399,2.734
				c0,0.216-0.024,0.384-0.036,0.491H272.506z M275.6,210.259c0.012-0.672-0.276-1.716-1.463-1.716
				c-1.067,0-1.535,0.984-1.619,1.716H275.6z"/>
			<path fill="#6D6D6D" d="M279.202,206.253v1.667h1.511v0.804h-1.511v3.13c0,0.72,0.204,1.128,0.792,1.128
				c0.276,0,0.479-0.036,0.611-0.072l0.048,0.791c-0.204,0.084-0.528,0.145-0.936,0.145c-0.492,0-0.888-0.156-1.14-0.444
				c-0.3-0.312-0.408-0.827-0.408-1.511v-3.166h-0.899v-0.804h0.899v-1.392L279.202,206.253z"/>
			<path fill="#6D6D6D" d="M281.183,215.2c0.264-0.708,0.588-1.991,0.72-2.867l1.175-0.119c-0.276,1.019-0.804,2.351-1.14,2.914
				L281.183,215.2z"/>
			<path fill="#6D6D6D" d="M287.314,207.92l0.768,2.95c0.168,0.647,0.324,1.247,0.432,1.847h0.036
				c0.132-0.587,0.324-1.211,0.516-1.835l0.947-2.962h0.888l0.899,2.902c0.216,0.695,0.384,1.308,0.516,1.895h0.036
				c0.096-0.587,0.252-1.199,0.444-1.883l0.828-2.914h1.043l-1.871,5.805h-0.959l-0.888-2.771c-0.204-0.647-0.372-1.224-0.516-1.907
				h-0.024c-0.144,0.696-0.324,1.296-0.528,1.919l-0.936,2.759h-0.959l-1.751-5.805H287.314z"/>
			<path fill="#6D6D6D" d="M295.726,209.73c0-0.684-0.012-1.271-0.048-1.811h0.923l0.036,1.14h0.048
				c0.264-0.78,0.899-1.271,1.606-1.271c0.121,0,0.205,0.012,0.301,0.036v0.995c-0.108-0.024-0.217-0.036-0.359-0.036
				c-0.744,0-1.272,0.563-1.416,1.355c-0.024,0.144-0.048,0.312-0.048,0.491v3.095h-1.043V209.73z"/>
			<path fill="#6D6D6D" d="M300.874,206.289c0.012,0.359-0.252,0.647-0.672,0.647c-0.372,0-0.636-0.288-0.636-0.647
				c0-0.372,0.276-0.66,0.659-0.66C300.622,205.629,300.874,205.917,300.874,206.289z M299.698,213.724v-5.805h1.056v5.805H299.698z
				"/>
			<path fill="#6D6D6D" d="M303.777,206.253v1.667h1.511v0.804h-1.511v3.13c0,0.72,0.204,1.128,0.792,1.128
				c0.275,0,0.479-0.036,0.611-0.072l0.048,0.791c-0.204,0.084-0.528,0.145-0.936,0.145c-0.491,0-0.888-0.156-1.14-0.444
				c-0.3-0.312-0.408-0.827-0.408-1.511v-3.166h-0.898v-0.804h0.898v-1.392L303.777,206.253z"/>
			<path fill="#6D6D6D" d="M306.994,211.013c0.024,1.428,0.935,2.016,1.991,2.016c0.755,0,1.211-0.132,1.606-0.3l0.181,0.755
				c-0.373,0.168-1.008,0.36-1.932,0.36c-1.787,0-2.854-1.176-2.854-2.927s1.032-3.13,2.723-3.13c1.896,0,2.399,1.667,2.399,2.734
				c0,0.216-0.025,0.384-0.037,0.491H306.994z M310.089,210.259c0.012-0.672-0.276-1.716-1.464-1.716
				c-1.067,0-1.535,0.984-1.619,1.716H310.089z"/>
			<path fill="#6D6D6D" d="M315.345,207.92l1.271,3.43c0.132,0.384,0.276,0.84,0.372,1.188h0.023
				c0.107-0.348,0.229-0.791,0.372-1.211l1.151-3.406h1.115l-1.583,4.138c-0.756,1.991-1.271,3.011-1.991,3.634
				c-0.516,0.456-1.031,0.636-1.295,0.684l-0.264-0.888c0.264-0.084,0.611-0.252,0.924-0.516c0.287-0.228,0.646-0.636,0.887-1.175
				c0.048-0.108,0.084-0.192,0.084-0.252c0-0.061-0.023-0.145-0.072-0.276l-2.146-5.349H315.345z"/>
			<path fill="#6D6D6D" d="M325.747,210.774c0,2.146-1.487,3.082-2.891,3.082c-1.571,0-2.783-1.151-2.783-2.986
				c0-1.942,1.271-3.082,2.879-3.082C324.62,207.788,325.747,208.999,325.747,210.774z M321.141,210.834
				c0,1.271,0.731,2.231,1.763,2.231c1.007,0,1.763-0.948,1.763-2.255c0-0.983-0.491-2.231-1.738-2.231
				C321.68,208.579,321.141,209.73,321.141,210.834z"/>
			<path fill="#6D6D6D" d="M331.938,212.141c0,0.6,0.012,1.127,0.049,1.583h-0.936l-0.061-0.947h-0.023
				c-0.276,0.468-0.888,1.079-1.92,1.079c-0.91,0-2.002-0.504-2.002-2.543v-3.394h1.055v3.214c0,1.104,0.336,1.848,1.296,1.848
				c0.708,0,1.199-0.492,1.392-0.96c0.06-0.156,0.096-0.348,0.096-0.54v-3.562h1.055V212.141z"/>
			<path fill="#6D6D6D" d="M333.694,209.73c0-0.684-0.012-1.271-0.049-1.811h0.924l0.036,1.14h0.048
				c0.264-0.78,0.899-1.271,1.607-1.271c0.119,0,0.203,0.012,0.299,0.036v0.995c-0.107-0.024-0.215-0.036-0.359-0.036
				c-0.743,0-1.271,0.563-1.415,1.355c-0.024,0.144-0.048,0.312-0.048,0.491v3.095h-1.043V209.73z"/>
			<path fill="#6D6D6D" d="M340.269,213.724v-5.001h-0.815v-0.804h0.815v-0.312c0-1.535,0.899-2.531,2.53-2.531
				c0.54,0,1.176,0.168,1.476,0.384l-0.3,0.804c-0.252-0.18-0.707-0.336-1.223-0.336c-1.116,0-1.439,0.779-1.439,1.703v0.288h3.369
				v5.805h-1.043v-5.001h-2.326v5.001H340.269z"/>
			<path fill="#6D6D6D" d="M346.437,209.73c0-0.684-0.013-1.271-0.048-1.811h0.924l0.035,1.14h0.049
				c0.264-0.78,0.898-1.271,1.606-1.271c0.12,0,0.204,0.012,0.3,0.036v0.995c-0.107-0.024-0.216-0.036-0.359-0.036
				c-0.744,0-1.271,0.563-1.416,1.355c-0.023,0.144-0.047,0.312-0.047,0.491v3.095h-1.044V209.73z"/>
			<path fill="#6D6D6D" d="M350.218,212.645c0.312,0.203,0.863,0.42,1.391,0.42c0.768,0,1.127-0.384,1.127-0.864
				c0-0.504-0.299-0.779-1.078-1.067c-1.044-0.371-1.535-0.947-1.535-1.643c0-0.936,0.755-1.703,2.002-1.703
				c0.588,0,1.104,0.168,1.428,0.359l-0.264,0.768c-0.229-0.144-0.648-0.336-1.188-0.336c-0.624,0-0.972,0.36-0.972,0.792
				c0,0.479,0.348,0.695,1.104,0.983c1.007,0.384,1.522,0.888,1.522,1.751c0,1.02-0.791,1.739-2.17,1.739
				c-0.636,0-1.224-0.156-1.631-0.396L350.218,212.645z"/>
			<path fill="#6D6D6D" d="M356.385,206.253v1.667h1.511v0.804h-1.511v3.13c0,0.72,0.204,1.128,0.792,1.128
				c0.275,0,0.479-0.036,0.611-0.072l0.048,0.791c-0.204,0.084-0.528,0.145-0.936,0.145c-0.491,0-0.888-0.156-1.14-0.444
				c-0.3-0.312-0.408-0.827-0.408-1.511v-3.166h-0.898v-0.804h0.898v-1.392L356.385,206.253z"/>
			<path fill="#6D6D6D" d="M364.843,213.724l-0.084-0.731h-0.035c-0.324,0.456-0.947,0.863-1.775,0.863
				c-1.176,0-1.775-0.827-1.775-1.667c0-1.403,1.248-2.171,3.49-2.159v-0.119c0-0.48-0.132-1.344-1.318-1.344
				c-0.541,0-1.104,0.168-1.512,0.432l-0.24-0.695c0.48-0.312,1.176-0.516,1.907-0.516c1.774,0,2.206,1.211,2.206,2.374v2.171
				c0,0.504,0.024,0.996,0.097,1.392H364.843z M364.686,210.762c-1.15-0.024-2.458,0.18-2.458,1.307
				c0,0.684,0.456,1.008,0.995,1.008c0.756,0,1.236-0.479,1.404-0.972c0.035-0.107,0.059-0.228,0.059-0.336V210.762z"/>
			<path fill="#6D6D6D" d="M372.427,205.209v7.017c0,0.516,0.012,1.104,0.047,1.499h-0.947l-0.047-1.008h-0.024
				c-0.324,0.648-1.032,1.14-1.979,1.14c-1.402,0-2.482-1.188-2.482-2.95c-0.012-1.931,1.188-3.118,2.603-3.118
				c0.888,0,1.487,0.42,1.751,0.888h0.024v-3.467H372.427z M371.371,210.282c0-0.132-0.013-0.312-0.048-0.443
				c-0.156-0.672-0.732-1.224-1.523-1.224c-1.092,0-1.739,0.96-1.739,2.243c0,1.175,0.575,2.146,1.716,2.146
				c0.707,0,1.354-0.468,1.547-1.259c0.035-0.145,0.048-0.288,0.048-0.456V210.282z"/>
			<path fill="#6D6D6D" d="M379.939,213.724l-0.084-0.731h-0.036c-0.324,0.456-0.947,0.863-1.775,0.863
				c-1.175,0-1.774-0.827-1.774-1.667c0-1.403,1.247-2.171,3.489-2.159v-0.119c0-0.48-0.131-1.344-1.318-1.344
				c-0.54,0-1.104,0.168-1.512,0.432l-0.24-0.695c0.48-0.312,1.176-0.516,1.908-0.516c1.774,0,2.206,1.211,2.206,2.374v2.171
				c0,0.504,0.024,0.996,0.097,1.392H379.939z M379.784,210.762c-1.152-0.024-2.459,0.18-2.459,1.307
				c0,0.684,0.455,1.008,0.995,1.008c0.755,0,1.235-0.479,1.403-0.972c0.035-0.107,0.061-0.228,0.061-0.336V210.762z"/>
			<path fill="#6D6D6D" d="M382.509,209.491c0-0.6-0.012-1.092-0.048-1.571h0.936l0.06,0.959h0.024
				c0.288-0.552,0.96-1.091,1.919-1.091c0.803,0,2.051,0.479,2.051,2.471v3.466h-1.056v-3.346c0-0.936-0.348-1.716-1.343-1.716
				c-0.695,0-1.236,0.492-1.416,1.08c-0.047,0.132-0.071,0.312-0.071,0.491v3.49h-1.056V209.491z"/>
			<path fill="#6D6D6D" d="M394.182,205.209v7.017c0,0.516,0.012,1.104,0.047,1.499h-0.947l-0.047-1.008h-0.024
				c-0.324,0.648-1.032,1.14-1.979,1.14c-1.402,0-2.482-1.188-2.482-2.95c-0.012-1.931,1.188-3.118,2.603-3.118
				c0.888,0,1.487,0.42,1.751,0.888h0.024v-3.467H394.182z M393.127,210.282c0-0.132-0.013-0.312-0.048-0.443
				c-0.156-0.672-0.732-1.224-1.523-1.224c-1.092,0-1.739,0.96-1.739,2.243c0,1.175,0.575,2.146,1.716,2.146
				c0.707,0,1.354-0.468,1.547-1.259c0.035-0.145,0.048-0.288,0.048-0.456V210.282z"/>
		</g>
		<g enable-background="new    ">
			<path fill="#6D6D6D" d="M404.825,205.209v6.765c0,0.659,0.023,1.355,0.048,1.751h-1.619l-0.084-0.863h-0.024
				c-0.371,0.659-1.078,0.995-1.834,0.995c-1.392,0-2.507-1.188-2.507-3.011c-0.013-1.979,1.224-3.118,2.626-3.118
				c0.721,0,1.283,0.252,1.547,0.66h0.024v-3.179H404.825z M403.002,210.343c0-0.097-0.012-0.229-0.024-0.324
				c-0.107-0.491-0.503-0.899-1.066-0.899c-0.828,0-1.26,0.743-1.26,1.667c0,0.995,0.492,1.619,1.248,1.619
				c0.527,0,0.947-0.359,1.055-0.875c0.036-0.133,0.048-0.265,0.048-0.42V210.343z"/>
			<path fill="#6D6D6D" d="M407.695,211.374c0.06,0.756,0.804,1.115,1.655,1.115c0.623,0,1.127-0.084,1.619-0.24l0.24,1.235
				c-0.6,0.24-1.332,0.36-2.123,0.36c-1.991,0-3.131-1.151-3.131-2.986c0-1.487,0.924-3.131,2.963-3.131
				c1.895,0,2.614,1.476,2.614,2.927c0,0.312-0.036,0.588-0.06,0.72H407.695z M409.843,210.127c0-0.444-0.192-1.188-1.032-1.188
				c-0.768,0-1.079,0.695-1.127,1.188H409.843z"/>
			<path fill="#6D6D6D" d="M417.03,213.581c-0.324,0.144-0.936,0.264-1.632,0.264c-1.896,0-3.106-1.151-3.106-2.999
				c0-1.715,1.176-3.118,3.358-3.118c0.479,0,1.007,0.084,1.392,0.229l-0.288,1.354c-0.216-0.096-0.54-0.18-1.02-0.18
				c-0.96,0-1.583,0.684-1.571,1.644c0,1.079,0.72,1.643,1.607,1.643c0.432,0,0.768-0.071,1.043-0.18L417.03,213.581z"/>
			<path fill="#6D6D6D" d="M419.923,206.228c0,0.504-0.383,0.912-0.982,0.912c-0.576,0-0.961-0.408-0.948-0.912
				c-0.013-0.527,0.372-0.923,0.96-0.923S419.911,205.701,419.923,206.228z M418.04,213.724v-5.865h1.823v5.865H418.04z"/>
			<path fill="#6D6D6D" d="M427.012,205.209v6.765c0,0.659,0.023,1.355,0.048,1.751h-1.619l-0.084-0.863h-0.024
				c-0.371,0.659-1.078,0.995-1.834,0.995c-1.392,0-2.507-1.188-2.507-3.011c-0.013-1.979,1.224-3.118,2.626-3.118
				c0.721,0,1.283,0.252,1.547,0.66h0.024v-3.179H427.012z M425.189,210.343c0-0.097-0.012-0.229-0.024-0.324
				c-0.107-0.491-0.503-0.899-1.066-0.899c-0.828,0-1.26,0.743-1.26,1.667c0,0.995,0.492,1.619,1.248,1.619
				c0.527,0,0.947-0.359,1.055-0.875c0.036-0.133,0.048-0.265,0.048-0.42V210.343z"/>
			<path fill="#6D6D6D" d="M429.883,211.374c0.06,0.756,0.804,1.115,1.655,1.115c0.623,0,1.127-0.084,1.619-0.24l0.24,1.235
				c-0.6,0.24-1.332,0.36-2.123,0.36c-1.991,0-3.131-1.151-3.131-2.986c0-1.487,0.924-3.131,2.963-3.131
				c1.895,0,2.614,1.476,2.614,2.927c0,0.312-0.036,0.588-0.06,0.72H429.883z M432.03,210.127c0-0.444-0.192-1.188-1.032-1.188
				c-0.768,0-1.079,0.695-1.127,1.188H432.03z"/>
			<path fill="#6D6D6D" d="M438.499,207.859l0.468,2.399c0.12,0.611,0.24,1.259,0.336,1.931h0.024
				c0.119-0.672,0.287-1.344,0.432-1.919l0.623-2.411h1.439l0.588,2.339c0.156,0.66,0.312,1.319,0.432,1.991h0.023
				c0.084-0.672,0.205-1.331,0.336-2.003l0.504-2.327h1.787l-1.799,5.865h-1.715l-0.552-2.063c-0.144-0.576-0.252-1.104-0.372-1.823
				h-0.023c-0.108,0.731-0.229,1.271-0.385,1.823l-0.588,2.063h-1.715l-1.703-5.865H438.499z"/>
			<path fill="#6D6D6D" d="M446.347,205.209h1.823v3.347h0.023c0.192-0.252,0.432-0.444,0.721-0.6
				c0.264-0.145,0.611-0.229,0.947-0.229c1.163,0,2.051,0.804,2.051,2.567v3.43h-1.823v-3.227c0-0.768-0.265-1.295-0.948-1.295
				c-0.479,0-0.779,0.312-0.91,0.636c-0.049,0.12-0.061,0.275-0.061,0.407v3.479h-1.823V205.209z"/>
			<path fill="#6D6D6D" d="M454.782,211.374c0.061,0.756,0.805,1.115,1.656,1.115c0.623,0,1.127-0.084,1.619-0.24l0.239,1.235
				c-0.6,0.24-1.331,0.36-2.123,0.36c-1.991,0-3.13-1.151-3.13-2.986c0-1.487,0.924-3.131,2.963-3.131
				c1.895,0,2.613,1.476,2.613,2.927c0,0.312-0.035,0.588-0.06,0.72H454.782z M456.929,210.127c0-0.444-0.192-1.188-1.032-1.188
				c-0.768,0-1.078,0.695-1.127,1.188H456.929z"/>
			<path fill="#6D6D6D" d="M459.716,209.791c0-0.863-0.024-1.428-0.049-1.932h1.572l0.06,1.08h0.048
				c0.3-0.852,1.02-1.212,1.583-1.212c0.168,0,0.252,0,0.384,0.024v1.715c-0.132-0.023-0.287-0.048-0.492-0.048
				c-0.672,0-1.127,0.359-1.246,0.924c-0.025,0.12-0.037,0.264-0.037,0.407v2.975h-1.822V209.791z"/>
			<path fill="#6D6D6D" d="M465.583,211.374c0.06,0.756,0.803,1.115,1.654,1.115c0.624,0,1.128-0.084,1.619-0.24l0.24,1.235
				c-0.6,0.24-1.332,0.36-2.123,0.36c-1.99,0-3.13-1.151-3.13-2.986c0-1.487,0.923-3.131,2.962-3.131
				c1.895,0,2.615,1.476,2.615,2.927c0,0.312-0.037,0.588-0.061,0.72H465.583z M467.729,210.127c0-0.444-0.191-1.188-1.031-1.188
				c-0.768,0-1.08,0.695-1.127,1.188H467.729z"/>
		</g>
		<g enable-background="new    ">
			<path fill="#6D6D6D" d="M88.764,222.26l0.876,2.879c0.096,0.348,0.216,0.779,0.288,1.092h0.036
				c0.084-0.313,0.18-0.756,0.264-1.092l0.72-2.879h1.955l-1.367,3.862c-0.839,2.327-1.403,3.263-2.063,3.85
				c-0.636,0.552-1.308,0.744-1.763,0.804l-0.384-1.547c0.228-0.036,0.516-0.145,0.792-0.312c0.276-0.145,0.576-0.433,0.756-0.732
				c0.06-0.084,0.096-0.18,0.096-0.264c0-0.06-0.012-0.155-0.084-0.3l-2.147-5.361H88.764z"/>
			<path fill="#6D6D6D" d="M99.286,225.127c0,2.146-1.523,3.13-3.094,3.13c-1.715,0-3.034-1.127-3.034-3.022
				c0-1.895,1.247-3.106,3.13-3.106C98.087,222.128,99.286,223.363,99.286,225.127z M95.04,225.186c0,1.008,0.42,1.763,1.199,1.763
				c0.708,0,1.164-0.707,1.164-1.763c0-0.875-0.336-1.763-1.164-1.763C95.364,223.424,95.04,224.323,95.04,225.186z"/>
			<path fill="#6D6D6D" d="M105.946,226.242c0,0.768,0.024,1.391,0.048,1.883h-1.583l-0.084-0.827h-0.036
				c-0.228,0.359-0.78,0.959-1.835,0.959c-1.188,0-2.063-0.743-2.063-2.555v-3.442h1.835v3.154c0,0.852,0.276,1.367,0.912,1.367
				c0.504,0,0.792-0.348,0.912-0.635c0.048-0.108,0.06-0.252,0.06-0.396v-3.49h1.835V226.242z"/>
			<path fill="#6D6D6D" d="M111.096,222.26l0.468,2.399c0.12,0.611,0.24,1.259,0.336,1.931h0.024
				c0.12-0.672,0.288-1.344,0.432-1.919l0.624-2.411h1.439l0.588,2.339c0.156,0.66,0.312,1.319,0.432,1.991h0.024
				c0.084-0.672,0.204-1.331,0.336-2.003l0.503-2.327h1.787l-1.799,5.865h-1.715l-0.552-2.063c-0.144-0.576-0.252-1.104-0.372-1.823
				h-0.024c-0.108,0.731-0.228,1.271-0.384,1.823l-0.587,2.063h-1.715l-1.703-5.865H111.096z"/>
			<path fill="#6D6D6D" d="M124.557,225.127c0,2.146-1.523,3.13-3.094,3.13c-1.715,0-3.034-1.127-3.034-3.022
				c0-1.895,1.247-3.106,3.13-3.106C123.358,222.128,124.557,223.363,124.557,225.127z M120.312,225.186
				c0,1.008,0.42,1.763,1.199,1.763c0.708,0,1.164-0.707,1.164-1.763c0-0.875-0.336-1.763-1.164-1.763
				C120.635,223.424,120.312,224.323,120.312,225.186z"/>
			<path fill="#6D6D6D" d="M131.218,226.242c0,0.768,0.024,1.391,0.048,1.883h-1.583l-0.084-0.827h-0.036
				c-0.228,0.359-0.78,0.959-1.835,0.959c-1.188,0-2.063-0.743-2.063-2.555v-3.442h1.835v3.154c0,0.852,0.276,1.367,0.912,1.367
				c0.504,0,0.792-0.348,0.912-0.635c0.048-0.108,0.06-0.252,0.06-0.396v-3.49h1.835V226.242z"/>
			<path fill="#6D6D6D" d="M132.684,219.609h1.823v8.516h-1.823V219.609z"/>
			<path fill="#6D6D6D" d="M141.669,219.609v6.765c0,0.659,0.024,1.355,0.048,1.751h-1.619l-0.084-0.863h-0.024
				c-0.372,0.659-1.079,0.995-1.835,0.995c-1.391,0-2.506-1.188-2.506-3.011c-0.012-1.979,1.223-3.118,2.626-3.118
				c0.719,0,1.283,0.252,1.547,0.66h0.024v-3.179H141.669z M139.846,224.743c0-0.097-0.012-0.229-0.024-0.324
				c-0.108-0.491-0.503-0.899-1.067-0.899c-0.828,0-1.259,0.743-1.259,1.667c0,0.995,0.492,1.619,1.248,1.619
				c0.527,0,0.947-0.359,1.055-0.875c0.036-0.133,0.048-0.265,0.048-0.42V224.743z"/>
			<path fill="#6D6D6D" d="M145.56,219.609h1.823v8.516h-1.823V219.609z"/>
			<path fill="#6D6D6D" d="M150.743,220.629c0,0.504-0.384,0.912-0.983,0.912c-0.576,0-0.96-0.408-0.948-0.912
				c-0.012-0.527,0.372-0.923,0.959-0.923S150.731,220.101,150.743,220.629z M148.86,228.125v-5.865h1.823v5.865H148.86z"/>
			<path fill="#6D6D6D" d="M153.971,224.73h0.024c0.132-0.239,0.276-0.479,0.42-0.707l1.187-1.764h2.195l-2.099,2.375l2.398,3.49
				h-2.243l-1.415-2.411l-0.468,0.576v1.835h-1.823v-8.516h1.823V224.73z"/>
			<path fill="#6D6D6D" d="M159.887,225.774c0.06,0.756,0.804,1.115,1.655,1.115c0.624,0,1.127-0.084,1.619-0.24l0.24,1.235
				c-0.6,0.24-1.332,0.36-2.123,0.36c-1.991,0-3.13-1.151-3.13-2.986c0-1.487,0.923-3.131,2.962-3.131
				c1.895,0,2.614,1.476,2.614,2.927c0,0.312-0.036,0.588-0.06,0.72H159.887z M162.034,224.527c0-0.444-0.192-1.188-1.032-1.188
				c-0.768,0-1.079,0.695-1.127,1.188H162.034z"/>
			<path fill="#6D6D6D" d="M169.127,220.629c0,0.504-0.384,0.912-0.983,0.912c-0.576,0-0.96-0.408-0.948-0.912
				c-0.012-0.527,0.372-0.923,0.959-0.923S169.115,220.101,169.127,220.629z M167.244,228.125v-5.865h1.823v5.865H167.244z"/>
			<path fill="#6D6D6D" d="M172.571,220.581v1.679h1.307v1.344h-1.307v2.123c0,0.707,0.168,1.031,0.72,1.031
				c0.228,0,0.408-0.024,0.54-0.048l0.012,1.379c-0.24,0.096-0.672,0.156-1.188,0.156c-0.588,0-1.08-0.204-1.367-0.504
				c-0.336-0.348-0.504-0.911-0.504-1.739v-2.398h-0.779v-1.344h0.779v-1.271L172.571,220.581z"/>
		</g>
		<g enable-background="new    ">
			<path fill="#6D6D6D" d="M179.422,220.653v1.667h1.511v0.804h-1.511v3.13c0,0.72,0.204,1.128,0.792,1.128
				c0.276,0,0.479-0.036,0.611-0.072l0.048,0.791c-0.204,0.084-0.528,0.145-0.936,0.145c-0.492,0-0.888-0.156-1.14-0.444
				c-0.3-0.312-0.408-0.827-0.408-1.511v-3.166h-0.899v-0.804h0.899v-1.392L179.422,220.653z"/>
			<path fill="#6D6D6D" d="M187.303,225.175c0,2.146-1.487,3.082-2.89,3.082c-1.571,0-2.783-1.151-2.783-2.986
				c0-1.942,1.271-3.082,2.878-3.082C186.177,222.188,187.303,223.399,187.303,225.175z M182.698,225.234
				c0,1.271,0.732,2.231,1.763,2.231c1.007,0,1.763-0.948,1.763-2.255c0-0.983-0.492-2.231-1.739-2.231
				C183.238,222.979,182.698,224.131,182.698,225.234z"/>
			<path fill="#6D6D6D" d="M194.397,228.125l-0.084-0.731h-0.036c-0.324,0.456-0.947,0.863-1.775,0.863
				c-1.175,0-1.775-0.827-1.775-1.667c0-1.403,1.247-2.171,3.49-2.159v-0.119c0-0.48-0.132-1.344-1.319-1.344
				c-0.54,0-1.103,0.168-1.511,0.432l-0.24-0.695c0.48-0.312,1.176-0.516,1.907-0.516c1.775,0,2.207,1.211,2.207,2.374v2.171
				c0,0.504,0.024,0.996,0.096,1.392H194.397z M194.241,225.163c-1.151-0.024-2.459,0.18-2.459,1.307
				c0,0.684,0.456,1.008,0.996,1.008c0.755,0,1.235-0.479,1.403-0.972c0.036-0.107,0.06-0.228,0.06-0.336V225.163z"/>
			<path fill="#6D6D6D" d="M196.966,224.215c0-0.743-0.024-1.343-0.048-1.895h0.947l0.048,0.995h0.024
				c0.432-0.707,1.115-1.127,2.063-1.127c1.403,0,2.459,1.188,2.459,2.95c0,2.087-1.271,3.118-2.639,3.118
				c-0.768,0-1.439-0.336-1.787-0.911h-0.024v3.154h-1.043V224.215z M198.01,225.762c0,0.155,0.024,0.3,0.048,0.432
				c0.192,0.731,0.828,1.235,1.583,1.235c1.116,0,1.763-0.912,1.763-2.243c0-1.163-0.612-2.159-1.727-2.159
				c-0.72,0-1.391,0.517-1.595,1.308c-0.036,0.132-0.072,0.288-0.072,0.432V225.762z"/>
			<path fill="#6D6D6D" d="M203.794,224.215c0-0.743-0.024-1.343-0.048-1.895h0.947l0.048,0.995h0.024
				c0.432-0.707,1.115-1.127,2.063-1.127c1.403,0,2.459,1.188,2.459,2.95c0,2.087-1.271,3.118-2.639,3.118
				c-0.768,0-1.439-0.336-1.787-0.911h-0.024v3.154h-1.043V224.215z M204.838,225.762c0,0.155,0.024,0.3,0.048,0.432
				c0.192,0.731,0.828,1.235,1.583,1.235c1.116,0,1.763-0.912,1.763-2.243c0-1.163-0.612-2.159-1.727-2.159
				c-0.72,0-1.391,0.517-1.595,1.308c-0.036,0.132-0.072,0.288-0.072,0.432V225.762z"/>
			<path fill="#6D6D6D" d="M211.21,225.414c0.024,1.428,0.936,2.016,1.991,2.016c0.755,0,1.211-0.132,1.607-0.3l0.18,0.755
				c-0.372,0.168-1.007,0.36-1.931,0.36c-1.787,0-2.854-1.176-2.854-2.927s1.032-3.13,2.723-3.13c1.895,0,2.399,1.667,2.399,2.734
				c0,0.216-0.024,0.384-0.036,0.491H211.21z M214.304,224.659c0.012-0.672-0.276-1.716-1.463-1.716
				c-1.067,0-1.535,0.984-1.619,1.716H214.304z"/>
			<path fill="#6D6D6D" d="M219.848,228.125l-0.084-0.731h-0.036c-0.324,0.456-0.947,0.863-1.775,0.863
				c-1.175,0-1.775-0.827-1.775-1.667c0-1.403,1.247-2.171,3.49-2.159v-0.119c0-0.48-0.132-1.344-1.319-1.344
				c-0.54,0-1.104,0.168-1.511,0.432l-0.24-0.695c0.48-0.312,1.175-0.516,1.907-0.516c1.775,0,2.207,1.211,2.207,2.374v2.171
				c0,0.504,0.024,0.996,0.096,1.392H219.848z M219.692,225.163c-1.151-0.024-2.458,0.18-2.458,1.307
				c0,0.684,0.456,1.008,0.996,1.008c0.755,0,1.235-0.479,1.403-0.972c0.036-0.107,0.06-0.228,0.06-0.336V225.163z"/>
			<path fill="#6D6D6D" d="M222.418,224.131c0-0.684-0.012-1.271-0.048-1.811h0.923l0.036,1.14h0.048
				c0.264-0.78,0.899-1.271,1.607-1.271c0.12,0,0.204,0.012,0.3,0.036v0.995c-0.108-0.024-0.216-0.036-0.359-0.036
				c-0.744,0-1.271,0.563-1.416,1.355c-0.024,0.144-0.048,0.312-0.048,0.491v3.095h-1.043V224.131z"/>
		</g>
	</g>
	<g>
		<rect x="84.241" y="246.856" fill="#B4B4DA" width="236" height="5"/>
		<rect x="84.241" y="260.669" fill="#B1D4BA" width="179.5" height="2.875"/>
		<rect x="84.241" y="275.731" fill="#E3E3E3" width="365.5" height="3"/>
		<rect x="84.241" y="287.69" fill="#E3E3E3" width="372" height="3"/>
		<rect x="84.241" y="299.106" fill="#E3E3E3" width="340" height="3"/>
	</g>
	<g>
		<rect x="84.241" y="467.015" fill="#B4B4DA" width="236" height="5"/>
		<rect x="84.241" y="480.827" fill="#B1D4BA" width="211.431" height="2.875"/>
		<rect x="84.241" y="495.89" fill="#E3E3E3" width="365.5" height="3"/>
		<rect x="84.241" y="507.849" fill="#E3E3E3" width="372" height="3"/>
		<rect x="84.241" y="519.265" fill="#E3E3E3" width="245.696" height="3"/>
	</g>
	<g>
		<rect x="84.241" y="320.243" fill="#B4B4DA" width="236" height="5"/>
		<rect x="84.241" y="334.055" fill="#B1D4BA" width="253.339" height="2.875"/>
		<rect x="84.241" y="349.118" fill="#E3E3E3" width="365.5" height="3"/>
		<rect x="84.241" y="361.076" fill="#E3E3E3" width="372" height="3"/>
		<rect x="84.241" y="372.494" fill="#E3E3E3" width="95.542" height="3"/>
	</g>
	<g>
		<rect x="84.241" y="540.401" fill="#B4B4DA" width="236" height="5"/>
		<rect x="84.241" y="554.215" fill="#B1D4BA" width="179.5" height="2.875"/>
		<rect x="84.241" y="569.276" fill="#E3E3E3" width="365.5" height="3"/>
		<rect x="84.241" y="581.235" fill="#E3E3E3" width="372" height="3"/>
		<rect x="84.241" y="592.651" fill="#E3E3E3" width="340" height="3"/>
	</g>
	<g>
		<rect x="84.241" y="393.629" fill="#B4B4DA" width="236" height="5"/>
		<rect x="84.241" y="407.44" fill="#B1D4BA" width="135.063" height="2.875"/>
		<rect x="84.241" y="422.504" fill="#E3E3E3" width="365.5" height="3"/>
		<rect x="84.241" y="434.463" fill="#E3E3E3" width="372" height="3"/>
	</g>
	<g>
		<rect x="84.241" y="762.862" fill="#B4B4DA" width="236" height="5"/>
		<rect x="84.241" y="776.676" fill="#B1D4BA" width="211.431" height="2.875"/>
		<rect x="84.241" y="791.737" fill="#E3E3E3" width="365.5" height="3"/>
		<rect x="84.241" y="803.696" fill="#E3E3E3" width="372" height="3"/>
		<rect x="84.241" y="815.112" fill="#E3E3E3" width="245.696" height="3"/>
	</g>
	<g>
		<rect x="84.241" y="616.092" fill="#B4B4DA" width="236" height="5"/>
		<rect x="84.241" y="629.903" fill="#B1D4BA" width="253.339" height="2.875"/>
		<rect x="84.241" y="644.967" fill="#E3E3E3" width="365.5" height="3"/>
		<rect x="84.241" y="656.924" fill="#E3E3E3" width="372" height="3"/>
		<rect x="84.241" y="668.342" fill="#E3E3E3" width="95.542" height="3"/>
	</g>
	<g>
		<rect x="84.241" y="689.476" fill="#B4B4DA" width="236" height="5"/>
		<rect x="84.241" y="703.288" fill="#B1D4BA" width="135.063" height="2.875"/>
		<rect x="84.241" y="718.351" fill="#E3E3E3" width="365.5" height="3"/>
		<rect x="84.241" y="730.31" fill="#E3E3E3" width="372" height="3"/>
	</g>
</g>
</svg>
