<?xml version="1.0" encoding="utf-8"?>
<!-- Generator: Adobe Illustrator 16.0.0, SVG Export Plug-In . SVG Version: 6.00 Build 0)  -->
<!DOCTYPE svg PUBLIC "-//W3C//DTD SVG 1.1//EN" "http://www.w3.org/Graphics/SVG/1.1/DTD/svg11.dtd">
<svg version="1.1" id="Layer_1" xmlns="http://www.w3.org/2000/svg" xmlns:xlink="http://www.w3.org/1999/xlink" x="0px" y="0px"
	 width="355.051px" height="264.258px" viewBox="0 0 355.051 264.258" enable-background="new 0 0 355.051 264.258"
	 xml:space="preserve">
<g>
	<g>
		<g opacity="0.3">
			<path fill="#FFFFFF" d="M53.012,86.371c0.127-6.15,4.127-10.623,10.45-10.623c8.089,0,10.714,5.033,10.714,8.303
				c0,8.216-7.098,7.1-7.829,12.303v1.635h-5.809v-1.94c0.603-7.438,7.015-6.745,6.884-11.397c0-2.619-1.375-3.869-3.656-3.869
				c-3.098,0-4.433,2.539-4.433,5.59h-6.321V86.371z M59.937,100.57h6.754v6.625h-6.754V100.57z"/>
		</g>
		<g opacity="0.3">
			<path fill="#FFFFFF" d="M310.184,99.983l-0.302,1.243c-0.911,0.358-1.637,0.63-2.178,0.816c-0.541,0.191-1.171,0.282-1.89,0.282
				c-1.102,0-1.961-0.267-2.57-0.805c-0.61-0.538-0.915-1.221-0.915-2.045c0-0.323,0.022-0.652,0.069-0.987
				c0.045-0.336,0.117-0.713,0.221-1.138l1.137-4.025c0.104-0.385,0.188-0.75,0.256-1.094c0.068-0.348,0.102-0.659,0.102-0.941
				c0-0.515-0.102-0.874-0.315-1.081c-0.213-0.197-0.616-0.301-1.216-0.301c-0.294,0-0.598,0.045-0.904,0.137
				c-0.309,0.093-0.576,0.184-0.793,0.264l0.301-1.24c0.748-0.306,1.457-0.564,2.141-0.777c0.68-0.219,1.324-0.324,1.932-0.324
				c1.094,0,1.938,0.264,2.532,0.793c0.591,0.526,0.89,1.213,0.89,2.061c0,0.17-0.02,0.48-0.062,0.922
				c-0.042,0.439-0.118,0.844-0.229,1.213l-1.133,4.011c-0.091,0.324-0.175,0.689-0.248,1.103c-0.072,0.416-0.109,0.725-0.109,0.938
				c0,0.53,0.117,0.896,0.357,1.087c0.236,0.195,0.648,0.29,1.236,0.29c0.277,0,0.588-0.05,0.938-0.146
				C309.775,100.144,310.025,100.057,310.184,99.983z M310.475,83.156c0,0.697-0.265,1.292-0.793,1.783
				c-0.527,0.494-1.164,0.738-1.908,0.738s-1.381-0.244-1.916-0.738c-0.532-0.491-0.801-1.086-0.801-1.783
				c0-0.699,0.269-1.298,0.801-1.793c0.535-0.496,1.172-0.744,1.916-0.744s1.381,0.248,1.908,0.744
				C310.21,81.858,310.475,82.457,310.475,83.156z"/>
		</g>
		<g opacity="0.3">
			<path fill="#FFFFFF" d="M311.908,44.099h2.916l-1.996,11.294c-0.227,1.305-0.229,2.25-0.023,2.832
				c0.209,0.587,0.674,0.875,1.396,0.875c0.721,0,1.433-0.164,2.123-0.502c0.697-0.331,1.32-0.846,1.876-1.538
				c0.557-0.694,1.01-1.571,1.354-2.626c0.35-1.055,0.521-2.306,0.521-3.75c0-2.082-0.35-3.863-1.045-5.332
				c-0.693-1.474-1.645-2.691-2.854-3.648c-1.205-0.957-2.628-1.656-4.271-2.103c-1.643-0.444-3.398-0.665-5.29-0.665
				c-2.167,0-4.183,0.388-6.042,1.164c-1.862,0.777-3.477,1.848-4.854,3.209c-1.375,1.363-2.453,2.977-3.23,4.855
				c-0.776,1.875-1.167,3.91-1.167,6.103c0,2.167,0.325,4.113,0.979,5.832c0.651,1.725,1.604,3.187,2.854,4.396
				c1.25,1.21,2.8,2.141,4.646,2.795c1.85,0.654,3.967,0.98,6.354,0.98c0.803,0,1.72-0.098,2.752-0.293
				c1.021-0.194,1.958-0.489,2.79-0.876l1.292,4c-1.141,0.556-2.303,0.944-3.48,1.167c-1.182,0.223-2.529,0.336-4.061,0.336
				c-2.695,0-5.189-0.392-7.48-1.17c-2.289-0.779-4.277-1.93-5.959-3.457c-1.683-1.529-2.996-3.426-3.934-5.688
				c-0.947-2.266-1.422-4.88-1.422-7.854c0-3.028,0.543-5.763,1.626-8.211c1.083-2.443,2.54-4.525,4.372-6.248
				c1.838-1.72,3.964-3.047,6.38-3.979c2.419-0.932,4.967-1.395,7.666-1.395c2.555,0,4.932,0.369,7.125,1.104
				c2.194,0.736,4.097,1.79,5.708,3.167c1.611,1.372,2.878,3.056,3.789,5.04c0.918,1.986,1.375,4.243,1.375,6.771
				c0,1.777-0.309,3.443-0.934,5.001c-0.625,1.557-1.488,2.903-2.584,4.04c-1.099,1.14-2.375,2.043-3.834,2.711
				c-1.459,0.666-3.02,1-4.686,1c-0.698,0-1.342-0.079-1.941-0.23c-0.596-0.15-1.097-0.41-1.498-0.77
				c-0.404-0.361-0.701-0.835-0.895-1.417c-0.197-0.583-0.251-1.308-0.168-2.165h-0.168c-0.42,0.58-0.867,1.148-1.352,1.704
				c-0.488,0.559-1.025,1.048-1.607,1.479c-0.584,0.43-1.225,0.773-1.92,1.023c-0.689,0.248-1.454,0.375-2.284,0.375
				c-0.669,0-1.308-0.15-1.921-0.438c-0.612-0.296-1.139-0.702-1.586-1.23c-0.44-0.529-0.795-1.165-1.063-1.916
				c-0.268-0.752-0.393-1.585-0.393-2.5c0-1.724,0.273-3.396,0.835-5.023c0.553-1.624,1.312-3.063,2.269-4.31
				c0.959-1.249,2.071-2.259,3.334-3.019c1.262-0.768,2.604-1.151,4.02-1.151c0.974,0,1.794,0.146,2.457,0.438
				c0.671,0.293,1.283,0.674,1.837,1.146L311.908,44.099z M309.285,49.145c-0.365-0.307-0.736-0.543-1.125-0.711
				c-0.389-0.166-0.875-0.252-1.459-0.252c-0.835,0-1.605,0.238-2.313,0.71c-0.707,0.476-1.32,1.084-1.832,1.833
				c-0.517,0.75-0.912,1.593-1.188,2.523c-0.279,0.927-0.419,1.841-0.419,2.728c0,0.918,0.188,1.667,0.563,2.249
				c0.375,0.587,1.021,0.875,1.938,0.875c0.388,0,0.807-0.116,1.251-0.354c0.442-0.231,0.875-0.547,1.286-0.937
				c0.421-0.389,0.82-0.834,1.215-1.33c0.388-0.503,0.732-1.029,1.039-1.588L309.285,49.145z"/>
		</g>
		<g opacity="0.3">
			<path fill="#FFFFFF" d="M94.973,49.302h-1.87c-0.129-0.654-0.312-1.294-0.537-1.91l1.561-0.9
				c0.375-0.218,0.501-0.698,0.286-1.071l-1.565-2.709c-0.215-0.375-0.696-0.504-1.067-0.287l-1.625,0.938
				c-0.438-0.498-0.91-0.962-1.419-1.383l0.905-1.566c0.212-0.379,0.083-0.854-0.29-1.071l-2.709-1.565
				c-0.375-0.215-0.854-0.086-1.072,0.287l-0.931,1.623c-0.621-0.213-1.267-0.378-1.928-0.489v-1.806
				c0-0.435-0.347-0.783-0.781-0.783H78.8c-0.433,0-0.784,0.349-0.784,0.783v1.868c-0.654,0.131-1.293,0.312-1.905,0.54
				l-0.905-1.563c-0.216-0.375-0.694-0.5-1.07-0.287l-2.71,1.566c-0.373,0.215-0.503,0.693-0.287,1.068l0.939,1.623
				c-0.496,0.438-0.962,0.91-1.387,1.42l-1.561-0.902c-0.377-0.215-0.858-0.085-1.072,0.288l-1.57,2.707
				c-0.213,0.376-0.084,0.854,0.291,1.071l1.621,0.936c-0.212,0.62-0.375,1.264-0.486,1.923h-1.807
				c-0.437,0-0.784,0.354-0.784,0.787v3.126c0,0.434,0.348,0.784,0.784,0.784h1.869c0.13,0.655,0.311,1.295,0.539,1.908
				l-1.563,0.905c-0.375,0.214-0.503,0.694-0.286,1.068l1.566,2.71c0.214,0.372,0.694,0.5,1.069,0.286l1.62-0.938
				c0.438,0.5,0.912,0.966,1.419,1.388l-0.901,1.567c-0.215,0.373-0.086,0.852,0.286,1.069l2.714,1.563
				c0.371,0.216,0.851,0.086,1.064-0.287l0.94-1.623c0.619,0.213,1.261,0.377,1.923,0.485v1.813c0,0.43,0.349,0.78,0.778,0.78
				l3.134,0.003c0.433,0,0.781-0.354,0.781-0.783V64.39c0.655-0.13,1.295-0.309,1.911-0.536l0.9,1.559
				c0.218,0.377,0.697,0.501,1.07,0.287l2.713-1.566c0.371-0.214,0.5-0.693,0.283-1.065l-0.935-1.628
				c0.496-0.435,0.963-0.909,1.386-1.421l1.563,0.906c0.373,0.215,0.854,0.086,1.072-0.285l1.562-2.713
				c0.218-0.374,0.088-0.852-0.287-1.07l-1.618-0.934c0.211-0.619,0.372-1.266,0.487-1.923h1.805c0.432,0,0.782-0.353,0.782-0.785
				v-3.125C95.757,49.652,95.404,49.302,94.973,49.302z M80.54,59.943c-4.482,0-8.12-3.634-8.12-8.119
				c0-4.483,3.638-8.123,8.12-8.123c4.483,0,8.118,3.64,8.118,8.123C88.658,56.31,85.023,59.943,80.54,59.943z"/>
		</g>
		<g opacity="0.3">
			<g>
				<path fill="#FFFFFF" d="M34.934,53.283c-1.641,0-2.976-1.336-2.976-2.977c0-1.641,1.335-2.977,2.976-2.977
					c1.642,0,2.977,1.336,2.977,2.977C37.911,51.947,36.575,53.283,34.934,53.283L34.934,53.283z M34.934,48.212
					c-1.153,0-2.094,0.939-2.094,2.095c0,1.154,0.94,2.094,2.094,2.094c1.156,0,2.095-0.939,2.095-2.094
					C37.028,49.151,36.09,48.212,34.934,48.212L34.934,48.212z"/>
			</g>
			<g>
				<g>
					<path fill="#FFFFFF" d="M48.969,45.75c-1.641,0-2.976-1.335-2.976-2.976s1.335-2.976,2.976-2.976
						c1.642,0,2.978,1.335,2.978,2.976S50.61,45.75,48.969,45.75L48.969,45.75z M48.969,40.68c-1.154,0-2.094,0.941-2.094,2.095
						c0,1.155,0.939,2.095,2.094,2.095c1.155,0,2.096-0.939,2.096-2.095C51.064,41.621,50.124,40.68,48.969,40.68L48.969,40.68z"/>
				</g>
				<g>
					<path fill="#FFFFFF" d="M48.969,60.814c-1.641,0-2.976-1.334-2.976-2.975c0-1.642,1.335-2.977,2.976-2.977
						c1.642,0,2.978,1.335,2.978,2.977C51.946,59.48,50.61,60.814,48.969,60.814L48.969,60.814z M48.969,55.746
						c-1.154,0-2.094,0.938-2.094,2.094c0,1.154,0.939,2.094,2.094,2.094c1.155,0,2.096-0.939,2.096-2.094
						C51.064,56.685,50.124,55.746,48.969,55.746L48.969,55.746z"/>
				</g>
			</g>
			<g>
				<g>
					<path fill="#FFFFFF" d="M46.359,56.94c-0.074,0-0.15-0.019-0.219-0.06l-9.002-5.195c-0.211-0.123-0.283-0.392-0.161-0.603
						s0.392-0.283,0.602-0.161l9.001,5.195c0.211,0.122,0.284,0.391,0.161,0.603C46.66,56.861,46.512,56.94,46.359,56.94
						L46.359,56.94z"/>
				</g>
				<g>
					<path fill="#FFFFFF" d="M37.359,49.75c-0.152,0-0.301-0.078-0.382-0.22c-0.122-0.211-0.05-0.481,0.161-0.603l9.002-5.197
						c0.209-0.12,0.479-0.051,0.601,0.162c0.123,0.211,0.05,0.481-0.161,0.602l-9.001,5.198C37.51,49.732,37.435,49.75,37.359,49.75
						L37.359,49.75z"/>
				</g>
			</g>
		</g>
		<path fill="#DCE4E6" d="M182.68,100.023h2.715c0.631,0,1.313-0.484,1.51-1.083l0.509-1.229c0.276-0.566,0.147-1.384-0.3-1.831
			l-1.914-1.916c-0.449-0.445-0.449-1.176,0-1.613l2.957-2.971c0.449-0.443,1.172-0.443,1.623,0l1.916,1.918
			c0.449,0.443,1.27,0.576,1.839,0.295l1.226-0.504c0.588-0.195,1.078-0.874,1.078-1.51v-2.705c0-0.633,0.516-1.146,1.141-1.146
			h4.199c0.631,0,1.141,0.513,1.141,1.146v2.705c0,0.636,0.484,1.314,1.089,1.51l1.223,0.504c0.572,0.281,1.392,0.148,1.831-0.295
			l1.921-1.918c0.438-0.443,1.175-0.443,1.613,0l2.974,2.971c0.438,0.438,0.438,1.168,0,1.613l-1.926,1.916
			c-0.441,0.447-0.57,1.265-0.298,1.831l0.505,1.229c0.203,0.599,0.879,1.083,1.512,1.083h2.713c0.627,0,1.141,0.516,1.141,1.145
			v4.191c0,0.629-0.514,1.145-1.141,1.145h-2.713c-0.633,0-1.309,0.489-1.512,1.083l-0.505,1.229
			c-0.272,0.561-0.146,1.386,0.298,1.832l1.926,1.914c0.438,0.449,0.438,1.174,0,1.625l-2.974,2.966c-0.438,0.44-1.175,0.44-1.613,0
			l-1.921-1.921c-0.439-0.447-1.259-0.578-1.831-0.303l-1.223,0.517c-0.604,0.191-1.089,0.872-1.089,1.495v2.713
			c0,0.634-0.51,1.15-1.141,1.15h-4.199c-0.625,0-1.141-0.517-1.141-1.15v-2.713c0-0.623-0.49-1.304-1.078-1.495l-1.226-0.517
			c-0.569-0.275-1.39-0.145-1.839,0.303l-1.916,1.921c-0.451,0.44-1.174,0.44-1.623,0l-2.957-2.966
			c-0.449-0.451-0.449-1.176,0-1.625l1.914-1.914c0.447-0.446,0.576-1.271,0.3-1.832l-0.509-1.229
			c-0.197-0.594-0.879-1.083-1.51-1.083h-2.715c-0.627,0-1.139-0.516-1.139-1.145v-4.191
			C181.541,100.539,182.053,100.023,182.68,100.023z M199.078,108.79c3.053,0,5.521-2.471,5.521-5.529
			c0-3.05-2.47-5.522-5.521-5.522c-3.053,0-5.525,2.473-5.525,5.522C193.553,106.319,196.025,108.79,199.078,108.79z"/>
		<g>
			<g>
				<path fill="#E6E6E5" d="M165.056,218.271c-2.314,6.901-4.63,13.808-6.946,20.709c20.133,0,40.268,0,60.404,0
					c-2.318-6.901-4.633-13.808-6.949-20.709C196.061,218.271,180.561,218.271,165.056,218.271z"/>
				<path fill="#FFFFFF" d="M221.945,237.031h-67.271c-1.709,0-3.094,1.628-3.094,3.636v1.36h73.46v-1.36
					C225.04,238.659,223.654,237.031,221.945,237.031z"/>
				<path fill="#FFFFFF" d="M87.152,201.059v14.453c0,2.787,2.252,5.037,5.037,5.037H284.43c2.779,0,5.038-2.25,5.038-5.037v-14.453
					H87.152z"/>
				<path fill="#0F303F" d="M289.469,201.059V78.678c0-2.787-2.259-5.039-5.037-5.039H92.189c-2.785,0-5.037,2.252-5.037,5.039
					v122.381H289.469L289.469,201.059z"/>
				<rect x="95.73" y="81.797" fill="#DFF3FD" width="185.159" height="110.616"/>
				<polygon opacity="0.3" fill="#FFFFFF" enable-background="new    " points="95.73,192.413 280.889,81.797 280.889,192.413 				
					"/>
			</g>
			<g>
				<g>
					<g>
						<g>
							<rect x="126.815" y="155.752" fill="#F79421" width="16.77" height="8.783"/>
							<rect x="135.194" y="155.752" fill="#F15C27" width="8.391" height="8.783"/>
						</g>
						<g>
							<rect x="153.366" y="142.872" fill="#F79421" width="16.77" height="21.664"/>
							<rect x="161.752" y="142.872" fill="#F15C27" width="8.384" height="21.664"/>
						</g>
						<g>
							<rect x="179.924" y="105.458" fill="#F79421" width="16.768" height="59.078"/>
							<rect x="188.311" y="105.458" fill="#F15C27" width="8.381" height="59.078"/>
						</g>
						<g>
							<rect x="206.477" y="118.137" fill="#F79421" width="16.769" height="46.398"/>
							<rect x="214.863" y="118.137" fill="#F15C27" width="8.381" height="46.398"/>
						</g>
						<g>
							<rect x="233.027" y="89.82" fill="#F79421" width="16.775" height="74.716"/>
							<rect x="241.418" y="89.82" fill="#F15C27" width="8.387" height="74.716"/>
						</g>
					</g>
				</g>
				<polyline fill="none" stroke="#FFFFFF" stroke-miterlimit="10" points="134.303,161.083 161.396,159.381 187.954,132.093 
					214.507,135.95 241.064,110.597 				"/>
				<circle fill="#FFFFFF" cx="135.185" cy="161.082" r="1.103"/>
				<circle fill="#FFFFFF" cx="161.64" cy="159.318" r="1.103"/>
				<circle fill="#FFFFFF" cx="188.094" cy="131.982" r="1.102"/>
				<circle fill="#FFFFFF" cx="214.549" cy="135.51" r="1.102"/>
				<circle fill="#FFFFFF" cx="241.005" cy="110.817" r="1.103"/>
			</g>
		</g>
		<g>
			<path fill="#4E4E4E" d="M263.879,136.273c-5.479-5.785-12.865-9.093-20.809-9.313c-7.963-0.219-15.537,2.684-21.329,8.18
				c-5.759,5.475-9.056,12.853-9.274,20.774c-0.451,16.414,12.535,30.145,28.952,30.597c7.968,0.221,15.547-2.69,21.337-8.188
				c5.762-5.471,9.049-12.844,9.271-20.76C272.248,149.622,269.354,142.058,263.879,136.273z M259.877,175.288
				c-4.986,4.732-11.5,7.229-18.343,7.043c-14.115-0.388-25.276-12.188-24.884-26.297c0.192-6.812,3.022-13.15,7.977-17.852
				c4.979-4.729,11.489-7.227,18.324-7.04c6.83,0.188,13.181,3.026,17.889,8.008c4.705,4.972,7.195,11.476,7.008,18.297
				C267.659,164.25,264.834,170.584,259.877,175.288z"/>
			<path fill="#159AA0" d="M299.016,216.737c-0.002-0.001-0.002,0.008-0.007,0.012c-2.437,2.301-6.759,1.689-9.655-1.367
				l-22.635-23.93c-2.889-3.062-3.26-7.396-0.836-9.697c0.008-0.002,0.01-0.006,0.012-0.015c2.438-2.296,6.762-1.688,9.649,1.371
				l22.646,23.937C301.072,210.098,301.441,214.435,299.016,216.737L299.016,216.737z"/>
			<path fill="#19B0BF" d="M275.63,192.107c-0.002,0.001-0.003,0.004-0.01,0.009c-2.433,2.307-5.097,3.442-5.946,2.538l-6.648-7.092
				c-0.844-0.908,0.433-3.507,2.857-5.81c0.004-0.004,0.008-0.008,0.012-0.014c2.433-2.303,5.096-3.441,5.943-2.533l6.65,7.092
				C279.336,187.206,278.057,189.805,275.63,192.107L275.63,192.107z"/>
			<g>
				<path fill="none" d="M260.311,175.743"/>
			</g>
			<path opacity="0.2" fill="#BBE4ED" enable-background="new    " d="M224.627,138.183c-4.953,4.7-7.783,11.04-7.977,17.853
				c-0.394,14.108,10.769,25.908,24.884,26.295c6.843,0.188,13.354-2.31,18.343-7.043l0,0c4.957-4.701,7.782-11.035,7.971-17.84
				c0.188-6.82-2.303-13.326-7.008-18.297c-4.708-4.98-11.059-7.819-17.889-8.008C236.116,130.956,229.605,133.454,224.627,138.183
				L224.627,138.183z"/>
			<path opacity="0.2" fill="#FFFFFF" enable-background="new    " d="M230.734,175.502c-4.287-4.532-6.553-10.453-6.381-16.672
				c0.174-6.209,2.758-11.987,7.271-16.271c4.525-4.302,10.445-6.581,16.665-6.42l0.035,0.001c2.419,0.066,4.771,0.503,6.993,1.271
				c-3.646-2.481-7.922-3.881-12.43-4.006h-0.035c-6.221-0.162-12.139,2.117-16.666,6.418c-4.516,4.284-7.098,10.063-7.271,16.272
				c-0.175,6.218,2.092,12.138,6.381,16.672c2.621,2.771,5.806,4.812,9.306,6.021C233.217,177.848,231.917,176.752,230.734,175.502z
				"/>
			<path fill="#676767" d="M241.534,182.331c-14.115-0.388-25.276-12.188-24.884-26.297c0.192-6.812,3.022-13.15,7.977-17.852
				c4.979-4.729,11.489-7.227,18.324-7.04l0,0l0.07-2.496c-0.02,0-0.033-0.001-0.055-0.002c-7.492-0.193-14.615,2.544-20.063,7.715
				c-5.434,5.164-8.545,12.124-8.752,19.599c-0.43,15.487,11.82,28.441,27.313,28.871L241.534,182.331
				C241.536,182.331,241.535,182.329,241.534,182.331z"/>
			<path fill="#4E4E4E" d="M268.939,179.534c-1.53-1.658-3.063-3.326-4.602-4.996c-0.715-0.759-1.675-1.17-2.621-1.19
				c-0.58,0.672-1.195,1.315-1.847,1.933c-0.679,0.643-1.382,1.244-2.108,1.807c-0.037,0.945,0.319,1.927,1.033,2.682
				c1.535,1.67,3.076,3.346,4.622,5.025c1.491,1.578,3.31,1.104,4.856-0.402c0.002-0.002,0.004-0.005,0.01-0.005
				C269.854,182.896,270.423,181.093,268.939,179.534z"/>
			<path fill="#19B0BF" d="M295.277,212.071l-25.248-26.66c-0.125,0.129-0.256,0.258-0.391,0.387c-0.004,0-0.007,0.006-0.011,0.01
				c-0.938,0.889-1.907,1.602-2.799,2.093l25.508,26.937c1.338,1.41,3.084,1.938,3.888,1.182l0.008-0.01
				C297.04,215.245,296.607,213.477,295.277,212.071z"/>
		</g>
		<g>
			<path fill="#0C242D" d="M165.051,176.422c0-1.529-0.967-2.422-2.552-2.422H44.646c-1.584,0-2.595,0.893-2.595,2.422v71.283
				c0,1.53,1.011,3.295,2.595,3.295H162.5c1.585,0,2.552-1.765,2.552-3.295v-71.283H165.051z"/>
			<rect x="49.482" y="179.646" fill="#DFF3FD" width="108.466" height="62.856"/>
			<polygon opacity="0.3" fill="#FFFFFF" enable-background="new    " points="157.948,179.646 157.948,242.504 49.482,242.504 			
				"/>
			<g>
				<g>
					<g>
						<g>
							<rect x="62.974" y="229.855" fill="#F79421" width="11.095" height="5.81"/>
							<rect x="68.518" y="229.855" fill="#F15C27" width="5.551" height="5.81"/>
						</g>
						<g>
							<rect x="80.539" y="221.333" fill="#F79421" width="11.093" height="14.332"/>
							<rect x="86.085" y="221.333" fill="#F15C27" width="5.547" height="14.332"/>
						</g>
						<g>
							<rect x="98.106" y="196.583" fill="#F79421" width="11.092" height="39.082"/>
							<rect x="103.653" y="196.583" fill="#F15C27" width="5.545" height="39.082"/>
						</g>
						<g>
							<rect x="115.672" y="204.971" fill="#F79421" width="11.092" height="30.693"/>
							<rect x="121.221" y="204.971" fill="#F15C27" width="5.543" height="30.693"/>
						</g>
						<g>
							<rect x="133.235" y="186.239" fill="#F79421" width="11.099" height="49.426"/>
							<rect x="138.786" y="186.239" fill="#F15C27" width="5.548" height="49.426"/>
						</g>
					</g>
				</g>
				<polyline fill="none" stroke="#FFFFFF" stroke-miterlimit="10" points="67.807,233.381 85.731,232.254 103.299,214.204 
					120.863,216.756 138.433,199.984 				"/>
				<circle fill="#FFFFFF" cx="68.392" cy="233.381" r="0.729"/>
				<circle fill="#FFFFFF" cx="85.891" cy="232.213" r="0.729"/>
				<circle fill="#FFFFFF" cx="103.392" cy="214.131" r="0.729"/>
				<circle fill="#FFFFFF" cx="120.892" cy="216.464" r="0.729"/>
				<circle fill="#FFFFFF" cx="138.393" cy="200.13" r="0.729"/>
			</g>
		</g>
		<g>
			<path fill="#F7D420" d="M104.037,156.734c0,1.248-0.941,2.256-2.104,2.256h-4.077v8.462l-9.995-8.462H61.834
				c-1.163,0-2.105-1.008-2.105-2.256v-25.603c0-1.248,0.942-2.257,2.105-2.257h40.099c1.163,0,2.104,1.009,2.104,2.257V156.734z"/>
			<path fill="#FFFFFF" d="M41.951,148.665c0,1.248,0.942,2.254,2.104,2.254h4.077v8.463l9.995-8.463h26.028
				c1.163,0,2.106-1.006,2.106-2.254V123.06c0-1.248-0.943-2.255-2.106-2.255H44.056c-1.162,0-2.104,1.007-2.104,2.255
				L41.951,148.665L41.951,148.665z"/>
			<rect x="48.59" y="129.033" fill="#F3F3F3" width="31.033" height="1.936"/>
			<rect x="48.59" y="135.167" fill="#F3F3F3" width="31.033" height="1.938"/>
			<rect x="48.59" y="141.299" fill="#F3F3F3" width="24.156" height="1.938"/>
		</g>
		<g>
			<path fill="#FFFFFF" d="M280.096,51.824c0,6.72-5.537,12.215-12.31,12.215H117.217c-6.771,0-12.311-5.495-12.311-12.215
				c0-6.717,5.539-12.214,12.311-12.214h150.569C274.559,39.61,280.096,45.107,280.096,51.824z"/>
			<g>
				<path fill="#CCCCCC" d="M265.294,45.865c-2.448,0-4.438,1.994-4.438,4.441c0,2.448,1.99,4.441,4.438,4.441
					s4.442-1.993,4.442-4.441C269.736,47.859,267.742,45.865,265.294,45.865z M265.294,53.152c-1.571,0-2.845-1.273-2.845-2.846
					c0-1.57,1.271-2.845,2.845-2.845c1.571,0,2.845,1.274,2.845,2.845C268.139,51.879,266.865,53.152,265.294,53.152z"/>
				<g>
					<path fill="#CCCCCC" d="M271.288,57.278c-0.122,0-0.247-0.049-0.337-0.147l-3.395-3.585c-0.178-0.187-0.17-0.481,0.018-0.658
						c0.189-0.177,0.482-0.17,0.658,0.018l3.394,3.588c0.177,0.188,0.171,0.481-0.019,0.659
						C271.52,57.236,271.4,57.278,271.288,57.278L271.288,57.278z"/>
				</g>
				<g>
					<path fill="#CCCCCC" d="M271.288,57.783c-0.259,0-0.515-0.103-0.704-0.305l-2.121-2.242c-0.367-0.387-0.352-1,0.038-1.369
						c0.392-0.366,1.004-0.351,1.372,0.038l2.119,2.242c0.369,0.387,0.352,1.003-0.037,1.37
						C271.768,57.695,271.527,57.783,271.288,57.783L271.288,57.783z"/>
				</g>
			</g>
		</g>
	</g>
</g>
</svg>
