<?xml version="1.0" encoding="utf-8"?>
<!-- Generator: Adobe Illustrator 16.0.0, SVG Export Plug-In . SVG Version: 6.00 Build 0)  -->
<!DOCTYPE svg PUBLIC "-//W3C//DTD SVG 1.1//EN" "http://www.w3.org/Graphics/SVG/1.1/DTD/svg11.dtd">
<svg version="1.1" id="Layer_1" xmlns="http://www.w3.org/2000/svg" xmlns:xlink="http://www.w3.org/1999/xlink" x="0px" y="0px"
	 width="355.051px" height="264.259px" viewBox="0 0 355.051 264.259" enable-background="new 0 0 355.051 264.259"
	 xml:space="preserve">
<g>
	<g>
		<g opacity="0.15">
			<g>
				<path fill="#FFFFFF" d="M140.729,78.515c0.883,0,0.555-1.289,1.793-0.957c1.65,0.619,2.604,2.01,4.902,1.916
					c1.517-1.143-2.137-2.119-0.887-2.859c0.668,0.242,1.131,0.705,1.783,0.943c0.353-1.646-0.5-2.011-0.896-2.859
					c3.686-0.205,2.477-5.009,1.809-7.627c1.091-0.387,2.383-0.62,3.999-0.469c-0.116-2.107-2.398-1.888-3.559-2.871
					c1.39,0.23,0.996-1.451,2.663-0.957c0.319-1.449-0.765-1.393-0.444-2.862c1.597,0.265,1.101-1.688,2.687-1.429
					c1.117-0.391,3.839,0.938,3.573-0.945c0.412-1.738-1.938-0.484-2.233-1.438c-1.055-0.143-0.839-1.65-2.233-1.43
					c-1.932-0.285-4.012,1.721-4.912,0.965c0.275-2.41,3.934-1.214,4.459-3.34c-0.929-1.385-2.89-1.668-5.368-1.434
					c-1.438-0.549-3.217-1.26-4.012,0c-0.374-0.7-1.424-0.691-2.225-0.967c-1.797,1.27-6.182-0.227-8.02,0.967
					c-2.066,0.049-4.543-0.385-5.381,0.961c-0.039,1.036,1.223,3.088,0.436,3.32c-3.222-0.54-5.039,0.332-8.01-0.473
					c-4.477,0.661-6.563,3.793-11.171,4.301c-0.424,1.723,2.005,0.385,1.773,1.916c-1.289,1.152-3.68,1.123-4.89,2.381
					c-1.104-0.62-2.55-0.522-3.136,1.423c1.429-0.413,1.382,0.752,2.229,0.94c-0.013-1.262,2.235-1.262,2.235,0
					c1.086-0.279,3.035-2.118,3.12,0.495c-1.907,0.188-4.586-0.468-5.806,0.476c0.409,1.782,2.1,2.195,3.581,2.846
					c1.376,0.349,0.842-1.309,2.225-0.946c1.361,0.94,2.738,1.851,5.361,1.435c-0.362,2.117,0.308,3.17,0.897,4.287
					c-0.149,1.114-0.71,1.797-0.445,3.334c1.78,0.934,2.062-2.191,3.131-0.463c0.243,1.699-1.351,1.447-2.686,1.42
					c0.376,2.14,3.394,1.474,4.011,3.341c-1.014,0.823-2.249,1.397-3.126,2.388c1.257,0.622-1.387,0.979-0.885,2.38
					c3.183,2.303,0.716,7.751,3.111,10.971c1.048,0,2.096,0,3.134,0c1.296,0.06,0.779,2.026,2.225,1.9
					c0.45-0.956,0.773-2.037,1.798-2.395c-0.541-3.594,2.226-3.64,1.79-7.145c1.141-0.036,0.625-1.853,1.771-1.905
					c1.703,0.969,1.703-1.131,3.582,0c0.709-0.65,1.401-1.349,2.237-1.892c2.156-0.577,3.108-2.415,5.348-2.864
					c0.182-1.721,3.943-2.137,2.68-3.82C143.853,80.562,141.975,78.654,140.729,78.515z M145.202,76.615
					c-1.195-0.853,0-3.15,1.336-2.854C146.313,74.933,145.344,75.338,145.202,76.615z M148.321,53.721
					c-0.031,1.413-1.007,1.771-1.783,2.38c-1.366-0.927-3.385-1.137-5.809-0.957C142.242,53.183,146.426,54.019,148.321,53.721z"/>
				<path fill="#FFFFFF" d="M85.373,60.888c0,0.938,0,1.887,0,2.844c1.357-0.331,1.618,0.493,2.66,0.48
					c0.205-2.172,2.899-4.205,4.474-3.324c0.677,1.996-2.314,0.063-2.224,1.419c1.347,0.72-1.545,0.856-1.346,1.905
					c1.162-0.293,1.59,0.191,1.346,1.42c-1.052,0.019-1.32-0.822-2.688-0.458c0.067,1.351-1.5,0.931-0.888,2.858
					c2.664-0.371,4.588-0.664,5.8,1.416c-3.544,0.82-5.832-1.883-8.038-0.946c-0.354,2.296,2.705,0.933,2.69,2.876
					c3.368-0.516,7.889,2.114,8.92-1.441c1.164,0.145,1.916-0.178,1.786-1.435c0.331-1.294-2.084,0.352-1.786-0.95
					c1.031,0,2.097,0,3.134,0c-0.014-2.542,2.723-2.186,2.231-5.245c2.31-0.073,2.529-2.378,5.38-1.92
					c0.544-1.144,1.422-1.923,3.104-1.903c0.574-1.182-0.992-2.311,0-2.383c1.873-0.914,4.612,0.479,5.36-2.38
					c0-0.782-1.247-0.257-1.326-0.952c-7.315,1.06-17.279-1.388-25.025,1.902c-0.599,2.881,1.924,2.398,2.229,4.301
					c-2.901,0.244-2.02-3.573-5.343-2.871c-0.144,0.656-0.657,0.916-0.451,1.921c-0.721,0.032-1.553-0.077-1.345,0.95
					C83.64,60.499,85.193,59.959,85.373,60.888z M94.745,69.449c0.23,0.25-0.329,0.633-0.455,0.488
					C94.061,69.69,94.616,69.318,94.745,69.449z"/>
				<path fill="#FFFFFF" d="M195.2,59.913c0.231-1.335,2.34-0.687,1.796-2.851c-4.083-0.7-7.991-0.852-11.615-0.961
					c-0.032,0.848,0.104,1.497,0.438,1.921C188.64,58.985,190.955,60.488,195.2,59.913z"/>
				<path fill="#FFFFFF" d="M177.802,62.307c-0.058,1.179-0.839,1.475,0,2.385c1.834-0.101,1.898-2.113,4.006-1.917
					c-0.108,2.126-2.189,2.121-2.223,4.297c0.746,0.636,1.498,1.254,3.135,0.961c-0.215,1.487,0.939,1.523,2.225,1.416
					c0.388-1.787,0.776-3.593,1.339-5.236c1.179,1.268,1.859,3.106,4.916,2.391c0.396-3.635-2.361-3.856-3.572-5.715
					c-0.135,1.111-1.202-0.559-1.809-0.501c-1.085,0.085-1.831-0.239-2.196-0.938c1.039-1.271-0.379-2.801-2.249-2.387
					c-1.312,0.771,0.707,2.473-0.453,2.851c-0.948-2.259-5.212-4.495-5.368,0C175.767,61.299,177.476,61.044,177.802,62.307z"/>
				<path fill="#FFFFFF" d="M222.88,58.972c-0.04-3.014-4.149-1.986-4.006,0.477C220.397,60.932,221.223,58.786,222.88,58.972z"/>
				<path fill="#FFFFFF" d="M247.91,61.826c3.509-0.635,7.192,1.66,8.023-1.438c-1.05-1.84-5.135-2.616-7.575-1.415
					C247.354,59.031,248.143,60.979,247.91,61.826z"/>
				<path fill="#FFFFFF" d="M338.101,90.437c1.048-0.155,0.831-1.643,2.21-1.418c2.337,0.045,2.021,2.936,4.915,2.363
					c0.585-0.846-0.399-2.394,0.453-3.799c-1.188-0.582-2.921-3.134-4.007-0.96c0.137-1.104-0.083-1.827-0.443-2.38
					c-2.434-0.934-3.726-3.054-7.595-2.388c-0.516-0.887-1.725-1.015-2.233-1.911c-2.922,0.416-3.545-1.631-6.709-0.958
					c-0.617,1.4,1.231,2.44,0,2.869c-1.292-0.208-1.056-2.061-2.222-2.382c-1.314,1.475-3.726,0.14-6.29,0.957
					c-1.593-1.115-1.476-4.121-4.876-3.336c-0.647,0.107-0.152,1.42-0.906,1.42c-1.861-0.863-3.678-1.799-5.349-2.84
					c-0.2,0.416-0.391,0.829-0.888,0.939c0.558-1.873-1.068-1.422-2.243-1.422c1.101-1.133-0.482-1.08-0.876-1.922
					c-2.152,0.842-1.995-0.273-4.022-0.468c-0.156,0.638-1.134,0.394-1.785,0.468c-0.45,0.893,1.332,1.601,0,1.922
					c-3.839-0.65-8.714,0.846-12.075,0c-1.125-0.305-1.558-1.764-2.661-1.432c-2.069,0.504-3.445-0.498-4.926-0.958
					c-0.522-0.19-1.229,0.107-1.768,0c-1.121-0.227-1.968-1.519-4.463-0.974c0.169-1.222,1.314-1.436,1.329-2.848
					c-0.631-1.399-2.063-1.923-2.675-3.35c-1.349,0.641-3.419,0.505-5.362,0.495c-1.116-0.403-0.937-2.165-2.68-1.915
					c-1.048,0.479-1.426,1.644-1.339,3.34c-2.215-0.771-1.423,1.67-3.126,1.43c-0.856-0.195-0.359-1.854-1.786-1.43
					c-1.156,1.309-2.773,2.138-5.345,1.896c-0.795,0.614-1.184,1.619-2.681,1.447c-0.63,0.604-0.206,2.326-1.362,2.375
					c-0.919,0.303-3.088-0.773-2.648,0.953c0,1.75,2.597,0.699,2.219,2.871c-1.643-0.517-2.085-2.23-4.478-1.902
					c0,1.244,0.252,2.798-0.894,2.855c-0.516-0.568-0.516-1.703-0.446-2.855c-1.74-0.42-0.718,2.07-2.67,1.422
					c-0.699-0.853-0.611-2.546-2.678-1.916c-1.261,2.006-2.968,3.523-4.48,5.246c-2.894,0.229-2.675-0.889-5.793-0.958
					c-0.722,2.354,2.31,0.726,1.781,2.869c-1.863-0.464-3.863,0.242-6.699,0c-2.011,0.87-3.11,2.716-5.354,3.331
					c0-0.943,0-1.893,0-2.859c-1.109,0.077-2.151,0.084-2.674-0.472c0.108,2.667,0.018,5.095-2.682,4.768
					c0.148,1.761-1.635,1.427-2.68,1.909c-1.105,0.638,0.794,1.43-0.455,1.904c-2.612,0.563-2.764-3.451-2.667-4.278
					c2.072,0.013,4.354-0.212,5.802,0.465c1.191-2.989-2.51-4.53-5.366-4.768c-0.696-1.16-1.899-1.776-3.554-1.911
					c-0.62-1.105-1.266-2.134-2.244-2.85c-1.333,0-2.675,0-4.03,0c-1.207,0.902-2.351,1.932-3.547,2.85
					c-0.206-0.697-0.586,0.2-1.362,0c-1.592,1.807-3.592,3.151-5.343,4.785c-0.505,2.172-1.401,3.916-2.68,5.226
					c-0.087-0.552-0.824-0.391-1.342-0.468c0,0.63,0,1.266,0,1.895c-2.837,0.187-3.13,3.02-4.034,5.257
					c0.904,1.124,1.032,3.047,0.904,5.236c0.431,1.289,2.82,0.515,3.58,1.441c-0.976,1.403-1.789,1.929-1.789,3.343
					c0.95-0.227,0.838,0.666,0.887,1.43c-1.588,0.032-2.588,0.739-4.009,0.934c-0.411,0.861-1.265,1.227-0.908,2.875
					c-2.535-0.809-0.994,2.748-3.121,2.377c0.071,0.568-0.092,0.85-0.463,0.953c-1.96-0.207-2.354,1.294-3.571,1.924
					c-1.076,0.256-2.277,0.405-2.203,1.9c0.575,0.648,1.933,0.466,3.104,0.479c-0.211,2.153,2.071,1.611,1.803,3.819
					c-0.459,0.634-0.449,1.771-1.355,1.899c-2.078-1.138-3.925,0.429-6.684,0c-0.452,1.575,0.992,5.194-0.913,5.255
					c0.331,1.4,1.36,2.057,0.913,4.287c2.072-0.475,2.697,0.62,4.024,0.945c1.667-0.914,1.887-0.914,3.561,0
					c1.013-1.928,2.553-3.324,2.224-6.676c1.963-0.608,1.631-3.658,4.018-3.812c1.897,1.192,2.661-0.333,4.484-0.476
					c-1.264,1.854-0.626,4.834,0,7.154c2.824-0.271,1.068-2.701,1.329-5.253c-0.452-0.008-0.562-0.839,0-0.95c0,0.32,0,0.643,0,0.95
					c0.921,0.145,0.888,1.279,1.353,1.917c2.164,0.051,3.509,0.973,4,2.866c-0.072,1.03-1.115,1.011-2.239,0.937
					c-0.058,1.673,1.581,1.504,2.239,2.396c-0.211-2.147,1.203-2.532,2.232-3.333c0.25-1.078-0.844-0.683-0.897-1.448
					c0.826-1.49,1.516,1.611,2.26,0c-1.228-2.52-6.778-2.943-5.358-6.66c1.326,2.18,3.849,3.205,5.358,5.242
					c0.248,0.364,0.63,1.484,0.871,1.912c0.35,0.595,1.085,1.141,0.904,1.891c0,0.977,0,1.915,0,2.861
					c0.575,0.648,1.944,0.469,3.127,0.48c0.747-1.64-0.803-3.987,0.433-5.727c0.474,0,0.909,0,1.338,0
					c-0.498,1.88-0.074,1.779-0.429,3.804c0.998-0.167,0.595,1.383,1.333,1.923c1.624,1.215,4.604,0.843,5.798,0
					c1.338,0.691-1.161,2.477,0.887,2.393c1.843,0.352,0.098-3.088,2.255-2.393c0,0.957,0,1.921,0,2.854
					c-1.314,0.84-0.412,4.039-2.255,4.291c-3.247-1.269-7.296-1.717-11.612-1.893c-1.288,0.362-1.064,2.349-2.224,2.87
					c-2.054-2.267-6.117-2.392-8.021-4.775c0.342-1.651-0.512-2.022-0.898-2.868c1.041-0.134,1.021-1.277,0.434-1.905
					c-2.7-0.034-4.848,0.537-6.701,1.427c-3.619-0.227-6.76,0.066-8.49,1.921c-0.38-1.003-1.291-1.471-2.666-1.442
					c-0.371,1.68-1.975,2.019-3.117,2.868c-1.215,2.239-0.759,5.162-1.776,7.146c-0.671,1.259-3.066,2.548-4.035,3.822
					c-0.073,2.786-1.101,4.548-2.239,6.2c0,4.126,0,8.252,0,12.394c1.544,1.852,2.893,3.922,3.586,6.667
					c2.056,1.302,3.436,3.336,6.244,3.813c1.801-0.471,3.934-0.572,6.253-0.471c0.924-0.773,0.862-2.571,2.696-2.388
					c0.796,0.079,0.253,1.614,0.901,1.901c2.056-0.304,2.844,0.766,4.446,0.957c0.764-0.419,1.136-1.33,2.682-0.957
					c0.448,3.687-0.951,5.372-0.902,8.599c1.273,2.445,3.452,4.295,2.686,7.625c1.18,1.604,1.26,4.371,1.788,6.674
					c-1.105,2.168-0.851,5.746-1.788,8.1c1.914,1.943,3.296,4.426,4.037,7.638c0,1.437,0,2.858,0,4.294
					c1.978,2.477,1.928,7.127,4.005,9.538c4.294-0.333,6.445-2.947,10.272-3.813c0.678-2.623,2.035-4.493,4.005-5.726
					c-0.224-1.849,0.804-2.331,0.436-4.294c0.802-0.431,1.147-1.331,2.69-0.962c0.049-5.498,1.872-9.1,5.369-10.965
					c0.652-3.879,0.652-9.467,0-13.343c0.942-1.849,1.708-3.878,2.21-6.203c1.069-0.771,1.97-1.71,3.137-2.39
					c2.124-3.29,4.052-6.803,6.258-9.997c0.341-1.789,0.934-4.223-0.459-5.255c-1.91-0.289-1.803,1.56-3.554,1.434
					c-1.36,0-2.68,0-4.026,0c-0.215-3.265-2.439-4.396-4.032-6.197c0.396-3.136-2.65-2.572-1.779-6.211
					c-0.759-1.082-2.15-1.516-2.675-2.853c0.424-1.436-0.641-3.71,0-3.811c1.064,0.815,2.265,3.316,1.776,4.285
					c1.875,1.997,3.114,4.618,4.92,6.681c1.066,1.984,0.896,4.963,3.137,6.672c3.109-1.107,5.296-3.227,8.917-3.828
					c0.626-0.278,0.078-1.826,0.884-1.891c1.938-0.333,2.75-1.85,4.475-2.398c-0.318-2.078,1.309-2.119,1.347-3.802
					c-0.771-1.718-3.071-1.821-2.693-4.763c-1.688-0.236-2.839,0.132-3.564,0.93c-0.369-1.801-2.015-2.284-1.796-4.76
					c-1.44,0.123-1.289-1.465-2.215-1.905c0.663-0.253,1.121-0.69,1.782-0.957c2.468,1.646,1.728,6.729,6.255,6.204
					c0.182,0.918,1.266,0.878,0.885,2.388c2.161,0.237,2.479-1.478,4.475-1.425c0.455,0.3,0.463,1.08,1.337,0.957
					c3.106-0.496,3.88,1.568,5.778,2.367c-0.737-0.167-0.832,0.377-0.863,0.964c0.46,0.91,2.043,0.646,2.685,1.429
					c-0.236,1.5,0.798,1.678,0.417,3.337c1.358,1.589,1.935,3.991,2.688,6.201c0.944,0.913,1.864,1.827,2.256,3.328
					c0,0.965,0,1.921,0,2.879c0.557,0.66,1.931,0.456,3.109,0.468c0.593-3.045,2.19-4.975,1.779-9.061c0.615,0,1.192,0,1.794,0
					c0-0.64,0-1.27,0-1.918c1.687,0.709,0.863-1.292,2.225-0.938c-0.126-2.191,1.634-2.404,2.24-3.821
					c1.085-0.908,2.35-1.615,4.013-1.903c1.015,1.309,1.021,3.688,2.693,4.308c0.155,1.119-0.823,1.01-0.476,2.355
					c0.501,1.556,3.552,0.358,4.492,1.428c-0.601,1.012,0.223,1.42-0.46,2.876c1.166,0.497,1.989,1.368,2.231,2.859
					c-0.163,0.9-1.273,0.86-0.885,2.39c0.136,1.439,1.378,1.695,0.885,3.813c2.151,1.984,4.178,4.123,6.696,5.725
					c0.118-3.15-2.102-3.778-2.223-6.686c-1.244-0.913-2.429-1.859-3.131-3.338c0.204-1.543-0.589-4.111,0.888-4.29
					c0.979,1.354,1.681,3.001,3.6,3.336c0.333,0.44,0.469,1.072,0.419,1.902c4.338-0.607,5.395-4.733,4.91-10.478
					c-0.572-0.482-1.642-0.476-2.227-0.953c0.568-2.104-2.14-1.959-0.892-3.344c1.309-1.33,1.165,1.569,3.118,0.957
					c0.323-2.044,2.591-2.023,4.918-1.916c1.416-2.296,3.318-4.064,4.012-7.156c0.726,0.141,0.767-0.441,1.341-0.457
					c0.749-1.938-0.1-5.514,1.347-6.669c-0.951-0.439-1.347-1.415-1.347-2.888c-0.752-0.595-1.737-0.979-1.774-2.375
					c-0.197-1.144,0.823-1.043,0.434-2.379c0.925,0.146,1.41-0.096,1.341-0.978c1.281-0.603-2.013-2.847,0.904-2.847
					c0.506,1.521,2.051,1.922,2.686,3.343c-0.438,2.518,0.837,3.239,2.241,3.819c2.674-2.078-0.094-7.321,1.33-10.963
					c0.938-0.906,2.282-1.377,3.57-1.917c1.032-2.23,1.943-4.581,3.552-6.198c0.618-3.842-1.014-7.799,0-10.492
					c-0.608,2.723,1.031,3.045,1.348,4.768c0.088,2.957,0.223,5.813,2.243,6.67c0.83-0.844-0.365-1.207,0-2.846
					c1.217-0.057,0.897,0.793,1.781,0c0.078-1.516-1.186-1.618-0.884-3.355c-1.613-0.324-2.033-1.945-2.688-3.329
					c-0.165-1.718,0.16-3.987-1.325-4.296c-0.934,0.122-0.12,2.12-1.336,1.918c-0.756-3.512-3.79,2.192-4.934-1.43
					c0.309-1.111,1.132-1.641,1.8-2.381c0.512-1.521,0.333-3.762,1.789-4.314c1.022,1.18,0.813-0.699,2.206-0.47
					c2.106,0.317,4.052,1.251,6.719,0.964c-0.155,0.813,0.345,0.907,0.878,0.944c0.589-0.657,1.953-0.454,3.137-0.482
					c0.226-1.502-0.795-1.672-0.443-3.326c0.906-0.137,0.867-1.286,1.782-1.433c0.916,0.146,0.879,1.296,1.788,1.433
					c-0.208-1.048,1.328-2.631,1.77-1.433c-1.426,3.061-3.521,5.438-4.011,9.531c0.292,1.289,1.277,1.821,1.795,2.867
					c0.198,1.826,0.525,3.572,1.774,4.285c1.116-1.199,1.771-2.878,3.131-3.822c-0.408-2.356,1.431-2.01,0.469-3.8
					c0.114-0.967,1.181-0.942,1.322-1.906c-0.656-0.568-2.001-0.428-1.791-1.914c0.439-4.183,3.369-3.28,6.705-2.864
					c0.645-0.731,0.582-2.219,1.339-2.852c2.604-0.207,4.564-1.515,6.234-1.438C340.311,92.209,338.102,92.505,338.101,90.437z
					 M188.078,95.687c0.838,0.995,2.019,1.63,3.547,1.907c0,1.585,0,3.183,0,4.767c-1.002-0.194,0.253-2.803-1.771-1.902
					c-0.988,1.646-0.362,5.002-1.775,6.201c-1.489,0.149-2.588-0.227-3.595,0c-1.24,0.27-1.503,1.379-2.676,1.43
					c0.142-0.584-1.278-1.648-1.324-0.482c-1.048-0.139-1.048-1.299,0-1.436c-1.021-1.141-1.722-2.629-1.79-4.769
					c2.227,0.206,1.368,6.719,5.353,4.769c1.004-1.936,1.693-4.221,2.67-6.207c-0.147-1.092-0.536-1.956-0.897-2.864
					c0.267-4.479,3.448-5.856,4.909-9.05c0.54-0.063,0.814,0.105,0.897,0.482C191.268,91.808,187.667,91.595,188.078,95.687z
					 M192.98,99.019c-0.027-1.439,1.577-1.174,2.675-1.425C195.691,99.07,194.313,99.015,192.98,99.019z M196.552,80.431
					c-0.234-0.258,0.324-0.614,0.444-0.486C197.221,80.202,196.678,80.562,196.552,80.431z M204.595,149.103
					c-0.232-0.252,0.318-0.624,0.436-0.487C205.274,148.851,204.715,149.236,204.595,149.103z M205.03,89.956
					c-0.231-0.243,0.318-0.604,0.448-0.468C205.7,89.735,205.151,90.091,205.03,89.956z M238.068,82.328
					c-0.849-0.196-1.917-0.154-1.783-1.426c-1.336-0.094,0.42-1.982,0,0C236.604,81.665,238.462,80.794,238.068,82.328z
					 M265.736,73.761c-0.218-0.242,0.343-0.634,0.476-0.49C266.448,73.528,265.873,73.887,265.736,73.761z M267.091,73.271
					c-0.226-0.245,0.327-0.603,0.444-0.468C267.766,73.029,267.226,73.406,267.091,73.271z M268.43,72.314
					c-0.231-0.242,0.325-0.617,0.455-0.484C269.109,72.097,268.555,72.441,268.43,72.314z M288.537,132.396
					c0.626-0.905,0.988-2.105,2.685-1.891c0.018,0.737-0.217,1.81,0.434,1.891C290.982,133.832,289.702,132.002,288.537,132.396z"/>
				<path fill="#FFFFFF" d="M130.017,188.679c-0.784-0.896-1.312,0.199-2.229,0.468c-0.704-1.633-2.436-2.178-4.006-2.876
					c-1.066,0-2.108,0-3.128,0c-0.8-1.377-3.79-0.407-4.024-2.369c-1.191-0.001-2.642,0.268-2.666-0.959
					c1.282-2.222-1.325-8.311-5.372-6.182c-1.411-0.893-2.438-2.168-2.674-4.312c-2.333-0.692-3.996-2.089-6.267-2.852
					c-0.579,0.175-0.696,0.832-1.333,0.949c-0.605-1.719-2.78-1.798-3.138-3.809c-1.427-0.425-0.922,1.225-1.777,1.433
					c-1.038-0.334-1.184-1.588-2.235-1.906c-0.405,0.827-0.813,1.646-2.229,1.426c-0.688,1.981-2.471,2.755-3.564,4.297
					c0.103-1.572-0.543-2.302-1.799-2.39c-1.147,0.503-1.656,1.716-3.143,1.903c-1.043-2.326,0.47-4.533,0-7.639
					c-0.807-1.652-3.766-1.025-5.339-1.891c0.442-2.082,1.739-3.227,1.342-6.2c-2.165,0.288-2.281,0.288-4.459,0
					c-0.822,1.026-0.428,3.348-1.792,3.802c-5.975,0.347-2.239-8.175-3.571-11.916c1.58-0.397,2.521-1.427,4.024-1.897
					c2.439-0.226,3.014,1.53,5.345,1.419c-0.037-0.67-0.092-1.336,0.453-1.419c2.15,0.112,5.023-0.608,5.354,1.419
					c-0.19,2.762,0.986,4.058,3.123,4.305c-0.535-2.459-0.297-3.206,0-4.777c-0.504-0.715-1.271-1.17-1.337-2.39
					c0.75-3.157,2.723-5.042,5.797-5.726c0.411-1.387,0.411-1.453,0-2.854c1.045,0.138,1.718-0.077,2.259-0.48
					c-1.112-2.613,1.451-2.037,0.877-5.246c1.487-0.641,2.9-1.328,4.457-1.902c0.234-1.5-1.353-1.084-0.885-2.858
					c1.633-1.442,4.111-1.978,6.273-2.864c0.309,1.295-0.908,0.965-0.908,1.906c1.786-0.795,3.682-1.465,4.922-2.854
					c-1.104-0.746-3.327-0.296-3.136-2.387c0.249-1.324,1.715-1.329,2.687-1.9c0.18-1.16-0.822-1.033-0.457-2.391
					c2.172,1.569,4.688-2.308,6.252-1.434c-1.033,2.555-3.158,3.93-4.017,6.67c1.654,0.344,1.922-0.811,3.561-0.466
					c0.041,0.738-0.196,1.816,0.456,1.907c0.441-1.18,1.709,0.654,3.126,0c-0.217-1.098-0.875-2.434,0-3.344
					c-1.629-0.164-2.043-1.632-2.685-2.867c0.154-2.953,0.154-3.211,0-6.205c-0.856-0.881-1.111-0.029-2.225,0
					c0.049-2.254-2.063-2.247-2.233-4.278c0.343-0.411,0.475-1.083,0.444-1.905c-1.721-1.045-1.098-4.579-3.582-4.775
					c-0.227,0.698,0.537,2.467-0.442,2.395c-0.921-0.284-2.935,0.598-3.127-0.494c0-1.584,0-3.166,0-4.756
					c-2.391,1.147-1.953-1.112-4.024-1.432c-1.175,1.313-0.964-0.557-2.219-0.469c-1.083-0.19-0.965,0.864-2.238,0.469
					c0.666,4.752-1.212,7.424-0.453,10.968c-0.759,0.138-2.222-1.351-2.683,0c0.449,1.36,1.49,0.305,1.796,0.948
					c-1.561,1.041-1.594,3.698-2.229,5.734c-1.023-1.46-1.224-3.801-1.778-5.734c-0.91-0.948-0.885,0.221-1.786,0.479
					c-0.388-1.378-0.666-0.515-1.799-0.479c-1.332-1.437-2.841-2.677-4.891-3.332c0.702-2.371-1.572-1.52-1.377-3.342
					c0.973,0.229,0.87-0.679,0.915-1.425c1.476-0.815,2.103-2.509,3.566-3.346c0.986-1.67,1.672-3.632,4.036-3.812
					c0.03-0.852-0.55-1.002-0.451-1.904c3.012-0.634,4.691-1.03,6.681-1.909c-0.095-1.845,0-3.521,0.453-4.768
					c-0.525-0.698-1.688-0.746-2.224-1.425c1.771-0.158,3.297-0.021,4.007,0.943c0.838-1.447,2.143,0.553,3.575,0
					c-0.622,2.428,2.04,1.325,1.785,3.355c-0.438,3.494-5.297,2.271-5.804,5.707c0.738,1.132,2.603,1.044,4.471,0.945
					c2.772,1.34,3.872,4.467,7.6,4.779c-0.999-2.469,0.746-2.404,0.449-5.241c-0.197-1.24-1.353-1.437-1.356-2.87
					c1.702,0.105,2.17,1.515,3.581,1.905c-0.127-1.239-0.164-2.372,1.338-1.905c-0.312-1.463,0.453-1.734,0.434-2.863
					c-1.205,0.336-0.845-0.977-1.334-1.423c-1.524-0.271-2.687-0.929-4.019-1.437c0.128-0.974,1.22-0.921,1.356-1.896
					c-0.576-1.143-1.967-1.416-1.809-3.336c-1.327,0-2.675,0-4.006,0c0.213-1.51-1.2-1.258-1.339-2.396
					c-1.902-0.274-2.953,0.346-4.468,0.494c0.267-2.957-3.527-2.019-4.025-0.494c0.166-1.775-0.355-2.794-1.782-2.869
					c-2.306,1.52-4.986,6.393-2.23,9.072c0.656,0.266,2.292-0.541,2.23,0.473c-0.48,1.402-1.413,2.298-2.23,3.355
					c-1.143-1.178,0.938-1.033,0.452-2.874c-1.525-1.069-2.975-2.235-3.585-4.298c-1.698,0.229-1.415-1.646-3.551-0.943
					c0.153,1.138-0.843,1.026-0.47,2.372c1.532,0.646,0.965,4.439,0,5.257c-0.654-0.415-0.963-1.195-0.87-2.388
					c-2.249-0.339-2.249,1.764-4.048,1.908c-1.66-0.761-3.482-1.353-4.452-2.862c1.992-0.361,2.688,0.637,4.452,0.473
					c0.984-0.987-0.205-1.364,0-2.859c2.476-0.538,3.46-2.67,5.796-3.322c-0.81-1.499-0.645-2.626-0.878-3.814
					c-2.247,0-4.461,0-6.682,0c-0.987,1.332-3.211,1.332-3.59,3.32c-0.227-0.705-0.653-1.18-0.884-1.896
					c-1.183-0.024-2.785,0.44-2.227-1.425c3.306,0.73,7.249-1.735,10.263-2.876c0,2.198,3.822,1.646,4.467,0.479
					c-0.311-1.088-0.401-2.421-0.878-3.35c-2.633,0.375-3.926,2.204-6.714,2.4c0-0.961,0-1.905,0-2.858
					c-2.439-0.883-2.879,2.246-1.334,2.858c-2.559,0.334-4.006-0.527-6.24-0.48c0.662,2.469-2.062,1.32-2.232,2.864
					c1.111,0.605,1.373-0.242,1.77,0.479c-0.285,0.631-0.956,0.886-1.77,0.934c-0.72-2.723-4.262-2.455-7.604-2.381
					c-0.233,2.313-1.373,3.623-2.686,4.775c-0.079,1.5,1.167,1.613,0.907,3.334c2.204,0.144,3.306-0.902,4.886-1.427
					c-0.912,2.584,2.454,0.573,2.694,1.917c0.32,1.289-2.103-0.347-1.794,0.938c-0.01,2.581,4.885-0.116,4.033,3.341
					c1.666-1.061,2.183-0.754,4.004,0c0.158,0,0.312,0,0.454,0c-0.143-0.576,1.284-1.639,1.34-0.472
					c-0.077,0.563-0.708,0.532-1.34,0.472c0.118,1.203,1.912,2.709,0,3.352c-0.527-0.098-0.363-0.883-0.454-1.436
					c-3.962-0.379-5.969-2.837-10.71-2.388c-1.364-0.446-1.4-2.313-3.113-2.382c-0.212,1.354-1.395,1.684-2.689,1.9
					c0.147-1.102-0.069-1.82-0.432-2.388c-1.726,0.107-1.726,2.024-3.573,1.915c-1.697,0.365-2.135-0.584-3.581-0.471
					c-0.495,0.113-0.292,0.943-0.893,0.943c-0.434-0.006-0.362-0.58-0.434-0.943c-1.069,0.154-1.694,0.751-3.146,0.471
					c-3.562-2.376-10.435-1.24-14.271-3.344c-3.338,1.559-7.671,2-9.826,2.387c-1.019,1.852,0.809,1.886,1.324,3.35
					c1.706-0.23,2.792,0.191,3.137,1.436c-1.809-0.664-1.605,0.844-2.241,1.429c-0.815-0.421-1.212-1.235-2.22-1.429
					c-1.697,1.839-5.777,1.152-7.153,3.32c2.463-0.079,3.336,1.528,3.575,3.841c2.37-0.916,4.146,0.126,6.256-0.509
					c-2.188,4.203-11.475,0.814-10.734,8.112c1.489,1.151,1.839,1.306,1.351,3.822c0.806,0.059,0.929-0.589,1.771-0.478
					c0.038,0.761-0.209,1.814,0.45,1.905c0.632-1.522,0.206,1.951,1.35,1.427c0.55-1.856,2.542-2.279,4.007-0.948
					c-1.927,1.605-2.624,4.497-4.895,5.72c-2.05,0.688-2.749,2.787-5.352,2.854c0.358,1.529-0.714,1.473-0.902,2.392
					c2.042,0.27,2.782-0.85,4.905-0.477c0.501-1.375,1.9-1.772,3.583-1.915c1.679-3.277,4.581-5.264,7.144-7.625
					c0.278,0,0.577,0,0.901,0c0.465-0.445,0.132-1.74,1.322-1.427c0.033-0.287,0.078-0.565,0.441-0.466
					c-0.024,0.283-0.051,0.562-0.441,0.466c0.192,2.132-1.194,2.522-1.782,3.815c3.67,0.434,4.56-2.096,7.597-2.389
					c0.199-2.137-0.237-3.58-0.449-5.251c2.05,0.45,2.166-1.186,3.997-0.956c1.257,0.924,2.281,2.03,3.143,3.353
					c2.839,0.962,5.268,2.34,4.908,6.671c2.16-0.308,0.103-2.641,1.804-2.863c0.101,4.035-0.143,8.387,1.317,10.971
					c-1.347,1.239-0.457,1.768,0,3.344c0,0.94-1.214,0.59-0.87,1.912c-0.216,5.227-0.511,8.73,0,13.82
					c1.184,0.789,1.968,2.024,3.11,2.867c1.23,1.842,1.141,5.113,2.674,6.668c-0.516,0.084-0.375,0.867-0.451,1.434
					c1.87,0.716,2.294,2.948,3.147,4.769c1.358-0.36,1.285,0.833,2.646,0.461c0.064-2.028-0.861-1.586-0.87-4.267
					c-0.255,0-0.506-0.405,0-0.487c0,0.163,0,0.335,0,0.487c0.942-0.244,0.829,0.674,0.87,1.418
					c1.403,1.071,2.606,2.337,3.589,3.817c-0.322,3.361,0.86,5.122,1.772,7.158c3.69,0.979,5.86,3.423,10.275,2.366
					c0.514,1.231,1.108,2.333,1.797,3.349c1.686-0.367,2.142,0.582,3.557,0.479c0.423,1.146,1.309,1.782,2.232,2.376
					c0,0.48,0,0.965,0,1.435c2.583,0.287,3.107,2.741,5.374,3.338c0.456-0.631,0.428-1.771,1.332-1.894
					c0.165,1.714,0.914,2.844,1.337,4.266c0,0.959-1.209,0.628-0.883,1.916c0.206,2.456-1.431,2.937-1.786,4.774
					c-0.865,3.328,1.797,5.144,0,6.673c0.78,0.911,2.203,1.132,3.131,1.921c-0.369,0.688-1.437,0.672-2.232,0.939
					c-0.325,3.842,1.638,5.242,4.019,6.217c0.179,1.139-0.826,1.026-0.452,2.377c1.668,1.393,2.263,3.93,4.923,4.293
					c0.813,2.128,2.224,3.645,2.217,6.67c-0.455,0.629-0.419,1.758-0.871,2.377c0.586,0.316,0.815,1.025,0.871,1.914
					c-1.199,2.146,0.536,4.65,0,7.629c-2.41,1.538-1.303,6.876-2.217,10.014c0.655,1.32,1.825-0.826,2.217,0.486
					c0.404,2.336-1.526,2.184-2.217,3.324c-0.568,1.551,1.42,0.371,0.877,1.922c-0.851,1.154,0.49,2.31-0.453,3.8
					c0.438,3.242,1.94,4.911,0.922,7.642c1.314,1.113,1.176,3.801,2.668,4.768c-0.064,0.848,0.525,1.001,0.436,1.901
					c1.128,0.247,1.85,0.899,2.677,1.425c1.675-0.291,4.604,0.787,4.9-0.959c-1.196-0.277-2.069-0.932-2.668-1.908
					c0.334-1.607-1.804-0.603-1.338-2.376c-0.154-2.089,1.291-2.452,1.338-4.297c1.156-0.056,1.732-0.687,1.798-1.894
					c0.227-1.693-1.574-1.166-1.342-2.869c1.197-1.472,3.034-6.179,0-6.678c2.989,0.811,2.887-1.66,3.565-3.325
					c2.404,0.167,3.225-1.347,4.919-1.914c0.295-2.225-0.716-3.064-0.9-4.758c1.195,0,2.378,0,3.575,0
					c0.026-0.479,0.549-0.384,0.898-0.492c0.248-1.163,0.381-2.445,1.787-2.379c-0.16-2.706,1.686-3.277,2.67-4.777
					c0-1.108,0-2.22,0-3.325c0.851-0.848,1.39-2.021,2.227-2.873c2.131-0.668,2.131-0.668,4.021-1.426
					c0.203-3.057,2.366-5.712,0.895-9.064c0.678-0.397,0.97-1.199,0.894-2.389c0.721,0.156,0.778-0.438,1.348-0.461
					c0.165-1.58,1.313-2.107,1.79-3.33c1.185-1.244-0.066-2.304,1.32-2.865c-0.308-1.467,0.451-1.754,0.451-2.877
					C130.926,191.184,130.452,189.935,130.017,188.679z M109.482,109.519c0.221,0.248-0.325,0.597-0.454,0.469
					C108.802,109.743,109.35,109.368,109.482,109.519z M75.093,72.314c1.371,0.465-0.49,1.283-0.457,1.91
					C73.286,73.765,74.849,72.613,75.093,72.314z M73.31,74.699c1.413-0.22,1.576,0.881,3.125,0.494c0,1.889-1.749,1.95-3.125,2.365
					C73.31,76.615,73.31,75.675,73.31,74.699z M59.48,75.675c-0.242-0.262,0.292-0.631,0.427-0.482
					C60.141,75.433,59.599,75.789,59.48,75.675z M50.099,144.317c0.083-0.541,0.429-0.252,0.429,0
					C50.458,144.871,50.099,144.59,50.099,144.317z M50.527,145.274c1.064,0.162,1.016,1.481,1.794,1.905
					C51.758,148.383,50.146,146.668,50.527,145.274z"/>
				<path fill="#FFFFFF" d="M221.125,79.474c-0.652-2.192-2.749-2.804-2.251-6.203c3.157-0.289,4.332-2.686,6.691-3.822
					c2.822,0.311,4.248-0.85,4.493-3.321c-0.79,0-1.501,0-2.251,0c-0.108,0.372-0.008,0.944-0.458,0.944
					c-3.347,0.395-5.843,1.715-8.476,2.865c0.224,2.449-2.159,2.16-1.791,4.762c-0.552,1.018-1.666,1.4-1.771,2.859
					c1.419,1.005,2.813,2.075,4.441,2.873C219.951,79.827,220.345,79.445,221.125,79.474z"/>
				<path fill="#FFFFFF" d="M295.67,70.896c1.072-0.771,1.601-2.109,2.692-2.863c-1.698-0.235-2.059-2.195-3.586-1.905
					c-0.192,0.026-0.414,1.12-0.89,0.944c-0.873,0-1.798,0-2.665,0C290.626,70.547,294.405,69.372,295.67,70.896z"/>
				<path fill="#FFFFFF" d="M153.232,92.341c0.05-1.213,1.667-0.75,2.236-1.421c0.474-2.419-1.017-2.737-0.89-4.762
					c-1.938,0.632-2.63-0.304-4.466,0.465c-1.215-0.294-1.12-1.993-2.688-1.894c0.55,2.307-1.772,1.592-1.772,3.32
					c1.248,0.399,1.155-0.666,2.212-0.467c-0.232,1.152-1.714,1.02-1.326,2.854c2.235-0.625,1.752,1.645,3.136,1.904
					C150.043,91.361,152.775,91.853,153.232,92.341z"/>
				<path fill="#FFFFFF" d="M92.054,92.341c-1.768-0.505-0.605-1.204-1.771-2.386c-1.354,0.349-1.32-0.815-2.688-0.468
					c-0.63,0.916-0.229,2.91-2.222,2.403c0.027,1.662,1.463,1.901,3.111,1.886C88.339,90.048,91.531,95.339,92.054,92.341z"/>
				<path fill="#FFFFFF" d="M170.674,109.519c-0.621-0.496-1.379-0.793-1.813-1.43c0.559-2.826-2.96-3.274-1.331-5.729
					c-0.604-0.485-1.355-0.785-1.803-1.44c0.648-0.403,1.419-0.699,1.349-1.901c-1.635-0.146-2.493,0.539-3.561,0.945
					c0.331,2.604-0.706,3.709-0.452,6.207c1.079,0.688,1.635,0.749,2.219,0.953c0.188,1.689-1.502,2.623-2.219,1.898
					c-0.348,2.148,0.31,3.195,0.895,4.305c-0.784,0.44-2.395-0.027-2.248,1.434c2.219-0.348,4.457-0.652,7.151-0.486
					C169.229,112.234,168.984,110.886,170.674,109.519z"/>
				<path fill="#FFFFFF" d="M158.578,111.427c1.03-0.511,2.712-0.314,3.583-0.96c-0.472-1.993-0.104-2.107,0-4.296
					c-0.734,0-1.487,0-2.223,0c-0.028,2.135-1.015,0.604-1.786,1.436C158.209,108.983,157.907,110.72,158.578,111.427z"/>
				<path fill="#FFFFFF" d="M311.736,125.25c0.86,0.06,0.322,1.57,1.349,1.426c0.987-1.171,0.833-3.552,2.673-3.804
					c-2.336-0.358-3.804-1.661-6.245-1.912c0.325,2.266-0.501,3.274-0.452,5.258C310.288,127.496,310.173,124.983,311.736,125.25z"
					/>
				<path fill="#FFFFFF" d="M301.48,140.039c-0.079,1.678,1.052,2.045,1.785,2.844c0.309-1.727,1.393-2.635,2.687-3.336
					c0.595-0.006,0.962,0.235,1.325,0.492c1.412-1.836,4.37-2.016,5.808-3.822c-0.078-3.4-0.989-5.955-0.884-9.54
					c-0.607,0-1.21,0-1.804,0c0.551,2.235-0.229,3.327,0.462,5.72c-0.354,0.115-0.514,0.405-0.462,0.977
					c-1.602,0.726-2.392,1.281-4.017,2.844c-1.57,0.874-4.407,0.364-4.463,2.868c-0.201,1.315,2.431-0.37,2.243,0.954
					C303.266,140.039,302.371,140.039,301.48,140.039z"/>
				<path fill="#FFFFFF" d="M192.53,136.216c0.13,1.334,1.48,0.384,2.67,1.442c0.322-1.783-0.685-2.111-2.22-1.921
					C193.055,136.136,192.798,136.188,192.53,136.216z"/>
				<path fill="#FFFFFF" d="M292.089,152.441c0.726,0.664,1.154,1.625,1.341,2.854c1.859-0.109,1.707-2.336,1.805-4.285
					C294.116,149.948,292.568,151.341,292.089,152.441z"/>
				<path fill="#FFFFFF" d="M85.373,151.009c0,0.627,0,1.254,0,1.899c0.591,0,1.179,0,1.786,0
					C87.104,151.708,86.513,151.058,85.373,151.009z"/>
				<path fill="#FFFFFF" d="M90.283,153.37c0.133-1.087-0.066-1.815-0.451-2.36c-0.461,0-0.895,0-1.348,0
					C88.317,152.633,88.621,153.724,90.283,153.37z"/>
				<path fill="#FFFFFF" d="M90.72,152.909c0,0.796,0,1.583,0,2.386c0.937,0.192,1.191-0.326,1.787-0.486
					C92.454,153.602,91.866,152.958,90.72,152.909z"/>
				<path fill="#FFFFFF" d="M89.832,160.538c1.604-0.278,2.161,0.552,3.144,0.959c0.032-1.374,1.846-0.869,3.104-0.959
					c-0.642-3.159-3.104-2.729-5.796-2.862c0.329-1.301-0.912-0.965-0.912-1.903c-0.967-0.539-2.452-0.565-2.664-1.908
					c-2.238,0-4.465,0-6.684,0c-0.2,0.906-0.972,1.196-0.906,2.39c1.818,0.186,1.808-1.573,4.023-0.959
					c1.881,0.393,2.087,2.551,4.019,2.859c1.064,0.296,3.234-0.602,3.561,0.479C89.088,158.681,89.606,159.317,89.832,160.538z"/>
				<path fill="#FFFFFF" d="M94.29,155.294c-0.139-0.653-1.111-0.401-1.783-0.486C91.564,156.572,94.782,156.964,94.29,155.294z"/>
				<path fill="#FFFFFF" d="M293.887,160.538c0.697,1.16,1.592,2.12,2.68,2.86c0.559-1.482,2.077-1.908,1.796-4.293
					C297.146,157.378,293.825,158.164,293.887,160.538z"/>
				<path fill="#FFFFFF" d="M283.159,161.972c1.259-0.274,1.259-1.858,1.798-2.867c-0.4-0.369-1.011-0.508-1.798-0.473
					C282.333,160.491,282.579,159.023,283.159,161.972z"/>
				<path fill="#FFFFFF" d="M84.911,159.574c0,0.65,0,1.281,0,1.923c1.504-0.509,1.538,0.152,3.122-0.478
					C88.339,159.109,86.348,159.656,84.911,159.574z"/>
				<path fill="#FFFFFF" d="M96.964,161.497c1.613,0.118,3.1,0.103,2.687-1.923c-0.895,0-1.785,0-2.687,0
					C96.964,160.224,96.964,160.855,96.964,161.497z"/>
				<path fill="#FFFFFF" d="M143.853,161.497c0,0.936-1.213,0.604-0.878,1.901c0.597,0,1.176,0,1.775,0
					C144.881,162.307,144.628,161.599,143.853,161.497z"/>
				<path fill="#FFFFFF" d="M297.468,169.125c0.924,1.024,1.26-0.246,2.667,0c-0.145,1.112-0.954,2.06,0.456,2.377
					c0.632-1.396,1.878-2.123,4.012-1.903c0.419-2.196-1.424-1.974-2.231-2.859c0.112-1.562-0.525-2.304-1.78-2.386
					c-0.629,0.615-0.443,2.066-0.456,3.338C298.644,166.875,298.203,167.976,297.468,169.125z"/>
				<path fill="#FFFFFF" d="M253.247,170.547c0.64,2.825-1.698,3.405,0,4.767c1.409,0.234,1.188-1.279,2.242-1.429
					C255.12,172.375,254.192,171.454,253.247,170.547z"/>
				<path fill="#FFFFFF" d="M282.723,183.435c0.437,1.917,2.379,2.218,2.234,4.761c2.896-0.717,2.451,2.137,5.35,1.422
					c-0.127-1.095,1.284-0.524,1.349-1.422c-0.341-0.112-0.883-0.018-0.887-0.491c1.465-0.654,0.73-3.633,2.245-4.27
					c-1.028-1.552,0.368-3.176-0.463-4.308c0.779-0.424,1.54-0.874,1.336-2.366c-1.078-0.911-1.951-2.053-4.019-1.922
					C289.452,179.816,283.516,178.859,282.723,183.435z"/>
				<path fill="#FFFFFF" d="M274.23,180.082c-0.672-1.111-2.085-1.877-1.767-3.32c-1.222,0.33-0.906-0.961-1.793-0.961
					c0.056,2.101-1.092-0.055-2.241,0.469c0,5.569,6.275,4.438,5.375,10.965c2.198,0.262,2.813,3.402,4.892,2.384
					c1.026-1.822-0.92-3.906-0.866-6.183C276.464,182.453,274.856,181.093,274.23,180.082z"/>
				<path fill="#FFFFFF" d="M299.261,183.902c-0.094-2.118-2.821-1.449-3.591-2.859c-2.288,1.964-3.877,7.268-0.436,9.051
					c-0.098-1.374,0.104-2.426,0.888-2.859c0.982,0.919,1.043,2.43,2.679,1.445c-0.229-1.992-1.724-2.635-1.781-4.777
					C297.607,184.523,298.644,184.523,299.261,183.902z"/>
				<path fill="#FFFFFF" d="M309.061,181.992c-1.453-0.972-5.018-0.783-4.899,1.443C305.688,184.45,308.95,183.976,309.061,181.992z
					"/>
				<path fill="#FFFFFF" d="M313.985,183.902c-1.056,0-2.086,0-3.126,0c-0.4,0.695-0.667,1.52-1.799,1.431
					c-1.383,0.362-0.834-1.326-2.209-0.962c0.13,1.254-1.76,0.388-1.345,1.9c0.055,1.078,1.11-0.595,2.206,0
					c1.993,1.719,4.602,2.746,6.272,4.777c0,0.959,0,1.908,0,2.865c2.387-1.543,3.102,0.975,4.908,1.43
					c1.568-0.069,1.077-2.355,3.124-1.908c1.048,0.653,2.232,3.631,4.015,1.908c-0.93-0.422-1.36-1.413-1.341-2.848
					c-1.167-1.147-2.806-1.763-3.564-3.349c0-0.468,0-0.951,0-1.442C317.686,187.577,316.749,184.769,313.985,183.902z"/>
				<path fill="#FFFFFF" d="M290.307,194.87c0.249-1.687-1.558-1.175-1.329-2.862c-3.641,0.099-6.233-0.992-8.937-1.914
					c-0.392,0.848-1.248,1.223-0.879,2.863C283.419,193.009,285.445,195.468,290.307,194.87z"/>
				<path fill="#FFFFFF" d="M323.343,213.467c0.182-2.249-0.778-3.282-0.441-5.729c-0.875-0.321-1.016-1.437-1.774-1.901
					c-0.157-3.652-3.196-4.224-2.681-8.586c-0.833,0.104-0.977-0.53-1.78-0.482c-1.15,1.961,0.479,6.892-1.356,8.109
					c-1.754,0.628-0.901-1.572-2.678-0.958c-0.069-1.334-2.108-0.578-1.772-2.376c-0.23-1.512,2.201-0.176,1.772-1.893
					c-1.55-1.853-6.123-0.481-8.471-1.441c-0.777,0.29,0.023,2.258-0.896,2.373c-1.665,0.311-3.141,0.769-4.465,1.445
					c-0.561,1.441-0.157,3.969-1.781,4.293c-1.063-1.133-2.207,0.068-3.59,0c-0.869,0.33,0.107,2.662-0.879,2.846
					c-0.922-0.262-0.869-1.429-1.782-0.467c-1.113,1.194-0.589,4.134-2.231,4.767c-1.002,0.685-2.987,0.316-3.58,1.43
					c0.473,2.124,1.563,4.767,0.448,7.153c0.87,0.336,1.175,1.279,1.338,2.383c0.244,2.175-0.796,2.969-0.464,5.242
					c1.335-0.123,1.397,1.077,2.698,0.962c1.864-0.87,2.958-2.552,6.257-1.914c1.572-2.124,4.705-2.601,8.483-2.379
					c1.274,0.999,2.098,2.523,2.663,4.293c1.747-0.894,1.206,1.101,3.132,0c-0.017,1.254,0.16,2.712-0.452,3.336
					c2.857,1.769,4.548,1.872,8.942,1.914c1.126-0.859,1.955-2.061,3.57-2.415c-0.219-2.436,2.129-2.143,1.77-4.749
					c1.56-0.108,1.167-2.273,2.689-2.379c-0.512-1.692,0.767-2.706,0.891-4.294c0.244-2.913-0.864-5.891-1.337-8.583
					C324.47,212.834,323.74,214.871,323.343,213.467z"/>
				<path fill="#FFFFFF" d="M219.321,198.21c-0.783,1.395-1.469,2.88-1.792,4.772c-1.938,0.476-2.921,1.928-4.005,3.339
					c-0.359,1.646,0.646,1.842,0.44,3.332c-0.403,0.997-0.711,2.115-1.355,2.863c0.974,2.152-0.308,4.057,1.355,5.725
					c1.445,0.088,1.886-0.848,3.564-0.48c0.97-2.137,0.595-3.084,1.792-5.244c0-0.807,0-1.586,0-2.387
					c0.105-0.533,0.491-0.744,0.889-0.963c-0.812-2.086,0.82-4.064,0.915-7.623C219.45,201.57,221.166,198,219.321,198.21z"/>
				<path fill="#FFFFFF" d="M347.913,230.637c0.087-1.364,0.059-2.613-1.334-2.38c0,1.267,0,2.529,0,3.796
					c-0.357,1.402-2.125,1.247-1.789,3.358c3-0.471,1.021,1.419,0.889,2.852c2.823-0.142,2.926-3.257,4.027-5.245
					c0.667-0.714,1.865-0.854,2.22-1.921C350.85,229.627,350.03,230.815,347.913,230.637z"/>
				<path fill="#FFFFFF" d="M342.993,236.363c-0.38,1.001-1.339,1.41-1.321,2.85c-0.792-0.033-1.386,0.113-1.801,0.477
					c-0.753,0.953-1.037,2.395-2.223,2.854c-1.844,0.747-2.385,2.854-3.142,4.776c1.459-0.771,2.426-0.235,4.018,0
					c0.423-1.136,1.802-1.263,1.347-3.343c0.593,0,1.213,0,1.801,0c0.123-2.717,3.505-1.953,3.554-4.764
					C345.07,237.632,343.906,237.157,342.993,236.363z"/>
				<path fill="#FFFFFF" d="M312.632,237.775c-0.498,0.732,1.492,2.883,1.8,4.309c2.172-0.229,3.571-1.266,3.124-4.309
					C315.605,238.161,313.422,237.192,312.632,237.775z"/>
				<path fill="#FFFFFF" d="M110.362,252.558c0.594,0,1.196,0,1.791,0C112.461,250.681,110.291,251.003,110.362,252.558z"/>
			</g>
		</g>
		<g>
			<g>
				<g>
					<g>
						<g>
							<g>
								<g>
									<path fill="#0F303F" d="M97.338,231.322c1.524,2.457,0.772,5.693-1.69,7.222l-11.866,7.382
										c-2.463,1.533-5.697,0.781-7.22-1.682l-18.915-30.427c-1.533-2.461-0.778-5.691,1.681-7.218l11.867-7.383
										c2.46-1.532,5.693-0.772,7.228,1.683L97.338,231.322z"/>
									<g>
										<path fill="#2E5166" d="M141.003,144.795c-5.019-2.142-10.833,0.192-12.968,5.217c-2.155,5.013,0.177,10.819,5.194,12.966
											l0.012,0.002l0,0c5.02,2.145,10.836-0.195,12.969-5.214C148.353,152.749,146.015,146.942,141.003,144.795L141.003,144.795
											L141.003,144.795z"/>
									</g>
									<path fill="#FFFFFF" d="M68.008,151.419l15.32,38.157l50.917-20.448l-23.677-58.971
										c-4.81,13.771-13.587,25.815-25.825,33.805C79.397,147.449,73.761,149.909,68.008,151.419z"/>
									<path fill="#2E5166" d="M69.145,150.811l-27.98,11.229c-10.749,4.314-15.955,16.532-11.646,27.277l5.373,13.384
										c4.315,10.747,16.526,15.965,27.277,11.648l27.973-11.234L69.145,150.811z"/>
									<path fill="#FDC015" d="M151.962,205.817c-2.435,0.978-5.314-0.488-6.434-3.277l-35.979-89.616
										c-1.127-2.785-0.055-5.838,2.383-6.809l4.402-1.773c2.438-0.979,5.326,0.492,6.438,3.273l35.979,89.617
										c1.122,2.783,0.052,5.838-2.387,6.815L151.962,205.817z"/>
									<path fill="#A7DAE9" d="M148.124,203.695l-18.862-46.979L78.343,177.16l10.506,26.168
										c5.193-2.896,10.971-5.012,17.244-6.189C120.456,194.444,135.126,197.082,148.124,203.695z"/>
									<path fill="#0F303F" d="M79.527,176.678l-47.436,19.051l2.799,6.972c4.315,10.747,16.526,15.965,27.277,11.648
										l27.973-11.234L79.527,176.678z"/>
									<path fill="#F99B1F" d="M158.752,197.232l-18.102-45.099l-13.226,5.313l18.104,45.093c1.119,2.789,3.999,4.255,6.434,3.277
										l4.403-1.77C158.804,203.07,159.874,200.015,158.752,197.232z"/>
									<path fill="#2E5166" d="M70.281,215.849c-1.005-1.578-3.087-2.043-4.667-1.043l0,0c-1.576,0.999-2.044,3.088-1.05,4.665
										l14.282,22.539c1.005,1.579,3.096,2.052,4.674,1.046l0,0c1.568-0.994,2.037-3.09,1.049-4.667L70.281,215.849z"/>
								</g>
								<g>
									<g>
										<path fill="#FFFFFF" d="M153.465,148.433c-0.26-0.109-0.475-0.324-0.594-0.605c-0.224-0.571,0.049-1.212,0.621-1.445
											l37.79-15.172c0.569-0.226,1.209,0.051,1.447,0.614c0.224,0.569-0.05,1.21-0.62,1.444l-37.79,15.173
											C154.031,148.55,153.729,148.542,153.465,148.433L153.465,148.433z"/>
									</g>
									<g>
										<g>
											<path fill="#FFFFFF" d="M149.503,140.573c-0.104-0.048-0.21-0.109-0.301-0.204c-0.459-0.405-0.49-1.109-0.089-1.561
												l27.226-30.283c0.405-0.459,1.086-0.523,1.563-0.082c0.453,0.408,0.494,1.106,0.083,1.562l-27.219,30.286
												C150.441,140.653,149.925,140.753,149.503,140.573L149.503,140.573z"/>
										</g>
										<g>
											<path fill="#FFFFFF" d="M156.038,156.861c-0.423-0.18-0.705-0.622-0.669-1.104c0.048-0.606,0.573-1.063,1.187-1.02
												l40.614,3.054c0.63,0.038,1.062,0.58,1.021,1.187c-0.045,0.608-0.579,1.067-1.187,1.021l-40.614-3.057
												C156.263,156.937,156.146,156.906,156.038,156.861L156.038,156.861z"/>
										</g>
									</g>
								</g>
							</g>
						</g>
					</g>
				</g>
			</g>
			<g>
				<path fill="#2D5972" d="M246.096,201.5c0,0.922-0.697,1.667-1.556,1.667h-3.018v6.257l-7.391-6.257h-19.246
					c-0.862,0-1.558-0.745-1.558-1.667v-18.937c0-0.922,0.695-1.668,1.558-1.668h29.654c0.858,0,1.556,0.746,1.556,1.668V201.5z"/>
				<path fill="#FFFFFF" d="M200.181,195.531c0,0.923,0.697,1.668,1.558,1.668h3.016v6.258l7.389-6.258h19.248
					c0.864,0,1.56-0.745,1.56-1.668v-18.934c0-0.923-0.695-1.67-1.56-1.67h-29.652c-0.86,0-1.558,0.747-1.558,1.67V195.531z"/>
				<rect x="205.091" y="181.013" fill="#19B0BF" width="22.949" height="1.432"/>
				<rect x="205.091" y="185.548" fill="#19B0BF" width="22.949" height="1.432"/>
				<rect x="205.091" y="190.084" fill="#19B0BF" width="17.863" height="1.435"/>
			</g>
			<g>
				<path fill="#2D5972" d="M196.815,76.16l-12.306,4.933c-0.545,0.219-1.162-0.046-1.38-0.589c-0.219-0.546,0.045-1.162,0.591-1.38
					l12.304-4.933c0.544-0.219,1.162,0.045,1.38,0.588C197.623,75.325,197.357,75.943,196.815,76.16L196.815,76.16z"/>
				<g>
					<g>
						<path fill="#A7DAE9" d="M162.648,53.119c-3.395-8.467,0.716-18.074,9.18-21.467c8.468-3.395,18.071,0.713,21.466,9.18
							c0.201,0.501,2.674,7.731-0.118,17.477c-0.792,2.921,1.296,7.32,1.309,7.315c-2.374,0.951-4.324,1.733-6.702,2.687
							c-0.727,0.291-1.449,0.582-2.174,0.871c-2.375,0.953-4.362,1.749-6.734,2.699c0.016-0.006-1.487-4.641-4.064-6.209
							C166.044,60.548,162.849,53.619,162.648,53.119z"/>
						<path fill="#FFFFFF" d="M186.698,68.746c-2.375,0.95-5.452,2.185-7.824,3.135c0.016-0.006-1.487-4.641-4.064-6.209
							c-8.766-5.123-11.961-12.053-12.161-12.553c-3.395-8.467,0.716-18.074,9.18-21.467"/>
						<g>
							<path fill="#FFFFFF" d="M190.039,42.131l-1.345,0.538c-2.368-5.91-9.108-8.789-15.022-6.418l-0.539-1.344
								C179.79,32.24,187.374,35.482,190.039,42.131L190.039,42.131z"/>
						</g>
						<g>
							<g>
								<g>
									<polygon fill="#0F303F" points="190.526,68.601 189.112,68.913 185.381,52.023 186.794,51.709 190.526,68.601 									"/>
								</g>
								<g>
									<polygon fill="#0F303F" points="183.832,71.284 174.861,56.493 176.101,55.743 185.068,70.535 183.832,71.284 									"/>
								</g>
							</g>
							<g>
								<path fill="#0F303F" d="M186.85,54.021c-0.552,0.221-1.002-0.219-1.335-0.541c-0.137-0.136-0.428-0.414-0.512-0.379
									c-0.083,0.033-0.098,0.434-0.105,0.626c-0.017,0.461-0.038,1.093-0.589,1.313c-0.549,0.219-1.002-0.221-1.333-0.543
									c-0.138-0.133-0.426-0.414-0.512-0.379c-0.084,0.034-0.101,0.434-0.107,0.628c-0.015,0.46-0.039,1.093-0.592,1.313
									c-0.549,0.219-1.001-0.221-1.335-0.541c-0.136-0.134-0.423-0.416-0.509-0.381c-0.087,0.034-0.103,0.436-0.107,0.628
									c-0.019,0.462-0.04,1.093-0.595,1.313c-0.548,0.221-1.002-0.219-1.334-0.54c-0.138-0.134-0.427-0.415-0.511-0.38
									c-0.089,0.035-0.104,0.438-0.111,0.629c-0.017,0.461-0.04,1.092-0.592,1.313l-0.286-0.714
									c0.086-0.035,0.103-0.438,0.107-0.629c0.02-0.462,0.042-1.093,0.595-1.313c0.552-0.221,1.005,0.218,1.336,0.539
									c0.137,0.135,0.424,0.416,0.51,0.382c0.087-0.035,0.102-0.438,0.111-0.631c0.016-0.46,0.039-1.091,0.592-1.312
									c0.549-0.22,1.001,0.22,1.333,0.54c0.136,0.135,0.424,0.415,0.51,0.383c0.087-0.037,0.103-0.438,0.109-0.631
									c0.017-0.461,0.039-1.09,0.591-1.312c0.549-0.22,1,0.22,1.334,0.542c0.137,0.133,0.424,0.413,0.51,0.379
									c0.085-0.034,0.099-0.435,0.106-0.626c0.016-0.461,0.04-1.093,0.588-1.312c0.551-0.222,1.007,0.217,1.336,0.541
									c0.138,0.133,0.425,0.413,0.512,0.377L186.85,54.021L186.85,54.021z"/>
							</g>
						</g>
						<path fill="#0F303F" d="M194.504,65.625l3.213,8.011c0.22,0.548-0.047,1.173-0.597,1.394l-13.602,5.453
							c-0.545,0.219-1.168-0.051-1.388-0.6l-3.213-8.011L194.504,65.625z"/>
						<g>
							<g>
								<line fill="#0F303F" x1="195.13" y1="66.272" x2="178.897" y2="72.78"/>
								<path fill="#2D5972" d="M195.445,67.057l-16.233,6.508c-0.433,0.173-0.928-0.038-1.1-0.47
									c-0.175-0.438,0.037-0.926,0.471-1.101l16.233-6.509c0.431-0.173,0.923,0.036,1.097,0.473
									C196.088,66.39,195.878,66.884,195.445,67.057L195.445,67.057z"/>
							</g>
							<g>
								<line fill="#0F303F" x1="196.181" y1="68.889" x2="179.947" y2="75.397"/>
								<path fill="#2D5972" d="M196.494,69.673l-16.233,6.508c-0.433,0.173-0.925-0.033-1.1-0.47
									c-0.174-0.434,0.038-0.926,0.471-1.101l16.232-6.508c0.432-0.173,0.925,0.039,1.099,0.473
									C197.138,69.01,196.927,69.5,196.494,69.673L196.494,69.673z"/>
							</g>
							<g>
								<line fill="#0F303F" x1="197.229" y1="71.505" x2="180.995" y2="78.014"/>
								<path fill="#2D5972" d="M197.544,72.292L181.311,78.8c-0.433,0.172-0.926-0.037-1.101-0.473
									c-0.173-0.432,0.039-0.925,0.471-1.098l16.234-6.509c0.433-0.173,0.924,0.038,1.098,0.471
									C198.187,71.626,197.976,72.119,197.544,72.292L197.544,72.292z"/>
							</g>
						</g>
					</g>
					<g>
						<g>
							<path fill="#A7DAE9" d="M169.82,26.656c-0.222,0.09-0.473-0.018-0.561-0.238l-3.375-8.42
								c-0.089-0.221,0.019-0.471,0.239-0.56s0.471,0.019,0.559,0.239l3.376,8.42C170.146,26.318,170.041,26.569,169.82,26.656
								L169.82,26.656z"/>
						</g>
						<g>
							<path fill="#A7DAE9" d="M160.242,33.836c-0.137,0.056-0.301,0.038-0.426-0.061l-7.132-5.605
								c-0.188-0.145-0.22-0.416-0.074-0.603c0.148-0.188,0.42-0.221,0.604-0.072l7.132,5.603c0.189,0.147,0.224,0.419,0.075,0.604
								C160.374,33.765,160.312,33.809,160.242,33.836L160.242,33.836z"/>
						</g>
						<g>
							<path fill="#A7DAE9" d="M155.539,44.843c-0.067,0.028-0.143,0.037-0.221,0.027l-8.979-1.289
								c-0.236-0.033-0.399-0.251-0.364-0.486c0.033-0.237,0.251-0.402,0.487-0.366l8.976,1.288
								c0.238,0.032,0.402,0.252,0.366,0.488C155.784,44.661,155.679,44.787,155.539,44.843L155.539,44.843z"/>
						</g>
						<g>
							<path fill="#A7DAE9" d="M156.97,56.726l-8.418,3.375c-0.222,0.088-0.471-0.02-0.561-0.241
								c-0.089-0.221,0.018-0.472,0.239-0.56l8.419-3.376c0.222-0.089,0.471,0.021,0.559,0.241
								C157.298,56.386,157.192,56.636,156.97,56.726L156.97,56.726z"/>
						</g>
						<g>
							<path fill="#A7DAE9" d="M158.549,73.431c-0.142,0.057-0.303,0.041-0.427-0.059c-0.188-0.148-0.222-0.418-0.074-0.605
								l5.604-7.133c0.147-0.188,0.418-0.219,0.603-0.07c0.188,0.145,0.222,0.417,0.072,0.602l-5.602,7.135
								C158.677,73.361,158.614,73.406,158.549,73.431L158.549,73.431z"/>
						</g>
						<g>
							<path fill="#A7DAE9" d="M173.869,79.983c-0.066,0.027-0.143,0.038-0.219,0.027c-0.238-0.034-0.401-0.253-0.367-0.487
								l1.288-8.979c0.033-0.233,0.251-0.399,0.486-0.365c0.238,0.034,0.397,0.253,0.365,0.486l-1.286,8.981
								C174.113,79.802,174.008,79.928,173.869,79.983L173.869,79.983z"/>
						</g>
						<g>
							<path fill="#A7DAE9" d="M203.748,67.998c-0.14,0.057-0.3,0.038-0.426-0.061l-7.133-5.604
								c-0.187-0.147-0.218-0.418-0.071-0.604c0.146-0.189,0.417-0.219,0.604-0.072l7.133,5.603c0.187,0.146,0.218,0.418,0.07,0.604
								C203.879,67.924,203.815,67.97,203.748,67.998L203.748,67.998z"/>
						</g>
						<g>
							<path fill="#A7DAE9" d="M210.296,52.675c-0.069,0.027-0.145,0.038-0.222,0.024l-8.979-1.285
								c-0.234-0.034-0.399-0.251-0.365-0.488c0.033-0.235,0.253-0.398,0.489-0.365l8.978,1.287
								c0.236,0.036,0.399,0.253,0.366,0.487C210.54,52.494,210.435,52.62,210.296,52.675L210.296,52.675z"/>
						</g>
						<g>
							<path fill="#A7DAE9" d="M208.309,36.128l-8.422,3.377c-0.221,0.09-0.472-0.02-0.562-0.239
								c-0.088-0.221,0.02-0.472,0.24-0.562l8.423-3.377c0.22-0.086,0.472,0.021,0.56,0.241
								C208.638,35.789,208.529,36.042,208.309,36.128L208.309,36.128z"/>
						</g>
						<g>
							<path fill="#A7DAE9" d="M192.707,29.929c-0.139,0.057-0.302,0.039-0.426-0.062c-0.188-0.146-0.22-0.417-0.071-0.604
								l5.602-7.134c0.148-0.189,0.417-0.22,0.606-0.072c0.188,0.146,0.22,0.418,0.07,0.605l-5.604,7.132
								C192.837,29.857,192.776,29.902,192.707,29.929L192.707,29.929z"/>
						</g>
						<g>
							<path fill="#A7DAE9" d="M181.702,25.227c-0.068,0.027-0.143,0.038-0.222,0.024c-0.234-0.031-0.397-0.249-0.363-0.484
								l1.282-8.98c0.036-0.235,0.252-0.399,0.488-0.365c0.236,0.033,0.398,0.254,0.365,0.486l-1.285,8.98
								C181.945,25.044,181.841,25.171,181.702,25.227L181.702,25.227z"/>
						</g>
						<g>
							<path fill="#A7DAE9" d="M169.82,26.656c-0.222,0.09-0.473-0.018-0.561-0.238l-3.375-8.42
								c-0.089-0.221,0.019-0.471,0.239-0.56s0.471,0.019,0.559,0.239l3.376,8.42C170.146,26.318,170.041,26.569,169.82,26.656
								L169.82,26.656z"/>
						</g>
					</g>
				</g>
			</g>
			<g>
				<path fill="#FDC015" d="M326.313,88.001L326.3,77.973c0-2.562-1.139-4.001-2.095-4.757c-1.019-0.807-2.038-1.003-2.229-1.033
					l-0.147-0.024l-5.359,0.071c0.073-2.629,0.073-5.473-0.21-6.547c-0.331-1.236-1.295-2.004-2.515-2.004
					c-0.96,0-1.788,0.487-2.02,0.636l-0.287,0.187l-5.39,7.857l-8.678,3.152l-0.053,13.984l10.023,5.824l14.907-0.061l0.326-0.142
					C326.419,93.433,326.35,88.725,326.313,88.001z M322.021,93.865l-0.063,0.026l-14.248,0.06l-9.006-5.236l0.043-12.223
					l8.191-2.977l5.479-7.994l0.056-0.035c0.028-0.016,0.649-0.413,1.271-0.413c0.594,0,1.01,0.347,1.179,0.978
					c0.335,1.256,0.171,6.22,0.12,7.591l6.683-0.091l0.027,0.006c0.034,0.007,0.818,0.137,1.597,0.756
					c0.717,0.564,1.57,1.661,1.57,3.672l0.013,10.066C324.951,88.348,325.133,92.502,322.021,93.865z"/>
				<rect x="286.897" y="74.601" fill="#FDC015" width="8.701" height="16.492"/>
			</g>
			<polygon opacity="0.5" fill="#FFFFFF" points="269.628,162.743 269.628,161.177 268.852,161.177 268.852,160.392 
				268.063,160.392 268.063,159.607 267.273,159.607 267.273,158.821 266.494,158.821 266.494,158.048 265.706,158.048 
				265.706,157.25 264.93,157.25 264.93,156.47 264.144,156.47 264.144,155.685 263.355,155.685 263.355,154.903 262.569,154.903 
				262.569,154.116 261.787,154.116 261.787,153.332 261.005,153.332 261.005,152.55 260.217,152.55 260.217,165.886 
				261.787,165.886 261.787,165.093 262.569,165.093 262.569,164.311 263.355,164.311 263.355,163.525 264.144,163.525 
				264.144,165.093 264.93,165.093 264.93,166.664 265.706,166.664 265.706,167.453 267.273,167.453 267.273,166.664 
				268.063,166.664 268.063,165.093 267.273,165.093 267.273,163.525 266.494,163.525 266.494,162.743 			"/>
		</g>
	</g>
	<g>
		<g>
			<g>
				<g>
					<radialGradient id="SVGID_1_" cx="311.5303" cy="182.3447" r="40.0315" gradientUnits="userSpaceOnUse">
						<stop  offset="0.0121" style="stop-color:#FFFFFF"/>
						<stop  offset="1" style="stop-color:#EAE9EB"/>
					</radialGradient>
					<path fill="url(#SVGID_1_)" d="M326.352,184.29h-28.65c-4.523,0-8.203-3.681-8.203-8.204v-28.65
						c0-4.523,3.68-8.203,8.203-8.203h28.65c4.524,0,8.204,3.68,8.204,8.203v28.65C334.556,180.609,330.876,184.29,326.352,184.29z"
						/>
					<linearGradient id="SVGID_2_" gradientUnits="userSpaceOnUse" x1="312.0273" y1="139.2881" x2="312.0273" y2="171.6641">
						<stop  offset="0.0121" style="stop-color:#FFFFFF"/>
						<stop  offset="1" style="stop-color:#010101"/>
					</linearGradient>
					<path fill="url(#SVGID_2_)" d="M289.498,147.435v6.545c6.089,1.946,13.947,3.12,22.528,3.12s16.439-1.174,22.529-3.12v-6.545
						c0-4.523-3.68-8.203-8.204-8.203h-28.65C293.178,139.232,289.498,142.912,289.498,147.435z"/>
					<linearGradient id="SVGID_3_" gradientUnits="userSpaceOnUse" x1="290.8428" y1="161.7603" x2="333.2109" y2="161.7603">
						<stop  offset="0.0121" style="stop-color:#FFFFFF"/>
						<stop  offset="1" style="stop-color:#FFFFFF"/>
					</linearGradient>
					<path opacity="0.4" fill="url(#SVGID_3_)" d="M324.91,182.945h-25.768c-4.577,0-8.3-3.724-8.3-8.3v-25.769
						c0-4.576,3.723-8.301,8.3-8.301h25.768c4.577,0,8.301,3.725,8.301,8.301v25.769
						C333.211,179.221,329.487,182.945,324.91,182.945z M299.143,142.121c-3.726,0-6.756,3.031-6.756,6.756v25.769
						c0,3.725,3.03,6.756,6.756,6.756h25.768c3.726,0,6.756-3.031,6.756-6.756v-25.769c0-3.725-3.03-6.756-6.756-6.756H299.143z"/>
				</g>
				<path fill="#DDDDE0" d="M326.352,184.29h-28.65c-4.523,0-8.203-3.681-8.203-8.204v-28.65c0-4.523,3.68-8.203,8.203-8.203h28.65
					c4.524,0,8.204,3.68,8.204,8.203v28.65C334.556,180.609,330.876,184.29,326.352,184.29z M297.701,140.583
					c-3.778,0-6.853,3.074-6.853,6.853v28.65c0,3.779,3.074,6.853,6.853,6.853h28.65c3.778,0,6.853-3.073,6.853-6.853v-28.65
					c0-3.778-3.074-6.853-6.853-6.853H297.701z"/>
			</g>
			<g>
				<g>
					<path fill-rule="evenodd" clip-rule="evenodd" fill="#010101" d="M311.729,147.837c-0.229-0.042-0.535-0.042-0.772,0.003
						c-0.571,0.106-1.596,0.47-1.968,1.706c0,0-0.087,0.611-0.087,0.875v4.375c0,0,0.021,0.746,0.438,1.402
						c0.313,0.496,0.858,0.932,1.73,1.031c0.118,0.011,0.504,0.007,0.645-0.014c0.825-0.112,1.347-0.537,1.649-1.018
						c0.415-0.656,0.438-1.402,0.438-1.402v-4.375c0-0.264-0.086-0.875-0.086-0.875C313.34,148.296,312.295,147.939,311.729,147.837
						 M312.14,150.421v4.375c0,1.051-0.787,0.963-0.787,0.963s-0.875,0.088-0.875-0.963v-4.375c0-1.227,0.875-1.138,0.875-1.138
						C312.228,149.284,312.14,150.421,312.14,150.421 M305.663,149.546l-1.313-4.813h-1.926l2.363,7.35v4.99h1.75v-4.99l2.275-7.35
						h-1.838L305.663,149.546z M318.354,147.883v7.089c-0.264,0.611-0.963,0.787-0.963,0.787c-0.613,0-0.525-0.436-0.525-0.436
						v-7.44h-1.664v7.964c0,0.875,0.438,1.4,1.313,1.4c0.876,0,1.839-1.137,1.839-1.137v1.051h1.662v-9.278H318.354z"/>
					<path fill-rule="evenodd" clip-rule="evenodd" fill="#EE2D2F" d="M323.581,159.906c-2.026-0.353-4.323-0.266-11.643-0.353
						c-4.941,0-7.425,0.087-7.764,0.087c-3.178,0.179-5.384-0.262-6.178,3.179c-0.354,1.939-0.529,4.41-0.529,6.306
						c0.176,4.107-0.174,9.044,3.791,9.4c2.033,0.178,7.327,0.263,10.815,0.263c4.761,0,9.925-0.087,11.689-0.444
						c0.773-0.188,1.454-0.988,1.677-1.32c1.032-1.385,1.051-3.47,1.145-7.941C326.409,165.287,326.672,160.347,323.581,159.906
						 M306.026,164.317H304v10.681h-1.858v-10.681h-1.939v-1.852h5.824C306.026,162.465,306.114,164.317,306.026,164.317
						 M311.231,175.083h-1.677v-1.063c0,0-0.882,1.151-1.852,1.151s-1.326-0.619-1.326-1.764v-7.677h1.677v7.501
						c0,0,0,0.351,0.444,0.351c0.438,0,1.057-0.62,1.057-0.795v-7.057h1.677V175.083z M317.677,173.408c0,0-0.183,1.764-1.239,1.764
						c-1.058,0-1.677-0.619-2.027-1.057v0.969h-1.677v-12.531h1.677v4.062c0,0,0.882-1.062,1.677-1.062
						c0.794,0,1.59,0.529,1.59,1.677V173.408z M324.025,173.408c-0.262,1.59-2.208,1.764-2.208,1.764
						c-2.822,0-2.734-2.646-2.734-2.646v-4.413c0-0.354,0.175-0.883,0.175-0.883c0.183-0.528,0.357-1.589,2.472-1.589
						c2.472,0,2.384,2.472,2.384,2.472v2.563h-3.354v1.851c0,0.525,0.263,1.058,0.97,1.058s0.707-1.058,0.707-1.058v-0.707h1.677
						C324.113,171.818,324.201,172.255,324.025,173.408 M322.437,168.112c0,0-0.088-0.97-0.795-0.97
						c-0.706,0-0.882,0.794-0.882,0.97v1.147h1.677V168.112z M315.292,167.142c-0.443,0-0.794,0.354-0.794,0.354v5.736
						c0.263,0.351,0.794,0.351,0.794,0.351c0.708,0,0.708-0.795,0.708-0.795v-4.676C316,167.496,315.729,167.142,315.292,167.142"/>
				</g>
			</g>
		</g>
		<g>
			<path fill="#1AC1E2" d="M130.653,84.368h-28.65c-4.523,0-8.203-3.681-8.203-8.204v-28.65c0-4.523,3.68-8.203,8.203-8.203h28.65
				c4.523,0,8.203,3.68,8.203,8.203v28.65C138.856,80.687,135.177,84.368,130.653,84.368z"/>
			<path fill="#54C9EA" d="M93.8,47.513v6.545c6.089,1.946,13.947,3.121,22.528,3.121c8.582,0,16.44-1.175,22.528-3.121v-6.545
				c0-4.523-3.68-8.203-8.203-8.203h-28.65C97.479,39.31,93.8,42.99,93.8,47.513z"/>
			<g>
				<path fill="#FFFFFF" d="M103.368,51.33c0-3.609,2.924-6.544,6.542-6.544c3.608,0,6.544,2.935,6.544,6.544v0.692h7.082
					c3.607,0,6.542,2.935,6.542,6.543c0,3.406-2.597,6.265-5.907,6.591l0.01,0.049c3.311,0.337,5.897,3.214,5.897,6.609
					c0,3.609-2.935,6.544-6.542,6.544h-10.007c-6.072,0-10.161-4.696-10.161-10.719V51.33L103.368,51.33z"/>
				<linearGradient id="SVGID_4_" gradientUnits="userSpaceOnUse" x1="116.7227" y1="47.6714" x2="116.7227" y2="75.4712">
					<stop  offset="0" style="stop-color:#BBE5F3"/>
					<stop  offset="1" style="stop-color:#74D0ED"/>
				</linearGradient>
				<path fill="url(#SVGID_4_)" d="M109.916,47.671c2.011,0,3.656,1.646,3.656,3.658v3.578h9.968c2.011,0,3.656,1.646,3.656,3.657
					c0,2.021-1.646,3.657-3.656,3.657h-9.968v5.271c0,0.424,0.124,0.664,0.52,0.664h9.448c2.011,0,3.656,1.637,3.656,3.656
					c0,2.012-1.646,3.657-3.656,3.657h-9.044c-0.097,0-0.184-0.01-0.27-0.01c-5.37-0.144-7.978-3.541-7.978-8.198
					c0.01-0.048,0.01-0.096,0.01-0.154V51.33C106.259,49.318,107.895,47.671,109.916,47.671L109.916,47.671z"/>
			</g>
			<radialGradient id="SVGID_5_" cx="119.8271" cy="54.9229" r="3.2866" gradientUnits="userSpaceOnUse">
				<stop  offset="0.0121" style="stop-color:#FFFFFF"/>
				<stop  offset="1" style="stop-color:#010101"/>
			</radialGradient>
			<rect x="113.989" y="55.999" opacity="0.61" fill="url(#SVGID_5_)" width="11.324" height="1.265"/>
			<linearGradient id="SVGID_6_" gradientUnits="userSpaceOnUse" x1="109.8999" y1="43.1968" x2="109.8999" y2="55.3927">
				<stop  offset="0.0121" style="stop-color:#FFFFFF"/>
				<stop  offset="1" style="stop-color:#010101"/>
			</linearGradient>
			<circle fill="url(#SVGID_6_)" cx="109.9" cy="51.614" r="3.32"/>
			<path fill="#A4DDEE" d="M129.212,83.023h-25.768c-4.577,0-8.3-3.723-8.3-8.301V48.955c0-4.576,3.723-8.3,8.3-8.3h25.768
				c4.577,0,8.301,3.724,8.301,8.3v25.768C137.513,79.3,133.789,83.023,129.212,83.023z M103.444,42.199
				c-3.726,0-6.756,3.031-6.756,6.756v25.768c0,3.726,3.03,6.757,6.756,6.757h25.768c3.726,0,6.756-3.031,6.756-6.757V48.955
				c0-3.725-3.03-6.756-6.756-6.756H103.444z"/>
		</g>
		<g>
			<g>
				<g>
					
						<radialGradient id="SVGID_7_" cx="-1085.7617" cy="739.7715" r="47.5698" gradientTransform="matrix(0.8749 0.4843 -0.4843 0.8749 1525.3931 14.8425)" gradientUnits="userSpaceOnUse">
						<stop  offset="0.0121" style="stop-color:#5572B7"/>
						<stop  offset="1" style="stop-color:#365999"/>
					</radialGradient>
					<path fill="url(#SVGID_7_)" d="M231.479,146.786l-29.784-16.487c-4.703-2.603-6.411-8.546-3.809-13.248l16.486-29.785
						c2.604-4.703,8.547-6.411,13.25-3.809l29.784,16.488c4.703,2.604,6.411,8.546,3.809,13.248l-16.487,29.786
						C242.125,147.681,236.183,149.389,231.479,146.786z"/>
					<path fill="#6E8FC9" d="M258.141,100.351l-31.25-17.299c-4.322-2.393-9.765-0.828-12.158,3.494l-4.149,7.496
						c5.211,5.535,12.714,11.289,21.65,16.234c8.934,4.946,17.795,8.25,25.252,9.727l4.148-7.496
						C264.026,108.185,262.463,102.742,258.141,100.351z"/>
				</g>
				
					<radialGradient id="SVGID_8_" cx="-1085.1709" cy="715.3125" r="25.1719" gradientTransform="matrix(0.8749 0.4843 -0.4843 0.8749 1525.3931 14.8425)" gradientUnits="userSpaceOnUse">
					<stop  offset="0.0121" style="stop-color:#5572B7"/>
					<stop  offset="1" style="stop-color:#4E5962"/>
				</radialGradient>
				<path opacity="0.75" fill="url(#SVGID_8_)" d="M230.756,144.558l-26.789-14.828c-4.758-2.634-6.485-8.646-3.853-13.404
					l14.828-26.789c2.634-4.757,8.647-6.485,13.405-3.852l26.788,14.828c4.758,2.633,6.486,8.646,3.852,13.405l-14.828,26.788
					C241.526,145.464,235.513,147.193,230.756,144.558z M227.459,87.291c-3.873-2.144-8.768-0.736-10.911,3.136l-14.828,26.789
					c-2.144,3.871-0.736,8.767,3.136,10.91l26.788,14.827c3.873,2.145,8.768,0.737,10.91-3.135l14.828-26.789
					c2.144-3.872,0.737-8.767-3.136-10.91L227.459,87.291z"/>
			</g>
			<path fill="#FFFFFF" d="M229.84,139.025l-7.52-4.162l10.061-18.176l-3.759-2.08l3.469-6.266l3.758,2.08l2.082-3.76
				c2.828-5.11,6.632-6.975,12.659-3.639l5.018,2.777l-3.468,6.265l-3.135-1.735c-2.347-1.299-2.987-0.51-3.892,1.124l-1.744,3.13
				l5.684,3.146l-4.133,5.897l-5.02-2.778L229.84,139.025z"/>
		</g>
	</g>
</g>
</svg>
