<?xml version="1.0" encoding="utf-8"?>
<!-- Generator: Adobe Illustrator 16.0.0, SVG Export Plug-In . SVG Version: 6.00 Build 0)  -->
<!DOCTYPE svg PUBLIC "-//W3C//DTD SVG 1.1//EN" "http://www.w3.org/Graphics/SVG/1.1/DTD/svg11.dtd">
<svg version="1.1" id="Layer_1" xmlns="http://www.w3.org/2000/svg" xmlns:xlink="http://www.w3.org/1999/xlink" x="0px" y="0px"
	 width="104.477px" height="114.771px" viewBox="0 0 104.477 114.771" enable-background="new 0 0 104.477 114.771"
	 xml:space="preserve">
<g id="Guides_For_Artboard_2_">
</g>
<g id="Guides_For_Artboard_1_">
</g>
<g id="Guides_For_Artboard">
</g>
<g id="Layer_1_1_">
</g>
<g id="Layer_3">
</g>
<g id="Layer_4">
</g>
<g>
	<path fill="#A27729" d="M60.68,110.454c0,0-4.652-20.844-1.416-33.369c3.24-12.528,8.077-15.092,7.637-17.02
		c-0.439-1.926-2.879-1.063-3.683,0.698c-0.807,1.762-4.043,5.533-6.947,4.866c-2.903-0.662-3.486-12.646-5.602-13.877
		c-2.111-1.23-1.462,4.311-0.715,9.122c0.749,4.808-3.29,2.071-5.742-3.723c-2.451-5.793-3.965-4.133-4.261-3.322
		c-0.297,0.808,5.411,11.165,4.968,11.649c-0.441,0.482-7.664-8.147-8.382-7.915c-0.72,0.229-1.95,0.883-0.237,3.594
		c1.715,2.708,7.162,7.305,6.8,8.05c-0.366,0.748-4.867-3.429-6.531-3.552c-1.663-0.123-1.027,2.234,1.925,4.426
		c2.952,2.189,10.226,4.647,10.327,12.732c0.098,8.091-1.76,27.639-1.76,27.639"/>
	<path fill="#8AC551" d="M49.257,49.285c0,0-5.899-1.76-6.229-7.248c-0.333-5.485,2.488-10.183,2.488-10.183
		S57.453,39.804,49.257,49.285z"/>
	<path fill="#8AC551" d="M38.808,50.468c0,0-4.781-0.063-6.225-4.157c-1.442-4.086-0.362-8.253-0.362-8.253
		S42.856,41.517,38.808,50.468z"/>
	<path fill="#8AC551" d="M55.71,39.076c0,0-3.367-3.396-1.531-7.329c1.836-3.928,5.527-6.141,5.527-6.141
		S64.869,35.524,55.71,39.076z"/>
	<path fill="#8AC551" d="M34.755,56.767c0,0-3.788,1.173-5.969-1.689c-2.183-2.854-2.393-6.414-2.393-6.414
		S35.664,48.679,34.755,56.767z"/>
	<path fill="#8AC551" d="M34.93,65.567c0,0-2.872,2.733-6.099,1.149c-3.225-1.581-5.001-4.678-5.001-4.678
		S32.13,57.921,34.93,65.567z"/>
	<path fill="#8AC551" d="M37.133,71.657c0,0-0.592,3.922-4.114,4.642c-3.52,0.727-6.817-0.632-6.817-0.632
		S30.242,67.327,37.133,71.657z"/>
	<path fill="#8AC551" d="M27.47,68.769c0,0-0.793,3.887-4.342,4.431c-3.553,0.546-6.778-0.975-6.778-0.975
		S20.806,64.094,27.47,68.769z"/>
	<path fill="#8AC551" d="M28.482,57.506c0,0-2.767,2.838-6.049,1.378c-3.282-1.463-5.172-4.49-5.172-4.49
		S25.41,49.968,28.482,57.506z"/>
	<path fill="#8AC551" d="M22.732,62.844c0,0-1.474,2.923-4.421,2.58c-2.945-0.339-5.182-2.252-5.182-2.252
		S18.446,57.673,22.732,62.844z"/>
	<path fill="#8AC551" d="M28.452,44.284c0,0-2.954,1.406-5.076-0.664c-2.119-2.072-2.717-4.957-2.717-4.957
		S28.229,37.572,28.452,44.284z"/>
	<path fill="#8AC551" d="M19.786,37.308c0,0-2.385,1.134-4.098-0.538c-1.71-1.672-2.19-3.997-2.19-3.997
		S19.607,31.889,19.786,37.308z"/>
	<path fill="#8AC551" d="M30.872,36.612c0,0-3.201,0.677-4.779-1.835c-1.578-2.51-1.484-5.45-1.484-5.45
		S32.224,30.034,30.872,36.612z"/>
	<path fill="#8AC551" d="M31.836,26.352c0,0-3.204,0.675-4.78-1.835c-1.578-2.514-1.481-5.453-1.481-5.453
		S33.187,19.771,31.836,26.352z"/>
	<path fill="#8AC551" d="M48.871,16.771c0,0-2.228-2.398-0.885-5.043c1.344-2.644,3.917-4.073,3.917-4.073
		S55.209,14.548,48.871,16.771z"/>
	<path fill="#8AC551" d="M76.675,35.571c0,0-0.676-2.843,1.531-4.308c2.207-1.466,4.837-1.448,4.837-1.448
		S82.58,36.633,76.675,35.571z"/>
	<path fill="#8AC551" d="M88.261,52.051c0,0-0.676-2.844,1.53-4.306c2.208-1.464,4.835-1.447,4.835-1.447
		S94.166,53.114,88.261,52.051z"/>
	<path fill="#8AC551" d="M15.676,52.336c0,0-1.624,2.434-4.2,1.812c-2.576-0.619-4.35-2.559-4.35-2.559S12.436,47.291,15.676,52.336
		z"/>
	<path fill="#8AC551" d="M49.909,29.835c0,0-2.985-1.34-2.781-4.3c0.206-2.958,2.015-5.279,2.015-5.279S54.88,25.312,49.909,29.835z
		"/>
	<path fill="#8AC551" d="M22.775,49.779c0,0-2.954,1.402-5.075-0.665c-2.122-2.075-2.718-4.955-2.718-4.955
		S22.55,43.066,22.775,49.779z"/>
	<path fill="#8AC551" d="M38.861,38.527c0,0-4.528-1.332-4.814-5.601c-0.287-4.269,1.843-7.94,1.843-7.94
		S45.08,31.096,38.861,38.527z"/>
	<path fill="#8AC551" d="M56.148,55.885c0,0-4.054-4.634-1.405-9.451c2.645-4.818,7.534-7.288,7.534-7.288
		S68.141,52.229,56.148,55.885z"/>
	<path fill="#8AC551" d="M66.313,57.212c0,0-2.043-3.579,0.333-6.391c2.376-2.808,5.912-3.778,5.912-3.778
		S74.663,56.409,66.313,57.212z"/>
	<path fill="#8AC551" d="M74.989,54.008c0,0,0.061-4.12,3.534-5.333c3.477-1.208,7.014-0.247,7.014-0.247
		S82.59,57.563,74.989,54.008z"/>
	<path fill="#8AC551" d="M73.862,45.767c0,0,0.06-4.121,3.534-5.333c3.476-1.213,7.014-0.249,7.014-0.249
		S81.462,49.319,73.862,45.767z"/>
	<path fill="#8AC551" d="M67.343,42.839c0,0-2.045-3.58,0.332-6.389c2.376-2.812,5.912-3.78,5.912-3.78S75.694,42.037,67.343,42.839
		z"/>
	<path fill="#8AC551" d="M65.146,32.364c0,0-2.043-3.576,0.333-6.388c2.375-2.811,5.911-3.783,5.911-3.783
		S73.498,31.563,65.146,32.364z"/>
	<path fill="#8AC551" d="M55.17,23.659c0,0-2.044-3.581,0.333-6.39c2.375-2.809,5.913-3.777,5.913-3.777S63.521,22.854,55.17,23.659
		z"/>
	<path fill="#8AC551" d="M42.221,22.849c0,0-4.021-0.902-4.495-4.554c-0.474-3.646,1.194-6.914,1.194-6.914
		S47.257,16.138,42.221,22.849z"/>
	<path fill="#8AC551" d="M66.739,69.243c0,0,1.433-3.863,5.111-3.845c3.683,0.019,6.696,2.104,6.696,2.104
		S72.718,75.133,66.739,69.243z"/>
	<path fill="#8AC551" d="M68.663,61.371c0,0,1.311-3.875,4.593-3.89c3.284-0.017,5.955,2.048,5.955,2.048
		S73.942,67.203,68.663,61.371z"/>
	<path fill="#8AC551" d="M82.306,57.327c0,0,1.966-2.858,4.645-2.111c2.685,0.745,4.389,3.042,4.389,3.042
		S85.271,63.302,82.306,57.327z"/>
	<path fill="#8AC551" d="M81.081,64.424c0,0,1.964-2.859,4.646-2.112c2.683,0.745,4.385,3.042,4.385,3.042
		S84.044,70.397,81.081,64.424z"/>
</g>
</svg>
